<svg width="167" height="37" viewBox="0 0 167 37" fill="none" xmlns="http://www.w3.org/2000/svg">
<path d="M0.0502984 29.5566C-0.0431734 28.6191 -0.0431735 27.7285 0.37745 26.8379C0.611129 26.3691 0.798072 25.9004 1.03175 25.3379C1.2187 24.916 2.10668 23.6035 2.5273 23.416C3.50875 22.8066 4.58368 22.2441 5.75208 22.0098H6.07923C6.31291 22.0566 6.49985 22.1035 6.68679 22.1035C7.24762 22.1035 7.71498 21.9629 8.22908 21.9629C8.97685 21.9629 9.67789 21.9629 10.4257 21.9629C11.3136 21.916 12.3418 21.7754 13.2298 21.541C13.4635 21.541 13.6972 21.541 13.9309 21.4473C14.3047 21.3535 14.5852 21.0254 14.6319 20.5566C14.7254 19.9473 14.7721 19.3379 14.6319 18.7754V18.0723C14.5384 16.9004 14.258 15.916 13.8374 14.8379C13.7439 14.6504 13.6504 14.2754 13.4635 14.041C12.8092 13.291 12.0614 12.6348 11.08 12.3535C10.6126 12.2598 10.1452 12.166 9.67789 12.166C9.35074 12.166 9.02359 12.2129 8.6497 12.3066H8.55623C7.66825 12.8223 6.73353 13.291 6.21944 14.2754C5.93902 14.8848 5.93902 15.4473 6.35964 15.9629C6.40638 16.0566 6.49985 16.2441 6.54659 16.291C7.06068 16.9941 7.06068 17.7441 6.87374 18.4941C6.68679 19.0566 5.42493 20.041 4.91083 20.2754C4.53694 20.416 4.20979 20.5098 3.88264 20.5098C3.27507 20.5098 2.66751 20.2285 2.10668 19.8535C1.77953 19.7129 1.3589 18.3066 1.31217 17.9785C1.2187 17.6035 1.3589 17.2754 1.45238 16.8535C1.873 15.0723 3.78917 13.2441 5.14451 12.1191C5.6586 11.7441 6.21944 11.4629 6.827 11.2285C7.38783 10.9941 8.04214 10.8535 8.6497 10.666H8.83665C9.67789 10.6191 10.4724 10.5723 11.3136 10.5723C12.4353 10.5723 13.4635 10.7598 14.5384 11.041C15.0058 11.1816 15.4731 11.3223 15.9405 11.416C16.6415 11.6035 17.1556 11.9316 17.7165 12.3535C18.2773 12.8691 18.6979 13.4785 19.1653 14.0879C19.913 15.166 20.1467 16.4316 20.6141 17.6035V17.9785C20.6141 18.7285 20.801 19.4785 21.0347 20.2285C21.2217 20.7441 21.2684 21.2129 21.2684 21.7285C21.2684 22.7129 21.3151 23.6504 21.2684 24.6348C21.1282 25.8535 21.2217 27.0254 21.1282 28.2441C21.0814 29.1816 21.1749 30.1191 21.1749 31.0566C21.1749 31.6191 21.2684 32.2285 21.3619 32.7441C21.4086 32.9785 21.5488 33.1191 21.5955 33.2598C21.7825 33.6348 22.0162 33.8223 22.4368 33.8691C22.6705 33.8691 22.9041 33.9629 23.2313 34.0098C23.278 34.1973 23.278 34.3848 23.278 34.4785C22.9976 34.9473 22.6237 35.1816 22.1564 35.3691C21.876 35.4629 21.5488 35.5566 21.2684 35.6504C20.8478 35.8379 20.3804 35.9316 19.913 35.9316C19.4924 35.9316 19.0251 35.9316 18.6044 36.0723C18.511 36.1191 18.4175 36.1191 18.324 36.1191C18.0903 36.1191 17.8567 36.0254 17.6697 35.8848C16.9687 35.5098 16.3611 35.0879 15.9405 34.3848C15.4731 33.7285 15.3797 33.6348 14.6786 33.166C13.8374 33.541 12.9961 33.916 12.1549 34.291C11.9679 34.3848 11.781 34.5254 11.6408 34.6191C11.2669 34.9004 10.893 35.041 10.4724 35.1816C10.1452 35.2754 9.8181 35.416 9.49095 35.5566C9.1638 35.6973 8.78991 35.791 8.36929 35.791C7.94866 35.8379 7.52804 35.8848 7.06068 35.8848C6.40638 35.8848 5.79881 35.8379 5.14451 35.6973C4.20979 35.4629 3.27507 35.1816 2.48056 34.5723C2.34036 34.4785 2.20015 34.3379 2.05994 34.1504C1.68605 33.7285 1.31217 33.2129 0.93828 32.791C0.517657 32.3223 0.283978 31.8066 0.237242 31.1504C0.190506 30.6348 0.0970343 30.0723 0.0502984 29.5566ZM8.27582 25.291C7.76172 26.2285 7.3411 27.2598 7.38783 28.3848C7.38783 29.3223 7.38783 30.7754 8.27582 31.291C8.78991 31.7129 10.0985 32.041 10.7996 32.041C11.3136 31.9941 11.781 31.9941 12.2484 31.7598C12.7157 31.5723 13.2298 31.3379 13.6972 31.1035C14.5384 30.7285 14.8188 30.3066 14.7721 29.416C14.6786 28.7129 14.6319 28.0098 14.6319 27.3066V24.5879C14.6319 24.3066 14.6319 24.0723 14.445 23.791C14.3982 23.791 14.3982 23.7441 14.3515 23.7441C14.1178 23.6035 13.8374 23.6035 13.6037 23.6035C13.3233 23.6035 13.0896 23.6035 12.8559 23.6504C12.2951 23.6973 11.781 23.8379 11.2202 23.9316C10.4724 24.1191 8.69644 24.541 8.27582 25.291Z" fill="#F6F6F6"/>
<path d="M47.6563 26.5566C48.2638 26.6973 48.8714 26.8848 49.0116 27.6816C48.8247 28.2441 48.591 28.7598 48.2638 29.2754C47.7965 30.1191 47.2824 30.8691 46.7683 31.666C45.927 32.5098 45.1325 33.2598 43.9641 33.6816C42.7023 34.291 41.3937 34.9004 39.9916 35.0879C39.4308 35.2285 38.9167 35.2285 38.3558 35.2285C37.8417 35.2285 37.2809 35.2754 36.7668 35.2754C35.9256 35.2754 34.7572 35.0879 34.0094 34.666C33.7757 34.5723 33.542 34.5254 33.2616 34.4785C32.7008 34.4316 32.2334 34.1504 31.8128 33.916C31.1585 33.541 30.5042 33.166 29.8499 32.7441C29.6162 32.6035 29.3825 32.416 29.1956 32.1816C28.8217 31.6191 28.4478 31.0098 28.0739 30.4473C27.7468 29.8848 27.4664 29.3691 27.1392 28.8066C26.9523 28.4316 26.7653 28.0566 26.7186 27.6348C26.6719 27.3535 26.5317 27.1191 26.4849 26.8848C26.2512 26.3223 26.2045 25.8066 26.1578 25.2441C26.1578 24.5879 26.111 23.9785 26.0643 23.3691C26.0643 22.7129 26.0643 22.0566 26.2512 21.4004C26.3447 21.0723 26.3914 20.6973 26.3914 20.3223C26.3447 19.6191 26.5784 19.0098 26.8588 18.4473C27.186 17.7441 27.5131 17.0879 27.887 16.4316C28.0272 16.1504 28.1674 15.916 28.3544 15.7285C28.6815 15.4004 29.0087 15.0254 29.2891 14.6504C29.5228 14.2754 29.8499 14.041 30.2238 13.8066C30.6911 13.5723 31.065 13.291 31.3922 12.8223C31.6726 12.4004 32.2334 12.2129 32.7008 12.1191C33.5888 11.9785 34.43 11.6504 35.2245 11.416C35.8321 11.2285 36.4397 11.1348 37.0472 11.041C37.2809 10.9941 37.5146 10.9473 37.7483 10.9004C38.0287 10.8066 38.3091 10.7598 38.6362 10.7598C39.0569 10.7598 39.5242 10.8535 39.9449 10.9473C40.3187 11.041 40.6459 10.9941 41.0198 11.041C41.3002 11.041 41.5806 11.0879 41.861 11.1348C43.2631 11.6035 45.226 12.6816 46.114 13.9473C46.3477 14.2285 46.6281 14.4629 46.9085 14.7441C47.4693 15.3535 47.8432 16.1035 48.0769 16.9004C48.3573 18.0254 48.4508 19.1973 47.703 20.2285C47.4226 21.0254 46.815 21.4473 46.0205 21.6816C45.9738 21.6816 45.8803 21.7285 45.8336 21.7754C45.5064 21.9629 45.226 22.0098 44.8989 22.0098C44.525 22.0098 44.1978 21.916 43.8239 21.7285C43.4968 21.541 43.1229 21.3535 42.8425 21.1191C42.2816 20.7441 41.9545 20.1816 41.9545 19.5254C41.9545 19.0098 41.9078 18.4941 42.048 17.9785C42.0947 17.6973 42.2349 17.5098 42.3751 17.2754C42.749 16.8535 43.1229 16.4316 43.45 15.9629C43.8707 15.4473 44.0109 14.4629 43.2164 13.9941C42.0947 13.3379 41.0665 12.8691 39.7579 12.8691C39.4775 12.8691 38.4493 13.0098 38.2156 13.1035C37.2809 13.2441 35.5984 14.5098 34.9908 15.2129C34.8506 15.3535 34.7104 15.4941 34.617 15.6816C34.2431 16.3848 33.8692 17.1348 33.4953 17.8848C33.3551 18.2129 33.3084 18.6348 33.2616 19.0098C33.1681 19.5254 33.1682 20.0879 33.1214 20.6035C33.0747 21.166 32.9812 21.7754 32.9345 22.3379C32.9345 22.6191 32.9345 22.9004 32.9345 23.1816C32.9345 23.8379 33.0279 24.4941 33.0279 25.1504C32.9812 25.8535 33.1681 26.5098 33.2616 27.2129C33.3551 27.8223 33.5888 28.4316 33.8692 28.9941C33.9627 29.2285 34.0094 29.5098 34.1029 29.791C34.7104 31.4785 35.8321 32.6973 37.6081 33.0254C38.2624 33.166 38.9634 33.2598 39.6644 33.3535C42.6555 33.3535 46.114 30.2129 46.8618 27.4004C46.9552 26.9785 47.1889 26.6504 47.6563 26.5566Z" fill="#F6F6F6"/>
<path d="M51.8523 29.5566C51.7588 28.6191 51.7588 27.7285 52.1794 26.8379C52.4131 26.3691 52.6001 25.9004 52.8337 25.3379C53.0207 24.916 53.9087 23.6035 54.3293 23.416C55.3107 22.8066 56.3857 22.2441 57.5541 22.0098H57.8812C58.1149 22.0566 58.3018 22.1035 58.4888 22.1035C59.0496 22.1035 59.517 21.9629 60.0311 21.9629C60.7788 21.9629 61.4799 21.9629 62.2276 21.9629C63.1156 21.916 64.1438 21.7754 65.0318 21.541C65.2655 21.541 65.4992 21.541 65.7328 21.4473C66.1067 21.3535 66.3871 21.0254 66.4339 20.5566C66.5273 19.9473 66.5741 19.3379 66.4339 18.7754V18.0723C66.3404 16.9004 66.06 15.916 65.6394 14.8379C65.5459 14.6504 65.4524 14.2754 65.2655 14.041C64.6112 13.291 63.8634 12.6348 62.8819 12.3535C62.4146 12.2598 61.9472 12.166 61.4799 12.166C61.1527 12.166 60.8256 12.2129 60.4517 12.3066H60.3582C59.4702 12.8223 58.5355 13.291 58.0214 14.2754C57.741 14.8848 57.741 15.4473 58.1616 15.9629C58.2084 16.0566 58.3018 16.2441 58.3486 16.291C58.8627 16.9941 58.8627 17.7441 58.6757 18.4941C58.4888 19.0566 57.2269 20.041 56.7128 20.2754C56.3389 20.416 56.0118 20.5098 55.6846 20.5098C55.0771 20.5098 54.4695 20.2285 53.9087 19.8535C53.5815 19.7129 53.1609 18.3066 53.1141 17.9785C53.0207 17.6035 53.1609 17.2754 53.2544 16.8535C53.675 15.0723 55.5912 13.2441 56.9465 12.1191C57.4606 11.7441 58.0214 11.4629 58.629 11.2285C59.1898 10.9941 59.8441 10.8535 60.4517 10.666H60.6386C61.4799 10.6191 62.2744 10.5723 63.1156 10.5723C64.2373 10.5723 65.2655 10.7598 66.3404 11.041C66.8078 11.1816 67.2751 11.3223 67.7425 11.416C68.4435 11.6035 68.9576 11.9316 69.5184 12.3535C70.0793 12.8691 70.4999 13.4785 70.9673 14.0879C71.715 15.166 71.9487 16.4316 72.4161 17.6035V17.9785C72.4161 18.7285 72.603 19.4785 72.8367 20.2285C73.0236 20.7441 73.0704 21.2129 73.0704 21.7285C73.0704 22.7129 73.1171 23.6504 73.0704 24.6348C72.9302 25.8535 73.0236 27.0254 72.9302 28.2441C72.8834 29.1816 72.9769 30.1191 72.9769 31.0566C72.9769 31.6191 73.0704 32.2285 73.1638 32.7441C73.2106 32.9785 73.3508 33.1191 73.3975 33.2598C73.5845 33.6348 73.8181 33.8223 74.2388 33.8691C74.4724 33.8691 74.7061 33.9629 75.0333 34.0098C75.08 34.1973 75.08 34.3848 75.08 34.4785C74.7996 34.9473 74.4257 35.1816 73.9584 35.3691C73.6779 35.4629 73.3508 35.5566 73.0704 35.6504C72.6497 35.8379 72.1824 35.9316 71.715 35.9316C71.2944 35.9316 70.827 35.9316 70.4064 36.0723C70.313 36.1191 70.2195 36.1191 70.126 36.1191C69.8923 36.1191 69.6587 36.0254 69.4717 35.8848C68.7707 35.5098 68.1631 35.0879 67.7425 34.3848C67.2751 33.7285 67.1816 33.6348 66.4806 33.166C65.6394 33.541 64.7981 33.916 63.9569 34.291C63.7699 34.3848 63.583 34.5254 63.4428 34.6191C63.0689 34.9004 62.695 35.041 62.2744 35.1816C61.9472 35.2754 61.6201 35.416 61.2929 35.5566C60.9658 35.6973 60.5919 35.791 60.1713 35.791C59.7506 35.8379 59.33 35.8848 58.8627 35.8848C58.2084 35.8848 57.6008 35.8379 56.9465 35.6973C56.0118 35.4629 55.0771 35.1816 54.2825 34.5723C54.1423 34.4785 54.0021 34.3379 53.8619 34.1504C53.488 33.7285 53.1141 33.2129 52.7403 32.791C52.3196 32.3223 52.086 31.8066 52.0392 31.1504C51.9925 30.6348 51.899 30.0723 51.8523 29.5566ZM60.0778 25.291C59.5637 26.2285 59.1431 27.2598 59.1898 28.3848C59.1898 29.3223 59.1898 30.7754 60.0778 31.291C60.5919 31.7129 61.9005 32.041 62.6015 32.041C63.1156 31.9941 63.583 31.9941 64.0503 31.7598C64.5177 31.5723 65.0318 31.3379 65.4992 31.1035C66.3404 30.7285 66.6208 30.3066 66.5741 29.416C66.4806 28.7129 66.4339 28.0098 66.4339 27.3066V24.5879C66.4339 24.3066 66.4339 24.0723 66.2469 23.791C66.2002 23.791 66.2002 23.7441 66.1535 23.7441C65.9198 23.6035 65.6394 23.6035 65.4057 23.6035C65.1253 23.6035 64.8916 23.6035 64.6579 23.6504C64.0971 23.6973 63.583 23.8379 63.0222 23.9316C62.2744 24.1191 60.4984 24.541 60.0778 25.291Z" fill="#F6F6F6"/>
<path d="M77.8663 3.77539C78.0065 3.49414 78.1467 3.30664 78.3804 3.21289C79.0347 3.02539 79.5488 2.65039 80.1096 2.27539C80.7639 1.85352 81.4649 1.61914 82.2127 1.43164C83.054 1.19727 83.8485 0.869142 84.5962 0.400393C84.9234 0.212892 84.9701 0.119141 85.344 0.119141C85.3908 0.119141 85.4842 0.119141 85.5777 0.119141C86.0451 0.400393 86.0451 0.822268 85.9983 1.24414C85.9516 1.57227 85.9049 1.85352 85.9049 2.18164C85.9049 3.72852 85.9049 5.27539 85.9049 6.82226C85.8581 7.43164 85.7646 8.08789 85.8114 8.74414C85.9516 10.3379 85.8581 11.9785 85.9049 13.6191C85.9516 14.1816 86.0451 14.7441 86.0918 15.3066C86.0918 15.4941 86.0918 15.7285 86.0918 15.916C86.0451 16.666 86.0451 17.416 85.9983 18.2129C85.9983 18.6816 85.9516 19.1973 85.8581 19.666C85.7646 20.0879 85.8114 20.4629 85.8114 20.8848C85.7646 23.041 85.7646 25.1504 85.8114 27.3066C85.8114 27.7285 85.9048 28.1973 85.9983 28.666C85.9983 28.8066 85.9983 28.9473 85.9983 29.0879C85.9983 29.5566 85.9983 30.0254 85.9983 30.541C85.9983 31.5254 86.232 32.4629 86.5592 33.3535C86.6994 33.8223 86.9798 34.1973 87.4004 34.4785C87.6341 34.6191 87.9145 34.7129 87.9145 35.041C87.9145 35.1816 87.7743 35.3223 87.6341 35.3223C86.6994 35.5098 85.9516 35.5098 85.0169 35.5098C84.3158 35.5098 83.5681 35.5098 82.867 35.5098C82.7735 35.5098 82.6333 35.5098 82.5399 35.4629C81.091 34.8066 79.9694 33.8223 79.6422 32.1816C79.5955 31.7598 79.4553 31.291 79.5488 30.7754C79.5955 30.6348 79.5955 30.4941 79.5955 30.3535C79.5955 29.8379 79.6422 29.2754 79.689 28.7129C79.689 28.3848 79.6422 28.1035 79.6422 27.7754C79.6422 27.7285 79.5955 27.6816 79.5955 27.6348C79.5488 26.7441 79.4553 25.8535 79.502 24.9629C79.6422 23.041 79.5488 21.166 79.5955 19.2441C79.5955 18.3535 79.502 17.4629 79.502 16.5723C79.502 16.3848 79.5488 16.1504 79.5488 15.9629C79.5488 15.8691 79.5955 15.8223 79.5955 15.7285C79.4553 15.2129 79.5488 14.7441 79.5955 14.2285C79.5955 13.291 79.4553 12.3535 79.4086 11.416C79.3618 10.5254 79.3151 9.63477 79.4553 8.74414C79.502 8.41602 79.502 8.08789 79.4553 7.71289C79.4086 6.54102 79.2683 5.08789 78.2869 4.24414C78.1467 4.10352 78.0065 3.91602 77.8663 3.77539Z" fill="#F6F6F6"/>
<path d="M90.7369 23.416C90.7369 20.9316 91.251 17.791 92.9335 15.8691C93.2606 15.5879 93.4943 15.2129 93.7747 14.9316C93.8682 14.791 93.9149 14.6973 94.0551 14.6035C94.8029 13.8535 95.5974 13.1973 96.5321 12.5879C96.5321 12.541 96.5789 12.541 96.6256 12.4941C97.4669 12.166 98.3081 11.7441 99.1494 11.416C99.4765 11.2754 99.8037 11.2754 100.131 11.2285C100.598 11.1348 101.066 11.041 101.533 10.9473C101.767 10.9473 102.047 10.9004 102.327 10.9004C102.655 10.8535 103.028 10.8066 103.356 10.8066C103.636 10.8066 103.87 10.8066 104.15 10.8535C104.804 10.9941 105.459 11.1348 106.113 11.2754C107.281 11.5098 108.403 12.0254 109.385 12.7285C109.478 12.7754 109.525 12.8691 109.618 12.8691C110.272 13.1504 111.301 14.1348 111.862 14.6973C112.376 15.166 112.843 15.7285 113.17 16.3848C113.497 17.041 113.778 17.791 114.105 18.4941C114.572 19.3379 114.759 20.2754 114.993 21.2598C115.18 22.2441 115.227 23.2285 115.18 24.2598C115.086 25.3379 114.993 26.416 114.619 27.4473C114.292 28.4785 113.03 30.4941 112.235 31.291C112.095 31.5254 111.862 31.666 111.675 31.8535C110.787 33.0254 108.543 34.5723 107.235 34.9004C106.767 35.041 106.253 35.1816 105.786 35.3691C105.599 35.416 105.459 35.5566 105.272 35.5566C104.524 35.5566 103.776 35.5566 103.028 35.5098C102.982 35.5098 102.888 35.4629 102.841 35.4629C102.281 35.416 101.673 35.416 101.112 35.3691C100.925 35.3223 100.738 35.2754 100.505 35.2754C99.9439 35.1816 99.3363 35.041 98.7287 34.9473C98.1212 34.9004 97.5603 34.5723 97.0462 34.1973C96.0181 33.541 95.0833 32.8379 94.2421 31.9473C94.1486 31.8535 94.0552 31.7598 93.9617 31.7129C93.3074 31.3379 92.8867 30.7285 92.5129 30.1191C92.139 29.5566 91.8586 28.9004 91.5314 28.291C91.3912 27.916 91.2977 27.541 91.2977 27.1191C91.251 26.6973 91.1575 26.2285 90.9706 25.8535C90.7836 25.3848 90.7369 24.916 90.7369 24.4473C90.7836 24.1191 90.7369 23.791 90.7369 23.416ZM109.385 27.541C109.385 27.3066 109.385 27.0723 109.385 26.8379C109.338 26.2285 109.244 25.5723 109.198 24.9629C109.151 24.2598 109.057 23.6035 108.777 22.9473C108.73 22.8066 108.683 22.666 108.683 22.5254C108.31 19.6191 105.739 14.6504 103.075 13.7129C102.795 13.6191 102.514 13.5723 102.234 13.4316C102 13.3379 101.767 13.3379 101.486 13.3379C99.7102 13.3379 98.7755 14.791 98.2614 16.291C97.6071 17.6973 97.2799 19.2441 97.093 20.7441C97.0462 20.9316 97.093 21.1191 97.093 21.3535C97.093 21.6816 97.1397 22.0566 97.1865 22.4316C97.1865 23.6504 97.5603 25.1973 98.0277 26.2754C98.3548 26.9316 98.5418 27.6816 98.9157 28.291C99.4765 29.3223 100.178 30.2598 100.972 31.1035C101.299 31.3848 101.626 31.666 101.954 31.9473C102.748 32.7441 103.636 33.3535 104.758 33.4941C104.898 33.4941 105.038 33.541 105.178 33.541C105.739 33.541 106.3 33.4004 106.767 33.1191C107.749 32.6035 108.777 31.1973 109.011 30.1191C109.244 29.2754 109.431 28.4316 109.385 27.541Z" fill="#F6F6F6"/>
<path d="M139.576 26.5566C140.184 26.6973 140.791 26.8848 140.932 27.6816C140.745 28.2441 140.511 28.7598 140.184 29.2754C139.716 30.1191 139.202 30.8691 138.688 31.666C137.847 32.5098 137.053 33.2598 135.884 33.6816C134.622 34.291 133.314 34.9004 131.912 35.0879C131.351 35.2285 130.837 35.2285 130.276 35.2285C129.762 35.2285 129.201 35.2754 128.687 35.2754C127.846 35.2754 126.677 35.0879 125.929 34.666C125.696 34.5723 125.462 34.5254 125.182 34.4785C124.621 34.4316 124.153 34.1504 123.733 33.916C123.078 33.541 122.424 33.166 121.77 32.7441C121.536 32.6035 121.303 32.416 121.116 32.1816C120.742 31.6191 120.368 31.0098 119.994 30.4473C119.667 29.8848 119.386 29.3691 119.059 28.8066C118.872 28.4316 118.685 28.0566 118.639 27.6348C118.592 27.3535 118.452 27.1191 118.405 26.8848C118.171 26.3223 118.124 25.8066 118.078 25.2441C118.078 24.5879 118.031 23.9785 117.984 23.3691C117.984 22.7129 117.984 22.0566 118.171 21.4004C118.265 21.0723 118.311 20.6973 118.311 20.3223C118.265 19.6191 118.498 19.0098 118.779 18.4473C119.106 17.7441 119.433 17.0879 119.807 16.4316C119.947 16.1504 120.087 15.916 120.274 15.7285C120.601 15.4004 120.929 15.0254 121.209 14.6504C121.443 14.2754 121.77 14.041 122.144 13.8066C122.611 13.5723 122.985 13.291 123.312 12.8223C123.593 12.4004 124.153 12.2129 124.621 12.1191C125.509 11.9785 126.35 11.6504 127.145 11.416C127.752 11.2285 128.36 11.1348 128.967 11.041C129.201 10.9941 129.435 10.9473 129.668 10.9004C129.949 10.8066 130.229 10.7598 130.556 10.7598C130.977 10.7598 131.444 10.8535 131.865 10.9473C132.239 11.041 132.566 10.9941 132.94 11.041C133.22 11.041 133.501 11.0879 133.781 11.1348C135.183 11.6035 137.146 12.6816 138.034 13.9473C138.268 14.2285 138.548 14.4629 138.828 14.7441C139.389 15.3535 139.763 16.1035 139.997 16.9004C140.277 18.0254 140.371 19.1973 139.623 20.2285C139.343 21.0254 138.735 21.4473 137.941 21.6816C137.894 21.6816 137.8 21.7285 137.754 21.7754C137.426 21.9629 137.146 22.0098 136.819 22.0098C136.445 22.0098 136.118 21.916 135.744 21.7285C135.417 21.541 135.043 21.3535 134.762 21.1191C134.202 20.7441 133.874 20.1816 133.874 19.5254C133.874 19.0098 133.828 18.4941 133.968 17.9785C134.015 17.6973 134.155 17.5098 134.295 17.2754C134.669 16.8535 135.043 16.4316 135.37 15.9629C135.791 15.4473 135.931 14.4629 135.136 13.9941C134.015 13.3379 132.986 12.8691 131.678 12.8691C131.397 12.8691 130.369 13.0098 130.136 13.1035C129.201 13.2441 127.518 14.5098 126.911 15.2129C126.771 15.3535 126.63 15.4941 126.537 15.6816C126.163 16.3848 125.789 17.1348 125.415 17.8848C125.275 18.2129 125.228 18.6348 125.182 19.0098C125.088 19.5254 125.088 20.0879 125.041 20.6035C124.995 21.166 124.901 21.7754 124.854 22.3379C124.854 22.6191 124.854 22.9004 124.854 23.1816C124.854 23.8379 124.948 24.4941 124.948 25.1504C124.901 25.8535 125.088 26.5098 125.182 27.2129C125.275 27.8223 125.509 28.4316 125.789 28.9941C125.883 29.2285 125.929 29.5098 126.023 29.791C126.63 31.4785 127.752 32.6973 129.528 33.0254C130.182 33.166 130.883 33.2598 131.584 33.3535C134.576 33.3535 138.034 30.2129 138.782 27.4004C138.875 26.9785 139.109 26.6504 139.576 26.5566Z" fill="#F6F6F6"/>
<path d="M143.772 29.5566C143.679 28.6191 143.679 27.7285 144.099 26.8379C144.333 26.3691 144.52 25.9004 144.754 25.3379C144.941 24.916 145.829 23.6035 146.249 23.416C147.231 22.8066 148.306 22.2441 149.474 22.0098H149.801C150.035 22.0566 150.222 22.1035 150.409 22.1035C150.97 22.1035 151.437 21.9629 151.951 21.9629C152.699 21.9629 153.4 21.9629 154.148 21.9629C155.036 21.916 156.064 21.7754 156.952 21.541C157.185 21.541 157.419 21.541 157.653 21.4473C158.027 21.3535 158.307 21.0254 158.354 20.5566C158.447 19.9473 158.494 19.3379 158.354 18.7754V18.0723C158.26 16.9004 157.98 15.916 157.559 14.8379C157.466 14.6504 157.372 14.2754 157.185 14.041C156.531 13.291 155.783 12.6348 154.802 12.3535C154.335 12.2598 153.867 12.166 153.4 12.166C153.073 12.166 152.746 12.2129 152.372 12.3066H152.278C151.39 12.8223 150.456 13.291 149.941 14.2754C149.661 14.8848 149.661 15.4473 150.082 15.9629C150.128 16.0566 150.222 16.2441 150.269 16.291C150.783 16.9941 150.783 17.7441 150.596 18.4941C150.409 19.0566 149.147 20.041 148.633 20.2754C148.259 20.416 147.932 20.5098 147.605 20.5098C146.997 20.5098 146.389 20.2285 145.829 19.8535C145.501 19.7129 145.081 18.3066 145.034 17.9785C144.941 17.6035 145.081 17.2754 145.174 16.8535C145.595 15.0723 147.511 13.2441 148.866 12.1191C149.381 11.7441 149.941 11.4629 150.549 11.2285C151.11 10.9941 151.764 10.8535 152.372 10.666H152.559C153.4 10.6191 154.194 10.5723 155.036 10.5723C156.157 10.5723 157.185 10.7598 158.26 11.041C158.728 11.1816 159.195 11.3223 159.662 11.416C160.364 11.6035 160.878 11.9316 161.438 12.3535C161.999 12.8691 162.42 13.4785 162.887 14.0879C163.635 15.166 163.869 16.4316 164.336 17.6035V17.9785C164.336 18.7285 164.523 19.4785 164.757 20.2285C164.944 20.7441 164.99 21.2129 164.99 21.7285C164.99 22.7129 165.037 23.6504 164.99 24.6348C164.85 25.8535 164.944 27.0254 164.85 28.2441C164.803 29.1816 164.897 30.1191 164.897 31.0566C164.897 31.6191 164.99 32.2285 165.084 32.7441C165.131 32.9785 165.271 33.1191 165.318 33.2598C165.504 33.6348 165.738 33.8223 166.159 33.8691C166.392 33.8691 166.626 33.9629 166.953 34.0098C167 34.1973 167 34.3848 167 34.4785C166.72 34.9473 166.346 35.1816 165.878 35.3691C165.598 35.4629 165.271 35.5566 164.99 35.6504C164.57 35.8379 164.102 35.9316 163.635 35.9316C163.214 35.9316 162.747 35.9316 162.326 36.0723C162.233 36.1191 162.139 36.1191 162.046 36.1191C161.812 36.1191 161.579 36.0254 161.392 35.8848C160.691 35.5098 160.083 35.0879 159.662 34.3848C159.195 33.7285 159.102 33.6348 158.401 33.166C157.559 33.541 156.718 33.916 155.877 34.291C155.69 34.3848 155.503 34.5254 155.363 34.6191C154.989 34.9004 154.615 35.041 154.194 35.1816C153.867 35.2754 153.54 35.416 153.213 35.5566C152.886 35.6973 152.512 35.791 152.091 35.791C151.671 35.8379 151.25 35.8848 150.783 35.8848C150.128 35.8848 149.521 35.8379 148.866 35.6973C147.932 35.4629 146.997 35.1816 146.203 34.5723C146.062 34.4785 145.922 34.3379 145.782 34.1504C145.408 33.7285 145.034 33.2129 144.66 32.791C144.24 32.3223 144.006 31.8066 143.959 31.1504C143.912 30.6348 143.819 30.0723 143.772 29.5566ZM151.998 25.291C151.484 26.2285 151.063 27.2598 151.11 28.3848C151.11 29.3223 151.11 30.7754 151.998 31.291C152.512 31.7129 153.82 32.041 154.522 32.041C155.036 31.9941 155.503 31.9941 155.97 31.7598C156.438 31.5723 156.952 31.3379 157.419 31.1035C158.26 30.7285 158.541 30.3066 158.494 29.416C158.401 28.7129 158.354 28.0098 158.354 27.3066V24.5879C158.354 24.3066 158.354 24.0723 158.167 23.791C158.12 23.791 158.12 23.7441 158.073 23.7441C157.84 23.6035 157.559 23.6035 157.326 23.6035C157.045 23.6035 156.812 23.6035 156.578 23.6504C156.017 23.6973 155.503 23.8379 154.942 23.9316C154.194 24.1191 152.418 24.541 151.998 25.291Z" fill="#F6F6F6"/>
</svg>
