<?xml version="1.0" encoding="UTF-8"?>
<svg version="1.1" xmlns="http://www.w3.org/2000/svg" width="382" height="399">
<path d="M0 0 C2.30743937 0.30765858 3.77968224 0.84496158 5.6875 2.1875 C7.47673254 4.65834493 7.56822709 7.01794225 8 10 C9.05316406 10.14695313 10.10632813 10.29390625 11.19140625 10.4453125 C33.57909639 13.8175825 53.05153616 23.78066056 67.125 42.0625 C75.66587118 54.48558535 80.48993852 67.41974464 84 82 C84.33 82 84.66 82 85 82 C85.33 83.98 85.66 85.96 86 88 C88.31 88.66 90.62 89.32 93 90 C92.125 94.75 92.125 94.75 91 97 C89.02 97 87.04 97 85 97 C85 98.65 85 100.3 85 102 C84.01 102.495 84.01 102.495 83 103 C82.38879277 105.52047338 81.86794923 108.01882659 81.375 110.5625 C76.94518024 131.0863162 63.94708177 148.69188209 47 161 C44.42572785 162.520567 41.77662789 163.81150291 39.0625 165.0625 C38.32249756 165.40539062 37.58249512 165.74828125 36.82006836 166.1015625 C26.67150576 170.65677865 16.24753916 173.95273273 5 173 C5.01160156 173.63808594 5.02320313 174.27617187 5.03515625 174.93359375 C5.04417969 175.75988281 5.05320312 176.58617187 5.0625 177.4375 C5.07410156 178.26121094 5.08570313 179.08492187 5.09765625 179.93359375 C5 182 5 182 4 183 C2.35 183 0.7 183 -1 183 C-1 179.7 -1 176.4 -1 173 C-2.5675 173.061875 -4.135 173.12375 -5.75 173.1875 C-20.46609575 173.14981474 -33.68660339 167.02088578 -45.50390625 158.671875 C-47.96287831 156.86503819 -47.96287831 156.86503819 -51 156 C-53.54750437 153.53169265 -55.72536824 150.71899889 -58 148 C-58.71800781 147.20335937 -59.43601563 146.40671875 -60.17578125 145.5859375 C-70.03098591 134.3179833 -75.59307963 121.470446 -79 107 C-79.22429687 106.05253906 -79.44859375 105.10507812 -79.6796875 104.12890625 C-80.14380091 102.09125767 -80.57658759 100.04649332 -81 98 C-82.11375 97.9175 -83.2275 97.835 -84.375 97.75 C-88 97 -88 97 -89.5 95.1875 C-90.06091226 92.73350886 -89.83927091 91.34995854 -89 89 C-86.69 89 -84.38 89 -82 89 C-80.45849795 84.72021794 -79.54347905 80.60899231 -78.8125 76.125 C-75.07777909 56.09149705 -63.16837271 37.38285761 -46.609375 25.4921875 C-32.67186059 15.97002203 -17.82693629 10.85162505 -1 10 C-1.01160156 9.36191406 -1.02320313 8.72382813 -1.03515625 8.06640625 C-1.04417969 7.24011719 -1.05320312 6.41382813 -1.0625 5.5625 C-1.07410156 4.73878906 -1.08570313 3.91507813 -1.09765625 3.06640625 C-1 1 -1 1 0 0 Z M5 22 C5 28.27 5 34.54 5 41 C5.66 40.67 6.32 40.34 7 40 C8.34640905 40.63984755 9.67685546 41.31333361 11 42 C13.07601716 42.62884647 15.16032171 43.2306583 17.25 43.8125 C22.85581176 45.5161657 27.35012478 47.4529798 32 51 C32.66515625 51.49113281 33.3303125 51.98226562 34.015625 52.48828125 C45.6993809 61.83082652 49.86785447 74.9053451 53 89 C59.27 89 65.54 89 72 89 C71.17411964 69.17887137 62.97196933 52.5465694 48.69140625 38.7734375 C36.81550816 28.6720989 22.48245775 22.83923603 7 22 C7 22.66 7 23.32 7 24 C6.34 23.34 5.68 22.68 5 22 Z M-15.75 23.75 C-16.82362793 24.01852783 -16.82362793 24.01852783 -17.91894531 24.29248047 C-23.03058961 25.62569977 -27.40627041 27.34977139 -32 30 C-32.96099609 30.45826172 -32.96099609 30.45826172 -33.94140625 30.92578125 C-50.0973145 39.35628366 -60.3611595 55.04976491 -66.08984375 71.80859375 C-67.81273418 77.84980182 -68 82.56350722 -68 89 C-62.39 89 -56.78 89 -51 89 C-51 88.34 -51 87.68 -51 87 C-50.34 87.66 -49.68 88.32 -49 89 C-48.90525391 87.94425781 -48.90525391 87.94425781 -48.80859375 86.8671875 C-46.96236501 71.98075362 -39.45824975 59.46663119 -27.6875 50.1875 C-19.51319266 44.86381716 -10.55138592 42.38243744 -1 41 C-1 34.73 -1 28.46 -1 22 C-1.99 22 -2.98 22 -4 22 C-8.15205501 22 -11.75920294 22.74815325 -15.75 23.75 Z M5 52 C5 57.94 5 63.88 5 70 C6.381875 70.391875 7.76375 70.78375 9.1875 71.1875 C16.45019401 73.63495958 19.64947136 78.41860445 23 85 C23.33 86.32 23.66 87.64 24 89 C29.61 89 35.22 89 41 89 C40.54914173 78.47997363 37.23296836 70.55764467 30.0078125 62.81640625 C23.29865794 56.74684036 14.20374322 52 5 52 Z M-27.5625 64.1875 C-33.28780801 70.11547378 -36.62777096 76.90384869 -38 85 C-37.67 86.32 -37.34 87.64 -37 89 C-31.72 89 -26.44 89 -21 89 C-19.700625 86.1846875 -19.700625 86.1846875 -18.375 83.3125 C-14.88841271 76.38820281 -11.9386039 73.02023391 -4.625 70.1875 C-2.830625 69.5996875 -2.830625 69.5996875 -1 69 C-1 64.05 -1 59.1 -1 54 C-11.62029924 51.6828438 -19.86961442 57.00747345 -27.5625 64.1875 Z M-88 95 C-88 95.33 -88 95.66 -88 96 C-86.02 96 -84.04 96 -82 96 C-82 95.67 -82 95.34 -82 95 C-83.98 95 -85.96 95 -88 95 Z M-38 95 C-37.08646578 107.33271197 -32.23401215 115.72570259 -23 124 C-15.88610144 129.09562959 -9.70886115 131 -1 131 C-1 125.39 -1 119.78 -1 114 C-2.381875 113.5875 -3.76375 113.175 -5.1875 112.75 C-10.50722471 111.16202247 -13.92552967 108.79932992 -16.80078125 103.984375 C-18.90039062 99.4921875 -18.90039062 99.4921875 -21 95 C-25.95 95 -30.9 95 -36 95 C-36 95.66 -36 96.32 -36 97 C-36.66 96.34 -37.32 95.68 -38 95 Z M24 95 C23.484375 96.52625 22.96875 98.0525 22.4375 99.625 C19.72714612 106.37225421 15.70138172 109.94466153 9.125 112.875 C6 114 6 114 5 114 C5 119.94 5 125.88 5 132 C17.83343705 129.5684014 26.64694207 125.2274914 35 115 C39.23248113 108.59351492 40.82128191 102.63613655 41 95 C40.34 95.33 39.68 95.66 39 96 C39 95.67 39 95.34 39 95 C34.05 95 29.1 95 24 95 Z M53 95 C52.76925781 95.96679688 52.53851563 96.93359375 52.30078125 97.9296875 C48.46609549 113.47868745 42.16641281 125.2017393 29 135 C22.17560042 138.71711977 14.48401367 141.00426302 7 143 C7 143.66 7 144.32 7 145 C6.34 144.34 5.68 143.68 5 143 C5 149.27 5 155.54 5 162 C5.99 161.505 5.99 161.505 7 161 C7.99 161.33 8.98 161.66 10 162 C19.19500095 160.66002499 27.57071807 158.69578282 35 153 C36.65816784 152.31246699 38.32459336 151.64438717 40 151 C43.99298931 148.33800712 47.43783966 145.20594431 51 142 C51.59296875 141.49726563 52.1859375 140.99453125 52.796875 140.4765625 C63.77331905 130.55748233 70.12964117 114.42145097 72 100 C72.02800725 98.33356867 72.03532775 96.66629221 72 95 C71.34 95.33 70.68 95.66 70 96 C70 95.67 70 95.34 70 95 C65.05 95 60.1 95 55 95 C55 95.66 55 96.32 55 97 C54.34 96.34 53.68 95.68 53 95 Z M-68 95 C-69.25189754 110.33574489 -61.88055298 126.12164147 -52.21484375 137.60546875 C-47.02232471 143.21925035 -42.16163676 148.18691846 -35 151 C-33.99735101 151.99734397 -32.99743919 152.99744573 -32 154 C-22.35555639 159.02123413 -11.8614708 162 -1 162 C-1 156.39 -1 150.78 -1 145 C-1.99 145 -2.98 145 -4 145 C-4 144.34 -4 143.68 -4 143 C-5.02738281 142.72027344 -6.05476563 142.44054687 -7.11328125 142.15234375 C-23.4851872 137.49729487 -35.07072652 130.1682596 -43.4921875 115.0625 C-46.74744303 108.45078928 -47.95815724 102.2928993 -49 95 C-54.61 95 -60.22 95 -66 95 C-66 95.33 -66 95.66 -66 96 C-60.72 96 -55.44 96 -50 96 C-51.98119355 97.98119355 -55.73445064 97.18500411 -58.4375 97.1875 C-59.47874023 97.20586914 -59.47874023 97.20586914 -60.54101562 97.22460938 C-62.36220901 97.22989842 -64.1828692 97.12169207 -66 97 C-66.66 96.34 -67.32 95.68 -68 95 Z " fill="#020202" transform="translate(289,215)"/>
<path d="M0 0 C2.57164507 0.00314589 5.14212062 -0.02031081 7.71362305 -0.0456543 C30.40140827 -0.13358457 55.67510682 4.8429839 72.40698242 21.31567383 C76.88325031 26.94505737 80.15837889 32.96451173 79.40698242 40.31567383 C76.52731965 51.34880039 69.99035488 57.67117788 60.40698242 63.31567383 C31.81032587 78.35404843 -3.95332916 80.22993464 -34.81567383 71.49926758 C-49.44402923 66.91561537 -63.1020531 60.32052046 -70.59301758 46.31567383 C-73.09063007 41.32044885 -72.40902544 33.94282109 -70.79223633 28.73754883 C-64.5617473 16.49067693 -51.83003951 9.96606403 -39.26489258 5.83911133 C-35.0687228 4.54228892 -30.85830068 3.36220923 -26.59301758 2.31567383 C-25.57050903 2.03421509 -25.57050903 2.03421509 -24.52734375 1.74707031 C-16.4582473 -0.21965707 -8.25369852 -0.02106132 0 0 Z " fill="#52BDE4" transform="translate(71.593017578125,-0.315673828125)"/>
<path d="M0 0 C11.87441118 -0.02319046 23.74881696 -0.04094928 35.62324619 -0.05181217 C41.13726668 -0.05702632 46.65127165 -0.06409732 52.1652832 -0.07543945 C57.48856191 -0.08632048 62.8118257 -0.0922879 68.13511467 -0.09487724 C70.16403373 -0.09672209 72.192952 -0.10032459 74.2218647 -0.10573006 C77.06793087 -0.11300968 79.91393576 -0.11398802 82.76000977 -0.11352539 C83.59511078 -0.11712067 84.43021179 -0.12071594 85.2906189 -0.12442017 C94.30626162 -0.1086066 100.28442064 0.9216611 107.3125 7 C117.22467218 17.21254103 118.31436098 28.53769256 118.1953125 42.12890625 C118.1924826 43.35915024 118.18965271 44.58939423 118.18673706 45.85691833 C118.17560547 49.7588808 118.15051358 53.66060774 118.125 57.5625 C118.11382534 60.21939768 118.1058369 62.87629315 118.09765625 65.53320312 C118.07568912 72.02221481 118.04228177 78.51109057 118 85 C118.90073242 84.97172119 119.80146484 84.94344238 120.72949219 84.91430664 C121.90672852 84.89231201 123.08396484 84.87031738 124.296875 84.84765625 C125.46573242 84.81937744 126.63458984 84.79109863 127.83886719 84.76196289 C131.02277063 85.00171466 132.08966296 85.18855226 134.25 87.4375 C134.8275 88.283125 135.405 89.12875 136 90 C136.33 90.33 136.66 90.66 137 91 C137.46428965 95.81727158 136.72463534 98.09782484 133.74609375 101.86328125 C133.05580078 102.75080078 132.36550781 103.63832031 131.65429688 104.55273438 C130.55698242 105.91881836 130.55698242 105.91881836 129.4375 107.3125 C128.38079102 108.66118164 128.38079102 108.66118164 127.30273438 110.03710938 C125.89834357 111.82722226 124.48597582 113.61110774 123.06542969 115.38842773 C121.69399376 117.12249985 120.34526359 118.87478534 119.02050781 120.64477539 C118.40916992 121.46067139 117.79783203 122.27656738 117.16796875 123.1171875 C116.63067139 123.84663574 116.09337402 124.57608398 115.53979492 125.32763672 C114 127 114 127 110.875 127.8125 C103.75381562 125.79999137 100.09850352 119.40175971 96 113.6875 C95.39671875 112.85798828 94.7934375 112.02847656 94.171875 111.17382812 C92.99043446 109.54677904 91.81377025 107.91624909 90.64233398 106.28198242 C89.5961881 104.82838861 88.53946586 103.38230703 87.46899414 101.9465332 C85.39194999 99.14028644 84.0532465 97.30173015 83.4375 93.8125 C84.13061088 90.34694558 85.30746804 89.21737927 88 87 C88.66 86.34 89.32 85.68 90 85 C92.8203125 84.8046875 92.8203125 84.8046875 96.125 84.875 C97.22070312 84.89304687 98.31640625 84.91109375 99.4453125 84.9296875 C100.28835938 84.95289063 101.13140625 84.97609375 102 85 C102.06959844 77.39377988 102.12286116 69.7875929 102.15543652 62.18112659 C102.17107343 58.64887534 102.19227501 55.11684241 102.22631836 51.5847168 C102.26523603 47.52130063 102.27972547 43.45811279 102.29296875 39.39453125 C102.30845261 38.1297847 102.32393646 36.86503815 102.33988953 35.56196594 C102.34011612 34.38111923 102.34034271 33.20027252 102.34057617 31.98364258 C102.34723801 30.94661697 102.35389984 29.90959137 102.36076355 28.84114075 C101.94569904 25.57236069 100.79126001 23.72680608 99 21 C99 20.34 99 19.68 99 19 C92.00622149 16.03294245 85.75273796 14.7017959 78.21899414 14.68115234 C77.36941132 14.67110672 76.51982849 14.6610611 75.64450073 14.65071106 C72.85805896 14.62001197 70.07171269 14.60288105 67.28515625 14.5859375 C65.34459113 14.56721516 63.40403405 14.54764096 61.46348572 14.5272522 C56.37218991 14.47603763 51.28086773 14.43635486 46.18945312 14.39910889 C40.98756445 14.3590022 35.78578443 14.30794031 30.58398438 14.2578125 C20.38939937 14.16117966 10.19475285 14.07673454 0 14 C0 9.38 0 4.76 0 0 Z " fill="#000000" transform="translate(199,49)"/>
<path d="M0 0 C0.97982366 1.93705339 1.93795098 3.84696718 2.75390625 5.859375 C7.50546083 16.96929005 18.15911879 22.56703287 28.77587891 27.11572266 C57.90675116 38.69772258 93.73753848 37.65908805 122.8203125 26.40234375 C132.71123497 22.04013101 142.5392785 16.7308999 147.15234375 6.42578125 C147.87870478 4.29356016 148.50173463 2.19548178 149 0 C149.99 0.495 149.99 0.495 151 1 C151.11761144 4.95807715 151.18771882 8.91569621 151.25 12.875 C151.28351563 13.98359375 151.31703125 15.0921875 151.3515625 16.234375 C151.47039738 26.33533985 149.30214618 34.59488303 142.23046875 42.05859375 C120.88686983 60.63612205 89.818616 63.49393611 62.73681641 61.86376953 C41.19954955 60.08952094 18.17109509 54.04113655 3.55859375 37.2109375 C0.26250696 32.53528556 -0.24356605 28.6190103 -0.1953125 22.94921875 C-0.1924826 22.29041214 -0.18965271 21.63160553 -0.18673706 20.95283508 C-0.17560924 18.86419938 -0.15051948 16.77600444 -0.125 14.6875 C-0.11496059 13.26498018 -0.10583642 11.8424536 -0.09765625 10.41992188 C-0.07569447 6.94647319 -0.04121646 3.47327967 0 0 Z " fill="#52BCE3" transform="translate(0,97)"/>
<path d="M0 0 C8.05738532 2.55150535 13.19018688 12.21839202 18.0625 18.8125 C18.68189453 19.63234375 19.30128906 20.4521875 19.93945312 21.296875 C25.78588463 29.19368368 25.78588463 29.19368368 26.75 34.1875 C25.63483109 36.57714766 24.61049542 38.32700458 22.75 40.1875 C20.39686445 40.26021741 18.04166332 40.27120868 15.6875 40.25 C14.39714844 40.24097656 13.10679688 40.23195312 11.77734375 40.22265625 C10.77832031 40.21105469 9.77929688 40.19945312 8.75 40.1875 C7.69512893 43.65376361 7.60470849 46.86817433 7.57299805 50.48144531 C7.56016281 51.75667053 7.54732758 53.03189575 7.53410339 54.34576416 C7.52593439 55.7357138 7.51849096 57.12566786 7.51171875 58.515625 C7.50764322 59.21908806 7.5035677 59.92255112 7.49936867 60.64733124 C7.47854178 64.37181805 7.46422627 68.09626841 7.45483398 71.82080078 C7.44378444 75.65174841 7.40939247 79.48211284 7.36966228 83.31285477 C7.34341537 86.27271545 7.335135 89.2324389 7.33155251 92.1924057 C7.3267063 93.60370568 7.31514877 95.01500034 7.29651451 96.42618561 C6.94779753 107.55484735 6.94779753 107.55484735 11.75 117.1875 C16.95355556 120.80366193 21.87583169 121.77632508 28.09375 121.73339844 C29.28056114 121.74890495 29.28056114 121.74890495 30.49134827 121.76472473 C33.07777797 121.79396207 35.66341865 121.7956478 38.25 121.796875 C40.05462113 121.81186959 41.85922859 121.82859942 43.66381836 121.84698486 C48.39183206 121.89052712 53.11966067 121.91062826 57.84783936 121.92572021 C62.68122238 121.94533878 67.5144069 121.98730338 72.34765625 122.02734375 C81.81504274 122.10250356 91.28238449 122.15288104 100.75 122.1875 C100.77685412 124.49993792 100.79632841 126.8124627 100.8125 129.125 C100.82410156 130.41277344 100.83570313 131.70054687 100.84765625 133.02734375 C100.75 136.1875 100.75 136.1875 99.75 137.1875 C97.39944954 137.29310467 95.0781388 137.33428442 92.72680664 137.33276367 C91.99169861 137.33612228 91.25659058 137.3394809 90.49920654 137.34294128 C88.05283951 137.35248877 85.60654079 137.35439707 83.16015625 137.35546875 C81.45918245 137.35868152 79.75820893 137.36204561 78.05723572 137.36555481 C74.48012656 137.37155752 70.90304158 137.37339382 67.32592773 137.37280273 C62.7632741 137.37270169 58.20077811 137.3862888 53.63816166 137.40357494 C50.11805017 137.41475554 46.59797586 137.41672 43.07784843 137.41619301 C41.39750061 137.41736651 39.71715162 137.42175262 38.03682137 137.42952538 C24.02831894 137.48819564 11.96431177 137.2747393 0.9296875 127.58984375 C-7.43262216 118.70226338 -7.84190062 108.05831996 -7.82421875 96.4765625 C-7.83668878 94.9758442 -7.85102982 93.47514041 -7.86714172 91.97445679 C-7.90491142 88.05353725 -7.92031182 84.13286941 -7.92993164 80.21179199 C-7.94978992 73.91639789 -8.00660826 67.62119273 -8.05869484 61.32600021 C-8.07398816 59.13460341 -8.08121915 56.94330221 -8.08683777 54.75186157 C-8.0938539 53.40960646 -8.10095482 52.06735179 -8.1081543 50.72509766 C-8.11163376 49.55612946 -8.11511322 48.38716125 -8.11869812 47.18276978 C-8.22926381 44.66053586 -8.50970774 42.58623367 -9.25 40.1875 C-10.21421875 40.24550781 -11.1784375 40.30351562 -12.171875 40.36328125 C-13.43515625 40.40839844 -14.6984375 40.45351562 -16 40.5 C-17.25296875 40.55800781 -18.5059375 40.61601562 -19.796875 40.67578125 C-23.25 40.1875 -23.25 40.1875 -25.765625 37.98046875 C-27.25 35.1875 -27.25 35.1875 -27.27734375 32.78125 C-25.93015586 29.37998476 -23.98577218 26.59647925 -21.8125 23.6875 C-21.37091553 23.08381592 -20.92933105 22.48013184 -20.47436523 21.8581543 C-19.0779126 19.95892933 -17.66681573 18.0715738 -16.25 16.1875 C-15.78722656 15.57084473 -15.32445312 14.95418945 -14.84765625 14.31884766 C-4.24626628 0.2449769 -4.24626628 0.2449769 0 0 Z " fill="#010101" transform="translate(50.25,214.8125)"/>
<path d="M0 0 C0.30470215 0.61117676 0.6094043 1.22235352 0.92333984 1.85205078 C7.8308408 15.6325935 17.66409183 22.7847148 32.23486328 27.76367188 C64.4149184 37.71084703 101.24177635 37.36131023 131.5 21.4921875 C134.66039374 19.60582749 137.26268834 17.44917359 140 15 C140.66 15 141.32 15 142 15 C142.28746094 14.42378906 142.57492188 13.84757812 142.87109375 13.25390625 C143.58823673 11.82210175 144.30916007 10.39217964 145.03515625 8.96484375 C145.54369141 7.96130859 145.54369141 7.96130859 146.0625 6.9375 C146.40410156 6.26589844 146.74570313 5.59429687 147.09765625 4.90234375 C148.11490381 2.85671686 148.11490381 2.85671686 149 0 C149.66 0 150.32 0 151 0 C151.11727273 4.14559093 151.18760933 8.29074862 151.25 12.4375 C151.28351563 13.60216797 151.31703125 14.76683594 151.3515625 15.96679688 C151.46865872 26.35908598 149.17228823 33.49244037 142.0234375 41.09375 C121.11251317 60.79361694 90.00050963 61.92559342 62.93603516 61.17919922 C41.64189611 60.20972285 19.93796444 53.4039347 4.65625 38.08984375 C0.7628301 33.17715591 -0.3727638 29.07557671 -0.29296875 22.8515625 C-0.28872391 22.19417084 -0.28447906 21.53677917 -0.28010559 20.85946655 C-0.26344977 18.78087609 -0.2258262 16.70329226 -0.1875 14.625 C-0.17243605 13.20704536 -0.15875065 11.78907536 -0.14648438 10.37109375 C-0.11359038 6.9137411 -0.06190165 3.45696897 0 0 Z " fill="#53BDE3" transform="translate(0,56)"/>
<path d="M0 0 C6.27 0 12.54 0 19 0 C20.13374003 5.66870014 20.13374003 5.66870014 17.9375 9 C13.74821189 15.1281322 8.89294349 18.38068147 2 21 C0 19 0 19 -0.22705078 17.02880859 C-0.21657715 16.24328613 -0.20610352 15.45776367 -0.1953125 14.6484375 C-0.19031738 13.88192871 -0.18532227 13.11541992 -0.18017578 12.32568359 C-0.16196777 11.35195801 -0.14375977 10.37823242 -0.125 9.375 C-0.08375 6.28125 -0.0425 3.1875 0 0 Z " fill="#50BDE5" transform="translate(293,309)"/>
<path d="M0 0 C6.27 0 12.54 0 19 0 C19 6.6 19 13.2 19 20 C11.84457907 18.97779701 8.83638696 18.04842063 4 13 C1.91237279 9.82167394 0.14488468 6.63485246 -1 3 C-0.67 2.01 -0.34 1.02 0 0 Z " fill="#54B6DA" transform="translate(269,309)"/>
<path d="M0 0 C6.70759867 2.72420523 9.80527675 6.36875114 13.26953125 12.59375 C14.1875 14.8125 14.1875 14.8125 14.1875 18.8125 C7.5875 18.8125 0.9875 18.8125 -5.8125 18.8125 C-5.8125 12.5425 -5.8125 6.2725 -5.8125 -0.1875 C-3.8125 -1.1875 -3.8125 -1.1875 0 0 Z " fill="#54B7DB" transform="translate(298.8125,285.1875)"/>
<path d="M0 0 C0 6.27 0 12.54 0 19 C-6.27 19 -12.54 19 -19 19 C-17.94390307 11.60732152 -16.45504959 7.97761146 -10.9375 3.1875 C-6.83242978 0.13053281 -5.24401545 0 0 0 Z " fill="#55BBDF" transform="translate(288,285)"/>
<path d="M0 0 C12.21 0 24.42 0 37 0 C37 0.33 37 0.66 37 1 C36.14535156 1.04898437 35.29070312 1.09796875 34.41015625 1.1484375 C33.30542969 1.22320312 32.20070313 1.29796875 31.0625 1.375 C29.96035156 1.44460938 28.85820312 1.51421875 27.72265625 1.5859375 C26.37494141 1.79089844 26.37494141 1.79089844 25 2 C24.67 2.66 24.34 3.32 24 4 C24.66 4.66 25.32 5.32 26 6 C13.13 5.505 13.13 5.505 0 5 C0.33 12.92 0.66 20.84 1 29 C-0.32 29.33 -1.64 29.66 -3 30 C-3.66 30.66 -4.32 31.32 -5 32 C-5 23.42 -5 14.84 -5 6 C-4.67 6 -4.34 6 -4 6 C-3.67 12.27 -3.34 18.54 -3 25 C-1.55527502 20.66582507 -2.02995569 16.32238704 -2.21484375 11.8046875 C-2.323596 6.44616738 -2.323596 6.44616738 -0.74829102 4.27416992 C1.46269196 2.66278602 2.52892682 2.71502266 5.23046875 2.92578125 C6.03291016 2.98056641 6.83535156 3.03535156 7.66210938 3.09179688 C8.49548828 3.16462891 9.32886719 3.23746094 10.1875 3.3125 C11.03248047 3.37373047 11.87746094 3.43496094 12.74804688 3.49804688 C14.83312095 3.65118791 16.91675276 3.82374157 19 4 C19.33 3.34 19.66 2.68 20 2 C20.33 1.67 20.66 1.34 21 1 C14.07 1 7.14 1 0 1 C0 0.67 0 0.34 0 0 Z " fill="#09171F" transform="translate(293,304)"/>
<path d="M0 0 C6.27 0 12.54 0 19 0 C20.13374003 5.66870014 20.13374003 5.66870014 17.9375 9 C13.74821189 15.1281322 8.89294349 18.38068147 2 21 C0 19 0 19 -0.22705078 17.02880859 C-0.21657715 16.24328613 -0.20610352 15.45776367 -0.1953125 14.6484375 C-0.19031738 13.88192871 -0.18532227 13.11541992 -0.18017578 12.32568359 C-0.16196777 11.35195801 -0.14375977 10.37823242 -0.125 9.375 C-0.08375 6.28125 -0.0425 3.1875 0 0 Z M2 2 C2 7.28 2 12.56 2 18 C2.99 18 3.98 18 5 18 C5 17.34 5 16.68 5 16 C6.65 16 8.3 16 10 16 C10 15.34 10 14.68 10 14 C12 13 14 12 16 11 C17.62734766 7.65489648 18 5.81164166 18 2 C12.72 2 7.44 2 2 2 Z " fill="#559FB9" transform="translate(293,309)"/>
<path d="M0 0 C2.96175123 0.61277612 4.38058783 1.25372522 7 3 C9.89659349 3.24121349 12.7053355 3.37299442 15.60546875 3.4140625 C16.86427605 3.44311172 16.86427605 3.44311172 18.14851379 3.4727478 C20.82807258 3.53251213 23.5076744 3.57891612 26.1875 3.625 C28.00457599 3.6631827 29.82163394 3.70223461 31.63867188 3.7421875 C36.09230132 3.83821103 40.54601551 3.92225359 45 4 C45 4.33 45 4.66 45 5 C38.61468042 5.80541367 32.37171274 6.1935043 25.9375 6.1875 C24.57093262 6.1862915 24.57093262 6.1862915 23.17675781 6.18505859 C11.91532187 6.08454525 0.93972564 4.73493141 -10 2 C-6.34811918 0.92825237 -3.73567172 1.23588533 0 2 C0 1.34 0 0.68 0 0 Z " fill="#66B7D6" transform="translate(50,153)"/>
<path d="M0 0 C28.38 0 56.76 0 86 0 C86 0.33 86 0.66 86 1 C57.62 1 29.24 1 0 1 C0 0.67 0 0.34 0 0 Z " fill="#000000" transform="translate(200,47)"/>
<path d="M0 0 C0.66 0 1.32 0 2 0 C2 7.59 2 15.18 2 23 C-0.39763185 20.60236815 -0.34280586 19.66726502 -0.625 16.375 C-0.69976562 15.55773437 -0.77453125 14.74046875 -0.8515625 13.8984375 C-0.92503906 12.95871094 -0.92503906 12.95871094 -1 12 C-1.66 12 -2.32 12 -3 12 C-3 12.66 -3 13.32 -3 14 C-4.53125 15.2890625 -4.53125 15.2890625 -6.5 16.625 C-7.1496875 17.07101563 -7.799375 17.51703125 -8.46875 17.9765625 C-8.9740625 18.31429687 -9.479375 18.65203125 -10 19 C-10.66 18.67 -11.32 18.34 -12 18 C-10.625 16.5 -10.625 16.5 -9 15 C-8.34 15 -7.68 15 -7 15 C-6.71253906 14.42378906 -6.42507812 13.84757812 -6.12890625 13.25390625 C-5.41176327 11.82210175 -4.69083993 10.39217964 -3.96484375 8.96484375 C-3.62582031 8.29582031 -3.28679687 7.62679687 -2.9375 6.9375 C-2.59589844 6.26589844 -2.25429687 5.59429687 -1.90234375 4.90234375 C-0.88509619 2.85671686 -0.88509619 2.85671686 0 0 Z " fill="#63B6D3" transform="translate(149,56)"/>
<path d="M0 0 C0.66 0.33 1.32 0.66 2 1 C2 8.92 2 16.84 2 25 C1.67 25 1.34 25 1 25 C0.85304687 23.84371094 0.85304687 23.84371094 0.703125 22.6640625 C0.55359375 21.66117188 0.4040625 20.65828125 0.25 19.625 C0.11078125 18.62726563 -0.0284375 17.62953125 -0.171875 16.6015625 C-0.74386889 13.85438953 -0.74386889 13.85438953 -3.078125 12.6484375 C-3.71234375 12.43445313 -4.3465625 12.22046875 -5 12 C-4.72285156 11.38511719 -4.44570312 10.77023438 -4.16015625 10.13671875 C-3.61681641 8.92435547 -3.61681641 8.92435547 -3.0625 7.6875 C-2.52302734 6.48673828 -2.52302734 6.48673828 -1.97265625 5.26171875 C-0.92153959 2.90510392 -0.92153959 2.90510392 0 0 Z " fill="#5BB8DA" transform="translate(149,97)"/>
<path d="M0 0 C0.66 0.33 1.32 0.66 2 1 C2 3.62113708 1.68707555 5.50935112 1 8 C-1 7 -1 7 -3 5 C-3.33 6.65 -3.66 8.3 -4 10 C-4.33 9.34 -4.66 8.68 -5 8 C-6.32 8.33 -7.64 8.66 -9 9 C-6.21000549 5.51250686 -3.74764169 2.49842779 0 0 Z " fill="#5DB8DA" transform="translate(14,14)"/>
<path d="M0 0 C5.61 0.66 11.22 1.32 17 2 C16.67 2.66 16.34 3.32 16 4 C15.25234375 3.98839844 14.5046875 3.97679687 13.734375 3.96484375 C12.74953125 3.95582031 11.7646875 3.94679687 10.75 3.9375 C9.77546875 3.92589844 8.8009375 3.91429687 7.796875 3.90234375 C5.34241322 3.98804423 3.33831086 4.29293934 1 5 C1.66 3.68 2.32 2.36 3 1 C2.01 0.67 1.02 0.34 0 0 Z " fill="#5BB5D5" transform="translate(41,129)"/>
<path d="M0 0 C0.33 0 0.66 0 1 0 C1 12.21 1 24.42 1 37 C0.67 37 0.34 37 0 37 C0 24.79 0 12.58 0 0 Z " fill="#000000" transform="translate(58,262)"/>
<path d="M0 0 C1.32 0.33 2.64 0.66 4 1 C4 1.66 4 2.32 4 3 C5.98 2.34 7.96 1.68 10 1 C10 2.65 10 4.3 10 6 C10.99 6.33 11.98 6.66 13 7 C13.33 7.99 13.66 8.98 14 10 C8.97619887 8.43006215 4.9530017 5.39884258 1 2 C0.67 1.34 0.34 0.68 0 0 Z " fill="#5DB6D5" transform="translate(8,96)"/>
<path d="M0 0 C2 2 2 2 2 4.625 C0.65027838 9.18031048 -1.83880303 12.48662724 -5 16 C-5.66 16.33 -6.32 16.66 -7 17 C-5.79618552 14.50638429 -4.54571278 12.31856917 -3 10 C-3.66 9.67 -4.32 9.34 -5 9 C-3.68 9 -2.36 9 -1 9 C-1.20625 8.071875 -1.4125 7.14375 -1.625 6.1875 C-2 3 -2 3 0 0 Z " fill="#5AB4D5" transform="translate(148,80)"/>
<path d="M0 0 C0 0.33 0 0.66 0 1 C-4.455 1.495 -4.455 1.495 -9 2 C-9 2.66 -9 3.32 -9 4 C-11.97 3.505 -11.97 3.505 -15 3 C-15 2.34 -15 1.68 -15 1 C-9.42567486 -0.66251802 -5.6932495 -1.18609365 0 0 Z " fill="#56B6D4" transform="translate(56,2)"/>
<path d="M0 0 C0.66 0.33 1.32 0.66 2 1 C-2.40530061 5.13750119 -6.3131039 7.91093613 -12 10 C-12 9.01 -12 8.02 -12 7 C-11.01 7 -10.02 7 -9 7 C-9 6.34 -9 5.68 -9 5 C-7.35 5 -5.7 5 -4 5 C-4 4.34 -4 3.68 -4 3 C-2 1.375 -2 1.375 0 0 Z " fill="#5AACD0" transform="translate(307,320)"/>
<path d="M0 0 C4.72065967 1.54269924 9.41664092 3.07794619 14 5 C10.34142468 6.31534494 7.91973519 5.65468309 4.25 4.5625 C3.26515625 4.27503906 2.2803125 3.98757812 1.265625 3.69140625 C0.51796875 3.46324219 -0.2296875 3.23507813 -1 3 C-0.67 2.01 -0.34 1.02 0 0 Z " fill="#5CB6D2" transform="translate(20,121)"/>
<path d="M0 0 C1.26041675 2.5208335 0.66225891 3.35096436 0 6 C0.33 6.66 0.66 7.32 1 8 C-1.97 8 -4.94 8 -8 8 C-5.33333333 5.33333333 -2.66666667 2.66666667 0 0 Z " fill="#5BB5D9" transform="translate(143,110)"/>
<path d="M0 0 C3.81684226 1.55500981 6.19195732 4.03595495 9 7 C7.68 7 6.36 7 5 7 C4.67 6.34 4.34 5.68 4 5 C2.35 5.33 0.7 5.66 -1 6 C-0.67 4.02 -0.34 2.04 0 0 Z " fill="#5CB6D5" transform="translate(135,15)"/>
<path d="M0 0 C3.465 1.485 3.465 1.485 7 3 C6.01 3.33 5.02 3.66 4 4 C3.67 4.66 3.34 5.32 3 6 C1.0625 5.625 1.0625 5.625 -1 5 C-1.33 4.34 -1.66 3.68 -2 3 C-1.34 2.01 -0.68 1.02 0 0 Z " fill="#57B8D8" transform="translate(18,78)"/>
<path d="M0 0 C8.57142857 0.85714286 8.57142857 0.85714286 12 3 C10.02 3 8.04 3 6 3 C5.67 3.66 5.34 4.32 5 5 C2.5 3.625 2.5 3.625 0 2 C0 1.34 0 0.68 0 0 Z " fill="#55B5D4" transform="translate(101,2)"/>
<path d="M0 0 C2.64 0.33 5.28 0.66 8 1 C4.99559979 3.00293347 3.29006055 3.49271626 -0.1875 4.125 C-1.08855469 4.29257813 -1.98960938 4.46015625 -2.91796875 4.6328125 C-3.60503906 4.75398437 -4.29210937 4.87515625 -5 5 C-3.625 3.5 -3.625 3.5 -2 2 C-1.34 2 -0.68 2 0 2 C0 1.34 0 0.68 0 0 Z " fill="#60B9D8" transform="translate(112,150)"/>
<path d="M0 0 C0.66 0.33 1.32 0.66 2 1 C2 4.63 2 8.26 2 12 C1.67 12 1.34 12 1 12 C1 10.35 1 8.7 1 7 C0.01 7.33 -0.98 7.66 -2 8 C-1.34 5.36 -0.68 2.72 0 0 Z " fill="#6FB0D0" transform="translate(149,97)"/>
<path d="M0 0 C0 0.66 0 1.32 0 2 C-4.64849515 4.3992233 -8.91086074 4.19957409 -14 4 C-9.70669369 1.70895313 -4.92247262 0 0 0 Z " fill="#62B2D2" transform="translate(116,85)"/>
<path d="M0 0 C4.1666604 0.47348414 6.92884715 1.04696841 10 4 C10 4.66 10 5.32 10 6 C6.00499382 4.6302836 3.19990508 2.74277578 0 0 Z " fill="#5FB5D2" transform="translate(13,59)"/>
<path d="M0 0 C2.84550012 0.66010476 5.52325999 1.51724966 8.25 2.5625 C8.95640625 2.83191406 9.6628125 3.10132813 10.390625 3.37890625 C10.92171875 3.58386719 11.4528125 3.78882813 12 4 C8.57056481 5.18771723 6.62215325 4.80226223 3.25 3.5625 C2.45078125 3.27503906 1.6515625 2.98757812 0.828125 2.69140625 C0.22484375 2.46324219 -0.3784375 2.23507813 -1 2 C-0.67 1.34 -0.34 0.68 0 0 Z " fill="#64B6D2" transform="translate(28,149)"/>
<path d="M0 0 C1.8871875 0.061875 1.8871875 0.061875 3.8125 0.125 C2.25 1.6875 2.25 1.6875 -0.1875 3.125 C-3.9375 2.8125 -3.9375 2.8125 -7.1875 2.125 C-4.09861478 0.06574319 -3.47814073 -0.1140374 0 0 Z " fill="#5EB7DC" transform="translate(91.1875,89.875)"/>
<path d="M0 0 C0 0.66 0 1.32 0 2 C-5.41538462 5.07692308 -5.41538462 5.07692308 -8.375 4.6875 C-8.91125 4.460625 -9.4475 4.23375 -10 4 C-3.375 0 -3.375 0 0 0 Z " fill="#62B6D1" transform="translate(26,9)"/>
<path d="M0 0 C-2.97 2.475 -2.97 2.475 -6 5 C-6.66 4.67 -7.32 4.34 -8 4 C-7.67 2.68 -7.34 1.36 -7 0 C-2.25 -1.125 -2.25 -1.125 0 0 Z " fill="#5CB4D6" transform="translate(141,98)"/>
<path d="M0 0 C-0.33 1.32 -0.66 2.64 -1 4 C-3.64 4.33 -6.28 4.66 -9 5 C-2.40909091 0 -2.40909091 0 0 0 Z " fill="#5EB4D3" transform="translate(135,118)"/>
<path d="M0 0 C2.32472205 2.85306797 3.7508258 5.54074837 5 9 C3.0625 8.4375 3.0625 8.4375 1 7 C0.25 3.375 0.25 3.375 0 0 Z " fill="#62B0D3" transform="translate(1,60)"/>
<path d="M0 0 C0.33 0 0.66 0 1 0 C1 4.29 1 8.58 1 13 C0.67 13 0.34 13 0 13 C0 8.71 0 4.42 0 0 Z " fill="#000000" transform="translate(197,50)"/>
<path d="M0 0 C0.33 0 0.66 0 1 0 C1 3.3 1 6.6 1 10 C0.67 10 0.34 10 0 10 C0 6.7 0 3.4 0 0 Z " fill="#000000" transform="translate(41,267)"/>
<path d="M0 0 C0.33 0 0.66 0 1 0 C1 2.31 1 4.62 1 7 C0.67 7 0.34 7 0 7 C0 4.69 0 2.38 0 0 Z " fill="#000000" transform="translate(58,315)"/>
<path d="M0 0 C1.32 0.33 2.64 0.66 4 1 C3.01 1 2.02 1 1 1 C0.67 1.66 0.34 2.32 0 3 C0 2.01 0 1.02 0 0 Z " fill="#000000" transform="translate(295,389)"/>
<path d="M0 0 C1.98 0 3.96 0 6 0 C6 0.33 6 0.66 6 1 C4.02 1 2.04 1 0 1 C0 0.67 0 0.34 0 0 Z " fill="#000000" transform="translate(281,389)"/>
<path d="M0 0 C4 1 4 1 4 1 Z " fill="#000000" transform="translate(283,375)"/>
<path d="M0 0 C1 4 1 4 1 4 Z " fill="#000000" transform="translate(372,319)"/>
<path d="M0 0 C1 4 1 4 1 4 Z " fill="#000000" transform="translate(222,296)"/>
<path d="M0 0 C1 4 1 4 1 4 Z " fill="#000000" transform="translate(372,291)"/>
<path d="M0 0 C1 4 1 4 1 4 Z " fill="#000000" transform="translate(281,141)"/>
<path d="" fill="#000000" transform="translate(0,0)"/>
<path d="" fill="#000000" transform="translate(0,0)"/>
<path d="" fill="#000000" transform="translate(0,0)"/>
<path d="" fill="#000000" transform="translate(0,0)"/>
<path d="" fill="#000000" transform="translate(0,0)"/>
<path d="" fill="#000000" transform="translate(0,0)"/>
<path d="" fill="#000000" transform="translate(0,0)"/>
<path d="" fill="#000000" transform="translate(0,0)"/>
<path d="" fill="#000000" transform="translate(0,0)"/>
<path d="" fill="#000000" transform="translate(0,0)"/>
<path d="M0 0 C3 1 3 1 3 1 Z " fill="#000000" transform="translate(279,224)"/>
<path d="" fill="#000000" transform="translate(0,0)"/>
<path d="M0 0 C3 1 3 1 3 1 Z " fill="#000000" transform="translate(291,48)"/>
<path d="M0 0 C2 1 2 1 2 1 Z " fill="#000000" transform="translate(309,387)"/>
<path d="M0 0 C2 1 2 1 2 1 Z " fill="#000000" transform="translate(280,358)"/>
<path d="M0 0 C2 1 2 1 2 1 Z " fill="#000000" transform="translate(303,357)"/>
<path d="M0 0 C2 1 2 1 2 1 Z " fill="#000000" transform="translate(276,357)"/>
<path d="M0 0 C2 1 2 1 2 1 Z " fill="#000000" transform="translate(64,351)"/>
<path d="M0 0 C2 1 2 1 2 1 Z " fill="#000000" transform="translate(282,344)"/>
<path d="" fill="#000000" transform="translate(0,0)"/>
<path d="M0 0 C2 1 2 1 2 1 Z " fill="#000000" transform="translate(70,335)"/>
<path d="" fill="#000000" transform="translate(0,0)"/>
<path d="" fill="#000000" transform="translate(0,0)"/>
<path d="" fill="#000000" transform="translate(0,0)"/>
<path d="" fill="#000000" transform="translate(0,0)"/>
<path d="" fill="#000000" transform="translate(0,0)"/>
<path d="" fill="#000000" transform="translate(0,0)"/>
<path d="" fill="#000000" transform="translate(0,0)"/>
<path d="" fill="#000000" transform="translate(0,0)"/>
<path d="" fill="#000000" transform="translate(0,0)"/>
<path d="" fill="#000000" transform="translate(0,0)"/>
<path d="" fill="#000000" transform="translate(0,0)"/>
<path d="" fill="#000000" transform="translate(0,0)"/>
<path d="" fill="#000000" transform="translate(0,0)"/>
<path d="" fill="#000000" transform="translate(0,0)"/>
<path d="" fill="#000000" transform="translate(0,0)"/>
<path d="" fill="#000000" transform="translate(0,0)"/>
<path d="" fill="#000000" transform="translate(0,0)"/>
<path d="" fill="#000000" transform="translate(0,0)"/>
<path d="" fill="#000000" transform="translate(0,0)"/>
<path d="" fill="#000000" transform="translate(0,0)"/>
<path d="" fill="#000000" transform="translate(0,0)"/>
<path d="" fill="#000000" transform="translate(0,0)"/>
<path d="" fill="#000000" transform="translate(0,0)"/>
<path d="" fill="#000000" transform="translate(0,0)"/>
<path d="" fill="#000000" transform="translate(0,0)"/>
<path d="" fill="#000000" transform="translate(0,0)"/>
<path d="" fill="#000000" transform="translate(0,0)"/>
<path d="" fill="#000000" transform="translate(0,0)"/>
<path d="" fill="#000000" transform="translate(0,0)"/>
<path d="" fill="#000000" transform="translate(0,0)"/>
<path d="" fill="#000000" transform="translate(0,0)"/>
<path d="" fill="#000000" transform="translate(0,0)"/>
<path d="M0 0 C2 1 2 1 2 1 Z " fill="#000000" transform="translate(280,269)"/>
<path d="" fill="#000000" transform="translate(0,0)"/>
<path d="" fill="#000000" transform="translate(0,0)"/>
<path d="M0 0 C2 1 2 1 2 1 Z " fill="#000000" transform="translate(304,239)"/>
<path d="M0 0 C2 1 2 1 2 1 Z " fill="#000000" transform="translate(275,239)"/>
<path d="M0 0 C2 1 2 1 2 1 Z " fill="#000000" transform="translate(300,224)"/>
<path d="" fill="#000000" transform="translate(0,0)"/>
<path d="M0 0 C2 1 2 1 2 1 Z " fill="#000000" transform="translate(309,177)"/>
<path d="" fill="#000000" transform="translate(0,0)"/>
<path d="" fill="#000000" transform="translate(0,0)"/>
<path d="" fill="#000000" transform="translate(0,0)"/>
<path d="" fill="#000000" transform="translate(0,0)"/>
<path d="" fill="#000000" transform="translate(0,0)"/>
<path d="" fill="#000000" transform="translate(0,0)"/>
<path d="" fill="#000000" transform="translate(0,0)"/>
<path d="" fill="#000000" transform="translate(0,0)"/>
<path d="" fill="#000000" transform="translate(0,0)"/>
<path d="" fill="#000000" transform="translate(0,0)"/>
<path d="" fill="#000000" transform="translate(0,0)"/>
<path d="" fill="#000000" transform="translate(0,0)"/>
<path d="" fill="#000000" transform="translate(0,0)"/>
<path d="" fill="#000000" transform="translate(0,0)"/>
<path d="" fill="#000000" transform="translate(0,0)"/>
<path d="" fill="#000000" transform="translate(0,0)"/>
<path d="" fill="#000000" transform="translate(0,0)"/>
<path d="" fill="#000000" transform="translate(0,0)"/>
<path d="" fill="#000000" transform="translate(0,0)"/>
<path d="" fill="#000000" transform="translate(0,0)"/>
<path d="" fill="#000000" transform="translate(0,0)"/>
<path d="" fill="#000000" transform="translate(0,0)"/>
<path d="" fill="#000000" transform="translate(0,0)"/>
<path d="" fill="#000000" transform="translate(0,0)"/>
<path d="" fill="#000000" transform="translate(0,0)"/>
<path d="" fill="#000000" transform="translate(0,0)"/>
<path d="" fill="#000000" transform="translate(0,0)"/>
<path d="" fill="#000000" transform="translate(0,0)"/>
<path d="" fill="#000000" transform="translate(0,0)"/>
<path d="" fill="#000000" transform="translate(0,0)"/>
<path d="" fill="#000000" transform="translate(0,0)"/>
<path d="" fill="#000000" transform="translate(0,0)"/>
<path d="" fill="#000000" transform="translate(0,0)"/>
<path d="" fill="#000000" transform="translate(0,0)"/>
<path d="" fill="#000000" transform="translate(0,0)"/>
<path d="" fill="#000000" transform="translate(0,0)"/>
<path d="" fill="#000000" transform="translate(0,0)"/>
<path d="" fill="#000000" transform="translate(0,0)"/>
<path d="" fill="#000000" transform="translate(0,0)"/>
<path d="" fill="#000000" transform="translate(0,0)"/>
<path d="" fill="#000000" transform="translate(0,0)"/>
<path d="" fill="#000000" transform="translate(0,0)"/>
<path d="" fill="#000000" transform="translate(0,0)"/>
<path d="" fill="#000000" transform="translate(0,0)"/>
<path d="" fill="#000000" transform="translate(0,0)"/>
<path d="" fill="#000000" transform="translate(0,0)"/>
<path d="" fill="#000000" transform="translate(0,0)"/>
<path d="" fill="#000000" transform="translate(0,0)"/>
<path d="" fill="#000000" transform="translate(0,0)"/>
<path d="" fill="#000000" transform="translate(0,0)"/>
<path d="" fill="#000000" transform="translate(0,0)"/>
<path d="" fill="#000000" transform="translate(0,0)"/>
<path d="" fill="#000000" transform="translate(0,0)"/>
<path d="" fill="#000000" transform="translate(0,0)"/>
<path d="" fill="#000000" transform="translate(0,0)"/>
<path d="" fill="#000000" transform="translate(0,0)"/>
<path d="" fill="#000000" transform="translate(0,0)"/>
<path d="" fill="#000000" transform="translate(0,0)"/>
<path d="" fill="#000000" transform="translate(0,0)"/>
<path d="" fill="#000000" transform="translate(0,0)"/>
<path d="" fill="#000000" transform="translate(0,0)"/>
<path d="" fill="#000000" transform="translate(0,0)"/>
<path d="" fill="#000000" transform="translate(0,0)"/>
<path d="" fill="#000000" transform="translate(0,0)"/>
<path d="" fill="#000000" transform="translate(0,0)"/>
<path d="" fill="#000000" transform="translate(0,0)"/>
<path d="" fill="#000000" transform="translate(0,0)"/>
<path d="" fill="#000000" transform="translate(0,0)"/>
<path d="" fill="#000000" transform="translate(0,0)"/>
<path d="" fill="#000000" transform="translate(0,0)"/>
<path d="" fill="#000000" transform="translate(0,0)"/>
<path d="" fill="#000000" transform="translate(0,0)"/>
<path d="" fill="#000000" transform="translate(0,0)"/>
<path d="" fill="#000000" transform="translate(0,0)"/>
<path d="" fill="#000000" transform="translate(0,0)"/>
<path d="" fill="#000000" transform="translate(0,0)"/>
<path d="" fill="#000000" transform="translate(0,0)"/>
<path d="" fill="#000000" transform="translate(0,0)"/>
<path d="" fill="#000000" transform="translate(0,0)"/>
<path d="" fill="#000000" transform="translate(0,0)"/>
<path d="" fill="#000000" transform="translate(0,0)"/>
<path d="" fill="#000000" transform="translate(0,0)"/>
<path d="" fill="#000000" transform="translate(0,0)"/>
<path d="" fill="#000000" transform="translate(0,0)"/>
<path d="" fill="#000000" transform="translate(0,0)"/>
<path d="" fill="#000000" transform="translate(0,0)"/>
<path d="" fill="#000000" transform="translate(0,0)"/>
<path d="" fill="#000000" transform="translate(0,0)"/>
<path d="" fill="#000000" transform="translate(0,0)"/>
<path d="" fill="#000000" transform="translate(0,0)"/>
<path d="" fill="#000000" transform="translate(0,0)"/>
<path d="" fill="#000000" transform="translate(0,0)"/>
<path d="" fill="#000000" transform="translate(0,0)"/>
<path d="" fill="#000000" transform="translate(0,0)"/>
<path d="" fill="#000000" transform="translate(0,0)"/>
<path d="" fill="#000000" transform="translate(0,0)"/>
<path d="" fill="#000000" transform="translate(0,0)"/>
<path d="" fill="#000000" transform="translate(0,0)"/>
<path d="" fill="#000000" transform="translate(0,0)"/>
<path d="" fill="#000000" transform="translate(0,0)"/>
<path d="" fill="#000000" transform="translate(0,0)"/>
<path d="" fill="#000000" transform="translate(0,0)"/>
<path d="" fill="#000000" transform="translate(0,0)"/>
<path d="" fill="#000000" transform="translate(0,0)"/>
<path d="" fill="#000000" transform="translate(0,0)"/>
<path d="" fill="#000000" transform="translate(0,0)"/>
<path d="" fill="#000000" transform="translate(0,0)"/>
<path d="" fill="#000000" transform="translate(0,0)"/>
<path d="" fill="#000000" transform="translate(0,0)"/>
<path d="" fill="#000000" transform="translate(0,0)"/>
<path d="" fill="#000000" transform="translate(0,0)"/>
<path d="" fill="#000000" transform="translate(0,0)"/>
<path d="" fill="#000000" transform="translate(0,0)"/>
<path d="" fill="#000000" transform="translate(0,0)"/>
<path d="" fill="#000000" transform="translate(0,0)"/>
<path d="" fill="#000000" transform="translate(0,0)"/>
<path d="" fill="#000000" transform="translate(0,0)"/>
<path d="" fill="#000000" transform="translate(0,0)"/>
<path d="" fill="#000000" transform="translate(0,0)"/>
<path d="" fill="#000000" transform="translate(0,0)"/>
<path d="" fill="#000000" transform="translate(0,0)"/>
<path d="" fill="#000000" transform="translate(0,0)"/>
<path d="" fill="#000000" transform="translate(0,0)"/>
<path d="" fill="#000000" transform="translate(0,0)"/>
<path d="" fill="#000000" transform="translate(0,0)"/>
<path d="" fill="#000000" transform="translate(0,0)"/>
<path d="" fill="#000000" transform="translate(0,0)"/>
<path d="" fill="#000000" transform="translate(0,0)"/>
<path d="" fill="#000000" transform="translate(0,0)"/>
<path d="" fill="#000000" transform="translate(0,0)"/>
<path d="" fill="#000000" transform="translate(0,0)"/>
<path d="" fill="#000000" transform="translate(0,0)"/>
<path d="" fill="#000000" transform="translate(0,0)"/>
<path d="" fill="#000000" transform="translate(0,0)"/>
<path d="" fill="#000000" transform="translate(0,0)"/>
<path d="" fill="#000000" transform="translate(0,0)"/>
<path d="" fill="#000000" transform="translate(0,0)"/>
<path d="" fill="#000000" transform="translate(0,0)"/>
<path d="" fill="#000000" transform="translate(0,0)"/>
<path d="" fill="#000000" transform="translate(0,0)"/>
<path d="" fill="#000000" transform="translate(0,0)"/>
<path d="" fill="#000000" transform="translate(0,0)"/>
<path d="" fill="#000000" transform="translate(0,0)"/>
<path d="" fill="#000000" transform="translate(0,0)"/>
<path d="" fill="#000000" transform="translate(0,0)"/>
<path d="" fill="#000000" transform="translate(0,0)"/>
<path d="" fill="#000000" transform="translate(0,0)"/>
<path d="" fill="#000000" transform="translate(0,0)"/>
<path d="" fill="#000000" transform="translate(0,0)"/>
<path d="" fill="#000000" transform="translate(0,0)"/>
<path d="" fill="#000000" transform="translate(0,0)"/>
<path d="" fill="#000000" transform="translate(0,0)"/>
<path d="" fill="#000000" transform="translate(0,0)"/>
<path d="" fill="#000000" transform="translate(0,0)"/>
<path d="" fill="#000000" transform="translate(0,0)"/>
<path d="" fill="#000000" transform="translate(0,0)"/>
<path d="" fill="#000000" transform="translate(0,0)"/>
<path d="" fill="#000000" transform="translate(0,0)"/>
<path d="" fill="#000000" transform="translate(0,0)"/>
<path d="" fill="#000000" transform="translate(0,0)"/>
<path d="" fill="#000000" transform="translate(0,0)"/>
<path d="" fill="#000000" transform="translate(0,0)"/>
<path d="" fill="#000000" transform="translate(0,0)"/>
<path d="" fill="#000000" transform="translate(0,0)"/>
<path d="" fill="#000000" transform="translate(0,0)"/>
<path d="" fill="#000000" transform="translate(0,0)"/>
<path d="" fill="#000000" transform="translate(0,0)"/>
<path d="" fill="#000000" transform="translate(0,0)"/>
<path d="" fill="#000000" transform="translate(0,0)"/>
<path d="" fill="#000000" transform="translate(0,0)"/>
<path d="" fill="#000000" transform="translate(0,0)"/>
<path d="" fill="#000000" transform="translate(0,0)"/>
<path d="" fill="#000000" transform="translate(0,0)"/>
<path d="" fill="#000000" transform="translate(0,0)"/>
<path d="" fill="#000000" transform="translate(0,0)"/>
<path d="" fill="#000000" transform="translate(0,0)"/>
<path d="" fill="#000000" transform="translate(0,0)"/>
<path d="" fill="#000000" transform="translate(0,0)"/>
<path d="" fill="#000000" transform="translate(0,0)"/>
<path d="" fill="#000000" transform="translate(0,0)"/>
<path d="" fill="#000000" transform="translate(0,0)"/>
<path d="" fill="#000000" transform="translate(0,0)"/>
<path d="" fill="#000000" transform="translate(0,0)"/>
<path d="" fill="#000000" transform="translate(0,0)"/>
<path d="" fill="#000000" transform="translate(0,0)"/>
<path d="" fill="#000000" transform="translate(0,0)"/>
<path d="" fill="#000000" transform="translate(0,0)"/>
<path d="" fill="#000000" transform="translate(0,0)"/>
<path d="" fill="#000000" transform="translate(0,0)"/>
<path d="" fill="#000000" transform="translate(0,0)"/>
<path d="" fill="#000000" transform="translate(0,0)"/>
<path d="" fill="#000000" transform="translate(0,0)"/>
<path d="" fill="#000000" transform="translate(0,0)"/>
<path d="" fill="#000000" transform="translate(0,0)"/>
<path d="" fill="#000000" transform="translate(0,0)"/>
<path d="" fill="#000000" transform="translate(0,0)"/>
<path d="" fill="#000000" transform="translate(0,0)"/>
<path d="" fill="#000000" transform="translate(0,0)"/>
<path d="" fill="#000000" transform="translate(0,0)"/>
<path d="" fill="#000000" transform="translate(0,0)"/>
<path d="" fill="#000000" transform="translate(0,0)"/>
<path d="" fill="#000000" transform="translate(0,0)"/>
<path d="" fill="#000000" transform="translate(0,0)"/>
<path d="" fill="#000000" transform="translate(0,0)"/>
<path d="" fill="#000000" transform="translate(0,0)"/>
<path d="" fill="#000000" transform="translate(0,0)"/>
<path d="" fill="#000000" transform="translate(0,0)"/>
<path d="" fill="#000000" transform="translate(0,0)"/>
<path d="" fill="#000000" transform="translate(0,0)"/>
<path d="" fill="#000000" transform="translate(0,0)"/>
<path d="" fill="#000000" transform="translate(0,0)"/>
<path d="" fill="#000000" transform="translate(0,0)"/>
<path d="" fill="#000000" transform="translate(0,0)"/>
<path d="" fill="#000000" transform="translate(0,0)"/>
<path d="" fill="#000000" transform="translate(0,0)"/>
<path d="" fill="#000000" transform="translate(0,0)"/>
<path d="" fill="#000000" transform="translate(0,0)"/>
<path d="" fill="#000000" transform="translate(0,0)"/>
<path d="" fill="#000000" transform="translate(0,0)"/>
<path d="" fill="#000000" transform="translate(0,0)"/>
<path d="" fill="#000000" transform="translate(0,0)"/>
<path d="" fill="#000000" transform="translate(0,0)"/>
<path d="" fill="#000000" transform="translate(0,0)"/>
<path d="" fill="#000000" transform="translate(0,0)"/>
<path d="" fill="#000000" transform="translate(0,0)"/>
<path d="" fill="#000000" transform="translate(0,0)"/>
<path d="" fill="#000000" transform="translate(0,0)"/>
<path d="" fill="#000000" transform="translate(0,0)"/>
<path d="" fill="#000000" transform="translate(0,0)"/>
<path d="" fill="#000000" transform="translate(0,0)"/>
<path d="" fill="#000000" transform="translate(0,0)"/>
<path d="" fill="#000000" transform="translate(0,0)"/>
<path d="" fill="#000000" transform="translate(0,0)"/>
<path d="" fill="#000000" transform="translate(0,0)"/>
<path d="" fill="#000000" transform="translate(0,0)"/>
<path d="" fill="#000000" transform="translate(0,0)"/>
<path d="" fill="#000000" transform="translate(0,0)"/>
<path d="" fill="#000000" transform="translate(0,0)"/>
<path d="" fill="#000000" transform="translate(0,0)"/>
<path d="" fill="#000000" transform="translate(0,0)"/>
<path d="" fill="#000000" transform="translate(0,0)"/>
<path d="" fill="#000000" transform="translate(0,0)"/>
<path d="" fill="#000000" transform="translate(0,0)"/>
<path d="" fill="#000000" transform="translate(0,0)"/>
<path d="" fill="#000000" transform="translate(0,0)"/>
<path d="" fill="#000000" transform="translate(0,0)"/>
<path d="" fill="#000000" transform="translate(0,0)"/>
<path d="" fill="#000000" transform="translate(0,0)"/>
<path d="" fill="#000000" transform="translate(0,0)"/>
<path d="" fill="#000000" transform="translate(0,0)"/>
<path d="" fill="#000000" transform="translate(0,0)"/>
<path d="" fill="#000000" transform="translate(0,0)"/>
<path d="" fill="#000000" transform="translate(0,0)"/>
<path d="" fill="#000000" transform="translate(0,0)"/>
<path d="" fill="#000000" transform="translate(0,0)"/>
<path d="" fill="#000000" transform="translate(0,0)"/>
<path d="" fill="#000000" transform="translate(0,0)"/>
<path d="" fill="#000000" transform="translate(0,0)"/>
<path d="" fill="#000000" transform="translate(0,0)"/>
<path d="" fill="#000000" transform="translate(0,0)"/>
<path d="" fill="#000000" transform="translate(0,0)"/>
<path d="" fill="#000000" transform="translate(0,0)"/>
<path d="" fill="#000000" transform="translate(0,0)"/>
<path d="" fill="#000000" transform="translate(0,0)"/>
<path d="" fill="#000000" transform="translate(0,0)"/>
<path d="" fill="#000000" transform="translate(0,0)"/>
<path d="" fill="#000000" transform="translate(0,0)"/>
<path d="" fill="#000000" transform="translate(0,0)"/>
<path d="" fill="#000000" transform="translate(0,0)"/>
<path d="" fill="#000000" transform="translate(0,0)"/>
<path d="" fill="#000000" transform="translate(0,0)"/>
<path d="" fill="#000000" transform="translate(0,0)"/>
<path d="" fill="#000000" transform="translate(0,0)"/>
<path d="" fill="#000000" transform="translate(0,0)"/>
<path d="" fill="#000000" transform="translate(0,0)"/>
<path d="" fill="#000000" transform="translate(0,0)"/>
<path d="" fill="#000000" transform="translate(0,0)"/>
<path d="" fill="#000000" transform="translate(0,0)"/>
<path d="" fill="#000000" transform="translate(0,0)"/>
<path d="" fill="#000000" transform="translate(0,0)"/>
<path d="" fill="#000000" transform="translate(0,0)"/>
<path d="" fill="#000000" transform="translate(0,0)"/>
<path d="" fill="#000000" transform="translate(0,0)"/>
<path d="" fill="#000000" transform="translate(0,0)"/>
<path d="" fill="#000000" transform="translate(0,0)"/>
<path d="" fill="#000000" transform="translate(0,0)"/>
<path d="" fill="#000000" transform="translate(0,0)"/>
<path d="" fill="#000000" transform="translate(0,0)"/>
<path d="" fill="#000000" transform="translate(0,0)"/>
<path d="" fill="#000000" transform="translate(0,0)"/>
<path d="" fill="#000000" transform="translate(0,0)"/>
<path d="" fill="#000000" transform="translate(0,0)"/>
<path d="" fill="#000000" transform="translate(0,0)"/>
<path d="" fill="#000000" transform="translate(0,0)"/>
<path d="" fill="#000000" transform="translate(0,0)"/>
<path d="" fill="#000000" transform="translate(0,0)"/>
<path d="" fill="#000000" transform="translate(0,0)"/>
<path d="" fill="#000000" transform="translate(0,0)"/>
<path d="" fill="#000000" transform="translate(0,0)"/>
<path d="" fill="#000000" transform="translate(0,0)"/>
<path d="" fill="#000000" transform="translate(0,0)"/>
<path d="" fill="#000000" transform="translate(0,0)"/>
<path d="" fill="#000000" transform="translate(0,0)"/>
<path d="" fill="#000000" transform="translate(0,0)"/>
<path d="" fill="#000000" transform="translate(0,0)"/>
<path d="" fill="#000000" transform="translate(0,0)"/>
<path d="" fill="#000000" transform="translate(0,0)"/>
<path d="" fill="#000000" transform="translate(0,0)"/>
<path d="" fill="#000000" transform="translate(0,0)"/>
<path d="" fill="#000000" transform="translate(0,0)"/>
<path d="" fill="#000000" transform="translate(0,0)"/>
<path d="" fill="#000000" transform="translate(0,0)"/>
<path d="" fill="#000000" transform="translate(0,0)"/>
<path d="" fill="#000000" transform="translate(0,0)"/>
<path d="" fill="#000000" transform="translate(0,0)"/>
<path d="" fill="#000000" transform="translate(0,0)"/>
<path d="" fill="#000000" transform="translate(0,0)"/>
<path d="" fill="#000000" transform="translate(0,0)"/>
<path d="" fill="#000000" transform="translate(0,0)"/>
<path d="" fill="#000000" transform="translate(0,0)"/>
<path d="" fill="#000000" transform="translate(0,0)"/>
<path d="" fill="#000000" transform="translate(0,0)"/>
<path d="" fill="#000000" transform="translate(0,0)"/>
<path d="" fill="#000000" transform="translate(0,0)"/>
<path d="" fill="#000000" transform="translate(0,0)"/>
<path d="" fill="#000000" transform="translate(0,0)"/>
<path d="" fill="#000000" transform="translate(0,0)"/>
<path d="" fill="#000000" transform="translate(0,0)"/>
<path d="" fill="#000000" transform="translate(0,0)"/>
<path d="" fill="#000000" transform="translate(0,0)"/>
<path d="" fill="#000000" transform="translate(0,0)"/>
<path d="" fill="#000000" transform="translate(0,0)"/>
<path d="" fill="#000000" transform="translate(0,0)"/>
<path d="" fill="#000000" transform="translate(0,0)"/>
<path d="" fill="#000000" transform="translate(0,0)"/>
<path d="" fill="#000000" transform="translate(0,0)"/>
<path d="" fill="#000000" transform="translate(0,0)"/>
<path d="" fill="#000000" transform="translate(0,0)"/>
</svg>
