<?xml version="1.0" encoding="UTF-8"?>
<svg version="1.1" xmlns="http://www.w3.org/2000/svg" width="444" height="441">
<path d="M0 0 C1.41829102 -0.01643555 1.41829102 -0.01643555 2.86523438 -0.03320312 C6.85778936 0.00912078 9.59386587 0.0436333 13.03515625 2.16015625 C14.88669701 5.33201577 15.05718 7.91065035 15.3125 11.5625 C15.83058845 16.89358525 15.83058845 16.89358525 18.8125 21.125 C20.00875 21.599375 21.205 22.07375 22.4375 22.5625 C23.81421875 23.21798828 23.81421875 23.21798828 25.21875 23.88671875 C33.54978302 27.76036065 33.54978302 27.76036065 42.4375 27.5625 C45.1196001 25.59283274 47.54357836 23.51814616 49.9453125 21.21484375 C52.4375 19.5625 52.4375 19.5625 55.28125 19.40234375 C59.77694035 21.05484379 62.49159511 23.81113114 65.8125 27.1875 C66.45316406 27.79207031 67.09382812 28.39664062 67.75390625 29.01953125 C70.88650263 32.15212763 72.30959907 33.80780507 73.06640625 38.2734375 C72.37350294 41.8971927 71.65374521 43.0849592 69 45.5625 C66.43635101 47.96559723 65.50086895 49.34231977 64.515625 52.765625 C64.41608794 57.60312632 65.70441902 60.9367827 67.625 65.3125 C68.08229492 66.44365234 68.08229492 66.44365234 68.54882812 67.59765625 C70.82197353 73.07841582 70.82197353 73.07841582 75.4375 76.5625 C78.49762044 76.95748837 81.47920175 77.00078191 84.5625 77.05859375 C88.17456006 77.6916858 89.1596236 78.7349569 91.4375 81.5625 C91.95507812 84.08032227 91.95507812 84.08032227 91.96875 86.87890625 C91.97648437 88.39581055 91.97648437 88.39581055 91.984375 89.94335938 C91.96890625 90.99330078 91.9534375 92.04324219 91.9375 93.125 C91.96070313 94.70571289 91.96070313 94.70571289 91.984375 96.31835938 C91.97921875 97.32833984 91.9740625 98.33832031 91.96875 99.37890625 C91.96423828 100.30131104 91.95972656 101.22371582 91.95507812 102.17407227 C91.4375 104.5625 91.4375 104.5625 89.56811523 106.36108398 C86.93139563 107.84788325 85.01280079 107.9622126 82 108.0625 C77.60195913 108.20930526 74.8791312 108.71599589 71.4375 111.5625 C69.81673704 114.16986286 68.6895811 116.90044496 67.5625 119.75 C67.2428125 120.48025391 66.923125 121.21050781 66.59375 121.96289062 C64.41992233 127.29821985 64.04468797 130.93791016 65.4375 136.5625 C66.97426754 138.92121104 66.97426754 138.92121104 69 140.6875 C71.38289197 142.92176088 72.32879689 144.10967758 73.09765625 147.3125 C72.07656871 152.3393925 68.91970472 154.95188645 65.3125 158.4375 C64.64734375 159.12585938 63.9821875 159.81421875 63.296875 160.5234375 C60.31599953 163.46924384 58.39645615 165.35239822 54.24609375 166.26171875 C50.75277882 165.39203395 49.2013648 163.99091323 46.625 161.5 C42.46426204 157.89577639 42.46426204 157.89577639 37.25 157.125 C32.82874503 158.11898718 28.64052958 159.99773558 24.5 161.8125 C23.83653564 162.09939697 23.17307129 162.38629395 22.48950195 162.68188477 C19.55333486 164.0728603 17.70056983 165.11920554 16.0234375 167.9453125 C15.19446788 171.64804347 15.0394711 175.25801925 14.87890625 179.0390625 C14.35604044 182.02818914 13.81951731 182.74377572 11.4375 184.5625 C7.65701311 185.22716702 3.83244733 185.07187602 0 185.0625 C-1.04994141 185.09085938 -2.09988281 185.11921875 -3.18164062 185.1484375 C-10.80441296 185.16787095 -10.80441296 185.16787095 -14.2578125 182.41015625 C-16.12898927 178.32606085 -16.00167631 174.82931751 -15.99609375 170.40234375 C-16.32477553 167.41477051 -16.32477553 167.41477051 -18.66796875 165.39453125 C-21.84218426 163.38547986 -24.98981997 161.80624321 -28.4375 160.3125 C-30.19707031 159.53132813 -30.19707031 159.53132813 -31.9921875 158.734375 C-35.86171677 157.46428881 -38.52245508 157.05163585 -42.5625 157.5625 C-45.33101044 159.44525189 -47.52851833 161.59230382 -49.9375 163.91015625 C-52.5625 165.5625 -52.5625 165.5625 -55.98046875 165.6640625 C-60.4831417 164.27938009 -62.70501062 162.24741527 -65.875 158.875 C-66.39900391 158.35744141 -66.92300781 157.83988281 -67.46289062 157.30664062 C-70.68077215 153.99811455 -72.59216073 151.19783691 -73.5625 146.5625 C-72.18603088 143.32374913 -70.25981179 141.21657061 -67.9375 138.5625 C-65.4361461 135.40289507 -64.75396226 134.48747626 -64.5625 130.5625 C-65.43709587 127.41516016 -66.67242315 124.44567893 -67.9375 121.4375 C-68.59140513 119.83083467 -69.2450613 118.224068 -69.8984375 116.6171875 C-70.19282715 115.91062012 -70.4872168 115.20405273 -70.79052734 114.47607422 C-71.44191507 112.86140724 -72.01191346 111.21425963 -72.5625 109.5625 C-74.22539062 109.43294922 -74.22539062 109.43294922 -75.921875 109.30078125 C-77.38553166 109.16004503 -78.84906784 109.01805176 -80.3125 108.875 C-81.04210937 108.82150391 -81.77171875 108.76800781 -82.5234375 108.71289062 C-86.03098214 108.34619278 -88.25708082 107.80346852 -91.04296875 105.60546875 C-93.22578017 101.23423456 -93.18441216 97.38536956 -93.125 92.5625 C-93.14884766 91.67304688 -93.17269531 90.78359375 -93.19726562 89.8671875 C-93.18728797 85.41050336 -93.01045056 83.19363034 -90.375 79.48046875 C-87.28501407 77.37327001 -85.69540057 76.94181531 -82 76.875 C-76.9243526 76.82250778 -76.9243526 76.82250778 -72.5625 74.5625 C-71.1628778 71.95161055 -69.98933575 69.47635957 -68.875 66.75 C-68.56755859 66.03779297 -68.26011719 65.32558594 -67.94335938 64.59179688 C-65.04636385 58.09709989 -65.04636385 58.09709989 -65.125 51.1875 C-66.45340611 48.76171493 -67.78882016 47.10171895 -69.625 45.0625 C-73.75732558 40.3615989 -73.75732558 40.3615989 -73.5625 36.5625 C-70.94397396 32.14526682 -67.95254797 28.72502327 -64.1875 25.25 C-63.27226562 24.38761719 -62.35703125 23.52523438 -61.4140625 22.63671875 C-58.23281486 20.32268793 -56.49333693 19.51057349 -52.5625 19.5625 C-50.03515625 21.21484375 -50.03515625 21.21484375 -47.625 23.5 C-44.7329514 26.24156803 -43.280531 27.46115113 -39.296875 28.0234375 C-34.71094185 27.45739136 -30.97024095 26.06913248 -26.75 24.25 C-25.98751953 23.94126953 -25.22503906 23.63253906 -24.43945312 23.31445312 C-19.7801169 21.4212304 -19.7801169 21.4212304 -16.5625 17.5625 C-16.30158007 14.55978211 -16.24830503 11.58345504 -16.19921875 8.5703125 C-14.32047175 -0.30475003 -7.58261226 -0.19203056 0 0 Z M-28.5625 68.5625 C-29.243125 69.284375 -29.92375 70.00625 -30.625 70.75 C-36.80510946 79.72112664 -38.82615576 90.21077204 -36.9375 100.875 C-34.44426864 110.84792545 -28.96690806 118.70153122 -20.5625 124.5625 C-11.14278848 129.75541789 -1.00766992 131.34306728 9.58984375 128.80859375 C19.95125388 125.18423218 28.26279056 119.25613173 33.3125 109.375 C37.45914149 100.65606838 37.86356575 90.55893256 35.63671875 81.1953125 C31.36563487 69.89381907 24.0755869 62.68319401 13.234375 57.62109375 C-1.88455554 51.89870524 -17.96620581 56.78883979 -28.5625 68.5625 Z " fill="#459FBA" transform="translate(351.5625,256.4375)"/>
<path d="M0 0 C7.72383272 2.98112842 11.2738018 13.34727257 14.828125 20.4296875 C15.30642761 21.3707132 15.78473022 22.31173889 16.27752686 23.28128052 C17.79451581 26.26818626 19.30385206 29.25887404 20.8125 32.25 C22.79464102 36.16519677 24.7798266 40.07884471 26.765625 43.9921875 C27.25266907 44.95308289 27.73971313 45.91397827 28.24151611 46.9039917 C32.56862883 55.42513354 37.01275232 63.88176627 41.48254395 72.32867432 C44.12149306 77.32901607 46.71463604 82.35322736 49.3125 87.375 C49.89539795 88.50019043 50.4782959 89.62538086 51.07885742 90.78466797 C53.52394311 95.50460979 55.96757165 100.22530516 58.41064453 104.94628906 C59.63274327 107.30786453 60.85541697 109.6691395 62.07836914 112.03027344 C63.26500115 114.32194542 64.45040924 116.6142516 65.63452148 118.90722656 C68.18150315 123.8302027 70.74378377 128.73991429 73.40625 133.6015625 C73.82865967 134.37741699 74.25106934 135.15327148 74.6862793 135.95263672 C75.44386597 137.33711118 76.21008039 138.71692389 76.98754883 140.09033203 C79.49835176 144.68560981 81.31032393 149.3837043 80 154.625 C77.29912104 157.91302656 73.70836069 159.23088348 69.56083679 159.75252342 C68.49750626 159.7536545 67.43417572 159.75478558 66.33862305 159.75595093 C65.11057953 159.7644104 63.88253601 159.77286987 62.61727905 159.78158569 C61.26959094 159.77575372 59.92190416 159.76960927 58.57421875 159.76318359 C57.14465942 159.76725191 55.71510324 159.77259525 54.28555298 159.77911377 C50.41364928 159.79276237 46.54198605 159.78749897 42.67007828 159.77797651 C38.61297215 159.77036715 34.55588625 159.77742907 30.4987793 159.78213501 C23.68632318 159.78758885 16.87396472 159.78041073 10.06152344 159.76611328 C2.1918502 159.74978744 -5.67758984 159.75507622 -13.54725742 159.7715925 C-20.31091841 159.78521798 -27.07450931 159.78712184 -33.83817959 159.77927649 C-37.87479409 159.7746058 -41.91129908 159.77395845 -45.94790649 159.78388596 C-49.74338287 159.79256885 -53.53855937 159.7865098 -57.33400345 159.76920319 C-58.72473274 159.76524537 -60.11548739 159.76636032 -61.50620651 159.77299118 C-63.40866936 159.78122388 -65.31118753 159.769056 -67.21362305 159.75595093 C-68.80861885 159.75425431 -68.80861885 159.75425431 -70.43583679 159.75252342 C-73.9970299 159.30462713 -76.3795795 158.23443684 -79.4375 156.375 C-81.98387718 152.55543422 -81.90374403 150.92773581 -81.4375 146.375 C-80.25058802 143.14387973 -78.68067014 140.15895758 -77.0625 137.125 C-76.60770264 136.24513428 -76.15290527 135.36526855 -75.68432617 134.45874023 C-74.28298474 131.75641227 -72.86237327 129.06498043 -71.4375 126.375 C-70.64907576 124.87144166 -69.86127974 123.36755366 -69.07421875 121.86328125 C-67.47444064 118.81266756 -65.8658637 115.76684929 -64.25390625 112.72265625 C-60.85819966 106.29432152 -57.52383144 99.83427069 -54.1875 93.375 C-53.54297599 92.12751905 -52.89844471 90.88004185 -52.25390625 89.63256836 C-51.27995202 87.74741523 -50.3060387 85.862241 -49.33224487 83.977005 C-41.2056623 68.24552595 -33.06860136 52.51890888 -24.85058594 36.83496094 C-22.26998247 31.90741025 -19.71685798 26.96787019 -17.19921875 22.0078125 C-16.39605225 20.43725098 -16.39605225 20.43725098 -15.57666016 18.83496094 C-14.55420217 16.83437576 -13.53908683 14.83001424 -12.53271484 12.82128906 C-6.3057431 0.68789925 -6.3057431 0.68789925 0 0 Z " fill="#459FBA" transform="translate(83.4375,1.625)"/>
<path d="M0 0 C13.27408076 -0.04640496 26.54814211 -0.0819107 39.82228756 -0.10362434 C45.98645334 -0.11404744 52.15056349 -0.12817981 58.31469727 -0.15087891 C64.26692309 -0.17265971 70.2190955 -0.18457971 76.17135811 -0.18975449 C78.43866376 -0.19344083 80.7059666 -0.2006393 82.97324944 -0.21146011 C86.15662761 -0.22604451 89.33978698 -0.22797502 92.52319336 -0.22705078 C93.45396194 -0.23424133 94.38473053 -0.24143188 95.34370422 -0.24884033 C109.26237739 -0.2053071 109.26237739 -0.2053071 114.25 3.8125 C114.8275 4.534375 115.405 5.25625 116 6 C116.804375 6.7425 117.60875 7.485 118.4375 8.25 C123.62006009 13.81177181 126.57399978 19.84968358 129 27 C129.33 27 129.66 27 130 27 C130 45.81 130 64.62 130 84 C135.28 84 140.56 84 146 84 C146.66 84.66 147.32 85.32 148 86 C148.66 86.33 149.32 86.66 150 87 C152.24100736 90.36151105 152.5996334 93.02742875 152 97 C148.07548766 103.97168681 142.85612204 110.29013403 138 116.625 C137.31421875 117.52734375 136.6284375 118.4296875 135.921875 119.359375 C125.19509139 133.4024543 125.19509139 133.4024543 122 135 C119.1875 135.375 119.1875 135.375 116 135 C110.94653964 130.67866641 107.16568791 125.16405479 103.1875 119.875 C102.47916016 118.93446777 101.77082031 117.99393555 101.04101562 117.02490234 C99.6488437 115.17454321 98.25800823 113.32317764 96.86865234 111.47070312 C95.32794019 109.43359743 93.76544675 107.42072005 92.17578125 105.421875 C89.17150421 101.56000362 87.19985561 98.95315754 86.1875 94.125 C87.21170769 90.18573966 88.94168395 88.61075761 92 86 C92.33 85.34 92.66 84.68 93 84 C98.28 84 103.56 84 109 84 C108.99476318 82.39970947 108.98952637 80.79941895 108.98413086 79.15063477 C108.96608886 73.23739171 108.95457093 67.32415111 108.94506836 61.41088867 C108.9400263 58.84708243 108.93319286 56.28327909 108.92456055 53.71948242 C108.91248936 50.04344979 108.90677058 46.36745502 108.90234375 42.69140625 C108.89718246 41.53725723 108.89202118 40.38310822 108.88670349 39.19398499 C108.88662796 38.13296066 108.88655243 37.07193634 108.88647461 35.97875977 C108.884254 35.03944107 108.88203339 34.10012238 108.87974548 33.13233948 C109 31 109 31 110 30 C108.13478767 24.89520836 106.70401937 22.05761259 102 19 C99.28552863 18.09517621 97.67322283 17.86655584 94.8808136 17.84178162 C94.04368835 17.8319928 93.20656311 17.82220398 92.34407043 17.81211853 C90.97166451 17.80348534 90.97166451 17.80348534 89.5715332 17.79467773 C88.60549164 17.78477814 87.63945007 17.77487854 86.64413452 17.76467896 C83.44637515 17.7330547 80.24860092 17.70830278 77.05078125 17.68359375 C74.83546052 17.66302503 72.62014372 17.64202858 70.40483093 17.62062073 C64.57037539 17.56539163 58.73588437 17.515986 52.90136719 17.46777344 C46.94918659 17.41756457 40.99705758 17.36187529 35.04492188 17.30664062 C23.36332531 17.19904878 11.68168397 17.09760604 0 17 C0 11.39 0 5.78 0 0 Z " fill="#010101" transform="translate(232,72)"/>
<path d="M0 0 C5.29883985 5.26136919 9.67601926 11.41884038 14.0625 17.4375 C14.64837891 18.23220703 15.23425781 19.02691406 15.83789062 19.84570312 C18.74523679 23.81143946 21.60479465 27.80995739 24.39453125 31.859375 C24.88155518 32.56416992 25.3685791 33.26896484 25.87036133 33.99511719 C27.65322927 37.15935137 27.6886603 39.48783246 27 43 C24.78136971 45.90717073 23.48055071 46.83981643 20 48 C18.66474283 48.07973476 17.32587917 48.10771338 15.98828125 48.09765625 C14.85229492 48.09282227 14.85229492 48.09282227 13.69335938 48.08789062 C12.51483398 48.07532227 12.51483398 48.07532227 11.3125 48.0625 C10.11657227 48.05573242 10.11657227 48.05573242 8.89648438 48.04882812 C6.93095743 48.0370585 4.96546915 48.01912348 3 48 C3.09264861 54.28077965 3.20000179 60.56118699 3.31738281 66.84155273 C3.35556906 68.97626097 3.39043968 71.11103129 3.421875 73.24584961 C3.46775077 76.32167686 3.52570794 79.3970806 3.5859375 82.47265625 C3.60326431 83.89494286 3.60326431 83.89494286 3.62094116 85.34596252 C3.72495039 94.06539791 3.72495039 94.06539791 7.40234375 101.7421875 C11.47771566 104.74945939 14.31642023 106.11614688 19.3469696 106.15821838 C20.23457977 106.1680072 21.12218994 106.17779602 22.03669739 106.18788147 C23.49325996 106.19651466 23.49325996 106.19651466 24.97924805 106.20532227 C26.00381104 106.21522186 27.02837402 106.22512146 28.08398438 106.23532104 C31.47653885 106.26695337 34.86910734 106.29170041 38.26171875 106.31640625 C40.61156075 106.33697427 42.96139903 106.3579707 45.31123352 106.37937927 C51.50079342 106.43461557 57.69038679 106.48401802 63.88000488 106.53222656 C70.19412216 106.58243018 76.50819073 106.6381222 82.82226562 106.69335938 C95.21480216 106.80096002 107.60738095 106.9024008 120 107 C120 112.61 120 118.22 120 124 C105.18808961 124.06941386 90.37621375 124.12296684 75.5641737 124.15543652 C68.68685053 124.17091274 61.80963021 124.19201652 54.93237305 124.22631836 C48.29937783 124.25938615 41.66646162 124.27683769 35.03338051 124.28463173 C32.49874499 124.29018834 29.96411553 124.30103856 27.42952538 124.31719017 C23.88802666 124.33886714 20.34697395 124.34197096 16.80541992 124.34057617 C15.75022156 124.351362 14.69502319 124.36214783 13.60784912 124.3732605 C12.64451157 124.36913651 11.68117401 124.36501251 10.68864441 124.36076355 C9.85073459 124.36352893 9.01282476 124.36629431 8.14952374 124.36914349 C5.49466393 123.91321728 4.77325877 122.95827375 3 121 C2.01 120.67 1.02 120.34 0 120 C-0.99 119.01 -0.99 119.01 -2 118 C-2.99 117.505 -2.99 117.505 -4 117 C-5.20196235 115.35200825 -6.33843341 113.65582561 -7.4375 111.9375 C-8.33275391 110.55884766 -8.33275391 110.55884766 -9.24609375 109.15234375 C-13.31349473 101.84189254 -14.44035533 95.97925482 -14.44140625 87.734375 C-14.45461411 86.7785553 -14.46782196 85.8227356 -14.48143005 84.83795166 C-14.52206055 81.80860386 -14.54393299 78.77955737 -14.5625 75.75 C-14.58631688 72.70625115 -14.61443281 69.66278463 -14.65428162 66.61920166 C-14.67857137 64.73172873 -14.69348458 62.84410601 -14.69789124 60.95648193 C-14.70807785 60.1016925 -14.71826447 59.24690308 -14.72875977 58.36621094 C-14.73303482 57.61756775 -14.73730988 56.86892456 -14.74171448 56.09759521 C-15.03543367 53.71223517 -15.85041963 52.09278051 -17 50 C-17 49.67 -17 49.34 -17 49 C-18.02480469 48.97421875 -19.04960938 48.9484375 -20.10546875 48.921875 C-21.46618699 48.86556942 -22.82686243 48.80822263 -24.1875 48.75 C-24.86103516 48.73582031 -25.53457031 48.72164063 -26.22851562 48.70703125 C-31.05736189 48.47147777 -33.59327656 47.41313912 -37 44 C-38.49837385 41.0032523 -38.44084752 39.36194155 -38 36 C-36.24109056 32.83054916 -34.04172465 30.03875258 -31.8125 27.1875 C-31.18480713 26.36451416 -30.55711426 25.54152832 -29.91040039 24.69360352 C-28.60165729 22.97969912 -27.28735963 21.27002313 -25.96777344 19.56445312 C-24.06249932 17.08145073 -22.20115909 14.57152894 -20.3515625 12.046875 C-19.21389519 10.51015489 -18.07588907 8.97368552 -16.9375 7.4375 C-16.41454346 6.71780029 -15.89158691 5.99810059 -15.3527832 5.2565918 C-10.97365055 -0.56270099 -7.20122428 -3.74463663 0 0 Z " fill="#010101" transform="translate(88,246)"/>
<path d="M0 0 C2.87029869 1.79393668 4.49131638 2.98263276 6 6 C6.10144496 7.91899183 6.13839963 9.84152451 6.14526367 11.76318359 C6.15164352 12.97138763 6.15802338 14.17959167 6.16459656 15.42440796 C6.16570938 16.73583771 6.1668222 18.04726746 6.16796875 19.3984375 C6.17118143 20.75363195 6.17454552 22.10882606 6.17805481 23.46401978 C6.18404735 26.30707605 6.18589462 29.15010192 6.18530273 31.99316406 C6.18520119 35.63381049 6.19884462 39.27426153 6.21607494 42.91486168 C6.22720235 45.71500542 6.2292217 48.51510207 6.22869301 51.31526566 C6.23044545 53.30942478 6.24128308 55.3035692 6.25224304 57.29769897 C6.24916641 58.51220734 6.24608978 59.7267157 6.24291992 60.97802734 C6.24434494 62.04677094 6.24576996 63.11551453 6.24723816 64.21664429 C5.99589797 67.04617982 5.5676832 68.65123605 4 71 C-0.05367246 73.57960975 -3.20806066 74.71369309 -8 74 C-11.48929374 71.77954035 -13.49134792 69.82871292 -15 66 C-15.26742554 63.27479553 -15.26742554 63.27479553 -15.29052734 60.11743164 C-15.30328705 58.93262711 -15.31604675 57.74782257 -15.32919312 56.52711487 C-15.33141876 55.25101852 -15.33364441 53.97492218 -15.3359375 52.66015625 C-15.3425943 51.34591171 -15.3492511 50.03166718 -15.35610962 48.67759705 C-15.36807061 45.89774287 -15.37179161 43.11801286 -15.37060547 40.33813477 C-15.37040218 36.78259192 -15.39771782 33.22784754 -15.43214989 29.67249393 C-15.45978184 26.27253606 -15.4585683 22.87272496 -15.4609375 19.47265625 C-15.47530853 18.19858414 -15.48967957 16.92451202 -15.50448608 15.61183167 C-15.49833282 14.42387497 -15.49217957 13.23591827 -15.48583984 12.01196289 C-15.48868988 10.96923721 -15.49153992 9.92651154 -15.49447632 8.85218811 C-14.8736274 5.27107042 -13.48887223 3.5983272 -11 1 C-7.54260443 -0.72869779 -3.78024432 -0.48966895 0 0 Z " fill="#020506" transform="translate(87,39)"/>
<path d="M0 0 C4.14623807 1.79042098 6.17613802 3.87231236 8 8 C8.5931368 11.98248997 8.17424115 13.67640929 6.25 17.25 C2.87808772 21.37122612 1.36289497 21.84856723 -3.9375 22.4375 C-7.51161538 22.37081874 -7.97208019 22.02316751 -10.9375 19.5625 C-11.618125 18.716875 -12.29875 17.87125 -13 17 C-13.33 16.67 -13.66 16.34 -14 16 C-14.55720584 12.21896039 -14.84003776 8.52021759 -12.953125 5.10546875 C-8.87904054 0.18061959 -6.27397078 -0.42535395 0 0 Z " fill="#010306" transform="translate(86,121)"/>
<path d="M0 0 C0.99 1.485 0.99 1.485 2 3 C3.82718148 5.83200792 3.82718148 5.83200792 7 8 C10.08179761 8.43423414 13.04872844 8.56248263 16.16015625 8.56640625 C19.77939725 9.11900013 20.72843784 10.17825419 23 13 C23.51757812 15.51782227 23.51757812 15.51782227 23.53125 18.31640625 C23.53640625 19.32767578 23.5415625 20.33894531 23.546875 21.38085938 C23.53140625 22.43080078 23.5159375 23.48074219 23.5 24.5625 C23.51546875 25.61630859 23.5309375 26.67011719 23.546875 27.75585938 C23.54171875 28.76583984 23.5365625 29.77582031 23.53125 30.81640625 C23.52673828 31.73881104 23.52222656 32.66121582 23.51757812 33.61157227 C23 36 23 36 21.16894531 37.79199219 C18.18604592 39.45333687 15.64208074 39.51789596 12.25 39.6875 C10.49429687 39.78611328 10.49429687 39.78611328 8.703125 39.88671875 C7.81109375 39.92410156 6.9190625 39.96148437 6 40 C6 39.34 6 38.68 6 38 C11.5468326 36.44299436 14.97206487 36 21 36 C20.505 24.615 20.505 24.615 20 13 C16.27576474 11.13788237 14.55574383 10.69780854 10.5625 10.4375 C6.95641825 10.19174478 3.53252806 9.77574573 0 9 C0 6.03 0 3.06 0 0 Z " fill="#4B96A9" transform="translate(420,325)"/>
<path d="M0 0 C0.33 0 0.66 0 1 0 C1.07476562 0.96421875 1.14953125 1.9284375 1.2265625 2.921875 C1.74305738 10.38282786 1.74305738 10.38282786 5.375 16.5625 C6.57125 17.036875 7.7675 17.51125 9 18 C9.9178125 18.43699219 10.835625 18.87398438 11.78125 19.32421875 C17.71147428 22.05721353 22.47380614 24.01268525 29 23 C31.28104135 21.85947933 32.98974463 20.60820429 35 19 C33.79618552 21.49361571 32.54571278 23.68143083 31 26 C28.1796875 26.29296875 28.1796875 26.29296875 24.875 26.1875 C23.77929688 26.16042969 22.68359375 26.13335937 21.5546875 26.10546875 C20.29011719 26.05326172 20.29011719 26.05326172 19 26 C18.67 25.34 18.34 24.68 18 24 C15.6859378 23.26924352 13.35171131 22.59861742 11 22 C11 21.34 11 20.68 11 20 C10.2575 19.87625 9.515 19.7525 8.75 19.625 C4.36332389 18.62802816 2.53339359 17.80009038 0 14 C-0.1953125 10.64453125 -0.1953125 10.64453125 -0.125 6.8125 C-0.10695313 5.54019531 -0.08890625 4.26789063 -0.0703125 2.95703125 C-0.04710937 1.98121094 -0.02390625 1.00539063 0 0 Z " fill="#4C94A9" transform="translate(365,261)"/>
<path d="M0 0 C2.31 0.33 4.62 0.66 7 1 C7.88764774 4.7743839 8.09509847 8.20313625 8.02172852 12.07543945 C7.99158409 13.87674065 7.99158409 13.87674065 7.96083069 15.71443176 C7.93379562 17.00105209 7.90676056 18.28767242 7.87890625 19.61328125 C7.85458301 20.95134137 7.83074058 22.2894103 7.80735779 23.62748718 C7.74473594 27.13744201 7.67560821 30.64723933 7.60510254 34.15704346 C7.53422038 37.74329498 7.46952269 41.32965756 7.40429688 44.91601562 C7.27556718 51.94413101 7.13996072 58.97209857 7 66 C6.67 66 6.34 66 6 66 C5.99857498 65.2616391 5.99714996 64.5232782 5.99568176 63.76254272 C5.97781863 56.7886828 5.93610718 49.81532465 5.86790943 42.84178734 C5.83368415 39.256908 5.80853658 35.67245276 5.80444336 32.08740234 C5.80015052 28.62457797 5.77160922 25.16270951 5.72656822 21.70018387 C5.7073441 19.74279142 5.71294109 17.7852059 5.71894836 15.82772827 C5.7640807 8.45925093 5.7640807 8.45925093 2.45581055 2.14306641 C1.64539307 1.43585449 0.83497559 0.72864258 0 0 Z " fill="#5891A0" transform="translate(87,39)"/>
<path d="M0 0 C1.14626322 0.97866338 2.29199788 1.95794587 3.4375 2.9375 C4.07558594 3.48277344 4.71367187 4.02804687 5.37109375 4.58984375 C7.97446566 6.84360217 7.97446566 6.84360217 8.5 10.0625 C7.95463155 14.35727657 7.41164888 15.01101559 4.5625 18 C2.11436918 20.59740709 1.02277872 21.93526047 -0.1875 25.375 C0.0373455 29.72201298 1.31023254 32.92400627 3.08984375 36.86328125 C4 39 4 39 4 41 C3.34 41 2.68 41 2 41 C1.26320142 39.29196692 0.52771447 37.58334877 -0.19921875 35.87109375 C-0.84397614 34.36456306 -1.51207936 32.86803509 -2.1875 31.375 C-3.13370352 28.60917434 -3.42494758 26.90380847 -3 24 C-1.71810412 21.96664791 -0.37843192 19.96918846 1 18 C2.10895348 15.69857354 3.05029672 13.37425819 4 11 C4.33 11.66 4.66 12.32 5 13 C5.66 13 6.32 13 7 13 C5.71170874 7.96395233 3.73667619 5.54000903 0 2 C0 1.34 0 0.68 0 0 Z " fill="#4B93A7" transform="translate(416,284)"/>
<path d="M0 0 C0 0.99 0 1.98 0 3 C-0.89203125 3.12117188 -1.7840625 3.24234375 -2.703125 3.3671875 C-3.87359375 3.53476562 -5.0440625 3.70234375 -6.25 3.875 C-7.41015625 4.03742188 -8.5703125 4.19984375 -9.765625 4.3671875 C-12.62399267 4.92643335 -14.47555949 5.65139204 -17 7 C-17 7.65073486 -17 8.30146973 -17 8.97192383 C-17 16.64794922 -17 24.32397461 -17 32 C-19.80460373 29.36695447 -20.25823021 27.10083137 -20.46875 23.41015625 C-20.49525387 21.62777078 -20.50511867 19.84507517 -20.5 18.0625 C-20.52835937 17.16853516 -20.55671875 16.27457031 -20.5859375 15.35351562 C-20.59923282 10.8763181 -20.45971853 8.64969166 -17.81640625 4.9140625 C-14.72471036 2.81290996 -13.13114261 2.37928352 -9.4375 2.3125 C-5.7057317 2.21415937 -3.23936787 1.91313255 0 0 Z " fill="#5296A8" transform="translate(279,331)"/>
<path d="M0 0 C2.44579363 1.61980935 3.54427392 2.5041651 5 5 C5.73128999 9.60580368 5.58004896 14.17902361 5.48828125 18.83203125 C5.47894812 20.1925069 5.47183436 21.55299942 5.46684265 22.91349792 C5.44781131 26.48301117 5.3987468 30.05149653 5.34332275 33.62060547 C5.29204504 37.26711117 5.26931062 40.91378405 5.24414062 44.56054688 C5.19062213 51.7074501 5.10535818 58.85365771 5 66 C4.67 66 4.34 66 4 66 C3.99413376 65.25719788 3.98826752 64.51439575 3.98222351 63.74908447 C3.92429422 56.74522933 3.85221653 49.74169563 3.76428509 42.73816299 C3.71957747 39.13763929 3.68032259 35.53722883 3.65356445 31.93652344 C3.62753479 28.46092359 3.58713579 24.98575943 3.53681374 21.51042938 C3.51203501 19.54076478 3.50209914 17.57093161 3.49235535 15.60113525 C3.47256119 14.40019226 3.45276703 13.19924927 3.43237305 11.96191406 C3.42126999 10.90490295 3.41016693 9.84789185 3.39872742 8.7588501 C2.9492673 5.64897342 1.98919391 4.366517 0 2 C0 1.34 0 0.68 0 0 Z " fill="#001720" transform="translate(88,40)"/>
<path d="M0 0 C1.32 0 2.64 0 4 0 C8 6.625 8 6.625 8 10 C8.66 10 9.32 10 10 10 C12.57436427 14.97922307 12.55476033 20.14149516 12.8125 25.625 C12.87630859 26.57890625 12.94011719 27.5328125 13.00585938 28.515625 C13.05162109 29.43085938 13.09738281 30.34609375 13.14453125 31.2890625 C13.18940674 32.12131348 13.23428223 32.95356445 13.28051758 33.81103516 C12.93566935 36.5019918 12.07124617 37.32523111 10 39 C10.05800781 37.69546875 10.11601562 36.3909375 10.17578125 35.046875 C10.60822855 21.14868419 8.85859116 11.1365146 0 0 Z " fill="#4B93A9" transform="translate(377,322)"/>
<path d="M0 0 C0.99 0.33 1.98 0.66 3 1 C2.01 1.66 1.02 2.32 0 3 C-1.02436768 4.72259908 -1.02436768 4.72259908 -1.7890625 6.73828125 C-2.24152344 7.84526367 -2.24152344 7.84526367 -2.703125 8.97460938 C-3.00734375 9.74611328 -3.3115625 10.51761719 -3.625 11.3125 C-3.93695313 12.07240234 -4.24890625 12.83230469 -4.5703125 13.61523438 C-6.08908957 17.38271801 -7.40284558 20.95710317 -8 25 C-8.66 24.67 -9.32 24.34 -10 24 C-9.25749403 19.91621717 -8.17076699 15.98060777 -7 12 C-6.34 12 -5.68 12 -5 12 C-5.66 9.36 -6.32 6.72 -7 4 C-5.68 4 -4.36 4 -3 4 C-1.22590192 2.07977297 -1.22590192 2.07977297 0 0 Z " fill="#4A95AA" transform="translate(423,365)"/>
<path d="M0 0 C0.95390625 0.00580078 1.9078125 0.01160156 2.890625 0.01757812 C9.93104374 0.14152916 9.93104374 0.14152916 13.375 2.4375 C13.045 3.0975 12.715 3.7575 12.375 4.4375 C11.385 3.7775 10.395 3.1175 9.375 2.4375 C7.05233918 2.16237581 7.05233918 2.16237581 4.48828125 2.2421875 C3.55048828 2.24863281 2.61269531 2.25507813 1.64648438 2.26171875 C0.67001953 2.27847656 -0.30644531 2.29523438 -1.3125 2.3125 C-2.79459961 2.32603516 -2.79459961 2.32603516 -4.30664062 2.33984375 C-6.74633765 2.3634157 -9.18554697 2.39631978 -11.625 2.4375 C-13.61008922 6.10120852 -13.99932119 9.00951984 -14.25 13.1875 C-14.32476562 14.35796875 -14.39953125 15.5284375 -14.4765625 16.734375 C-14.52554687 17.62640625 -14.57453125 18.5184375 -14.625 19.4375 C-15.615 19.4375 -16.605 19.4375 -17.625 19.4375 C-17.295 18.7775 -16.965 18.1175 -16.625 17.4375 C-16.46624273 14.45198134 -16.37113077 11.46926334 -16.296875 8.48046875 C-14.31980047 -0.47383972 -7.67569249 -0.26666234 0 0 Z " fill="#4F8FA2" transform="translate(351.625,256.5625)"/>
<path d="M0 0 C3.875 1.75 3.875 1.75 5 4 C6.32 4 7.64 4 9 4 C10.10844919 7.32534757 9.84454356 9.62182575 9 13 C7.86800647 12.0919838 6.74467637 11.17316174 5.625 10.25 C4.99851562 9.73953125 4.37203125 9.2290625 3.7265625 8.703125 C1.88150118 6.88310976 0.93802941 5.40666131 0 3 C0 2.01 0 1.02 0 0 Z " fill="#459AB4" transform="translate(278,293)"/>
<path d="M0 0 C0.66 0.33 1.32 0.66 2 1 C1.34 2.65 0.68 4.3 0 6 C-0.66 6 -1.32 6 -2 6 C-2.20625 6.94875 -2.4125 7.8975 -2.625 8.875 C-3.86171634 13.29829202 -6.21372533 16.91354307 -8.66015625 20.765625 C-10.13373524 23.04007331 -10.13373524 23.04007331 -11 26 C-11.66 26 -12.32 26 -13 26 C-11.36036204 20.05384306 -8.37624538 14.96477922 -5.375 9.625 C-4.6015625 8.23474609 -4.6015625 8.23474609 -3.8125 6.81640625 C-2.54617189 4.54170575 -1.27524075 2.26971208 0 0 Z " fill="#4C93A7" transform="translate(76,6)"/>
<path d="M0 0 C3.32267541 3.0114008 5.29901994 6.00301725 7.3125 10 C7.84488281 11.03125 8.37726563 12.0625 8.92578125 13.125 C10.02641449 16.07069477 10.17205481 17.14868537 9 20 C8.02890359 18.05780718 7.05818268 16.11544495 6.08984375 14.171875 C5.15822495 12.31531568 4.20616707 10.4690365 3.25 8.625 C2 6 2 6 2 4 C0.68 3.67 -0.64 3.34 -2 3 C-2 2.34 -2 1.68 -2 1 C-1.34 0.67 -0.68 0.34 0 0 Z " fill="#4D97AB" transform="translate(277,362)"/>
<path d="M0 0 C0.33 0 0.66 0 1 0 C1.12156361 4.25472632 0.92751122 8.14497757 -1 12 C-1.66 12.309375 -2.32 12.61875 -3 12.9375 C-5.34608221 13.8891846 -5.34608221 13.8891846 -6 17 C-6.66 16.67 -7.32 16.34 -8 16 C-5.36 10.72 -2.72 5.44 0 0 Z " fill="#4A97AF" transform="translate(62,32)"/>
<path d="M0 0 C1 3 1 3 0.25 5.0625 C-1 7 -1 7 -4 9 C-6.76655324 9.14245897 -9.42653306 9.18769445 -12.1875 9.125 C-12.93708984 9.11597656 -13.68667969 9.10695312 -14.45898438 9.09765625 C-16.30612654 9.07412578 -18.15310412 9.03825561 -20 9 C-20 8.67 -20 8.34 -20 8 C-16.7 8 -13.4 8 -10 8 C-9.67 7.01 -9.34 6.02 -9 5 C-8.67 5.66 -8.34 6.32 -8 7 C-5.50447516 6.21869929 -5.50447516 6.21869929 -3 5 C-2.67 4.01 -2.34 3.02 -2 2 C-1.34 2 -0.68 2 0 2 C0 1.34 0 0.68 0 0 Z " fill="#499AAF" transform="translate(163,151)"/>
<path d="M0 0 C0.33 0 0.66 0 1 0 C1 11.88 1 23.76 1 36 C0.67 36 0.34 36 0 36 C0 24.12 0 12.24 0 0 Z " fill="#000000" transform="translate(72,301)"/>
<path d="M0 0 C0 0.99 0 1.98 0 3 C-0.495 3.391875 -0.99 3.78375 -1.5 4.1875 C-3.56737746 6.6855811 -3.34836437 8.91253413 -3.23828125 12.05859375 C-2.95506656 14.36609702 -2.2890717 16.06639246 -1 18 C-5.64285714 13.71428571 -5.64285714 13.71428571 -7 11 C-7 7.00921983 -4.43646418 4.46140499 -1.8125 1.6875 C-1.214375 1.130625 -0.61625 0.57375 0 0 Z " fill="#4C94A8" transform="translate(285,394)"/>
<path d="M0 0 C0.66 0 1.32 0 2 0 C1.67 1.32 1.34 2.64 1 4 C0.34 4 -0.32 4 -1 4 C-0.87625 5.0725 -0.7525 6.145 -0.625 7.25 C-0.810625 9.10625 -0.810625 9.10625 -1 11 C-4 13.4375 -4 13.4375 -7 15 C-5.45454854 9.52067211 -2.84456788 4.88570819 0 0 Z " fill="#5196A9" transform="translate(53,50)"/>
<path d="M0 0 C4.98469052 -0.29321709 8.04820644 -0.18338925 12 3 C14.90547505 6.70698541 15.32494469 9.34245939 15 14 C14.67 14 14.34 14 14 14 C13.67 11.69 13.34 9.38 13 7 C12.34 7 11.68 7 11 7 C10.62875 6.38125 10.2575 5.7625 9.875 5.125 C7.04730186 1.92027545 4.14231782 1.81488219 0 1 C0 0.67 0 0.34 0 0 Z " fill="#08222E" transform="translate(79,121)"/>
<path d="M0 0 C0.66 0.33 1.32 0.66 2 1 C1.40138258 3.35171131 0.73075648 5.6859378 0 8 C-0.99 8.495 -0.99 8.495 -2 9 C-3.04808041 10.97522846 -4.0520411 12.97481509 -5 15 C-5.66 15 -6.32 15 -7 15 C-5.45454854 9.52067211 -2.84456788 4.88570819 0 0 Z " fill="#4C96AC" transform="translate(39,77)"/>
<path d="M0 0 C6.4 0.36923077 6.4 0.36923077 9.4375 3.5625 C9.953125 4.366875 10.46875 5.17125 11 6 C10.67 6.66 10.34 7.32 10 8 C9.154375 7.154375 8.30875 6.30875 7.4375 5.4375 C4.57538732 3.00572884 4.18449759 2.9910727 0.125 3.1875 C-1.421875 3.5896875 -1.421875 3.5896875 -3 4 C-2.01 2.68 -1.02 1.36 0 0 Z " fill="#4B96A6" transform="translate(80,2)"/>
<path d="M0 0 C5.09448798 0.43173627 8.84512277 0.75400216 13 4 C13 4.66 13 5.32 13 6 C3.40546697 3.10933941 3.40546697 3.10933941 0 0 Z " fill="#4C98AF" transform="translate(321,415)"/>
<path d="M0 0 C8.58 0 17.16 0 26 0 C26 0.33 26 0.66 26 1 C17.42 1 8.84 1 0 1 C0 0.67 0 0.34 0 0 Z " fill="#000000" transform="translate(152,351)"/>
<path d="M0 0 C0.66 0.99 1.32 1.98 2 3 C1.67 4.134375 1.34 5.26875 1 6.4375 C-0.32501201 9.83513736 -0.32501201 9.83513736 0.875 12.4375 C1.24625 12.953125 1.6175 13.46875 2 14 C1.01 13.67 0.02 13.34 -1 13 C-2.5121867 9.97562661 -2.17263369 7.33758466 -2 4 C-1 1.5625 -1 1.5625 0 0 Z " fill="#4D94AA" transform="translate(4,144)"/>
<path d="M0 0 C3.05001831 3.66002197 7 9.07851471 7 14 C6.34 14 5.68 14 5 14 C4 12 3 10 2 8 C1.608125 7.29875 1.21625 6.5975 0.8125 5.875 C0 4 0 4 0 0 Z " fill="#4A94A6" transform="translate(120,66)"/>
<path d="M0 0 C2.31 0.33 4.62 0.66 7 1 C7.625 3.3125 7.625 3.3125 8 6 C7.01 7.485 7.01 7.485 6 9 C5.566875 8.071875 5.13375 7.14375 4.6875 6.1875 C3.27961373 3.52815927 2.23876444 1.91894095 0 0 Z " fill="#4C93A9" transform="translate(87,39)"/>
<path d="M0 0 C0.845625 0.639375 1.69125 1.27875 2.5625 1.9375 C5.90728565 4.1966273 8.97396992 4.67791759 13 5 C11.68 5.99 10.36 6.98 9 8 C2.35384615 5.66153846 2.35384615 5.66153846 0.5625 2.3125 C0.376875 1.549375 0.19125 0.78625 0 0 Z " fill="#4D94A8" transform="translate(303,280)"/>
<path d="M0 0 C4.4571874 0.26218749 6.51522698 0.57711289 9.9375 3.5625 C10.618125 4.366875 11.29875 5.17125 12 6 C11.67 6.66 11.34 7.32 11 8 C9.53977837 7.04454634 8.08188532 6.08553322 6.625 5.125 C5.81289063 4.59132813 5.00078125 4.05765625 4.1640625 3.5078125 C2 2 2 2 0 0 Z " fill="#5196A9" transform="translate(365,314)"/>
<path d="M0 0 C0.99 0.33 1.98 0.66 3 1 C1.38731308 3.71224618 -0.24901874 6.37352812 -2 9 C-2.66 9 -3.32 9 -4 9 C-2.94124926 5.59687262 -1.99097846 2.98646769 0 0 Z " fill="#4997AC" transform="translate(12,129)"/>
<path d="M0 0 C2.52394612 3.12488567 4.39701907 6.31314387 6 10 C5.67 10.66 5.34 11.32 5 12 C4.34 10.68 3.68 9.36 3 8 C2.34 8 1.68 8 1 8 C0.67 5.36 0.34 2.72 0 0 Z " fill="#4895AB" transform="translate(149,122)"/>
<path d="M0 0 C1.47557505 3.83649513 0.61403853 6.31076908 -1 10 C-3.125 12.375 -3.125 12.375 -5 14 C-3.45730076 9.27934033 -1.92205381 4.58335908 0 0 Z " fill="#4B94A5" transform="translate(285,317)"/>
<path d="M0 0 C0.33 0 0.66 0 1 0 C1.58305225 3.84814487 0.7002883 5.76308635 -1.5 8.8125 C-2.32219744 9.88364055 -3.15204049 10.9491359 -4 12 C-4.33 11.34 -4.66 10.68 -5 10 C-4.00390625 7.6171875 -4.00390625 7.6171875 -2.5625 4.875 C-1.85287109 3.50988281 -1.85287109 3.50988281 -1.12890625 2.1171875 C-0.75636719 1.41851562 -0.38382813 0.71984375 0 0 Z " fill="#4C94A5" transform="translate(21,111)"/>
<path d="M0 0 C0.33 0 0.66 0 1 0 C1.36923077 7.50769231 1.36923077 7.50769231 -0.5 10 C-0.995 10.33 -1.49 10.66 -2 11 C-2.66 10.34 -3.32 9.68 -4 9 C-3.2884375 7.88625 -3.2884375 7.88625 -2.5625 6.75 C-1.22130673 4.38949985 -0.487688 2.63351523 0 0 Z " fill="#4B94A9" transform="translate(94,131)"/>
<path d="M0 0 C0.33 0 0.66 0 1 0 C1.08121924 1.60332791 1.13929134 3.20784026 1.1875 4.8125 C1.22230469 5.70582031 1.25710938 6.59914063 1.29296875 7.51953125 C1 10 1 10 -0.38671875 11.82421875 C-2 13 -2 13 -4 13 C-3.34 11.68 -2.68 10.36 -2 9 C-1.34 9 -0.68 9 0 9 C0 6.03 0 3.06 0 0 Z " fill="#5196A7" transform="translate(365,428)"/>
<path d="M0 0 C0 3 0 3 -1.5 4.6875 C-1.995 5.120625 -2.49 5.55375 -3 6 C-3.99 5.67 -4.98 5.34 -6 5 C-5.25 3.0625 -5.25 3.0625 -4 1 C-1.875 0.25 -1.875 0.25 0 0 Z " fill="#489AB1" transform="translate(19,122)"/>
<path d="M0 0 C2.64465038 3.1254959 3.84414715 6.08788267 5 10 C4.34 10 3.68 10 3 10 C3 9.34 3 8.68 3 8 C2.34 8 1.68 8 1 8 C0.67 5.36 0.34 2.72 0 0 Z " fill="#4695A7" transform="translate(91,10)"/>
<path d="M0 0 C-0.66 0.66 -1.32 1.32 -2 2 C-1.67 2.99 -1.34 3.98 -1 5 C-1.99 5.33 -2.98 5.66 -4 6 C-4.66 4.02 -5.32 2.04 -6 0 C-3 -1 -3 -1 0 0 Z " fill="#4899B0" transform="translate(365,385)"/>
<path d="M0 0 C6.27 0 12.54 0 19 0 C19 0.33 19 0.66 19 1 C12.73 1 6.46 1 0 1 C0 0.67 0 0.34 0 0 Z " fill="#000000" transform="translate(184,351)"/>
<path d="M0 0 C1.9375 0.625 1.9375 0.625 4 2 C4.75 5.125 4.75 5.125 5 8 C2 7 2 7 0.8125 5.125 C0 3 0 3 0 0 Z " fill="#4E96A9" transform="translate(278,293)"/>
<path d="M0 0 C0.33 0.66 0.66 1.32 1 2 C-0.28062485 3.7074998 -1.61767557 5.37373596 -3 7 C-3.66 7 -4.32 7 -5 7 C-4.60196439 4.11424181 -4.20990931 3.17810487 -1.9375 1.25 C-1.298125 0.8375 -0.65875 0.425 0 0 Z " fill="#37AABC" transform="translate(289,281)"/>
<path d="M0 0 C2.64465038 3.1254959 3.84414715 6.08788267 5 10 C4.34 10 3.68 10 3 10 C0.4606772 6.58168085 -0.3636198 4.24223102 0 0 Z " fill="#4A95A8" transform="translate(133,91)"/>
<path d="M0 0 C2.16874252 0.50603992 3.99967627 0.99983813 6 2 C6 2.66 6 3.32 6 4 C7.32 4.33 8.64 4.66 10 5 C3.47692308 4.50769231 3.47692308 4.50769231 1.0625 1.9375 C0.711875 1.298125 0.36125 0.65875 0 0 Z " fill="#5099A8" transform="translate(289,417)"/>
<path d="M0 0 C0.66 0.33 1.32 0.66 2 1 C1.67 1.66 1.34 2.32 1 3 C0.34 3 -0.32 3 -1 3 C-1.28875 3.639375 -1.5775 4.27875 -1.875 4.9375 C-3 7 -3 7 -5 8 C-3.8141763 4.62496331 -2.72426311 2.35277269 0 0 Z " fill="#02111C" transform="translate(77,122)"/>
<path d="M0 0 C0.66 0 1.32 0 2 0 C0.125 5.75 0.125 5.75 -1 8 C-1.66 8 -2.32 8 -3 8 C-1.125 2.25 -1.125 2.25 0 0 Z " fill="#4E93AB" transform="translate(25,103)"/>
<path d="M0 0 C4.42857143 5.14285714 4.42857143 5.14285714 5 9 C4.01 8.67 3.02 8.34 2 8 C2 6.68 2 5.36 2 4 C1.34 4 0.68 4 0 4 C0 2.68 0 1.36 0 0 Z " fill="#4695A6" transform="translate(114,55)"/>
<path d="M0 0 C2.50037734 2.17424117 3.43628586 3.73045798 4 7 C2.68 6.67 1.36 6.34 0 6 C0 4.02 0 2.04 0 0 Z " fill="#4A92A9" transform="translate(101,30)"/>
<path d="M0 0 C0.33 0 0.66 0 1 0 C1 2.64 1 5.28 1 8 C0.67 8 0.34 8 0 8 C0 5.36 0 2.72 0 0 Z " fill="#000000" transform="translate(230,80)"/>
<path d="M0 0 C0.33 0 0.66 0 1 0 C1 1.98 1 3.96 1 6 C0.67 6 0.34 6 0 6 C0 4.02 0 2.04 0 0 Z " fill="#000000" transform="translate(230,72)"/>
<path d="M0 0 C1.65 0 3.3 0 5 0 C5 0.33 5 0.66 5 1 C3.35 1 1.7 1 0 1 C0 0.67 0 0.34 0 0 Z " fill="#000000" transform="translate(101,371)"/>
<path d="M0 0 C0.33 0 0.66 0 1 0 C1 1.65 1 3.3 1 5 C0.67 5 0.34 5 0 5 C0 3.35 0 1.7 0 0 Z " fill="#000000" transform="translate(317,164)"/>
<path d="M0 0 C1 4 1 4 1 4 Z " fill="#000000" transform="translate(209,365)"/>
<path d="M0 0 C4 1 4 1 4 1 Z " fill="#000000" transform="translate(329,70)"/>
<path d="" fill="#000000" transform="translate(0,0)"/>
<path d="" fill="#000000" transform="translate(0,0)"/>
<path d="M0 0 C2 1 2 1 2 1 Z " fill="#000000" transform="translate(96,370)"/>
<path d="" fill="#000000" transform="translate(0,0)"/>
<path d="M0 0 C2 1 2 1 2 1 Z " fill="#000000" transform="translate(104,351)"/>
<path d="M0 0 C2 1 2 1 2 1 Z " fill="#000000" transform="translate(100,350)"/>
<path d="" fill="#000000" transform="translate(0,0)"/>
<path d="" fill="#000000" transform="translate(0,0)"/>
<path d="M0 0 C2 1 2 1 2 1 Z " fill="#000000" transform="translate(351,208)"/>
<path d="" fill="#000000" transform="translate(0,0)"/>
<path d="M0 0 C2 1 2 1 2 1 Z " fill="#000000" transform="translate(339,72)"/>
<path d="M0 0 C2 1 2 1 2 1 Z " fill="#000000" transform="translate(335,71)"/>
<path d="" fill="#000000" transform="translate(0,0)"/>
<path d="" fill="#000000" transform="translate(0,0)"/>
<path d="" fill="#000000" transform="translate(0,0)"/>
<path d="" fill="#000000" transform="translate(0,0)"/>
<path d="" fill="#000000" transform="translate(0,0)"/>
<path d="" fill="#000000" transform="translate(0,0)"/>
<path d="" fill="#000000" transform="translate(0,0)"/>
<path d="" fill="#000000" transform="translate(0,0)"/>
<path d="" fill="#000000" transform="translate(0,0)"/>
<path d="" fill="#000000" transform="translate(0,0)"/>
<path d="" fill="#000000" transform="translate(0,0)"/>
<path d="" fill="#000000" transform="translate(0,0)"/>
<path d="" fill="#000000" transform="translate(0,0)"/>
<path d="" fill="#000000" transform="translate(0,0)"/>
<path d="" fill="#000000" transform="translate(0,0)"/>
<path d="" fill="#000000" transform="translate(0,0)"/>
<path d="" fill="#000000" transform="translate(0,0)"/>
<path d="" fill="#000000" transform="translate(0,0)"/>
<path d="" fill="#000000" transform="translate(0,0)"/>
<path d="" fill="#000000" transform="translate(0,0)"/>
<path d="" fill="#000000" transform="translate(0,0)"/>
<path d="" fill="#000000" transform="translate(0,0)"/>
<path d="" fill="#000000" transform="translate(0,0)"/>
<path d="" fill="#000000" transform="translate(0,0)"/>
<path d="" fill="#000000" transform="translate(0,0)"/>
<path d="" fill="#000000" transform="translate(0,0)"/>
<path d="" fill="#000000" transform="translate(0,0)"/>
<path d="" fill="#000000" transform="translate(0,0)"/>
<path d="" fill="#000000" transform="translate(0,0)"/>
<path d="" fill="#000000" transform="translate(0,0)"/>
<path d="" fill="#000000" transform="translate(0,0)"/>
<path d="" fill="#000000" transform="translate(0,0)"/>
<path d="" fill="#000000" transform="translate(0,0)"/>
<path d="" fill="#000000" transform="translate(0,0)"/>
<path d="" fill="#000000" transform="translate(0,0)"/>
<path d="" fill="#000000" transform="translate(0,0)"/>
<path d="" fill="#000000" transform="translate(0,0)"/>
<path d="" fill="#000000" transform="translate(0,0)"/>
<path d="" fill="#000000" transform="translate(0,0)"/>
<path d="" fill="#000000" transform="translate(0,0)"/>
<path d="" fill="#000000" transform="translate(0,0)"/>
<path d="" fill="#000000" transform="translate(0,0)"/>
<path d="" fill="#000000" transform="translate(0,0)"/>
<path d="" fill="#000000" transform="translate(0,0)"/>
<path d="" fill="#000000" transform="translate(0,0)"/>
<path d="" fill="#000000" transform="translate(0,0)"/>
<path d="" fill="#000000" transform="translate(0,0)"/>
<path d="" fill="#000000" transform="translate(0,0)"/>
<path d="" fill="#000000" transform="translate(0,0)"/>
<path d="" fill="#000000" transform="translate(0,0)"/>
<path d="" fill="#000000" transform="translate(0,0)"/>
<path d="" fill="#000000" transform="translate(0,0)"/>
<path d="" fill="#000000" transform="translate(0,0)"/>
<path d="" fill="#000000" transform="translate(0,0)"/>
<path d="" fill="#000000" transform="translate(0,0)"/>
<path d="" fill="#000000" transform="translate(0,0)"/>
<path d="" fill="#000000" transform="translate(0,0)"/>
<path d="" fill="#000000" transform="translate(0,0)"/>
<path d="" fill="#000000" transform="translate(0,0)"/>
<path d="" fill="#000000" transform="translate(0,0)"/>
<path d="" fill="#000000" transform="translate(0,0)"/>
<path d="" fill="#000000" transform="translate(0,0)"/>
<path d="" fill="#000000" transform="translate(0,0)"/>
<path d="" fill="#000000" transform="translate(0,0)"/>
<path d="" fill="#000000" transform="translate(0,0)"/>
<path d="" fill="#000000" transform="translate(0,0)"/>
<path d="" fill="#000000" transform="translate(0,0)"/>
<path d="" fill="#000000" transform="translate(0,0)"/>
<path d="" fill="#000000" transform="translate(0,0)"/>
<path d="" fill="#000000" transform="translate(0,0)"/>
<path d="" fill="#000000" transform="translate(0,0)"/>
<path d="" fill="#000000" transform="translate(0,0)"/>
<path d="" fill="#000000" transform="translate(0,0)"/>
<path d="" fill="#000000" transform="translate(0,0)"/>
<path d="" fill="#000000" transform="translate(0,0)"/>
<path d="" fill="#000000" transform="translate(0,0)"/>
<path d="" fill="#000000" transform="translate(0,0)"/>
<path d="" fill="#000000" transform="translate(0,0)"/>
<path d="" fill="#000000" transform="translate(0,0)"/>
<path d="" fill="#000000" transform="translate(0,0)"/>
<path d="" fill="#000000" transform="translate(0,0)"/>
<path d="" fill="#000000" transform="translate(0,0)"/>
<path d="" fill="#000000" transform="translate(0,0)"/>
<path d="" fill="#000000" transform="translate(0,0)"/>
<path d="" fill="#000000" transform="translate(0,0)"/>
<path d="" fill="#000000" transform="translate(0,0)"/>
<path d="" fill="#000000" transform="translate(0,0)"/>
<path d="" fill="#000000" transform="translate(0,0)"/>
<path d="" fill="#000000" transform="translate(0,0)"/>
<path d="" fill="#000000" transform="translate(0,0)"/>
<path d="" fill="#000000" transform="translate(0,0)"/>
<path d="" fill="#000000" transform="translate(0,0)"/>
<path d="" fill="#000000" transform="translate(0,0)"/>
<path d="" fill="#000000" transform="translate(0,0)"/>
<path d="" fill="#000000" transform="translate(0,0)"/>
<path d="" fill="#000000" transform="translate(0,0)"/>
<path d="" fill="#000000" transform="translate(0,0)"/>
<path d="" fill="#000000" transform="translate(0,0)"/>
<path d="" fill="#000000" transform="translate(0,0)"/>
<path d="" fill="#000000" transform="translate(0,0)"/>
<path d="" fill="#000000" transform="translate(0,0)"/>
<path d="" fill="#000000" transform="translate(0,0)"/>
<path d="" fill="#000000" transform="translate(0,0)"/>
<path d="" fill="#000000" transform="translate(0,0)"/>
<path d="" fill="#000000" transform="translate(0,0)"/>
<path d="" fill="#000000" transform="translate(0,0)"/>
<path d="" fill="#000000" transform="translate(0,0)"/>
</svg>
