<?xml version="1.0" encoding="UTF-8"?>
<svg version="1.1" xmlns="http://www.w3.org/2000/svg" width="444" height="441">
<path d="M0 0 C146.52 0 293.04 0 444 0 C444 145.53 444 291.06 444 441 C297.48 441 150.96 441 0 441 C0 295.47 0 149.94 0 0 Z " fill="#FEFEFE" transform="translate(0,0)"/>
<path d="M0 0 C1.58748047 -0.0299707 1.58748047 -0.0299707 3.20703125 -0.06054688 C4.72876953 -0.05958008 4.72876953 -0.05958008 6.28125 -0.05859375 C7.6744043 -0.06137329 7.6744043 -0.06137329 9.09570312 -0.06420898 C11.5 0.4375 11.5 0.4375 13.30517578 2.29101562 C15.28163549 5.84169681 14.8682273 9.482132 14.8984375 13.46484375 C15.72174866 17.53328396 17.27611778 18.86873823 20.5 21.4375 C22.98452609 22.70730768 25.28989975 23.76631226 27.875 24.75 C28.50921875 25.01361328 29.1434375 25.27722656 29.796875 25.54882812 C34.16933519 27.26658034 37.82789082 28.02771922 42.5 27.4375 C45.01686004 25.7515404 45.01686004 25.7515404 47.0625 23.4375 C49.50575694 20.85526881 50.83304259 19.5938326 54.31640625 18.77734375 C59.10053277 19.76938962 61.54281744 22.56694761 64.875 26 C65.51566406 26.60908203 66.15632812 27.21816406 66.81640625 27.84570312 C69.94282814 30.99545652 71.37212419 32.68603226 72.1328125 37.15625 C71.26667953 41.64730982 69.31931139 43.18395499 66.03125 46.15234375 C63.78176033 49.50936278 63.92925354 52.57937428 64.5 56.4375 C65.34416798 59.49046073 66.49386239 62.34550223 67.75 65.25 C68.20052734 66.37438477 68.20052734 66.37438477 68.66015625 67.52148438 C70.90235679 72.98491449 70.90235679 72.98491449 75.5 76.4375 C78.84952153 76.87239418 82.12908814 76.93931398 85.50390625 77.03125 C88.5 77.4375 88.5 77.4375 90.15795898 78.65258789 C92.85296974 82.23694729 92.01105218 87.06188837 92 91.375 C92.02835938 92.37724609 92.05671875 93.37949219 92.0859375 94.41210938 C92.10535634 101.68931912 92.10535634 101.68931912 89.34765625 105.09765625 C85.27109732 107.01570798 81.77837316 106.92397291 77.33984375 106.96875 C73.70370969 107.56893719 72.7292882 108.53324608 70.5 111.4375 C67.14006969 117.62562853 63.30993048 125.07000719 63.75390625 132.28125 C65.12224514 136.23582103 67.99454918 139.09333606 70.84765625 142.078125 C72.5 144.4375 72.5 144.4375 72.44140625 146.98828125 C70.78498547 151.29772453 67.68823405 154.17940425 64.5 157.4375 C63.91476562 158.04722656 63.32953125 158.65695312 62.7265625 159.28515625 C59.81528078 162.07129238 57.99064906 163.32359933 54 164.25 C49.61978312 163.23316394 47.8979077 161.37105678 44.98046875 158.06640625 C43.00256212 155.89018708 41.88004311 155.48238239 38.953125 155.13671875 C34.23134113 155.54800535 30.5228362 157.28242785 26.25 159.25 C25.4353125 159.60642578 24.620625 159.96285156 23.78125 160.33007812 C18.91434451 162.43967867 18.91434451 162.43967867 15.5 166.4375 C15.20070916 169.43895952 15.12217284 172.41504873 15.0390625 175.4296875 C14.33390892 179.3642401 13.61133846 180.8787724 10.5 183.4375 C6.98482073 184.1511483 3.57451382 184.0897266 0 184 C-1.42505859 184.01643555 -1.42505859 184.01643555 -2.87890625 184.03320312 C-9.67335846 183.96153169 -9.67335846 183.96153169 -13.125 181.7734375 C-14.84190654 178.85664742 -14.96598735 176.87150359 -15 173.5 C-15.0360337 169.93716752 -15.23064943 167.9092124 -17.0078125 164.796875 C-20.30532609 161.67509097 -23.68201229 160.25680707 -27.875 158.625 C-28.6175 158.31369141 -29.36 158.00238281 -30.125 157.68164062 C-34.31947732 155.99569788 -37.92363363 154.68674089 -42.5 155.4375 C-44.97788721 157.31583074 -46.92854449 159.42800023 -49.05859375 161.6875 C-51.5 163.4375 -51.5 163.4375 -54.85546875 164.06640625 C-59.84181083 163.20595494 -61.97837911 160.96425332 -65.375 157.375 C-65.95507812 156.81361328 -66.53515625 156.25222656 -67.1328125 155.67382812 C-70.01355116 152.72914784 -71.394061 150.79239566 -72.59375 146.7734375 C-72.48393916 142.8660016 -71.86338252 141.82549975 -69.125 139.125 C-65.35792063 135.40485557 -65.35792063 135.40485557 -64.234375 130.328125 C-64.55036467 125.6998057 -65.84170683 122.36237811 -67.75 118.1875 C-68.05035156 117.48109375 -68.35070312 116.7746875 -68.66015625 116.046875 C-70.98996791 110.80099763 -70.98996791 110.80099763 -75.5 107.4375 C-78.56012044 107.04251163 -81.54170175 106.99921809 -84.625 106.94140625 C-87.5 106.4375 -87.5 106.4375 -89.84765625 105.09375 C-92.53573344 100.77249116 -92.03672973 96.35249111 -91.9375 91.375 C-91.94813477 89.86583008 -91.94813477 89.86583008 -91.95898438 88.32617188 C-91.89499111 80.9571014 -91.89499111 80.9571014 -90.14648438 78.65698242 C-87.70398956 76.84792821 -85.56356807 76.95346488 -82.5625 76.8125 C-77.39753445 76.74137509 -77.39753445 76.74137509 -72.5 75.4375 C-71.33891612 73.25438217 -71.33891612 73.25438217 -70.5 70.4375 C-69.75363281 68.69339844 -69.75363281 68.69339844 -68.9921875 66.9140625 C-68.45290273 65.63030168 -67.91384465 64.34644562 -67.375 63.0625 C-67.09785156 62.42828125 -66.82070313 61.7940625 -66.53515625 61.140625 C-64.71568434 56.74879626 -63.92364817 53.17385666 -64.5 48.4375 C-65.92185212 46.39585663 -65.92185212 46.39585663 -67.9375 44.9375 C-70.56833865 42.52186288 -71.50283838 41.43040405 -72.875 38 C-72.30431181 32.5784622 -69.33063709 30.09693544 -65.5 26.4375 C-64.83871094 25.74527344 -64.17742187 25.05304688 -63.49609375 24.33984375 C-60.30893922 21.20258597 -58.52929483 19.54778159 -54 19.0625 C-50.5337478 20.42424194 -49.2144286 21.52424588 -46.625 24.0625 C-43.91819031 26.58701613 -43.91819031 26.58701613 -40.5546875 27.921875 C-35.11816621 27.63247843 -30.02955397 25.20122856 -25.0625 23.125 C-24.35158203 22.82964355 -23.64066406 22.53428711 -22.90820312 22.22998047 C-20.16189491 21.00418602 -17.92925203 19.98740665 -16.0546875 17.5859375 C-15.08649698 13.83590378 -15.08907038 10.06840113 -14.94140625 6.21484375 C-13.69060304 -1.6552543 -6.34216001 -0.04248706 0 0 Z " fill="#46A0BB" transform="translate(351.5,257.5625)"/>
<path d="M0 0 C4.02165486 0.85567125 4.58555619 2.24434755 6.9375 5.625 C8.83556375 8.94632622 10.57520736 12.34238911 12.3125 15.75 C12.83215332 16.75772461 13.35180664 17.76544922 13.88720703 18.80371094 C15.00113731 20.96408062 16.11288786 23.12557537 17.22265625 25.28808594 C19.49232046 29.704625 21.78079079 34.11128946 24.06933594 38.51806641 C25.83449508 41.91735748 27.59730832 45.31785498 29.359375 48.71875 C29.94912109 49.85699219 30.53886719 50.99523438 31.14648438 52.16796875 C32.34049479 54.47265625 33.53450521 56.77734375 34.72851562 59.08203125 C41.23984191 71.64924679 47.75905861 84.21207687 54.31542969 96.75585938 C57.1598517 102.20278578 59.99033386 107.6566937 62.80859375 113.1171875 C63.14086472 113.76074188 63.47313568 114.40429626 63.81547546 115.06735229 C65.44112603 118.21638059 67.06536685 121.36612256 68.68725586 124.51708984 C71.95458471 130.85021882 75.28432438 137.12642341 78.81445312 143.31762695 C80.42535555 146.62733105 80.6706624 149.03250426 79.9375 152.625 C77.71886971 155.53217073 76.41805071 156.46481643 72.9375 157.625 C70.95747627 157.72466479 68.97424474 157.76434189 66.99172974 157.77217102 C65.12844025 157.78290398 65.12844025 157.78290398 63.22750854 157.79385376 C61.84844996 157.79669396 60.4693911 157.79940569 59.09033203 157.80200195 C57.63989092 157.80826749 56.18945142 157.81491437 54.73901367 157.82191467 C49.97445796 157.84294256 45.20990197 157.85331421 40.4453125 157.86328125 C38.80508279 157.86732894 37.16485324 157.87144587 35.52462387 157.87563133 C27.82046478 157.8946783 20.11631526 157.90891173 12.41213715 157.9172433 C3.51706537 157.9270216 -5.37775795 157.95335849 -14.27274215 157.99374419 C-21.14756066 158.02388775 -28.02230785 158.0387104 -34.89719117 158.04202431 C-39.0037559 158.04437637 -43.11005504 158.05335699 -47.21654892 158.07848549 C-51.07930502 158.10174136 -54.94162018 158.10600973 -58.8044281 158.09572411 C-60.22139578 158.09522806 -61.63838498 158.10156886 -63.05528641 158.11528015 C-64.99103117 158.13296308 -66.92696689 158.12351932 -68.86276245 158.11274719 C-69.94565992 158.11513555 -71.0285574 158.1175239 -72.14426994 158.11998463 C-75.79779348 157.50028092 -77.4566846 156.21803237 -80.0625 153.625 C-81.52759012 149.26544727 -81.23918194 146.45926708 -79.40698242 142.36816406 C-78.59596783 140.78263532 -77.76500028 139.20720843 -76.91796875 137.640625 C-76.47415359 136.78555359 -76.03033844 135.93048218 -75.57307434 135.04949951 C-74.14891038 132.31544514 -72.70008069 129.59538133 -71.25 126.875 C-70.31669879 125.0933168 -69.38504292 123.31077069 -68.45507812 121.52734375 C-66.13397145 117.08617353 -63.79253007 112.65612232 -61.44360352 108.22961426 C-59.22903703 104.05317753 -57.02609006 99.87064031 -54.82421875 95.6875 C-54.41128067 94.90322632 -53.99834259 94.11895264 -53.57289124 93.31091309 C-49.91086648 86.34944392 -46.29230559 79.36625842 -42.6875 72.375 C-41.3886129 69.85906895 -40.08898615 67.34352063 -38.7890625 64.828125 C-38.47036194 64.21138916 -38.15166138 63.59465332 -37.82330322 62.95922852 C-34.44827361 56.43140241 -31.05093658 49.91525503 -27.63696289 43.40771484 C-25.11747033 38.59727432 -22.62453848 33.77499241 -20.17276001 28.92974854 C-18.8265045 26.27066974 -17.47325695 23.61517302 -16.11987305 20.9597168 C-15.46398071 19.66772961 -14.8115514 18.37397769 -14.1628418 17.07836914 C-13.25409518 15.26394999 -12.33233504 13.45606676 -11.41015625 11.6484375 C-10.88429932 10.60606934 -10.35844238 9.56370117 -9.81665039 8.48974609 C-7.26217126 4.31796347 -4.91887407 1.00385185 0 0 Z " fill="#45A0BB" transform="translate(83.0625,2.375)"/>
<path d="M0 0 C12.75252525 -0.06961864 25.50500501 -0.1228716 38.25768185 -0.15543652 C44.17975024 -0.17106881 50.10168826 -0.19226276 56.02368164 -0.22631836 C61.74249611 -0.25899842 67.46118546 -0.27687133 73.18008614 -0.28463173 C75.35808849 -0.2901597 77.53608427 -0.30095442 79.71403313 -0.31719017 C82.77296434 -0.33907913 85.83138348 -0.34196211 88.89038086 -0.34057617 C90.23042931 -0.35675491 90.23042931 -0.35675491 91.59754944 -0.3732605 C101.33708276 -0.32574803 109.51818059 2.72992535 117 9 C122.49383535 14.99653924 126.3897964 21.25434026 126.34057617 29.55615234 C126.34034958 30.83702728 126.34012299 32.11790222 126.33988953 33.43759155 C126.32457312 34.82037716 126.30892519 36.20315913 126.29296875 37.5859375 C126.28736754 39.01225334 126.28309992 40.43857499 126.28010559 41.86489868 C126.268698 45.60341567 126.23926675 49.34157826 126.20599365 53.07995605 C126.17520408 56.90091153 126.16158135 60.72192475 126.14648438 64.54296875 C126.11439249 72.0288067 126.06324646 79.51435353 126 87 C126.87736816 86.9685791 126.87736816 86.9685791 127.77246094 86.93652344 C130.43146465 86.85319885 133.09019355 86.80129103 135.75 86.75 C136.67039062 86.71648437 137.59078125 86.68296875 138.5390625 86.6484375 C145.35514336 86.54965372 145.35514336 86.54965372 148.60058594 88.81616211 C150.76267227 92.19017856 150.66487587 94.04723185 150 98 C148.23886691 101.23657462 146.0320636 104.05261597 143.75 106.9375 C143.1219043 107.75782715 142.49380859 108.5781543 141.84667969 109.42333984 C140.54845152 111.11848477 139.24402913 112.808903 137.93359375 114.49462891 C136.08072495 116.89540411 134.26741685 119.32016106 132.46875 121.76171875 C131.92508789 122.49849854 131.38142578 123.23527832 130.82128906 123.99438477 C129.79106924 125.39132827 128.76174035 126.78892937 127.73339844 128.18725586 C124.22617309 132.88691346 124.22617309 132.88691346 122 134 C118.6875 134.375 118.6875 134.375 115 134 C109.90276891 129.70338112 106.11858018 124.10865914 102.125 118.8125 C101.44308594 117.91724609 100.76117188 117.02199219 100.05859375 116.09960938 C98.02136911 113.41241306 96.00516309 110.7111926 94 108 C92.98969727 106.6382666 92.98969727 106.6382666 91.95898438 105.24902344 C91.32541016 104.37407227 90.69183594 103.49912109 90.0390625 102.59765625 C89.18755615 101.42795288 89.18755615 101.42795288 88.31884766 100.23461914 C86.10249021 96.47928414 86.11914252 94.2574778 87 90 C89.15021545 87.58047327 90.83887172 86.17491269 94.09716797 85.68408203 C96.51458462 85.60652599 98.8960031 85.65082254 101.3125 85.75 C102.14845703 85.76804687 102.98441406 85.78609375 103.84570312 85.8046875 C105.89763228 85.85158874 107.94896756 85.92332589 110 86 C109.93865797 78.54112515 109.86145844 71.08258963 109.76428509 63.62409019 C109.7196506 60.16038741 109.68037982 56.69680036 109.65356445 53.23291016 C109.62246237 49.24616608 109.56767551 45.25991324 109.51171875 41.2734375 C109.50532883 40.03572601 109.4989389 38.79801453 109.49235535 37.52279663 C109.43093428 29.3192715 109.43093428 29.3192715 106 22 C102.13726453 18.42696969 99.1621979 16.8887777 93.91877747 16.84178162 C93.09006638 16.8319928 92.26135529 16.82220398 91.40753174 16.81211853 C90.50194519 16.80636307 89.59635864 16.8006076 88.66333008 16.79467773 C87.70704208 16.78477814 86.75075409 16.77487854 85.76548767 16.76467896 C82.60019417 16.73305614 79.43488565 16.70830336 76.26953125 16.68359375 C74.07663072 16.6630249 71.88373417 16.64202845 69.69084167 16.62062073 C63.91557021 16.56539292 58.14026292 16.51598672 52.3649292 16.46777344 C46.47307136 16.41756363 40.58126562 16.36187484 34.68945312 16.30664062 C23.12634658 16.19905036 11.56319482 16.09760727 0 16 C0 10.72 0 5.44 0 0 Z " fill="#040404" transform="translate(233,72)"/>
<path d="M0 0 C10.52190542 3.2773148 18.04190721 18.41583093 24.21850586 26.98999023 C25.24060315 28.39907243 26.2767598 29.79812449 27.33032227 31.18383789 C29.68084837 34.31355315 31.16523468 36.45803611 31.375 40.375 C30.8125 44.1875 30.8125 44.1875 29.38671875 46.41015625 C25.44455293 49.13198546 21.72855347 48.61669851 17.0625 48.4375 C16.17433594 48.41945313 15.28617188 48.40140625 14.37109375 48.3828125 C12.18379152 48.33577374 9.99870184 48.27007009 7.8125 48.1875 C7.87959538 55.05633903 7.96943982 61.92461316 8.07495117 68.79296875 C8.10816333 71.12851237 8.13620676 73.46413553 8.15893555 75.79980469 C8.19254901 79.16115145 8.24487003 82.52177169 8.30078125 85.8828125 C8.31036613 87.44408371 8.31036613 87.44408371 8.32014465 89.03689575 C8.42998195 94.47801927 8.70116949 98.51746446 11.8125 103.1875 C15.78187029 106.85916752 18.7885984 108.3008007 24.1594696 108.34571838 C25.04707977 108.3555072 25.93468994 108.36529602 26.84919739 108.37538147 C28.30575996 108.38401466 28.30575996 108.38401466 29.79174805 108.39282227 C30.81631104 108.40272186 31.84087402 108.41262146 32.89648438 108.42282104 C36.28903885 108.45445337 39.68160734 108.47920041 43.07421875 108.50390625 C45.42406075 108.52447427 47.77389903 108.5454707 50.12373352 108.56687927 C56.31329342 108.62211557 62.50288679 108.67151802 68.69250488 108.71972656 C75.00662216 108.76993018 81.32069073 108.8256222 87.63476562 108.88085938 C100.02730216 108.98846002 112.41988095 109.0899008 124.8125 109.1875 C124.8125 114.4675 124.8125 119.7475 124.8125 125.1875 C111.1645565 125.25712968 97.51665554 125.3103772 83.86857033 125.34293652 C77.53064304 125.3585664 71.19283763 125.37975596 64.85498047 125.41381836 C58.73416324 125.44650698 52.61346297 125.46437315 46.49256516 125.47213173 C44.16188085 125.47765817 41.83120266 125.48844985 39.50056839 125.50469017 C36.22631439 125.52659042 32.95253857 125.52946162 29.67822266 125.52807617 C28.72299713 125.538862 27.76777161 125.54964783 26.78359985 125.5607605 C16.08167727 125.51202776 7.4887167 122.80500758 -0.1875 115.1875 C-7.19710753 106.55682691 -8.48453067 99.12965919 -8.3828125 88.2265625 C-8.3799826 87.08085785 -8.37715271 85.9351532 -8.37423706 84.75473022 C-8.36307135 81.10721245 -8.33797299 77.45994315 -8.3125 73.8125 C-8.30246555 71.33463897 -8.29334051 68.85677408 -8.28515625 66.37890625 C-8.2631438 60.31501986 -8.22970194 54.25127769 -8.1875 48.1875 C-9.06486816 48.22677612 -9.06486816 48.22677612 -9.95996094 48.2668457 C-12.61886566 48.37099756 -15.27734144 48.43587772 -17.9375 48.5 C-18.85789062 48.54189453 -19.77828125 48.58378906 -20.7265625 48.62695312 C-27.55841851 48.75071863 -27.55841851 48.75071863 -30.796875 45.85131836 C-32.51508505 42.5599929 -32.7857417 40.85640417 -32.1875 37.1875 C-30.5625 34.27734375 -30.5625 34.27734375 -28.1875 31.125 C-27.75687256 30.54717773 -27.32624512 29.96935547 -26.88256836 29.37402344 C-25.89962921 28.061181 -24.90944312 26.75374529 -23.91357422 25.45068359 C-21.94689022 22.87201871 -20.00687882 20.27422246 -18.06640625 17.67578125 C-16.62877632 15.76213969 -15.18997561 13.84937711 -13.75 11.9375 C-13.05197266 11.00800537 -12.35394531 10.07851074 -11.63476562 9.12084961 C-10.97283203 8.25081299 -10.31089844 7.38077637 -9.62890625 6.484375 C-8.74247437 5.31406738 -8.74247437 5.31406738 -7.83813477 4.12011719 C-5.37199061 1.23267493 -3.81721404 0.224542 0 0 Z " fill="#040404" transform="translate(83.1875,244.8125)"/>
<path d="M0 0 C8.58058178 6.06346196 13.69902583 14.22598374 16.99609375 24.1171875 C17.95791451 35.95862015 16.45559206 46.94405169 8.6875 56.30859375 C1.09612786 64.42592701 -6.6918921 69.33619288 -17.9140625 70.390625 C-29.27537763 70.75666489 -38.31198115 67.36341829 -47.03515625 60.0625 C-55.20392513 51.99097837 -58.26951099 42.91627308 -58.44140625 31.6796875 C-58.33147548 20.51627774 -55.2244816 13.51502973 -47.4375 5.3828125 C-34.17832124 -6.96120625 -15.69571476 -9.03637682 0 0 Z " fill="#FDFEFE" transform="translate(372.00390625,316.8828125)"/>
<path d="M0 0 C2.87029869 1.79393668 4.49131638 2.98263276 6 6 C6.11683492 7.94392406 6.16972387 9.89181696 6.19287109 11.83911133 C6.21696548 13.67660698 6.21696548 13.67660698 6.24154663 15.55122375 C6.25303371 16.8948192 6.26364232 18.2384224 6.2734375 19.58203125 C6.27876118 20.25797522 6.28408485 20.93391918 6.28956985 21.6303463 C6.31629445 25.20871217 6.33567074 28.78704325 6.35009766 32.36547852 C6.36343479 35.32510299 6.39128183 38.2840376 6.43212891 41.2434082 C6.4814732 44.81844077 6.50622055 48.39284783 6.51332474 51.96820641 C6.5200332 53.32898472 6.5352452 54.6897493 6.55921555 56.05033302 C6.75842249 68.04258432 6.75842249 68.04258432 3.60986328 71.32080078 C-0.25501191 73.807481 -3.43845169 74.43049095 -8 74 C-11.63858353 71.90974989 -13.4595836 69.85104099 -15 66 C-15.26742554 63.27479553 -15.26742554 63.27479553 -15.29052734 60.11743164 C-15.30328705 58.93262711 -15.31604675 57.74782257 -15.32919312 56.52711487 C-15.33141876 55.25101852 -15.33364441 53.97492218 -15.3359375 52.66015625 C-15.3425943 51.34591171 -15.3492511 50.03166718 -15.35610962 48.67759705 C-15.36807061 45.89774287 -15.37179161 43.11801286 -15.37060547 40.33813477 C-15.37040218 36.78259192 -15.39771782 33.22784754 -15.43214989 29.67249393 C-15.45978184 26.27253606 -15.4585683 22.87272496 -15.4609375 19.47265625 C-15.47530853 18.19858414 -15.48967957 16.92451202 -15.50448608 15.61183167 C-15.49833282 14.42387497 -15.49217957 13.23591827 -15.48583984 12.01196289 C-15.48868988 10.96923721 -15.49153992 9.92651154 -15.49447632 8.85218811 C-14.8736274 5.27107042 -13.48887223 3.5983272 -11 1 C-7.54260443 -0.72869779 -3.78024432 -0.48966895 0 0 Z " fill="#010405" transform="translate(87,39)"/>
<path d="M0 0 C4.14623807 1.79042098 6.17613802 3.87231236 8 8 C8.59866575 12.01961286 8.18471519 13.66878655 6.1875 17.25 C4.00736386 19.99074258 2.46430532 21.76417555 -1.0859375 22.3359375 C-5.17310165 22.40568433 -7.42122719 22.34967524 -11 20.1875 C-14.08344922 16.81497741 -14.39260061 13.57238229 -14.359375 9.0703125 C-13.71820971 5.3766429 -11.64068388 3.57781045 -9 1 C-5.93570224 -0.53214888 -3.3834358 -0.22938548 0 0 Z " fill="#010405" transform="translate(86,121)"/>
</svg>
