<?xml version="1.0" encoding="UTF-8"?>
<svg version="1.1" xmlns="http://www.w3.org/2000/svg" width="463" height="476">
<path d="M0 0 C0.33 0 0.66 0 1 0 C1.14695313 0.81082031 1.29390625 1.62164062 1.4453125 2.45703125 C5.16754589 20.83288459 16.51981455 34.33353585 31.89550781 44.67431641 C72.84250418 70.46807398 121.32395915 77.27654834 168.875 77.0625 C170.83463427 77.05747197 172.79426979 77.05291138 174.75390625 77.04882812 C179.50263585 77.03793266 184.25130362 77.02074085 189 77 C189 72.38 189 67.76 189 63 C192.95838847 61.02080577 196.30892462 60.32003245 200.60546875 59.703125 C202.14964401 59.46805163 203.69374937 59.23251866 205.23779297 58.99658203 C206.04553162 58.87526917 206.85327026 58.7539563 207.68548584 58.62896729 C237.70873107 54.08149992 265.60884556 46.74107997 293.375 34.3125 C293.99169556 34.03654999 294.60839111 33.76059998 295.24377441 33.47628784 C311.90362471 26.65129624 311.90362471 26.65129624 321.9296875 12.6953125 C323.40725836 8.51589779 324.43485213 4.40815338 325 0 C325.33 0 325.66 0 326 0 C326 6.6 326 13.2 326 20 C327.65 20.33 329.3 20.66 331 21 C332.6231732 21.72107194 334.21935596 22.50487954 335.7890625 23.3359375 C336.7169458 23.81788574 337.6448291 24.29983398 338.60083008 24.79638672 C340.09779419 25.57780029 340.09779419 25.57780029 341.625 26.375 C376.72288822 44.28115051 412.57895729 53.58059691 451.19360352 60.08398438 C451.90624863 60.20517136 452.61889374 60.32635834 453.35313416 60.45121765 C455.29943848 60.78133934 457.2466185 61.10628616 459.19384766 61.4309082 C462 62 462 62 463 63 C463.11473142 65.91912582 463.15593812 68.80677219 463.14453125 71.7265625 C463.14217972 72.65417389 463.13982819 73.58178528 463.1374054 74.5375061 C463.05264456 86.21374318 462.48235932 97.8690241 461.88305664 109.52832031 C461.68815109 113.36219285 461.50872507 117.19658969 461.33007812 121.03125 C460.32665163 141.53043223 458.34972927 161.69921429 453.875 181.75 C453.72826843 182.41334351 453.58153687 183.07668701 453.43035889 183.76013184 C445.68415233 218.49116698 431.53559952 250.9281876 411 280 C410.34281982 280.94117676 410.34281982 280.94117676 409.67236328 281.90136719 C404.09048668 289.86513927 398.20916307 297.26498513 391.5078125 304.31640625 C389.66701424 306.28623242 387.98337971 308.24178549 386.3046875 310.33984375 C385.54414063 311.21769531 384.78359375 312.09554688 384 313 C383.34 313 382.68 313 382 313 C382 313.66 382 314.32 382 315 C380.6015625 316.41015625 380.6015625 316.41015625 378.625 318.0625 C375.47821792 320.73066312 372.40792312 323.45308248 369.375 326.25 C358.67261554 335.85763673 347.53350915 343.95263688 335 351 C334.17113281 351.48855469 333.34226562 351.97710937 332.48828125 352.48046875 C328.11823819 354.91936897 325.79425573 355.2916289 321 354 C318.02284079 352.54461533 315.23902468 350.82876282 312.4375 349.0625 C311.644646 348.56886963 310.85179199 348.07523926 310.03491211 347.56665039 C299.70843962 341.0420883 290.42160026 333.60770527 281.46875 325.28515625 C279.41369168 323.38292663 277.32524989 321.55712332 275.1875 319.75 C264.23844382 310.16957584 254.62127207 299.69853585 246 288 C245.52884766 287.37319336 245.05769531 286.74638672 244.57226562 286.10058594 C229.80013984 266.38798284 217.41573823 244.18248388 209 221 C208.38632568 221.06058594 207.77265137 221.12117187 207.14038086 221.18359375 C145.95853641 226.98969998 72.7861999 224.65693011 23.140625 183.83203125 C20.60877655 181.66517555 18.26638612 179.44531134 16 177 C15.39671875 176.401875 14.7934375 175.80375 14.171875 175.1875 C5.63795994 166.327863 -0.14021816 155.48187873 -0.11352539 143.01635742 C-0.11344986 141.83551071 -0.11337433 140.654664 -0.11329651 139.43803406 C-0.10813522 138.17328751 -0.10297394 136.90854095 -0.09765625 135.60546875 C-0.0962413 134.30297684 -0.09482635 133.00048492 -0.09336853 131.65852356 C-0.08956355 128.20783546 -0.07975064 124.75718992 -0.06866455 121.30651855 C-0.05840689 117.78052343 -0.0538616 114.25452139 -0.04882812 110.72851562 C-0.03812644 103.81899301 -0.02107443 96.90949855 0 90 C0.33 90 0.66 90 1 90 C1.09796875 90.60585937 1.1959375 91.21171875 1.296875 91.8359375 C4.52416759 109.91990458 14.32684816 122.30850745 29 133 C57.9849484 153.18323632 93.40455925 161.86111427 128 166 C128.72047516 166.08968552 129.44095032 166.17937103 130.18325806 166.27177429 C137.279738 167.07692749 144.30926504 167.12847235 151.4453125 167.09765625 C152.69633759 167.0962413 153.94736267 167.09482635 155.23629761 167.09336853 C158.52744776 167.08875093 161.81854689 167.07980053 165.10968018 167.06866455 C168.48196801 167.05834925 171.85426337 167.05384945 175.2265625 167.04882812 C181.81772792 167.03785206 188.4088598 167.02115405 195 167 C194.52457764 165.47814087 194.52457764 165.47814087 194.03955078 163.92553711 C193.01905283 160.34435252 192.60745446 156.91554413 192.3671875 153.19140625 C192.28339844 151.95068359 192.19960937 150.70996094 192.11328125 149.43164062 C192.03464844 148.15482422 191.95601562 146.87800781 191.875 145.5625 C191.78863281 144.25861328 191.70226562 142.95472656 191.61328125 141.61132812 C191.40206819 138.40793008 191.19785972 135.20424591 191 132 C190.11554199 132.03552979 189.23108398 132.07105957 188.31982422 132.10766602 C131.51819264 134.31387645 64.25471505 130.63316806 19.625 90.625 C8.37357933 80.05723353 0.05306654 67.84693264 -0.56762695 51.99462891 C-0.56685164 49.57179586 -0.53959119 47.14885229 -0.48828125 44.7265625 C-0.48120651 43.43680511 -0.47413177 42.14704773 -0.46684265 40.81820679 C-0.44803695 37.44112818 -0.3991791 34.06517932 -0.34332275 30.6885376 C-0.2915466 27.22220125 -0.26920613 23.75567666 -0.24414062 20.2890625 C-0.19102279 13.52558674 -0.10604674 6.76284806 0 0 Z " fill="#51BCE3" transform="translate(0,121)"/>
<path d="M0 0 C5.49152208 -0.0906672 10.97477434 -0.05262993 16.46582031 0.05029297 C17.76108643 0.06914551 17.76108643 0.06914551 19.08251953 0.08837891 C67.11142569 0.93235108 121.53451397 12.78596886 156.14160156 48.42529297 C165.61484446 59.12448495 170.33761027 71.29490463 169.84472656 85.63623047 C167.88549159 103.28954352 156.13274954 116.25007636 142.96582031 127.11279297 C140.52812233 128.89165366 138.04722709 130.48680262 135.46582031 132.05029297 C134.91651855 132.3897998 134.3672168 132.72930664 133.80126953 133.07910156 C85.7041783 162.55042212 20.61482741 169.12944687 -34.53417969 161.05029297 C-35.43136719 160.92138672 -36.32855469 160.79248047 -37.25292969 160.65966797 C-75.34081767 155.009267 -121.37782878 142.93894592 -146.34667969 111.17529297 C-154.98802358 99.19976683 -157.86270409 87.63148177 -156.53417969 73.05029297 C-152.6775965 55.33204792 -139.11754614 41.80125497 -124.53417969 32.05029297 C-87.40302698 8.45453978 -43.31045195 0.85953305 0 0 Z " fill="#000000" transform="translate(156.5341796875,-0.05029296875)"/>
<path d="M0 0 C13.60048506 11.37710141 23.54189829 28.47224491 25.62109375 46.19140625 C27.36603011 68.33389383 22.80416104 87.3976881 8.55859375 104.87890625 C-0.65525346 115.60568994 -12.12262194 122.49905327 -25.37890625 127.19140625 C-26.7865625 127.69994141 -26.7865625 127.69994141 -28.22265625 128.21875 C-45.47184665 133.47587685 -64.84006731 130.69959753 -80.81640625 122.87890625 C-86.51438033 119.83611057 -91.5717213 116.50254022 -96.37890625 112.19140625 C-97.13816406 111.51335937 -97.89742188 110.8353125 -98.6796875 110.13671875 C-111.98946383 97.56513169 -120.04201662 80.2855539 -120.71484375 61.984375 C-121.03065752 39.08959291 -121.03065752 39.08959291 -116.37890625 29.19140625 C-115.84265625 27.98871094 -115.30640625 26.78601563 -114.75390625 25.546875 C-105.82756691 6.67116146 -89.81867716 -6.58105124 -70.37890625 -13.80859375 C-45.83404826 -21.59447671 -20.19370119 -15.35251831 0 0 Z " fill="#000203" transform="translate(373.37890625,229.80859375)"/>
<path d="M0 0 C0.33 0 0.66 0 1 0 C1.14695313 0.90878906 1.14695313 0.90878906 1.296875 1.8359375 C4.52416759 19.91990458 14.32684816 32.30850745 29 43 C57.98562051 63.18370433 93.40419443 71.85966968 128 76 C128.71793732 76.08968552 129.43587463 76.17937103 130.17556763 76.27177429 C137.34630125 77.08749573 144.4533049 77.12823534 151.6640625 77.09765625 C152.93728363 77.0962413 154.21050476 77.09482635 155.52230835 77.09336853 C158.87264978 77.08875005 162.22292027 77.07979885 165.57324219 77.06866455 C169.00585321 77.0583512 172.43847163 77.05384986 175.87109375 77.04882812 C182.5807484 77.03785054 189.29037012 77.02115135 196 77 C196.16146515 77.75277725 196.3229303 78.5055545 196.48928833 79.28114319 C197.23961413 82.76293689 197.99866912 86.24277487 198.7578125 89.72265625 C199.01151611 90.90621704 199.26521973 92.08977783 199.52661133 93.3092041 C201.81917857 103.76881859 204.91818325 113.85496016 208.45263672 123.95483398 C209 126 209 126 209 130 C207.12636327 130.3205724 205.25095905 130.6308098 203.375 130.9375 C202.33085937 131.11152344 201.28671875 131.28554688 200.2109375 131.46484375 C144.67286676 139.20410444 74.12063852 132.38701195 28.28515625 97.9609375 C23.92601332 94.54275494 19.77107659 91.06879316 16 87 C15.39671875 86.401875 14.7934375 85.80375 14.171875 85.1875 C5.63795994 76.327863 -0.14021816 65.48187873 -0.11352539 53.01635742 C-0.11344986 51.83551071 -0.11337433 50.654664 -0.11329651 49.43803406 C-0.10813522 48.17328751 -0.10297394 46.90854095 -0.09765625 45.60546875 C-0.0962413 44.30297684 -0.09482635 43.00048492 -0.09336853 41.65852356 C-0.08956355 38.20783546 -0.07975064 34.75718992 -0.06866455 31.30651855 C-0.05840689 27.78052343 -0.0538616 24.25452139 -0.04882812 20.72851562 C-0.03812644 13.81899301 -0.02107443 6.90949855 0 0 Z " fill="#000000" transform="translate(0,211)"/>
<path d="M0 0 C0.33 0 0.66 0 1 0 C1.14695313 0.81082031 1.29390625 1.62164062 1.4453125 2.45703125 C5.16754589 20.83288459 16.51981455 34.33353585 31.89550781 44.67431641 C72.84250418 70.46807398 121.32395915 77.27654834 168.875 77.0625 C170.83463427 77.05747197 172.79426979 77.05291138 174.75390625 77.04882812 C179.50263585 77.03793266 184.25130362 77.02074085 189 77 C189.73370151 81.0131645 190.16818117 84.89695516 190.31640625 88.97265625 C190.35838135 90.11057617 190.40035645 91.24849609 190.44360352 92.42089844 C190.48283936 93.62262695 190.5220752 94.82435547 190.5625 96.0625 C190.6049585 97.29645508 190.64741699 98.53041016 190.69116211 99.80175781 C191.03575042 110.53738242 191.10460831 121.26021391 191 132 C133.32660767 134.31681235 65.02627368 131.32482937 19.625 90.625 C8.37357933 80.05723353 0.05306654 67.84693264 -0.56762695 51.99462891 C-0.56685164 49.57179586 -0.53959119 47.14885229 -0.48828125 44.7265625 C-0.48120651 43.43680511 -0.47413177 42.14704773 -0.46684265 40.81820679 C-0.44803695 37.44112818 -0.3991791 34.06517932 -0.34332275 30.6885376 C-0.2915466 27.22220125 -0.26920613 23.75567666 -0.24414062 20.2890625 C-0.19102279 13.52558674 -0.10604674 6.76284806 0 0 Z " fill="#000000" transform="translate(0,121)"/>
<path d="M0 0 C2.9375 2.4375 2.9375 2.4375 5 5 C5.495 5.495 5.495 5.495 6 6 C6.2207234 10.7904485 6.00515798 13.60181143 3.1736145 17.54052734 C0.58376179 20.35822138 -2.11147681 23.03880824 -4.87109375 25.6875 C-5.87545737 26.67946129 -6.87812336 27.67314411 -7.87916565 28.66845703 C-10.50606745 31.27061156 -13.15651802 33.84743743 -15.81237793 36.41998291 C-17.98173503 38.52912988 -20.13409582 40.65516681 -22.28573513 42.78236389 C-26.72590632 47.17199177 -31.1792159 51.54816534 -35.65795898 55.8984375 C-36.44992172 56.66849121 -37.24188446 57.43854492 -38.05784607 58.23193359 C-41.43085254 61.30259619 -44.18128675 61.46532419 -48.61740112 61.40228271 C-52.89080861 60.68075213 -55.28267169 58.02321615 -58.22265625 55.0078125 C-58.85360703 54.38784393 -59.4845578 53.76787537 -60.1346283 53.12911987 C-61.45726473 51.81694933 -62.7686318 50.49333203 -64.0690918 49.15917969 C-66.05614986 47.13148002 -68.08871504 45.15953096 -70.13085938 43.1875 C-71.41451986 41.90148616 -72.6952247 40.6125139 -73.97265625 39.3203125 C-74.88181541 38.44622238 -74.88181541 38.44622238 -75.80934143 37.55447388 C-79.14025463 34.05268926 -80.39678406 31.63225474 -80.54077148 26.73779297 C-80.46317981 24.06049653 -80.33194312 22.50913679 -78.86463928 20.25857544 C-76.43747471 18.00422747 -74.22616104 17.0424052 -71 16.4375 C-63.84195591 17.77963327 -59.00868709 23.74327428 -54.125 28.75 C-53.43664062 29.44738281 -52.74828125 30.14476562 -52.0390625 30.86328125 C-50.35470418 32.57103343 -48.67522383 34.28329443 -47 36 C-43.96260698 34.64245411 -41.88064527 33.12227009 -39.54833984 30.75952148 C-38.89441254 30.10221542 -38.24048523 29.44490936 -37.56674194 28.76768494 C-36.87182648 28.05930984 -36.17691101 27.35093475 -35.4609375 26.62109375 C-34.73887115 25.89382584 -34.01680481 25.16655792 -33.27285767 24.41725159 C-30.96877306 22.09536418 -28.67148868 19.76689861 -26.375 17.4375 C-24.07050867 15.10541428 -21.76458608 12.77479055 -19.45571899 10.44703674 C-18.01950844 8.99854462 -16.58597914 7.54738824 -15.15536499 6.09336853 C-14.18393051 5.11213768 -14.18393051 5.11213768 -13.19287109 4.11108398 C-12.62313568 3.53309555 -12.05340027 2.95510712 -11.46640015 2.35960388 C-8.18783004 -0.68019167 -4.24691782 -0.75663478 0 0 Z " fill="#53BCE3" transform="translate(363,256)"/>
<path d="M0 0 C-0.33 0.66 -0.66 1.32 -1 2 C-6.28 2 -11.56 2 -17 2 C-17.33 12.23 -17.66 22.46 -18 33 C-18.33 33 -18.66 33 -19 33 C-20.32378398 22.69339617 -20.09139066 12.36776236 -20 2 C-13.40114965 -1.50698121 -7.17140049 -1.05700914 0 0 Z " fill="#52A2C2" transform="translate(209,182)"/>
<path d="M0 0 C0.33 0 0.66 0 1 0 C1 6.6 1 13.2 1 20 C-5.8359375 24.00390625 -5.8359375 24.00390625 -8 25 C-8.66 24.67 -9.32 24.34 -10 24 C-9.4225 23.360625 -8.845 22.72125 -8.25 22.0625 C-3.30216048 15.32794066 -1.29698313 8.17440685 0 0 Z " fill="#050C10" transform="translate(325,121)"/>
<path d="M0 0 C2.5 2 2.5 2 4 4 C3.34 4.33 2.68 4.66 2 5 C1.01 4.67 0.02 4.34 -1 4 C-1 3.01 -1 2.02 -1 1 C-2.98 1 -4.96 1 -7 1 C-7.33 1.99 -7.66 2.98 -8 4 C-9.65848177 5.01351664 -11.32665961 6.01120795 -13 7 C-14.69223754 8.64069731 -16.35496005 10.31198368 -18 12 C-18.96336557 12.96631967 -19.92823576 13.93114143 -20.89453125 14.89453125 C-21.37470703 15.37470703 -21.85488281 15.85488281 -22.34960938 16.34960938 C-24.56640625 18.56640625 -26.78320312 20.78320312 -29 23 C-29.66 22.67 -30.32 22.34 -31 22 C-28.04909391 19.02439537 -25.09493253 16.05207322 -22.13769531 13.08276367 C-21.13190797 12.07194415 -20.12701952 11.06022938 -19.12304688 10.04760742 C-17.68073517 8.59318144 -16.23523328 7.14199385 -14.7890625 5.69140625 C-13.91975098 4.81685791 -13.05043945 3.94230957 -12.15478516 3.04125977 C-8.49969922 -0.42125706 -4.89771651 -0.74530469 0 0 Z " fill="#61B7D3" transform="translate(363,256)"/>
<path d="M0 0 C1.65 0.33 3.3 0.66 5 1 C2.03 7.27 -0.94 13.54 -4 20 C-5.24703266 16.25890201 -4.45460854 15.55570977 -3 12 C-2.835 10.845 -2.67 9.69 -2.5 8.5 C-2.04679793 5.3275855 -1.31742194 2.89832828 0 0 Z " fill="#55B6D5" transform="translate(260,244)"/>
<path d="M0 0 C0.66 0 1.32 0 2 0 C2.06414266 4.1234567 2.11500632 7.67324969 -0.625 10.93359375 C-2.3634959 12.39519212 -4.11004765 13.74167663 -6 15 C-6.3125 12.1875 -6.3125 12.1875 -6 9 C-4.34467377 7.98133771 -2.67739862 6.98189187 -1 6 C-0.10792821 2.9042893 -0.10792821 2.9042893 0 0 Z " fill="#5AB2D1" transform="translate(367,262)"/>
<path d="M0 0 C0.33 0 0.66 0 1 0 C1.33 3.63 1.66 7.26 2 11 C2.33 10.34 2.66 9.68 3 9 C3.99 9 4.98 9 6 9 C5.34 12.96 4.68 16.92 4 21 C3.67 21 3.34 21 3 21 C0.95938459 13.82140651 -0.37369729 7.47394574 0 0 Z " fill="#4A9DBB" transform="translate(193,272)"/>
<path d="M0 0 C-1.21484375 1.49609375 -1.21484375 1.49609375 -3 3 C-5.19140625 3.22265625 -5.19140625 3.22265625 -7.5625 3.0625 C-9.88721105 2.87088561 -9.88721105 2.87088561 -12 3 C-12.66 3.66 -13.32 4.32 -14 5 C-14 4.34 -14 3.68 -14 3 C-16.31 3 -18.62 3 -21 3 C-21 2.67 -21 2.34 -21 2 C-18.25162151 1.46892686 -15.50187625 0.94984119 -12.75 0.4375 C-11.97269531 0.28603516 -11.19539062 0.13457031 -10.39453125 -0.02148438 C-9.64042969 -0.16005859 -8.88632813 -0.29863281 -8.109375 -0.44140625 C-7.07248535 -0.63778687 -7.07248535 -0.63778687 -6.01464844 -0.83813477 C-3.78712058 -1.01710362 -2.12493038 -0.65206197 0 0 Z " fill="#4697B6" transform="translate(234,177)"/>
<path d="M0 0 C0.33 0.99 0.66 1.98 1 3 C0.3503125 3.61875 0.3503125 3.61875 -0.3125 4.25 C-2.07771178 5.98405378 -2.07771178 5.98405378 -3.5 8.1875 C-3.995 8.785625 -4.49 9.38375 -5 10 C-5.99 10 -6.98 10 -8 10 C-8.33 10.99 -8.66 11.98 -9 13 C-9.99 13.66 -10.98 14.32 -12 15 C-12.99 14.67 -13.98 14.34 -15 14 C-14.50371094 13.57589844 -14.00742187 13.15179688 -13.49609375 12.71484375 C-8.79678658 8.65756716 -4.32846012 4.45019806 0 0 Z " fill="#61B9DA" transform="translate(331,279)"/>
<path d="M0 0 C0.66 0.33 1.32 0.66 2 1 C2 1.99 2 2.98 2 4 C0.89591797 4.12181641 0.89591797 4.12181641 -0.23046875 4.24609375 C-3.61329376 5.16694738 -4.93451218 6.52329267 -7.3125 9.0625 C-8.00988281 9.79597656 -8.70726562 10.52945313 -9.42578125 11.28515625 C-10.20501953 12.13400391 -10.20501953 12.13400391 -11 13 C-11.99 12.67 -12.98 12.34 -14 12 C-9.64157559 7.40312076 -5.25723759 3.54058858 0 0 Z " fill="#041721" transform="translate(286,224)"/>
<path d="M0 0 C-0.43820891 4.55737263 -0.85041169 7.57653445 -4 11 C-4 10.01 -4 9.02 -4 8 C-4.66 8 -5.32 8 -6 8 C-3.18918919 0 -3.18918919 0 0 0 Z " fill="#54ACCE" transform="translate(432,361)"/>
<path d="M0 0 C1.31223496 3.93670488 0.24296256 6.12488144 -1 10 C-1.66 10 -2.32 10 -3 10 C-3.33 11.65 -3.66 13.3 -4 15 C-4.99 15 -5.98 15 -7 15 C-6.20928784 13.24956851 -5.41739082 11.49967222 -4.625 9.75 C-4.18414062 8.77546875 -3.74328125 7.8009375 -3.2890625 6.796875 C-2.23361862 4.50688161 -1.14456065 2.24633399 0 0 Z " fill="#5AB0D0" transform="translate(396,308)"/>
<path d="M0 0 C3.46311372 2.30874248 3.56015245 3.01453002 4.5625 6.875 C5.42696638 10.14727388 6.38493217 13.01940271 8 16 C7.34 16.66 6.68 17.32 6 18 C4.99600476 15.37646482 3.99665555 12.75132205 3 10.125 C2.57074219 9.00544922 2.57074219 9.00544922 2.1328125 7.86328125 C0 2.2265625 0 2.2265625 0 0 Z " fill="#020F1E" transform="translate(254,302)"/>
<path d="M0 0 C3.72433382 1.2125738 7.37802806 2.50859979 11 4 C8.06279492 5.52299523 5.0831351 6.80100302 2 8 C2 7.01 2 6.02 2 5 C2.99 5 3.98 5 5 5 C5 4.34 5 3.68 5 3 C3.68 3.33 2.36 3.66 1 4 C0.67 2.68 0.34 1.36 0 0 Z " fill="#4CA3C6" transform="translate(347,151)"/>
<path d="M0 0 C4.9723422 1.49170266 9.41845739 3.60457417 14 6 C13.01 6.33 12.02 6.66 11 7 C10.1646875 6.505 10.1646875 6.505 9.3125 6 C5.72720927 4.44960401 2.81394789 5.36434202 -1 6 C-0.67 4.02 -0.34 2.04 0 0 Z " fill="#4798B9" transform="translate(331,143)"/>
<path d="M0 0 C0 5 0 5 -1.46875 6.5078125 C-6.5611675 10.56216028 -9.50404609 11.69599506 -16 11 C-16 10.67 -16 10.34 -16 10 C-14.2675 9.7525 -14.2675 9.7525 -12.5 9.5 C-6.87821649 8.15478752 -3.69071991 4.2207701 0 0 Z " fill="#08242F" transform="translate(331,307)"/>
<path d="M0 0 C0.268125 1.11375 0.53625 2.2275 0.8125 3.375 C1.65809019 7.21840951 1.65809019 7.21840951 5 9 C4.01 9.33 3.02 9.66 2 10 C-0.31 7.69 -2.62 5.38 -5 3 C-3.7124791 0.4249582 -2.85933002 0 0 0 Z " fill="#50A7CB" transform="translate(262,420)"/>
<path d="M0 0 C0.33 1.32 0.66 2.64 1 4 C0.34 4 -0.32 4 -1 4 C-0.67 5.32 -0.34 6.64 0 8 C-1.96466413 9.06775224 -3.96855359 10.06553465 -6 11 C-6.66 10.67 -7.32 10.34 -8 10 C-7.59007812 9.52949219 -7.18015625 9.05898438 -6.7578125 8.57421875 C-6.21898437 7.95160156 -5.68015625 7.32898438 -5.125 6.6875 C-4.59132813 6.07261719 -4.05765625 5.45773437 -3.5078125 4.82421875 C-1.8359553 2.86501788 -1.8359553 2.86501788 0 0 Z " fill="#59B0CD" transform="translate(388,325)"/>
<path d="M0 0 C0.99 0.66 1.98 1.32 3 2 C3 2.66 3 3.32 3 4 C3.66 4.33 4.32 4.66 5 5 C3.35 5.66 1.7 6.32 0 7 C-0.99 6.01 -1.98 5.02 -3 4 C-2.01 2.68 -1.02 1.36 0 0 Z " fill="#4EB1D5" transform="translate(316,465)"/>
<path d="M0 0 C7.48291572 6.15034169 7.48291572 6.15034169 10 10 C9.01 10.33 8.02 10.66 7 11 C5.82750647 9.54634731 4.66216184 8.08692581 3.5 6.625 C2.52546875 5.40683594 2.52546875 5.40683594 1.53125 4.1640625 C0 2 0 2 0 0 Z " fill="#5EB1D0" transform="translate(268,333)"/>
<path d="M0 0 C0.66 0 1.32 0 2 0 C2.33 0.99 2.66 1.98 3 3 C0.69 4.98 -1.62 6.96 -4 9 C-3.4739075 5.21213403 -2.61896089 2.82847776 0 0 Z " fill="#5DB7DA" transform="translate(336,297)"/>
<path d="M0 0 C9.59453303 5.0022779 9.59453303 5.0022779 13 9 C11.02 8.34 9.04 7.68 7 7 C7 6.34 7 5.68 7 5 C6.01 5.33 5.02 5.66 4 6 C4 5.34 4 4.68 4 4 C2.68 3.34 1.36 2.68 0 2 C0 1.34 0 0.68 0 0 Z " fill="#041724" transform="translate(359,221)"/>
<path d="M0 0 C-3 2 -3 2 -6 2 C-6.33 2.99 -6.66 3.98 -7 5 C-9.64 5 -12.28 5 -15 5 C-12.30932731 3.20621821 -9.91421743 2.02686042 -6.9375 0.8125 C-5.62072266 0.26529297 -5.62072266 0.26529297 -4.27734375 -0.29296875 C-2 -1 -2 -1 0 0 Z " fill="#4794B1" transform="translate(285,161)"/>
<path d="M0 0 C1.98 0 3.96 0 6 0 C6.309375 0.94875 6.61875 1.8975 6.9375 2.875 C7.87394742 5.86080408 7.87394742 5.86080408 9 8 C4.7257442 6.4169423 2.73468206 3.49431596 0 0 Z " fill="#4D9DBC" transform="translate(270,435)"/>
<path d="M0 0 C0.99 0.495 0.99 0.495 2 1 C2 1.66 2 2.32 2 3 C2.99 3.33 3.98 3.66 5 4 C5 6.31 5 8.62 5 11 C2.03947516 7.63576723 1.07710178 4.30840713 0 0 Z " fill="#4A9FBE" transform="translate(214,352)"/>
<path d="M0 0 C1.22589844 0.29197266 1.22589844 0.29197266 2.4765625 0.58984375 C3.41628906 0.82380859 3.41628906 0.82380859 4.375 1.0625 C4.375 1.7225 4.375 2.3825 4.375 3.0625 C2.91577307 2.94840407 1.45759402 2.82084456 0 2.6875 C-1.21816406 2.58308594 -1.21816406 2.58308594 -2.4609375 2.4765625 C-4.625 2.0625 -4.625 2.0625 -6.625 0.0625 C-3.99249612 -1.25375194 -2.82320944 -0.68563658 0 0 Z " fill="#041721" transform="translate(310.625,355.9375)"/>
<path d="M0 0 C-0.66 1.32 -1.32 2.64 -2 4 C-3.32 3.67 -4.64 3.34 -6 3 C-6.33 3.66 -6.66 4.32 -7 5 C-7.99 5.495 -7.99 5.495 -9 6 C-9.66 5.34 -10.32 4.68 -11 4 C-9.73308493 3.32591692 -8.46129251 2.66099503 -7.1875 2 C-6.47980469 1.62875 -5.77210938 1.2575 -5.04296875 0.875 C-3 0 -3 0 0 0 Z " fill="#489ABA" transform="translate(316,146)"/>
<path d="M0 0 C0.66 0 1.32 0 2 0 C2.6875 1.8125 2.6875 1.8125 3 4 C1.5625 5.75 1.5625 5.75 0 7 C-2 6 -2 6 -4 3 C-2.68 2.34 -1.36 1.68 0 1 C0 0.67 0 0.34 0 0 Z " fill="#4EAACF" transform="translate(358,450)"/>
<path d="M0 0 C2.875 0.625 2.875 0.625 6 2 C7.375 5.125 7.375 5.125 8 8 C6.85073734 7.04578192 5.70569459 6.08647955 4.5625 5.125 C3.92441406 4.59132813 3.28632813 4.05765625 2.62890625 3.5078125 C1 2 1 2 0 0 Z " fill="#61B9DC" transform="translate(295,299)"/>
<path d="M0 0 C1.32 0.33 2.64 0.66 4 1 C4.33 2.65 4.66 4.3 5 6 C4.01 6.33 3.02 6.66 2 7 C1.34 4.69 0.68 2.38 0 0 Z " fill="#5AB5D7" transform="translate(393,256)"/>
<path d="M0 0 C0.99 0.33 1.98 0.66 3 1 C0.525 6.94 0.525 6.94 -2 13 C-3.18414294 9.44757118 -2.69535532 8.30169438 -1.5625 4.8125 C-1.27503906 3.91144531 -0.98757813 3.01039063 -0.69140625 2.08203125 C-0.46324219 1.39496094 -0.23507812 0.70789063 0 0 Z " fill="#5DAFCC" transform="translate(258,251)"/>
<path d="M0 0 C1 2 1 2 0.5 3.8125 C-0.11009506 6.48166589 0.34243737 8.36974946 1 11 C-1.25245881 8.31158141 -2.88213958 6.35358125 -4 3 C-2.68 2.01 -1.36 1.02 0 0 Z " fill="#5AB5DA" transform="translate(390,241)"/>
<path d="M0 0 C1.32 0.33 2.64 0.66 4 1 C4.33 3.97 4.66 6.94 5 10 C2.35534962 6.8745041 1.15585285 3.91211733 0 0 Z " fill="#4DA1BD" transform="translate(219,363)"/>
<path d="M0 0 C-0.33 0.99 -0.66 1.98 -1 3 C-4.3 3 -7.6 3 -11 3 C-6.93675441 0.9683772 -4.47525541 0 0 0 Z " fill="#55A9C6" transform="translate(347,357)"/>
<path d="M0 0 C-1.4562545 0.67119549 -2.91507867 1.33681807 -4.375 2 C-5.59316406 2.556875 -5.59316406 2.556875 -6.8359375 3.125 C-9 4 -9 4 -11 4 C-11 3.34 -11 2.68 -11 2 C-9.73392393 1.46770674 -8.46189588 0.94955456 -7.1875 0.4375 C-6.47980469 0.14746094 -5.77210938 -0.14257812 -5.04296875 -0.44140625 C-3 -1 -3 -1 0 0 Z " fill="#031421" transform="translate(362,351)"/>
<path d="M0 0 C2.475 0.495 2.475 0.495 5 1 C5 1.99 5 2.98 5 4 C4.34 4 3.68 4 3 4 C2.67 5.32 2.34 6.64 2 8 C0.74335022 5.09399739 0 3.20395416 0 0 Z " fill="#499FC2" transform="translate(209,339)"/>
<path d="M0 0 C3.08236365 2.78407039 3.95206337 3.80825346 5 8 C2.69 6.02 0.38 4.04 -2 2 C-1.34 1.34 -0.68 0.68 0 0 Z " fill="#60B9DE" transform="translate(290,291)"/>
<path d="M0 0 C0 3.99904969 -1.72586967 5.80200422 -4 9 C-4.66 7.68 -5.32 6.36 -6 5 C-5.01 5 -4.02 5 -3 5 C-3 4.01 -3 3.02 -3 2 C-2.01 1.34 -1.02 0.68 0 0 Z " fill="#4799B6" transform="translate(413,395)"/>
<path d="M0 0 C3.37462715 0.54723683 5.08235 1.0549 8 3 C6.02 3.99 6.02 3.99 4 5 C2.68 3.35 1.36 1.7 0 0 Z " fill="#031D2D" transform="translate(312,288)"/>
<path d="M0 0 C1.32 0.66 2.64 1.32 4 2 C4 2.99 4 3.98 4 5 C3.01 5 2.02 5 1 5 C0.67 5.99 0.34 6.98 0 8 C-1.43088528 5.13822943 -0.59991697 3.06624227 0 0 Z " fill="#52B5D8" transform="translate(284,280)"/>
<path d="M0 0 C0.66 0 1.32 0 2 0 C2 0.66 2 1.32 2 2 C2.66 2 3.32 2 4 2 C4.33 3.32 4.66 4.64 5 6 C2.525 5.01 2.525 5.01 0 4 C0 2.68 0 1.36 0 0 Z " fill="#52A8CA" transform="translate(300,458)"/>
<path d="M0 0 C0.99 0.66 1.98 1.32 3 2 C1.625 3.5 1.625 3.5 0 5 C-0.66 5 -1.32 5 -2 5 C-2 4.34 -2 3.68 -2 3 C-3.32 2.67 -4.64 2.34 -6 2 C-3.1875 0.875 -3.1875 0.875 0 0 Z " fill="#52ABC9" transform="translate(356,353)"/>
<path d="M0 0 C2.375 0.25 2.375 0.25 5 1 C6.3125 3.0625 6.3125 3.0625 7 5 C6.01 5 5.02 5 4 5 C1.8125 2.5 1.8125 2.5 0 0 Z " fill="#5EBBDA" transform="translate(303,307)"/>
<path d="M0 0 C0.33 1.32 0.66 2.64 1 4 C-0.65 5.32 -2.3 6.64 -4 8 C-4.66 7.67 -5.32 7.34 -6 7 C-4.02 4.69 -2.04 2.38 0 0 Z " fill="#071B29" transform="translate(271,237)"/>
<path d="M0 0 C1.98 0.99 1.98 0.99 4 2 C4 2.99 4 3.98 4 5 C3.01 5 2.02 5 1 5 C0.67 3.35 0.34 1.7 0 0 Z " fill="#59B5D6" transform="translate(379,233)"/>
<path d="M0 0 C3.93673644 1.31224548 6.22719294 2.91910327 9 6 C4.58763974 6 3.21615077 3.9302707 0 1 C0 0.67 0 0.34 0 0 Z " fill="#5DA9C9" transform="translate(368,226)"/>
<path d="M0 0 C-1.32 1.32 -2.64 2.64 -4 4 C-4 3.34 -4 2.68 -4 2 C-5.65 2.33 -7.3 2.66 -9 3 C-6.40821726 0.40821726 -3.54324677 -1.77162338 0 0 Z " fill="#4896B6" transform="translate(305,152)"/>
</svg>
