<?xml version="1.0" encoding="UTF-8"?>
<svg version="1.1" xmlns="http://www.w3.org/2000/svg" width="432" height="432">
<path d="M0 0 C0.79361938 -0.00701431 1.58723877 -0.01402863 2.40490723 -0.02125549 C4.95359035 -0.03866173 7.50204086 -0.04510831 10.05078125 -0.046875 C11.35893295 -0.04788712 11.35893295 -0.04788712 12.69351196 -0.04891968 C68.68230907 0.0198808 120.88425231 21.45675921 161.36328125 60.203125 C161.91628906 60.72358398 162.46929687 61.24404297 163.0390625 61.78027344 C172.60239204 70.80930861 180.71171927 80.51575136 188.36328125 91.203125 C188.81155273 91.82268066 189.25982422 92.44223633 189.72167969 93.08056641 C207.6191795 118.0300334 218.30091147 146.25501827 224.36328125 176.203125 C224.54117187 177.03714844 224.7190625 177.87117187 224.90234375 178.73046875 C229.96856725 203.21721565 229.55110157 231.78747112 224.36328125 256.203125 C224.1916748 257.05003906 224.02006836 257.89695312 223.84326172 258.76953125 C215.63977276 298.59200848 197.17081263 335.40298946 168.82177734 364.69335938 C167.80773104 365.74305176 166.80072803 366.79957543 165.79931641 367.86132812 C130.56290234 405.19151538 77.8538902 430.82105264 26.17407227 432.38012695 C24.73853477 432.40616184 23.30288244 432.42638058 21.8671875 432.44140625 C21.08459564 432.4512001 20.30200378 432.46099396 19.49569702 432.47108459 C1.08690804 432.65379674 -16.57974454 432.20480738 -34.63671875 428.203125 C-35.56613281 427.99945313 -36.49554688 427.79578125 -37.453125 427.5859375 C-74.65285137 419.11005048 -107.41682657 400.77056202 -135.42578125 375.19140625 C-137.18751958 373.6070868 -138.96760662 372.10921502 -140.82421875 370.640625 C-144.49576223 367.45862065 -147.50186899 363.90465914 -150.63671875 360.203125 C-151.45140625 359.28789062 -152.26609375 358.37265625 -153.10546875 357.4296875 C-175.75058994 331.78315628 -192.05234835 299.52197191 -199.63671875 266.203125 C-199.87793457 265.1507666 -200.11915039 264.0984082 -200.36767578 263.01416016 C-206.97810201 232.84293892 -207.36429378 200.38896511 -200.63671875 170.203125 C-200.43304688 169.27516113 -200.229375 168.34719727 -200.01953125 167.39111328 C-192.92517028 136.24927721 -177.19155412 95.95208745 -151.83862305 74.69555664 C-147.82510069 71.00482677 -146.25740682 68.08551355 -145.9246521 62.56015015 C-145.83895547 58.91680564 -145.87114788 55.28380039 -145.94921875 51.640625 C-145.98089882 49.41213763 -146.00197934 47.18503524 -145.99980164 44.95631409 C-145.99998947 42.93744996 -146.03473678 40.91867526 -146.0715332 38.90014648 C-145.52770362 34.27622092 -144.24640445 32.03345577 -141.63671875 28.203125 C-138.07439023 25.55208983 -135.40303174 24.98518695 -131.07421875 25.265625 C-126.96649286 25.90183844 -124.54018152 27.12369478 -121.63671875 30.203125 C-119.78951605 33.23459702 -119.40792376 35.42409544 -119.51171875 38.953125 C-119.52976562 39.75234375 -119.5478125 40.5515625 -119.56640625 41.375 C-119.58960937 41.97828125 -119.6128125 42.5815625 -119.63671875 43.203125 C-119.17523438 42.88674072 -118.71375 42.57035645 -118.23828125 42.24438477 C-83.17023102 18.29536677 -43.28657747 0.25824984 0 0 Z " fill="#000203" transform="translate(204.63671875,-0.203125)"/>
<path d="M0 0 C31.52545789 24.59788912 54.20806549 59.42434347 59.94873047 99.46533203 C63.57808048 133.65222102 58.23461519 166.91821698 41.328125 197.0390625 C40.77366699 198.0283374 40.77366699 198.0283374 40.20800781 199.03759766 C34.08404099 209.76879947 26.73136648 219.00748838 18.328125 228.0390625 C17.21244141 229.24369141 17.21244141 229.24369141 16.07421875 230.47265625 C2.90961041 244.11597762 -13.51954172 254.23081447 -30.671875 262.0390625 C-32.45658203 262.85697266 -32.45658203 262.85697266 -34.27734375 263.69140625 C-49.03431791 270.01582375 -65.58180548 274.1446823 -81.66796875 274.2421875 C-82.41917496 274.24788757 -83.17038116 274.25358765 -83.9443512 274.25946045 C-85.53018816 274.26885897 -87.11604421 274.27542381 -88.7019043 274.27929688 C-91.07182181 274.28891017 -93.44083561 274.31994329 -95.81054688 274.3515625 C-136.01028556 274.6295563 -172.82393383 256.4557739 -201.05175781 228.64648438 C-201.58639648 228.11603516 -202.12103516 227.58558594 -202.671875 227.0390625 C-203.50460938 226.21921875 -204.33734375 225.399375 -205.1953125 224.5546875 C-230.20537389 198.37086871 -244.15473036 160.01398098 -243.93261719 124.15551758 C-243.92190151 122.10663153 -243.9325821 120.05862531 -243.9453125 118.00976562 C-243.98805875 79.46535954 -228.1320187 45.35327924 -202.671875 17.0390625 C-201.85460937 16.12511719 -201.03734375 15.21117187 -200.1953125 14.26953125 C-147.91516496 -41.00499006 -59.80102839 -43.88905885 0 0 Z " fill="#52BDE4" transform="translate(307.671875,93.9609375)"/>
<path d="M0 0 C0.79361938 -0.00701431 1.58723877 -0.01402863 2.40490723 -0.02125549 C4.95359035 -0.03866173 7.50204086 -0.04510831 10.05078125 -0.046875 C11.35893295 -0.04788712 11.35893295 -0.04788712 12.69351196 -0.04891968 C68.68230907 0.0198808 120.88425231 21.45675921 161.36328125 60.203125 C161.91628906 60.72358398 162.46929687 61.24404297 163.0390625 61.78027344 C172.60239204 70.80930861 180.71171927 80.51575136 188.36328125 91.203125 C188.81155273 91.82268066 189.25982422 92.44223633 189.72167969 93.08056641 C207.6191795 118.0300334 218.30091147 146.25501827 224.36328125 176.203125 C224.54117187 177.03714844 224.7190625 177.87117187 224.90234375 178.73046875 C229.96856725 203.21721565 229.55110157 231.78747112 224.36328125 256.203125 C224.1916748 257.05003906 224.02006836 257.89695312 223.84326172 258.76953125 C215.63977276 298.59200848 197.17081263 335.40298946 168.82177734 364.69335938 C167.80773104 365.74305176 166.80072803 366.79957543 165.79931641 367.86132812 C130.56290234 405.19151538 77.8538902 430.82105264 26.17407227 432.38012695 C24.73853477 432.40616184 23.30288244 432.42638058 21.8671875 432.44140625 C21.08459564 432.4512001 20.30200378 432.46099396 19.49569702 432.47108459 C1.08690804 432.65379674 -16.57974454 432.20480738 -34.63671875 428.203125 C-35.56613281 427.99945313 -36.49554688 427.79578125 -37.453125 427.5859375 C-74.65285137 419.11005048 -107.41682657 400.77056202 -135.42578125 375.19140625 C-137.18751958 373.6070868 -138.96760662 372.10921502 -140.82421875 370.640625 C-144.49576223 367.45862065 -147.50186899 363.90465914 -150.63671875 360.203125 C-151.45140625 359.28789062 -152.26609375 358.37265625 -153.10546875 357.4296875 C-175.75058994 331.78315628 -192.05234835 299.52197191 -199.63671875 266.203125 C-199.87793457 265.1507666 -200.11915039 264.0984082 -200.36767578 263.01416016 C-206.97810201 232.84293892 -207.36429378 200.38896511 -200.63671875 170.203125 C-200.43304688 169.27516113 -200.229375 168.34719727 -200.01953125 167.39111328 C-189.83074725 122.66581066 -189.83074725 122.66581066 -179.57421875 115.828125 C-174.42455 114.7324508 -169.37649134 113.90481835 -164.46875 116.23046875 C-160.94100055 118.85627813 -159.4804462 120.85265936 -158.6640625 125.20703125 C-158.16610565 131.37104804 -160.71868301 136.22226241 -163.26171875 141.703125 C-164.20027184 143.84231585 -165.13256171 145.98426548 -166.05859375 148.12890625 C-166.50783203 149.16869629 -166.95707031 150.20848633 -167.41992188 151.27978516 C-185.35879834 194.37771991 -181.74084981 245.66949444 -164.63671875 288.203125 C-156.7039401 307.31923065 -146.29272555 324.63179484 -132.63671875 340.203125 C-131.89808594 341.05132812 -131.15945312 341.89953125 -130.3984375 342.7734375 C-128.1772653 345.28232631 -125.91813779 347.7489929 -123.63671875 350.203125 C-122.98703125 350.91855469 -122.33734375 351.63398438 -121.66796875 352.37109375 C-93.58224576 382.02313591 -47.63837742 403.90779877 -6.64001465 405.2694397 C29.84558123 406.19178318 63.23220188 403.11998549 96.36328125 386.203125 C97.10868164 385.82430176 97.85408203 385.44547852 98.62207031 385.05517578 C143.39090637 361.97094916 176.91557997 322.11848598 192.36328125 274.203125 C197.07546946 259.34981978 200.5102401 244.41454843 200.53125 228.796875 C200.5345784 227.91390747 200.5379068 227.03093994 200.54133606 226.12121582 C200.54637379 224.25887569 200.54874537 222.39652663 200.54858398 220.53417969 C200.55075358 217.73877337 200.56889655 214.94377334 200.58789062 212.1484375 C200.63882758 196.75359616 199.37616947 182.30169265 195.23828125 167.390625 C194.77977783 165.72205444 194.77977783 165.72205444 194.31201172 164.01977539 C191.47167896 154.021085 187.87095176 144.56214709 183.36328125 135.203125 C183.01539551 134.47834961 182.66750977 133.75357422 182.30908203 133.00683594 C159.89244603 87.06555629 120.46759833 53.27666345 72.54345703 36.19824219 C25.36871498 20.19180797 -26.90941999 22.93880436 -71.69921875 45.015625 C-90.29612745 54.47064191 -106.21550482 66.57898887 -121.94140625 80.19921875 C-126.27451952 83.94799102 -128.56726841 85.66119225 -134.46484375 85.62890625 C-138.41429835 84.85464267 -141.01913962 82.13177876 -143.63671875 79.203125 C-147.20486276 72.06683697 -145.88928813 61.69255569 -145.93188477 53.80957031 C-145.94346932 52.31826336 -145.96402206 50.8269999 -145.9934082 49.3359375 C-146.03624594 47.15336668 -146.05226389 44.97200218 -146.0625 42.7890625 C-146.07708252 41.5004834 -146.09166504 40.2119043 -146.10668945 38.88427734 C-145.52059924 34.29359254 -144.22737003 32.01511284 -141.63671875 28.203125 C-138.07439023 25.55208983 -135.40303174 24.98518695 -131.07421875 25.265625 C-126.96649286 25.90183844 -124.54018152 27.12369478 -121.63671875 30.203125 C-119.78951605 33.23459702 -119.40792376 35.42409544 -119.51171875 38.953125 C-119.52976562 39.75234375 -119.5478125 40.5515625 -119.56640625 41.375 C-119.58960937 41.97828125 -119.6128125 42.5815625 -119.63671875 43.203125 C-119.17523438 42.88674072 -118.71375 42.57035645 -118.23828125 42.24438477 C-83.17023102 18.29536677 -43.28657747 0.25824984 0 0 Z " fill="#52BCE3" transform="translate(204.63671875,-0.203125)"/>
<path d="M0 0 C3.43829984 2.29219989 4.82849744 4.24629336 6.8125 7.875 C7.19264854 10.74306134 7.3611526 13.22047267 7.33007812 16.08007812 C7.3370874 16.88086288 7.34409668 17.68164764 7.35131836 18.50669861 C7.36884997 21.14024051 7.35729328 23.77269814 7.34375 26.40625 C7.34644632 28.2441834 7.3503299 30.08211541 7.35534668 31.92004395 C7.36123517 35.76665873 7.35269979 39.61290124 7.33398438 43.45947266 C7.31119514 48.38245527 7.32432172 53.30456554 7.34827423 58.22751617 C7.36274982 62.02116431 7.35811816 65.81460667 7.34776306 69.60826111 C7.34510064 71.42309168 7.34834846 73.23794111 7.35768127 75.05274963 C7.36787606 77.59230816 7.352306 80.1304672 7.33007812 82.66992188 C7.33817505 83.41503525 7.34627197 84.16014862 7.35461426 84.92784119 C7.25372779 91.17059703 4.95267245 94.65066346 0.7265625 99.04296875 C-5.15462031 104.23165734 -11.22237859 109.11432188 -17.4140625 113.921875 C-21.38678352 117.01431263 -25.28890532 120.18994122 -29.1875 123.375 C-63.3899763 151.26380619 -63.3899763 151.26380619 -72.70703125 151.15625 C-76.25438108 150.75403081 -77.87468177 149.54919608 -80.1875 146.875 C-82.53352848 142.85323688 -83.11752158 138.42859625 -82.1875 133.875 C-77.69952386 126.87903719 -70.44319631 122.21070722 -63.91552734 117.2109375 C-61.51071779 115.35177984 -59.15943077 113.43151337 -56.8125 111.5 C-46.43650043 102.96760682 -36.03320229 94.47573191 -25.44018555 86.21337891 C-22.72253024 84.15004457 -22.72253024 84.15004457 -20.1875 81.875 C-20.08968148 79.61158682 -20.06233622 77.34511562 -20.06152344 75.07958984 C-20.0596553 74.36892365 -20.05778717 73.65825745 -20.05586243 72.92605591 C-20.05184861 71.37695047 -20.04978269 69.82783908 -20.04940033 68.27872849 C-20.04599247 64.98225702 -20.02463366 61.68598414 -20.00416946 58.38958168 C-19.96613129 52.24781449 -19.93487902 46.10625375 -19.93701172 39.96435547 C-19.93780058 35.69649161 -19.91435535 31.42934671 -19.8751297 27.16167068 C-19.86468858 25.53749451 -19.86313179 23.91323515 -19.87078094 22.28904343 C-19.93146161 7.96815257 -19.93146161 7.96815257 -16.76269531 3.41259766 C-11.61320029 -1.66171513 -7.00776264 -2.47332799 0 0 Z " fill="#010203" transform="translate(222.1875,128.125)"/>
<path d="M0 0 C0.66 0.33 1.32 0.66 2 1 C1.525625 1.5775 1.05125 2.155 0.5625 2.75 C-2.3764434 6.98207849 -2.09702192 10.88947759 -2.00244141 15.95239258 C-1.97944732 17.38531849 -1.95655363 18.81824602 -1.93374634 20.25117493 C-1.91989521 21.00750025 -1.90604408 21.76382557 -1.89177322 22.54306984 C-1.82303148 26.56298131 -1.78729395 30.5832444 -1.74609375 34.60351562 C-1.69217775 39.71280627 -1.62843388 44.82134345 -1.52685547 49.92993164 C-1.44550373 54.0648376 -1.39874835 58.19888773 -1.37479782 62.3345089 C-1.35940874 63.90586349 -1.33146005 65.47714934 -1.29045486 67.0480442 C-0.97896701 79.33925062 -0.97896701 79.33925062 -3.53240967 83.49252319 C-5.26602648 85.24240689 -6.96586684 86.62251777 -9 88 C-9.99 88.99 -9.99 88.99 -11 90 C-13.625 90.125 -13.625 90.125 -16 90 C-13.55233563 87.48240236 -11.30779028 85.20125119 -8.36047363 83.27412415 C-5.70427057 81.15549096 -5.70427057 81.15549096 -5.39440918 77.75675964 C-5.40282837 76.47215347 -5.41124756 75.1875473 -5.41992188 73.86401367 C-5.41746964 73.15290939 -5.4150174 72.44180511 -5.41249084 71.70915222 C-5.41032153 70.16825715 -5.41958225 68.62731281 -5.4389801 67.08653831 C-5.46905485 64.64320249 -5.46801214 62.20161691 -5.4588623 59.75813293 C-5.442581 53.68889671 -5.47989413 47.6201997 -5.51544189 41.55108643 C-5.54344175 36.42377692 -5.5510314 31.29721174 -5.53187561 26.16985512 C-5.53126021 23.77029373 -5.56038905 21.37228653 -5.59069824 18.97294617 C-5.62496436 6.91600213 -5.62496436 6.91600213 -2.46679688 2.4543457 C-1.65275391 1.64441162 -0.83871094 0.83447754 0 0 Z " fill="#06222E" transform="translate(208,129)"/>
<path d="M0 0 C3.37950123 0.93875034 4.86939559 1.84358078 7.14349365 4.56716919 C9.33229025 8.61443162 9.53945874 11.82182079 9.45410156 16.30029297 C9.45468567 17.11071548 9.45526978 17.921138 9.45587158 18.75611877 C9.45309839 21.41858669 9.42204368 24.07991665 9.390625 26.7421875 C9.38315986 28.59448637 9.37746822 30.44679317 9.37347412 32.29910278 C9.35823923 37.16217043 9.31897598 42.0247563 9.2746582 46.88763428 C9.23365915 51.85471073 9.21545322 56.82186542 9.1953125 61.7890625 C9.1524796 71.52625274 9.08425431 81.26308622 9 91 C8.67 91 8.34 91 8 91 C7.06448296 82.74041245 6.81783218 74.51609071 6.73963928 66.21127701 C6.71827231 63.95742423 6.6912912 61.7036961 6.66296387 59.44992065 C6.59381478 53.86265492 6.53368925 48.27530017 6.47393799 42.68792725 C6.42289069 37.94076603 6.36808219 33.19367821 6.30812073 28.44662094 C6.28169498 26.23259448 6.26080568 24.01856022 6.2401123 21.80447388 C6.22350626 20.44532939 6.20663415 19.08618812 6.18945312 17.72705078 C6.17066101 15.95480637 6.17066101 15.95480637 6.15148926 14.14675903 C6.01413344 11.29358205 5.78454385 8.74578635 5 6 C3.68352881 5.30062468 2.34977849 4.63270867 1 4 C0.25 1.875 0.25 1.875 0 0 Z " fill="#072833" transform="translate(220,128)"/>
<path d="M0 0 C0.99 0 1.98 0 3 0 C4.25930706 3.77792119 4.13135546 7.30050447 4.11352539 11.23510742 C4.11367142 12.07435257 4.11381744 12.91359772 4.1139679 13.77827454 C4.11327087 16.55403217 4.10548829 19.32972282 4.09765625 22.10546875 C4.09579132 24.02932193 4.09436777 25.95317559 4.09336853 27.87702942 C4.08954924 32.94214182 4.07972394 38.00722558 4.06866455 43.07232666 C4.05843781 48.24027112 4.0538682 53.40822021 4.04882812 58.57617188 C4.03810117 68.71746051 4.02103177 78.85872787 4 89 C3.67 89 3.34 89 3 89 C2.99191315 87.95874466 2.98382629 86.91748932 2.97549438 85.84468079 C2.89800013 76.03046129 2.81025245 66.21637986 2.71247292 56.40234089 C2.66253318 51.35687826 2.61620283 46.31143634 2.578125 41.26586914 C2.54124301 36.3963633 2.49487494 31.52703162 2.44193649 26.65767479 C2.42340807 24.80018355 2.40829438 22.94265499 2.39665604 21.0851078 C2.3797671 18.48274538 2.35072561 15.88078047 2.31884766 13.27856445 C2.31668747 12.5110788 2.31452728 11.74359314 2.31230164 10.95285034 C2.24847033 6.87222448 1.81658926 3.67478217 0 0 Z " fill="#68BAD9" transform="translate(226,131)"/>
<path d="M0 0 C0.33 0 0.66 0 1 0 C1.06941597 9.61382385 1.1227683 19.22756185 1.15543652 28.84158134 C1.17111319 33.30544746 1.19238769 37.76914251 1.22631836 42.23291016 C1.25884085 46.53821628 1.27683792 50.84335756 1.28463173 55.14877701 C1.29018808 56.79389162 1.30103789 58.4389969 1.31719017 60.0840416 C1.33887053 62.38288846 1.34197096 64.68104834 1.34057617 66.97998047 C1.34723801 68.2901413 1.35389984 69.60030212 1.36076355 70.95016479 C1.24171158 71.95661041 1.12265961 72.96305603 1 74 C-0.485 74.99 -0.485 74.99 -2 76 C-1.83923477 75.4856842 -1.67846954 74.97136841 -1.51283264 74.44146729 C-0.84138577 71.24487755 -0.83466078 68.20370907 -0.79467773 64.93652344 C-0.78477814 64.23368225 -0.77487854 63.53084106 -0.76467896 62.80670166 C-0.73317216 60.49096 -0.70834951 58.17519785 -0.68359375 55.859375 C-0.66301487 54.25082882 -0.64201815 52.64228794 -0.62062073 51.03375244 C-0.56549652 46.8055043 -0.51604479 42.57720814 -0.46777344 38.34887695 C-0.41748784 34.03202046 -0.36183865 29.71523348 -0.30664062 25.3984375 C-0.19917714 16.93235049 -0.09770608 8.46620522 0 0 Z " fill="#6ABAD8" transform="translate(202,136)"/>
<path d="M0 0 C0.33 0 0.66 0 1 0 C4.3154319 19.22161113 4.3154319 19.22161113 4 29 C4.33 29.33 4.66 29.66 5 30 C5.07226502 31.85287502 5.0838122 33.70833878 5.0625 35.5625 C5.05347656 36.57441406 5.04445313 37.58632813 5.03515625 38.62890625 C5.02355469 39.41136719 5.01195312 40.19382812 5 41 C4.67 41 4.34 41 4 41 C1.52979184 27.26932168 -0.75028941 13.98456093 0 0 Z " fill="#57B1D3" transform="translate(0,220)"/>
<path d="M0 0 C0.33 0 0.66 0 1 0 C1.027193 1.58323688 1.04648306 3.16661062 1.0625 4.75 C1.07410156 5.63171875 1.08570313 6.5134375 1.09765625 7.421875 C1 10 1 10 0.4921875 11.98828125 C-0.33568486 15.37204528 0.03981554 18.78509498 0.16015625 22.24609375 C-0.01408522 25.24219702 -0.84049388 27.25218927 -2 30 C-2.44252057 32.4320759 -2.44252057 32.4320759 -2.625 34.8125 C-2.69976562 35.60269531 -2.77453125 36.39289063 -2.8515625 37.20703125 C-2.90054687 37.79871094 -2.94953125 38.39039063 -3 39 C-3.33 39 -3.66 39 -4 39 C-4.27314418 29.83923747 -3.52259352 21.21503927 -2 12.1875 C-1.80921875 11.00607422 -1.6184375 9.82464844 -1.421875 8.60742188 C-0.95697559 5.73666799 -0.4829378 2.86776431 0 0 Z " fill="#59AFD3" transform="translate(4,170)"/>
<path d="M0 0 C0 3.52809907 -0.64276511 4.46815512 -3 7 C-3.99 7 -4.98 7 -6 7 C-6.433125 7.8971875 -6.433125 7.8971875 -6.875 8.8125 C-8 11 -8 11 -10 14 C-12.625 14.1875 -12.625 14.1875 -15 14 C-15.33 14.66 -15.66 15.32 -16 16 C-16.66 15.34 -17.32 14.68 -18 14 C-17.11957031 13.32453125 -16.23914063 12.6490625 -15.33203125 11.953125 C-14.15883404 11.05210954 -12.98565808 10.1510664 -11.8125 9.25 C-11.23435547 8.8065625 -10.65621094 8.363125 -10.06054688 7.90625 C-6.67730867 5.30669974 -3.32210637 2.67770532 0 0 Z " fill="#5DB4D5" transform="translate(177,263)"/>
<path d="M0 0 C1.12604443 3.4873764 0.95775125 6.4337127 0.625 10.0625 C0.53476563 11.10535156 0.44453125 12.14820313 0.3515625 13.22265625 C0 16 0 16 -1 19 C-1.03954234 21.33299825 -1.04401732 23.66708189 -1 26 C-1.66 26.33 -2.32 26.66 -3 27 C-5.13309529 17.56337194 -2.45791614 9.09323481 0 0 Z " fill="#57A9C8" transform="translate(69,173)"/>
<path d="M0 0 C-1 2 -1 2 -3.875 3 C-4.90625 3.33 -5.9375 3.66 -7 4 C-7.99 4.66 -8.98 5.32 -10 6 C-11.5064018 6.56120851 -13.02907729 7.07998972 -14.5625 7.5625 C-16.81449343 8.27618593 -18.88644704 8.94322352 -21 10 C-21.66 9.34 -22.32 8.68 -23 8 C-20.23012967 6.68543451 -17.45916513 5.3732713 -14.6875 4.0625 C-13.90181641 3.68931641 -13.11613281 3.31613281 -12.30664062 2.93164062 C-11.54931641 2.57392578 -10.79199219 2.21621094 -10.01171875 1.84765625 C-9.31522217 1.51773682 -8.61872559 1.18781738 -7.90112305 0.84790039 C-3.43370317 -1.14456772 -3.43370317 -1.14456772 0 0 Z " fill="#57ADCB" transform="translate(167,73)"/>
<path d="M0 0 C4.30764815 1.56641751 8.06171464 3.68336156 12 6 C12.33 5.34 12.66 4.68 13 4 C13.66 4.66 14.32 5.32 15 6 C14.34 6 13.68 6 13 6 C13.33 6.66 13.66 7.32 14 8 C14.804375 8.2475 15.60875 8.495 16.4375 8.75 C19 10 19 10 20.3125 13.125 C20.6528125 14.548125 20.6528125 14.548125 21 16 C13.76535851 11.34132934 6.70935002 6.3924556 0 1 C0 0.67 0 0.34 0 0 Z " fill="#5BB2D2" transform="translate(319,55)"/>
<path d="M0 0 C0.66 0.33 1.32 0.66 2 1 C1.67 1.66 1.34 2.32 1 3 C0.59376052 8.99203232 1.32099424 12.64198848 4 18 C2.68 18 1.36 18 0 18 C-0.66 16.02 -1.32 14.04 -2 12 C-3.65 12.33 -5.3 12.66 -7 13 C-6 10 -6 10 -4.0625 8.75 C-1.14638821 6.27572333 -0.82569538 3.64682127 0 0 Z " fill="#57B2D1" transform="translate(140,259)"/>
<path d="M0 0 C2.475 0.495 2.475 0.495 5 1 C2.89631522 3.29441017 0.97470031 4.68391692 -1.8359375 6.0078125 C-2.57070313 6.35457031 -3.30546875 6.70132812 -4.0625 7.05859375 C-5.2071875 7.58646484 -5.2071875 7.58646484 -6.375 8.125 C-7.13039063 8.48464844 -7.88578125 8.84429687 -8.6640625 9.21484375 C-12.41779187 10.96702162 -15.85040251 12.45443539 -20 13 C-17.24484556 7.48969113 -7.52155031 4.89771747 -2 3 C-1.34 3 -0.68 3 0 3 C0 2.01 0 1.02 0 0 Z " fill="#5CAEC9" transform="translate(315,404)"/>
<path d="M0 0 C1.13583456 3.71727674 0.66670026 5.47051709 -1 9 C-1.66 9 -2.32 9 -3 9 C-3.226875 10.051875 -3.45375 11.10375 -3.6875 12.1875 C-4.79360531 16.1597906 -6.88629885 18.29599637 -10 21 C-10.66 20.67 -11.32 20.34 -12 20 C-11.55269531 19.31035156 -11.10539062 18.62070312 -10.64453125 17.91015625 C-6.87363784 12.04878888 -3.29178398 6.14365212 0 0 Z " fill="#59AECD" transform="translate(385,303)"/>
<path d="M0 0 C0 0.66 0 1.32 0 2 C-3.81208094 3.79392044 -6.78715363 4.45791808 -11 4 C-12.875 2.5 -12.875 2.5 -14 1 C-9.35846395 -0.76820421 -4.68450286 -2.34225143 0 0 Z " fill="#53BEE7" transform="translate(181,70)"/>
<path d="M0 0 C3.66038898 3.38671504 6.40850722 7.18600451 9.25 11.25 C9.93835938 12.22453125 9.93835938 12.22453125 10.640625 13.21875 C11.76389558 14.81004999 12.88243056 16.40469095 14 18 C13.01 18 12.02 18 11 18 C10.67 17.01 10.34 16.02 10 15 C8.66721672 14.33223436 7.33382789 13.66567663 6 13 C2.86287565 9.16949507 0.46800513 4.99205475 0 0 Z " fill="#041421" transform="translate(85,295)"/>
<path d="M0 0 C0.66 0.33 1.32 0.66 2 1 C0.59419724 2.65512248 -0.82506266 4.29882206 -2.25 5.9375 C-3.03890625 6.85402344 -3.8278125 7.77054688 -4.640625 8.71484375 C-6.91176837 10.91454387 -7.89484999 11.79431699 -11 12 C-11.66 11.67 -12.32 11.34 -13 11 C-8.71 7.37 -4.42 3.74 0 0 Z " fill="#03121E" transform="translate(172,234)"/>
<path d="M0 0 C1.485 0.99 1.485 0.99 3 2 C3 2.66 3 3.32 3 4 C3.99 4.33 4.98 4.66 6 5 C6.33 5.33 6.66 5.66 7 6 C7.66 6.33 8.32 6.66 9 7 C9 8.65 9 10.3 9 12 C9.99 12 10.98 12 12 12 C12 13.65 12 15.3 12 17 C7.18964027 12.6269457 3.40073857 7.53722562 0 2 C0 1.34 0 0.68 0 0 Z " fill="#5AB1CF" transform="translate(36,335)"/>
<path d="M0 0 C0.66 0.33 1.32 0.66 2 1 C-2.16968833 6.8148011 -6.31720725 12.58552088 -11 18 C-11.33 17.01 -11.66 16.02 -12 15 C-10.41796875 12.51953125 -10.41796875 12.51953125 -8.1875 9.8125 C-7.45917969 8.91144531 -6.73085938 8.01039063 -5.98046875 7.08203125 C-5.32691406 6.39496094 -4.67335938 5.70789063 -4 5 C-3.34 5 -2.68 5 -2 5 C-1.855625 4.360625 -1.71125 3.72125 -1.5625 3.0625 C-1 1 -1 1 0 0 Z " fill="#031323" transform="translate(372,322)"/>
<path d="M0 0 C3.3 0 6.6 0 10 0 C10 0.66 10 1.32 10 2 C9.40832031 2.03738281 8.81664062 2.07476562 8.20703125 2.11328125 C1.70423378 2.65429703 -2.51286607 4.04053618 -7 9 C-7.33 7.68 -7.66 6.36 -8 5 C-7.01 5 -6.02 5 -5 5 C-5 4.34 -5 3.68 -5 3 C-3.35 2.67 -1.7 2.34 0 2 C0 1.34 0 0.68 0 0 Z " fill="#60B8D9" transform="translate(211,125)"/>
<path d="M0 0 C0.33 0 0.66 0 1 0 C1.1875 2.8125 1.1875 2.8125 1 6 C0.00978267 7.00968789 -0.99146909 8.00860432 -2 9 C-3.06348132 11.1634686 -3.06348132 11.1634686 -3.9375 13.5 C-5.40720259 16.98983435 -6.54217282 19.14759258 -10 21 C-8.27502493 16.3970402 -6.0904129 12.06744176 -3.875 7.6875 C-3.50246094 6.94693359 -3.12992187 6.20636719 -2.74609375 5.44335938 C-1.83255194 3.62798783 -0.91652513 1.81386718 0 0 Z " fill="#041926" transform="translate(355,277)"/>
<path d="M0 0 C7.20516644 2.93543818 10.77983101 9.31195671 14 16 C13.34 16.33 12.68 16.66 12 17 C10.37441681 14.72958215 8.74951198 12.45868411 7.125 10.1875 C6.66480469 9.54490234 6.20460938 8.90230469 5.73046875 8.24023438 C5.28574219 7.61826172 4.84101563 6.99628906 4.3828125 6.35546875 C3.97434082 5.78465576 3.56586914 5.21384277 3.14501953 4.62573242 C2.07137168 3.10133561 1.0342601 1.55139015 0 0 Z " fill="#010F1A" transform="translate(332,117)"/>
<path d="M0 0 C-0.1875 1.875 -0.1875 1.875 -1 4 C-2.6476038 4.71247732 -4.31763529 5.37400383 -6 6 C-7.37701298 7.28817344 -8.70644173 8.62804426 -10 10 C-11.96923441 11.70666982 -13.9828247 13.34958385 -16 15 C-16.66 14.67 -17.32 14.34 -18 14 C-16.2725597 12.4147483 -14.54312043 10.83177374 -12.8125 9.25 C-11.36810547 7.92742187 -11.36810547 7.92742187 -9.89453125 6.578125 C-2.50909091 0 -2.50909091 0 0 0 Z " fill="#041626" transform="translate(102,64)"/>
<path d="M0 0 C1.94057779 2.91086669 2.75181737 5.04305699 3.6875 8.375 C3.95949219 9.31085938 4.23148437 10.24671875 4.51171875 11.2109375 C5.02746703 14.15689166 4.77611144 16.13515913 4 19 C3.67 19 3.34 19 3 19 C2.67 16.36 2.34 13.72 2 11 C1.01 11.33 0.02 11.66 -1 12 C-0.73958333 10.046875 -0.47916667 8.09375 -0.21875 6.140625 C0.06777357 3.69541605 0.06777357 3.69541605 0 0 Z " fill="#57ACD2" transform="translate(421,148)"/>
<path d="M0 0 C0 0.66 0 1.32 0 2 C1.98 2 3.96 2 6 2 C4 4 4 4 2.02880859 4.04345703 C0.8505249 3.90206299 0.8505249 3.90206299 -0.3515625 3.7578125 C-1.20234375 3.66113281 -2.053125 3.56445312 -2.9296875 3.46484375 C-3.81914062 3.35269531 -4.70859375 3.24054688 -5.625 3.125 C-6.5221875 3.02058594 -7.419375 2.91617187 -8.34375 2.80859375 C-10.5638443 2.54879548 -12.78223534 2.27888059 -15 2 C-15 1.67 -15 1.34 -15 1 C-13.25021843 0.83105557 -11.50016388 0.66493691 -9.75 0.5 C-8.77546875 0.4071875 -7.8009375 0.314375 -6.796875 0.21875 C-4.53697847 0.04199832 -2.26679807 0 0 0 Z " fill="#56ADCF" transform="translate(196,428)"/>
<path d="M0 0 C2.375 0.3125 2.375 0.3125 5 1 C5.66 1.99 6.32 2.98 7 4 C5.35 5.32 3.7 6.64 2 8 C0.4375 6.25 0.4375 6.25 -1 4 C-0.6875 1.75 -0.6875 1.75 0 0 Z " fill="#53B7D9" transform="translate(307,329)"/>
<path d="M0 0 C6.75 1.75 6.75 1.75 9 4 C6.69 5.65 4.38 7.3 2 9 C2 7.68 2 6.36 2 5 C1.38655243 3.31301918 0.72904086 1.64034193 0 0 Z " fill="#53B4D6" transform="translate(161,233)"/>
<path d="M0 0 C3.99486932 1.33162311 6.05840921 3.05840921 9 6 C9.99 6 10.98 6 12 6 C12.28875 6.61875 12.5775 7.2375 12.875 7.875 C13.93720042 10.13325765 13.93720042 10.13325765 16 12 C11.6258594 12 9.45270123 9.30804972 6.3125 6.5625 C5.70599609 6.04623047 5.09949219 5.52996094 4.47460938 4.99804688 C2.95848982 3.69339957 1.47610115 2.34975868 0 1 C0 0.67 0 0.34 0 0 Z " fill="#5DAECD" transform="translate(111,326)"/>
<path d="M0 0 C0.66 0 1.32 0 2 0 C0.38325319 3.42946293 -1.57597677 6.56263052 -3.625 9.75 C-4.57246094 11.22726563 -4.57246094 11.22726563 -5.5390625 12.734375 C-6.02117187 13.48203125 -6.50328125 14.2296875 -7 15 C-7.67578125 13.2890625 -7.67578125 13.2890625 -8 11 C-6.85546875 8.7109375 -6.85546875 8.7109375 -5.1875 6.375 C-4.64480469 5.59898438 -4.10210937 4.82296875 -3.54296875 4.0234375 C-2 2 -2 2 0 0 Z " fill="#051520" transform="translate(94,121)"/>
<path d="M0 0 C3.57770698 6.67437773 4.27166506 13.52921098 4 21 C3.67 21 3.34 21 3 21 C0.95938459 13.82140651 -0.37369729 7.47394574 0 0 Z " fill="#0B2230" transform="translate(401,173)"/>
<path d="M0 0 C3.94463583 3.77312992 3.94463583 3.77312992 4.09765625 7.1640625 C4.08605469 7.97617187 4.07445313 8.78828125 4.0625 9.625 C4.05347656 10.44226562 4.04445313 11.25953125 4.03515625 12.1015625 C4.02355469 12.72804688 4.01195313 13.35453125 4 14 C1 14 1 14 -1 13 C-1 12.34 -1 11.68 -1 11 C-0.34 10.67 0.32 10.34 1 10 C1.08004482 6.4780279 1.04005702 3.38018531 0 0 Z " fill="#59B0D1" transform="translate(81,29)"/>
<path d="M0 0 C1.32 0 2.64 0 4 0 C4 0.66 4 1.32 4 2 C-1.28 3.98 -6.56 5.96 -12 8 C-12 7.34 -12 6.68 -12 6 C-11.34 6 -10.68 6 -10 6 C-10 5.34 -10 4.68 -10 4 C-6.7 3.34 -3.4 2.68 0 2 C0 1.34 0 0.68 0 0 Z " fill="#5EB3D4" transform="translate(147,35)"/>
<path d="M0 0 C2.97 0 5.94 0 9 0 C9.33 0.99 9.66 1.98 10 3 C10.763125 2.938125 11.52625 2.87625 12.3125 2.8125 C15.48780806 3.03403312 15.95735659 3.71775032 18 6 C11.68878497 4.9007105 5.93661416 3.41862058 0 1 C0 0.67 0 0.34 0 0 Z " fill="#5FB2D3" transform="translate(140,418)"/>
<path d="M0 0 C3.26008643 3.16952847 6.22237877 6.39937989 9 10 C8.01 10 7.02 10 6 10 C4.66018514 10.3062434 3.32488113 10.63451555 2 11 C2 10.01 2 9.02 2 8 C1.69728039 6.65938457 1.36162029 5.32594105 1 4 C0.66666667 2.66666667 0.33333333 1.33333333 0 0 Z " fill="#57B3D1" transform="translate(64,332)"/>
<path d="M0 0 C0.33 0.66 0.66 1.32 1 2 C0.71125 2.556875 0.4225 3.11375 0.125 3.6875 C-1.35485704 6.72942835 -1.61470012 9.66073437 -2 13 C-3.65 12.01 -5.3 11.02 -7 10 C-6.02223933 8.51990357 -5.0427506 7.04094856 -4.0625 5.5625 C-3.51722656 4.73878906 -2.97195313 3.91507812 -2.41015625 3.06640625 C-1 1 -1 1 0 0 Z " fill="#58B2D0" transform="translate(368,330)"/>
<path d="M0 0 C4.51854431 1.98972775 7.21445201 4.98122179 10 9 C10.875 11.9375 10.875 11.9375 11 14 C7.11807874 10.23225289 3.20468119 6.37202211 0 2 C0 1.34 0 0.68 0 0 Z " fill="#041524" transform="translate(64,330)"/>
<path d="M0 0 C0.66 0 1.32 0 2 0 C2.33 1.32 2.66 2.64 3 4 C3.66 4 4.32 4 5 4 C9.59225513 13.22551253 9.59225513 13.22551253 9 19 C7.45071865 16.67607797 6.36392183 14.73130052 5.2734375 12.20703125 C4.9640625 11.49482422 4.6546875 10.78261719 4.3359375 10.04882812 C3.86027344 8.9418457 3.86027344 8.9418457 3.375 7.8125 C2.88773437 6.68811523 2.88773437 6.68811523 2.390625 5.54101562 C1.59113738 3.6951398 0.79522047 1.84771816 0 0 Z " fill="#011320" transform="translate(350,143)"/>
<path d="M0 0 C0.99 0 1.98 0 3 0 C1.51708173 6.54955571 -0.62311735 12.72318367 -3 19 C-4.13953239 15.58140282 -3.85624079 14.9805951 -2.625 11.75 C-1.20635769 7.79205273 -0.44401509 4.1737418 0 0 Z " fill="#59ADCB" transform="translate(361,253)"/>
<path d="M0 0 C5.43614072 2.7832093 9.93265026 5.40783094 14 10 C13.071875 9.649375 12.14375 9.29875 11.1875 8.9375 C8.0197047 7.67617372 8.0197047 7.67617372 5 9 C4.67 8.01 4.34 7.02 4 6 C4.33 5.34 4.66 4.68 5 4 C2.525 3.01 2.525 3.01 0 2 C0 1.34 0 0.68 0 0 Z " fill="#53AAC9" transform="translate(331,33)"/>
<path d="M0 0 C4.05819183 0.65503282 7.53971282 1.94559121 11.3125 3.5625 C12.38113281 4.01753906 13.44976562 4.47257812 14.55078125 4.94140625 C15.76314453 5.46541016 15.76314453 5.46541016 17 6 C16.01 6.66 15.02 7.32 14 8 C10.3125 6.625 10.3125 6.625 7 5 C7 4.34 7 3.68 7 3 C5.824375 3.0928125 5.824375 3.0928125 4.625 3.1875 C3.75875 3.125625 2.8925 3.06375 2 3 C1.34 2.01 0.68 1.02 0 0 Z " fill="#58ADC8" transform="translate(292,14)"/>
<path d="M0 0 C0.33 0.99 0.66 1.98 1 3 C-2.63 5.97 -6.26 8.94 -10 12 C-10.66 11.67 -11.32 11.34 -12 11 C-8.04 7.37 -4.08 3.74 0 0 Z M-14 12 C-12 13 -12 13 -12 13 Z " fill="#02111E" transform="translate(323,324)"/>
<path d="M0 0 C3.87187551 1.25574341 6.06837517 2.34007927 8 6 C8.1875 9.25 8.1875 9.25 8 12 C7.34 11.67 6.68 11.34 6 11 C5.87625 10.195625 5.7525 9.39125 5.625 8.5625 C5.41875 7.716875 5.2125 6.87125 5 6 C3.68352881 5.30062468 2.34977849 4.63270867 1 4 C0.25 1.875 0.25 1.875 0 0 Z " fill="#04121E" transform="translate(220,128)"/>
<path d="M0 0 C2.97 0.33 5.94 0.66 9 1 C9 1.66 9 2.32 9 3 C7.27192682 3.33895656 5.54248026 3.67091525 3.8125 4 C2.36810547 4.2784375 2.36810547 4.2784375 0.89453125 4.5625 C-1.7934206 4.96877612 -4.28771019 5.07933572 -7 5 C-4.66785852 3.79371992 -2.50357861 2.8345262 0 2 C0 1.34 0 0.68 0 0 Z " fill="#5CB5D4" transform="translate(183,24)"/>
<path d="M0 0 C0 0.66 0 1.32 0 2 C-2.96162086 3.62477811 -5.69266927 4.51695886 -9 5.1875 C-9.845625 5.36667969 -10.69125 5.54585937 -11.5625 5.73046875 C-14.05526654 6.0061112 -15.61581966 5.66692783 -18 5 C-15.37605694 4.16320723 -12.75095616 3.33043058 -10.125 2.5 C-9.00544922 2.14228516 -9.00544922 2.14228516 -7.86328125 1.77734375 C-2.2265625 0 -2.2265625 0 0 0 Z " fill="#5CAFD0" transform="translate(160,7)"/>
<path d="M0 0 C0.33 0 0.66 0 1 0 C1.19294408 4.82360189 0.75747614 8.49646738 -1 13 C-1.99 13 -2.98 13 -4 13 C-3.52343588 11.20763933 -3.04366502 9.41613103 -2.5625 7.625 C-2.29566406 6.62726563 -2.02882813 5.62953125 -1.75390625 4.6015625 C-1 2 -1 2 0 0 Z " fill="#52AAC4" transform="translate(74,159)"/>
<path d="M0 0 C0 2 0 4 0 6 C-5.2734375 9.22265625 -5.2734375 9.22265625 -7 10 C-7.66 9.67 -8.32 9.34 -9 9 C-6.03 6.03 -3.06 3.06 0 0 Z " fill="#59B2CE" transform="translate(110,106)"/>
<path d="M0 0 C0.33 0.66 0.66 1.32 1 2 C2.97888961 2.72693904 4.97954558 3.39816251 7 4 C7 4.66 7 5.32 7 6 C5.41375765 5.57316761 3.8310902 5.13303842 2.25 4.6875 C1.36828125 4.44386719 0.4865625 4.20023437 -0.421875 3.94921875 C-3.05772505 2.97874669 -4.85407326 1.78994356 -7 0 C-3.98968256 -0.93423645 -3.13349732 -1.04449911 0 0 Z " fill="#071C28" transform="translate(144,389)"/>
<path d="M0 0 C1.625 1.4375 1.625 1.4375 3 3 C3.66 3.33 4.32 3.66 5 4 C5 4.66 5 5.32 5 6 C3.39402675 5.54803755 1.79027492 5.08817673 0.1875 4.625 C-0.70582031 4.36976562 -1.59914063 4.11453125 -2.51953125 3.8515625 C-5 3 -5 3 -8 1 C-5.10765685 0.17361624 -3.11257569 0 0 0 Z " fill="#061422" transform="translate(272,70)"/>
<path d="M0 0 C1.90389849 2.85584773 2.69462177 4.9311762 3.625 8.1875 C3.88539062 9.08855469 4.14578125 9.98960937 4.4140625 10.91796875 C4.60742188 11.60503906 4.80078125 12.29210937 5 13 C4.34 13 3.68 13 3 13 C2.71125 12.360625 2.4225 11.72125 2.125 11.0625 C1.17176549 8.84793921 1.17176549 8.84793921 -1 8 C-0.67 5.36 -0.34 2.72 0 0 Z " fill="#071926" transform="translate(71,264)"/>
<path d="M0 0 C1 2 1 2 0.3125 4.5 C-1.19365772 7.36887184 -2.14529555 7.71077863 -5 9 C-5.33 9.99 -5.66 10.98 -6 12 C-6.66 11.67 -7.32 11.34 -8 11 C-5.36 7.37 -2.72 3.74 0 0 Z " fill="#58ADCA" transform="translate(97,120)"/>
<path d="M0 0 C1.21313964 3.63941892 0.66242173 4.58773784 -0.75 8.0625 C-1.26820312 9.37927734 -1.26820312 9.37927734 -1.796875 10.72265625 C-3 13 -3 13 -6 15 C-4.36041242 9.76727367 -2.61047965 4.84803364 0 0 Z " fill="#59A6BF" transform="translate(23,117)"/>
<path d="M0 0 C-6.83428571 4.07428571 -6.83428571 4.07428571 -11 5 C-11.66 5.66 -12.32 6.32 -13 7 C-13 6.34 -13 5.68 -13 5 C-13.66 4.67 -14.32 4.34 -15 4 C-12.87875034 3.13656176 -10.75286928 2.28449352 -8.625 1.4375 C-6.84996094 0.72400391 -6.84996094 0.72400391 -5.0390625 -0.00390625 C-2 -1 -2 -1 0 0 Z " fill="#071D29" transform="translate(156,36)"/>
<path d="M0 0 C0.66 0.33 1.32 0.66 2 1 C1.67 1.99 1.34 2.98 1 4 C0.01 4.33 -0.98 4.66 -2 5 C-3.01754868 6.8653245 -3.01754868 6.8653245 -3.6875 9.0625 C-3.93886719 9.79597656 -4.19023438 10.52945313 -4.44921875 11.28515625 C-4.63097656 11.85105469 -4.81273437 12.41695312 -5 13 C-5.33 13 -5.66 13 -6 13 C-6.3125 9.8125 -6.3125 9.8125 -6 6 C-3.5625 3.125 -3.5625 3.125 -1 1 C-0.67 0.67 -0.34 0.34 0 0 Z " fill="#5DB4D2" transform="translate(66,26)"/>
<path d="M0 0 C4.12751449 0.60698743 7.3321148 2.03810791 11 4 C10.01 4.99 9.02 5.98 8 7 C7.67 6.01 7.34 5.02 7 4 C5.824375 3.7834375 5.824375 3.7834375 4.625 3.5625 C2 3 2 3 0 2 C0 1.34 0 0.68 0 0 Z " fill="#59B1D2" transform="translate(126,385)"/>
<path d="M0 0 C1.32 0.33 2.64 0.66 4 1 C4 1.66 4 2.32 4 3 C4.9590625 3.1546875 4.9590625 3.1546875 5.9375 3.3125 C6.618125 3.539375 7.29875 3.76625 8 4 C8.33 4.99 8.66 5.98 9 7 C8.34 7.66 7.68 8.32 7 9 C5.83037314 7.69013727 4.66437056 6.3770374 3.5 5.0625 C2.8503125 4.33160156 2.200625 3.60070312 1.53125 2.84765625 C0 1 0 1 0 0 Z " fill="#5CB5D7" transform="translate(99,313)"/>
<path d="M0 0 C1.11329523 3.33988568 1.01098929 5.6300357 0 9 C-1.4375 11.3125 -1.4375 11.3125 -3 13 C-3.66 13 -4.32 13 -5 13 C-3.58192622 8.52761347 -1.88695626 4.28853694 0 0 Z " fill="#5BB0D0" transform="translate(391,290)"/>
<path d="M0 0 C0.99 0.33 1.98 0.66 3 1 C-0.3 3.64 -3.6 6.28 -7 9 C-7.66 8.34 -8.32 7.68 -9 7 C-7.57277341 5.8001722 -6.13284224 4.6154424 -4.6875 3.4375 C-3.88699219 2.77621094 -3.08648437 2.11492187 -2.26171875 1.43359375 C-1.51535156 0.96050781 -0.76898438 0.48742187 0 0 Z " fill="#051925" transform="translate(189,251)"/>
<path d="M0 0 C1.98 0 3.96 0 6 0 C5.67 1.65 5.34 3.3 5 5 C5.99 5 6.98 5 8 5 C8 6.65 8 8.3 8 10 C4.74475735 6.97727468 2.38179263 3.74281699 0 0 Z " fill="#5BB5D3" transform="translate(360,91)"/>
<path d="M0 0 C1.12894876 0.93274109 2.25300876 1.87140122 3.375 2.8125 C4.00148438 3.33457031 4.62796875 3.85664062 5.2734375 4.39453125 C7 6 7 6 9 9 C6.35175278 8.64212875 4.44464124 8.31760089 2.25 6.75 C0.68239911 4.55535876 0.35787125 2.64824722 0 0 Z " fill="#061928" transform="translate(346,77)"/>
<path d="M0 0 C4.56048012 3.61251516 8.01665146 6.98797445 11 12 C9.68 12 8.36 12 7 12 C7 11.34 7 10.68 7 10 C6.34 9.67 5.68 9.34 5 9 C4.33333333 7.66666667 3.66666667 6.33333333 3 5 C2.46375 4.46375 1.9275 3.9275 1.375 3.375 C0.92125 2.92125 0.4675 2.4675 0 2 C0 1.34 0 0.68 0 0 Z " fill="#55A6C6" transform="translate(373,68)"/>
<path d="M0 0 C0.66 0.33 1.32 0.66 2 1 C2.33 1.99 2.66 2.98 3 4 C5.00016466 5.20882096 5.00016466 5.20882096 7 6 C7 6.66 7 7.32 7 8 C3.08788267 6.84414715 0.1254959 5.64465038 -3 3 C-2.01 2.01 -1.02 1.02 0 0 Z " fill="#5DB3D1" transform="translate(116,403)"/>
<path d="M0 0 C4.72224516 1.53472968 9.35855331 3.23945126 14 5 C14 5.33 14 5.66 14 6 C12.02 6.33 10.04 6.66 8 7 C7.67 6.01 7.34 5.02 7 4 C5.824375 3.7834375 5.824375 3.7834375 4.625 3.5625 C2 3 2 3 0 2 C0 1.34 0 0.68 0 0 Z " fill="#02121E" transform="translate(153,355)"/>
<path d="M0 0 C0.33 0.66 0.66 1.32 1 2 C-2.33333333 5.33333333 -5.66666667 8.66666667 -9 12 C-9.66 11.67 -10.32 11.34 -11 11 C-7.37 7.37 -3.74 3.74 0 0 Z " fill="#63B7D6" transform="translate(354,347)"/>
<path d="M0 0 C1 2 1 2 0.0625 5.125 C-0.288125 6.07375 -0.63875 7.0225 -1 8 C-3.97 7.505 -3.97 7.505 -7 7 C-4.66666667 4.66666667 -2.33333333 2.33333333 0 0 Z " fill="#5EB8D9" transform="translate(207,239)"/>
<path d="M0 0 C1.22589844 0.29197266 1.22589844 0.29197266 2.4765625 0.58984375 C3.41628906 0.82380859 3.41628906 0.82380859 4.375 1.0625 C1.18737635 3.18758244 -0.89012223 3.5645163 -4.625 4.0625 C-5.285 2.7425 -5.945 1.4225 -6.625 0.0625 C-3.99249612 -1.25375194 -2.82320944 -0.68563658 0 0 Z " fill="#57B5DB" transform="translate(278.625,419.9375)"/>
<path d="M0 0 C0.66 0.33 1.32 0.66 2 1 C2 1.66 2 2.32 2 3 C3.65 2.01 5.3 1.02 7 0 C7.99 0.66 8.98 1.32 10 2 C9.01 2 8.02 2 7 2 C7 2.66 7 3.32 7 4 C4.03 4 1.06 4 -2 4 C-2 3.34 -2 2.68 -2 2 C-1.34 2 -0.68 2 0 2 C0 1.34 0 0.68 0 0 Z " fill="#56B9DB" transform="translate(188,362)"/>
<path d="M0 0 C0.58265625 0.22558594 1.1653125 0.45117188 1.765625 0.68359375 C1.105625 1.34359375 0.445625 2.00359375 -0.234375 2.68359375 C-0.894375 2.68359375 -1.554375 2.68359375 -2.234375 2.68359375 C-3.87113757 4.64362185 -3.87113757 4.64362185 -5.234375 6.68359375 C-6.554375 6.35359375 -7.874375 6.02359375 -9.234375 5.68359375 C-8.16544282 4.64769037 -7.07859012 3.63025433 -5.984375 2.62109375 C-5.38109375 2.05261719 -4.7778125 1.48414063 -4.15625 0.8984375 C-2.234375 -0.31640625 -2.234375 -0.31640625 0 0 Z " fill="#5CB3D3" transform="translate(195.234375,250.31640625)"/>
<path d="M0 0 C1.26977059 3.80931176 0.52074507 5.81618993 -0.4375 9.6875 C-0.86869141 11.45673828 -0.86869141 11.45673828 -1.30859375 13.26171875 C-1.65083984 14.61716797 -1.65083984 14.61716797 -2 16 C-2.33 16 -2.66 16 -3 16 C-3.32712342 9.86946489 -3.39366878 5.37330889 0 0 Z " fill="#5DB2D0" transform="translate(32,160)"/>
<path d="M0 0 C1.17539996 0.92652701 2.34010577 1.86663387 3.5 2.8125 C4.1496875 3.33457031 4.799375 3.85664062 5.46875 4.39453125 C7 6 7 6 7 9 C3.535 7.02 3.535 7.02 0 5 C0 3.35 0 1.7 0 0 Z " fill="#55B0CC" transform="translate(318,103)"/>
<path d="M0 0 C1.29608947 0.93137592 2.58671632 1.8703566 3.875 2.8125 C4.59429687 3.33457031 5.31359375 3.85664062 6.0546875 4.39453125 C8 6 8 6 10 9 C7.25 8.875 7.25 8.875 4 8 C0 3.05263158 0 3.05263158 0 0 Z " fill="#56A8C8" transform="translate(351,47)"/>
<path d="M0 0 C0.66 0.33 1.32 0.66 2 1 C-0.68899452 4.32169911 -4.05312508 5.56477275 -8 7 C-8.66 6.67 -9.32 6.34 -10 6 C-8.3811004 4.96951963 -6.75467511 3.95085322 -5.125 2.9375 C-4.22007813 2.36902344 -3.31515625 1.80054687 -2.3828125 1.21484375 C-1.20332031 0.61349609 -1.20332031 0.61349609 0 0 Z " fill="#59B1CB" transform="translate(115,24)"/>
<path d="M0 0 C2.625 0.375 2.625 0.375 5 1 C5 1.66 5 2.32 5 3 C5.99 2.67 6.98 2.34 8 2 C8.99 3.485 8.99 3.485 10 5 C4.06 3.515 4.06 3.515 -2 2 C-1.34 1.34 -0.68 0.68 0 0 Z " fill="#071B25" transform="translate(160,396)"/>
<path d="M0 0 C0.8353125 0.556875 0.8353125 0.556875 1.6875 1.125 C1.3575 1.785 1.0275 2.445 0.6875 3.125 C-1.6225 3.125 -3.9325 3.125 -6.3125 3.125 C-6.6425 2.465 -6.9725 1.805 -7.3125 1.125 C-2.88173077 -1.09038462 -2.88173077 -1.09038462 0 0 Z " fill="#57B3D6" transform="translate(290.3125,392.875)"/>
<path d="M0 0 C3.63 2.31 7.26 4.62 11 7 C9.68 7.33 8.36 7.66 7 8 C6.67 7.01 6.34 6.02 6 5 C2.99152582 3.77479736 2.99152582 3.77479736 0 3 C0 2.01 0 1.02 0 0 Z " fill="#041824" transform="translate(123,337)"/>
<path d="M0 0 C2.34914492 2.34914492 2.73140357 3.95679446 3.625 7.125 C3.88539063 8.03507813 4.14578125 8.94515625 4.4140625 9.8828125 C4.70410156 10.93082031 4.70410156 10.93082031 5 12 C2.5 10.5 2.5 10.5 0 8 C-0.45442324 5.19861435 -0.23849927 2.86199125 0 0 Z " fill="#5CAFCB" transform="translate(412,125)"/>
<path d="M0 0 C2.3125 0.1875 2.3125 0.1875 4 1 C0.67692308 4.93846154 0.67692308 4.93846154 -2.75 5.25 C-3.4925 5.1675 -4.235 5.085 -5 5 C-2.75 2.4375 -2.75 2.4375 0 0 Z " fill="#05121B" transform="translate(197,214)"/>
<path d="M0 0 C3.24299151 2.38957269 5.50902342 4.2047869 7 8 C6.01 8.495 6.01 8.495 5 9 C5 8.34 5 7.68 5 7 C4.01 7.33 3.02 7.66 2 8 C0 2.25 0 2.25 0 0 Z " fill="#57AFCE" transform="translate(331,117)"/>
<path d="M0 0 C3.28788824 3.11016455 5.83735988 6.01618925 8 10 C4.74275395 9.43840585 2.96209599 8.70956113 1 6 C0.3125 2.8125 0.3125 2.8125 0 0 Z " fill="#051927" transform="translate(362,94)"/>
<path d="M0 0 C2 2 2 2 2 4 C0.68 4 -0.64 4 -2 4 C-2.99 5.485 -2.99 5.485 -4 7 C-5.32 6.67 -6.64 6.34 -8 6 C-5.36 4.02 -2.72 2.04 0 0 Z " fill="#5CB2D2" transform="translate(131,89)"/>
<path d="M0 0 C2.95749791 3.46741134 5.07848152 6.86873527 7 11 C5 11 5 11 2.9375 9.4375 C0.47130385 6.33486614 0.29957983 3.89453784 0 0 Z " fill="#5BAFCE" transform="translate(51,312)"/>
<path d="M0 0 C0 0.66 0 1.32 0 2 C-0.99 2.33 -1.98 2.66 -3 3 C-3.99 4.485 -3.99 4.485 -5 6 C-8.125 6.6875 -8.125 6.6875 -11 7 C-4.48275862 0 -4.48275862 0 0 0 Z " fill="#5BAEC9" transform="translate(105,31)"/>
<path d="M0 0 C-0.33 0.33 -0.66 0.66 -1 1 C-0.34 1.66 0.32 2.32 1 3 C-2.63 2.67 -6.26 2.34 -10 2 C-6.16991045 -0.55339303 -4.41711378 -1.47237126 0 0 Z " fill="#59B2D6" transform="translate(260,27)"/>
<path d="M0 0 C1.27450447 0.59638333 2.54446877 1.20247416 3.8125 1.8125 C4.52019531 2.14894531 5.22789063 2.48539062 5.95703125 2.83203125 C8.01129035 4.00645471 9.41616278 5.25628016 11 7 C8.03 6.505 8.03 6.505 5 6 C5 5.34 5 4.68 5 4 C2.525 3.01 2.525 3.01 0 2 C0 1.34 0 0.68 0 0 Z " fill="#5CB1CE" transform="translate(107,373)"/>
<path d="M0 0 C0.99 0.33 1.98 0.66 3 1 C0.69 3.31 -1.62 5.62 -4 8 C-4.33 6.68 -4.66 5.36 -5 4 C-4.0409375 3.8453125 -4.0409375 3.8453125 -3.0625 3.6875 C-2.381875 3.460625 -1.70125 3.23375 -1 3 C-0.67 2.01 -0.34 1.02 0 0 Z " fill="#071C2A" transform="translate(347,351)"/>
<path d="M0 0 C1.953125 0.7109375 1.953125 0.7109375 4 2 C4.609375 4.1640625 4.609375 4.1640625 4.75 6.625 C4.80671875 7.44226563 4.8634375 8.25953125 4.921875 9.1015625 C4.94765625 9.72804688 4.9734375 10.35453125 5 11 C2.03947516 7.63576723 1.07710178 4.30840713 0 0 Z " fill="#5DB0CF" transform="translate(19,304)"/>
<path d="M0 0 C0.66 0 1.32 0 2 0 C2 0.66 2 1.32 2 2 C3.32 1.34 4.64 0.68 6 0 C6 2.64 6 5.28 6 8 C1.125 3.375 1.125 3.375 0 0 Z " fill="#5DB6D6" transform="translate(88,298)"/>
<path d="M0 0 C-1.62339805 1.70884005 -3.29319053 3.37446717 -5 5 C-5.66 5 -6.32 5 -7 5 C-6.625 2.5625 -6.625 2.5625 -6 0 C-3.50907189 -1.24546405 -2.58919267 -0.7767578 0 0 Z " fill="#5BB3D3" transform="translate(153,250)"/>
<path d="M0 0 C3.63 0.33 7.26 0.66 11 1 C8.39308158 3.60691842 6.62392206 3.70416963 3 4 C2.01 3.34 1.02 2.68 0 2 C0 1.34 0 0.68 0 0 Z " fill="#5DA9CC" transform="translate(234,0)"/>
<path d="M0 0 C0 0.33 0 0.66 0 1 C-4.95 1.33 -9.9 1.66 -15 2 C-15 1.67 -15 1.34 -15 1 C-9.675665 -1.32086397 -5.56157448 -0.91457003 0 0 Z " fill="#031A23" transform="translate(244,404)"/>
<path d="M0 0 C0.99 0.99 1.98 1.98 3 3 C1 4 1 4 -0.8125 4.4375 C-3.31226862 5.08029765 -5.61978282 6.00824284 -8 7 C-5.42215154 4.35247996 -3.08351902 2.05567935 0 0 Z " fill="#58ACCC" transform="translate(330,368)"/>
<path d="M0 0 C1.32 0.33 2.64 0.66 4 1 C-0.455 3.97 -0.455 3.97 -5 7 C-5 6.01 -5 5.02 -5 4 C-2.75 1.75 -2.75 1.75 0 0 Z " fill="#051828" transform="translate(333,363)"/>
<path d="M0 0 C1.41750563 0.11509661 2.83401169 0.24253658 4.25 0.375 C5.03890625 0.44460938 5.8278125 0.51421875 6.640625 0.5859375 C9.085877 1.01507113 10.84836903 1.78600638 13 3 C11.02 3.33 9.04 3.66 7 4 C7 3.34 7 2.68 7 2 C4.69 1.67 2.38 1.34 0 1 C0 0.67 0 0.34 0 0 Z " fill="#071E2B" transform="translate(173,363)"/>
<path d="M0 0 C0.66 0.33 1.32 0.66 2 1 C-0.64 2.98 -3.28 4.96 -6 7 C-6 5.68 -6 4.36 -6 3 C-5.01 3 -4.02 3 -3 3 C-3 2.34 -3 1.68 -3 1 C-2.01 0.67 -1.02 0.34 0 0 Z " fill="#5FB4D6" transform="translate(160,242)"/>
<path d="M0 0 C0.33 0.99 0.66 1.98 1 3 C-1.39509338 5.89932357 -3.31245243 6.50168276 -7 7 C-4.66666667 4.66666667 -2.33333333 2.33333333 0 0 Z " fill="#031522" transform="translate(191,219)"/>
<path d="M0 0 C0.66 0.99 1.32 1.98 2 3 C1.25 6.125 1.25 6.125 0 9 C-0.99 9.495 -0.99 9.495 -2 10 C-1.54177532 6.53058454 -1.10868317 3.32604951 0 0 Z " fill="#0B212D" transform="translate(34,157)"/>
<path d="M0 0 C0.66 0 1.32 0 2 0 C2 2.64 2 5.28 2 8 C1.01 8 0.02 8 -1 8 C-1.04241723 5.66705225 -1.04092937 3.33297433 -1 1 C-0.67 0.67 -0.34 0.34 0 0 Z " fill="#0C222A" transform="translate(58,68)"/>
<path d="M0 0 C1.64666203 0.1135629 3.29236082 0.24117381 4.9375 0.375 C5.85402344 0.44460937 6.77054687 0.51421875 7.71484375 0.5859375 C8.84599609 0.79089844 8.84599609 0.79089844 10 1 C10.33 1.66 10.66 2.32 11 3 C8.83032311 3.95465783 7.43671207 4.14401212 5.17578125 3.3984375 C3.4315257 2.64129615 1.71372869 1.82390802 0 1 C0 0.67 0 0.34 0 0 Z " fill="#5BAECD" transform="translate(283,37)"/>
<path d="M0 0 C0.99 0.33 1.98 0.66 3 1 C-0.465 3.97 -0.465 3.97 -4 7 C-4 4 -4 4 -2 1.8125 C-1.34 1.214375 -0.68 0.61625 0 0 Z " fill="#031724" transform="translate(354,344)"/>
<path d="M0 0 C0.66 0.33 1.32 0.66 2 1 C1.38722388 3.96175123 0.74627478 5.38058783 -1 8 C-1.66 8 -2.32 8 -3 8 C-1.125 2.25 -1.125 2.25 0 0 Z " fill="#57B9DA" transform="translate(371,326)"/>
<path d="M0 0 C0.66 0 1.32 0 2 0 C3.32421875 1.64453125 3.32421875 1.64453125 4.6875 3.8125 C5.14511719 4.52019531 5.60273437 5.22789062 6.07421875 5.95703125 C7 8 7 8 6 11 C4.99735282 9.35577799 3.99794896 7.70957779 3 6.0625 C2.443125 5.14597656 1.88625 4.22945313 1.3125 3.28515625 C0 1 0 1 0 0 Z " fill="#041825" transform="translate(51,311)"/>
<path d="M0 0 C2.14210449 1.76956458 2.96060573 2.87575652 3.8125 5.5625 C3.874375 6.366875 3.93625 7.17125 4 8 C3.34 8.66 2.68 9.32 2 10 C-0.09350689 6.5980513 -0.17942163 3.94727588 0 0 Z " fill="#55ACC7" transform="translate(357,161)"/>
<path d="M0 0 C-1.1446875 0.6496875 -1.1446875 0.6496875 -2.3125 1.3125 C-4.58093768 2.73686785 -6.2199723 4.03260097 -8 6 C-8.33 4.68 -8.66 3.36 -9 2 C-8.01 2 -7.02 2 -6 2 C-6 1.34 -6 0.68 -6 0 C-3 -1 -3 -1 0 0 Z " fill="#5BB0CD" transform="translate(212,128)"/>
<path d="M0 0 C1.65 1.65 3.3 3.3 5 5 C3.02 5.99 3.02 5.99 1 7 C0.31292445 4.50935112 0 2.62113708 0 0 Z " fill="#59AFD0" transform="translate(326,111)"/>
<path d="M0 0 C-4.75 2.875 -4.75 2.875 -7 4 C-7.99 3.01 -8.98 2.02 -10 1 C-3.71428571 -1.42857143 -3.71428571 -1.42857143 0 0 Z " fill="#50A6C1" transform="translate(177,70)"/>
<path d="M0 0 C0.33 0.66 0.66 1.32 1 2 C1.99 2.33 2.98 2.66 4 3 C1.525 4.485 1.525 4.485 -1 6 C-1.66 4.68 -2.32 3.36 -3 2 C-2.01 1.34 -1.02 0.68 0 0 Z " fill="#53B4D4" transform="translate(102,58)"/>
<path d="M0 0 C4.75 0.75 4.75 0.75 7 3 C6.67 3.99 6.34 4.98 6 6 C3.97945196 4.35830472 1.97956942 2.69088222 0 1 C0 0.67 0 0.34 0 0 Z " fill="#051726" transform="translate(93,361)"/>
<path d="M0 0 C-1.39332574 3.36720387 -2.9789286 4.9859524 -6 7 C-6 5.68 -6 4.36 -6 3 C-2.78571429 0 -2.78571429 0 0 0 Z " fill="#59AECB" transform="translate(329,317)"/>
<path d="M0 0 C0.66 0.33 1.32 0.66 2 1 C1.6875 3.375 1.6875 3.375 1 6 C0.01 6.66 -0.98 7.32 -2 8 C-1.125 1.125 -1.125 1.125 0 0 Z " fill="#57B3D5" transform="translate(335,305)"/>
<path d="M0 0 C2.66735273 2.48952921 4.55746343 4.63408134 6 8 C5.01 8 4.02 8 3 8 C0 2.25 0 2.25 0 0 Z " fill="#081E28" transform="translate(85,295)"/>
<path d="M0 0 C5.75 -0.125 5.75 -0.125 8 1 C8 1.99 8 2.98 8 4 C2.25 2.25 2.25 2.25 0 0 Z " fill="#08202B" transform="translate(277,76)"/>
<path d="M0 0 C0.66 0.33 1.32 0.66 2 1 C0.8125 3 0.8125 3 -1 5 C-3.6875 5.25 -3.6875 5.25 -6 5 C-5.195625 4.360625 -4.39125 3.72125 -3.5625 3.0625 C-1.7249496 1.59396498 -1.7249496 1.59396498 0 0 Z " fill="#5BB2D0" transform="translate(320,375)"/>
<path d="M0 0 C0 0.66 0 1.32 0 2 C1.45833358 3.62514468 1.45833358 3.62514468 3 5 C0.64828869 4.40138258 -1.6859378 3.73075648 -4 3 C-4.33 2.34 -4.66 1.68 -5 1 C-2 0 -2 0 0 0 Z " fill="#5BB4D9" transform="translate(181,360)"/>
<path d="M0 0 C1.32 0.66 2.64 1.32 4 2 C2.02 3.32 0.04 4.64 -2 6 C-1.49396008 3.83125748 -1.00016187 2.00032373 0 0 Z " fill="#60B4D3" transform="translate(187,218)"/>
<path d="M0 0 C4.17799643 2.08899822 4.92391901 3.05544612 7 7 C6.01 7.495 6.01 7.495 5 8 C2.525 4.04 2.525 4.04 0 0 Z " fill="#051722" transform="translate(339,126)"/>
<path d="M0 0 C3.875 1.75 3.875 1.75 5 4 C3.35 4.66 1.7 5.32 0 6 C0 4 0 2 0 0 Z " fill="#56B3D5" transform="translate(310,97)"/>
<path d="M0 0 C1.98 1.65 3.96 3.3 6 5 C4.1875 5.625 4.1875 5.625 2 6 C1.01 5.34 0.02 4.68 -1 4 C-0.34 4 0.32 4 1 4 C0.67 2.68 0.34 1.36 0 0 Z " fill="#57B0D2" transform="translate(363,58)"/>
<path d="M0 0 C1.31602523 0.61754259 2.62773556 1.24428742 3.9375 1.875 C4.66839844 2.22304688 5.39929688 2.57109375 6.15234375 2.9296875 C8 4 8 4 9 6 C5.625 5.25 5.625 5.25 2 4 C0.7734375 1.921875 0.7734375 1.921875 0 0 Z " fill="#55A9C4" transform="translate(321,27)"/>
</svg>
