<svg width="59" height="62" viewBox="0 0 59 62" fill="none" xmlns="http://www.w3.org/2000/svg">
<path d="M14.9252 23.8699C15.0458 23.5671 15.2245 23.2913 15.451 23.0583C15.6775 22.8253 15.9474 22.6397 16.2451 22.5121C16.5429 22.3846 16.8626 22.3175 17.1861 22.3149C17.5096 22.3122 17.8304 22.374 18.1302 22.4966L27.0417 26.0957V17.36C27.0417 16.7022 27.3007 16.0714 27.7617 15.6063C28.2227 15.1412 28.848 14.88 29.5 14.88C30.152 14.88 30.7773 15.1412 31.2383 15.6063C31.6993 16.0714 31.9583 16.7022 31.9583 17.36V26.0957L40.8698 22.4966C41.1696 22.3745 41.4904 22.3132 41.8137 22.3161C42.137 22.319 42.4566 22.3861 42.7542 22.5136C43.0519 22.6412 43.3217 22.8266 43.5483 23.0593C43.7748 23.292 43.9538 23.5675 44.0748 23.8699C44.1959 24.1724 44.2567 24.496 44.2538 24.8222C44.2509 25.1483 44.1844 25.4708 44.058 25.771C43.9316 26.0712 43.7478 26.3434 43.5171 26.572C43.2864 26.8006 43.0134 26.9811 42.7135 27.1032L33.3995 30.8604L38.8417 38.1919C39.2329 38.7181 39.4008 39.3795 39.3086 40.0306C39.2164 40.6817 38.8716 41.2692 38.35 41.6639C37.8284 42.0585 37.1728 42.228 36.5273 42.135C35.8819 42.0419 35.2995 41.6941 34.9083 41.1679L29.5 33.8922L24.0917 41.1679C23.898 41.4284 23.6553 41.6479 23.3775 41.8139C23.0997 41.9798 22.7922 42.0889 22.4727 42.135C22.1531 42.181 21.8276 42.1631 21.5149 42.0823C21.2022 42.0015 20.9083 41.8593 20.65 41.6639C20.3917 41.4685 20.1741 41.2237 20.0097 40.9434C19.8452 40.6632 19.737 40.353 19.6914 40.0306C19.6457 39.7082 19.6635 39.3799 19.7436 39.0644C19.8237 38.7489 19.9646 38.4524 20.1583 38.1919L25.6097 30.8604L16.2865 27.1032C15.9863 26.9815 15.7129 26.8013 15.4819 26.5728C15.251 26.3443 15.067 26.072 14.9405 25.7716C14.8141 25.4713 14.7476 25.1487 14.745 24.8223C14.7423 24.496 14.8036 24.1723 14.9252 23.8699ZM59 4.95999V22.3199C59 38.6631 51.1579 48.5676 44.5788 53.9987C37.4927 59.8453 30.4434 61.8324 30.1361 61.913C29.7136 62.029 29.268 62.029 28.8455 61.913C28.5382 61.8324 21.4981 59.8453 14.4028 53.9987C7.84208 48.5676 0 38.6631 0 22.3199V4.95999C0 3.64452 0.518004 2.38292 1.44006 1.45275C2.36211 0.522568 3.61269 0 4.91667 0H54.0833C55.3873 0 56.6379 0.522568 57.5599 1.45275C58.482 2.38292 59 3.64452 59 4.95999ZM54.0833 4.95999H4.91667V22.3199C4.91667 33.8829 9.16344 43.248 17.5371 50.161C21.1025 53.1026 25.1514 55.3909 29.5 56.922C33.9063 55.3637 38.0058 53.0341 41.6104 50.0401C49.8857 43.1395 54.0833 33.8116 54.0833 22.3199V4.95999Z" fill="#004F66"/>
</svg>
