<?xml version="1.0" encoding="UTF-8"?>
<svg version="1.1" xmlns="http://www.w3.org/2000/svg" width="450" height="423">
<path d="M0 0 C0.66 0 1.32 0 2 0 C6.92715369 9.78471006 11.84776918 19.5726774 16.76012993 29.36482334 C19.0414874 33.91190146 21.32505763 38.4578393 23.61376953 43.0012207 C25.82358099 47.38818033 28.02746863 51.77806932 30.22732925 56.17002678 C31.06645777 57.84275289 31.9076934 59.51442371 32.75109482 61.18499947 C33.93459628 63.53013646 35.11046073 65.8789585 36.28466797 68.22875977 C36.63280548 68.91424896 36.98094299 69.59973816 37.33963013 70.30599976 C39.40918252 74.47157016 40.85122946 78.49000605 42 83 C42.80775879 83.09556938 42.80775879 83.09556938 43.63183594 83.19306946 C62.34596877 85.42685543 80.9869661 88.11339982 99.63372803 90.84161377 C103.63706874 91.42679605 107.64081965 92.00915855 111.64453125 92.59179688 C119.43007916 93.72518992 127.21518633 94.86157345 135 96 C134.3612479 99.61668444 133.99390482 101.51369014 131.203125 103.96875 C130.58816162 104.52570557 129.97319824 105.08266113 129.33959961 105.65649414 C128.65003174 106.26485107 127.96046387 106.87320801 127.25 107.5 C117.86966232 116.02975922 108.94778281 124.98088055 100.03015137 133.98925781 C87.65453316 146.4881568 87.65453316 146.4881568 81.62329102 151.59936523 C79.28709724 153.61511854 77.14724203 155.78565665 75 158 C75.55985596 158.00410889 76.11971191 158.00821777 76.6965332 158.01245117 C79.2362587 158.04537305 81.77357981 158.11600694 84.3125 158.1875 C85.63411133 158.19620117 85.63411133 158.19620117 86.98242188 158.20507812 C89.4163415 158.28836815 91.63128091 158.43164437 94 159 C97.53391709 162.80012553 97.41288542 166.73660858 97.59375 171.6953125 C98.08553163 174.48522753 98.73174202 175.34004757 101 177 C102.32434648 177.36741704 103.65929875 177.69766072 105 178 C106.61723405 178.85060551 108.22075288 179.72760556 109.8125 180.625 C113.13452729 182.29575566 114.90929583 182.99538792 118.6875 183.1875 C122.43144343 181.8453316 124.43113425 180.13657842 127.12890625 177.27734375 C129.9973941 175.31910674 131.59020998 175.3992472 135 176 C137.61272901 177.7416943 139.70547361 179.86712186 141.875 182.125 C142.46796875 182.69476563 143.0609375 183.26453125 143.671875 183.8515625 C146.41016509 186.62770913 147.85733951 188.25724507 148.60546875 192.15234375 C147.70657163 196.38005987 145.33515084 198.48735496 142.43359375 201.55859375 C140.36305605 205.0847138 141.04272762 207.08350733 142 211 C142.89862531 213.48890391 143.8798539 215.94939598 144.9375 218.375 C145.20240234 219.00277344 145.46730469 219.63054687 145.74023438 220.27734375 C147.11753473 223.79182834 147.11753473 223.79182834 150 226 C152.7561237 226.23623917 155.51091809 226.38196076 158.2734375 226.5234375 C161.35111646 227.06136992 162.76395697 227.8456389 165 230 C166.21950118 233.65850355 166.22253359 237.06403569 166.25 240.875 C166.2809375 241.93654297 166.2809375 241.93654297 166.3125 243.01953125 C166.34589597 247.50294061 166.08367325 250.63599282 163 254 C159.96875 254.8203125 159.96875 254.8203125 156.5 255.125 C152.1589621 255.40650739 152.1589621 255.40650739 148.296875 257.1328125 C146.39961627 259.8644079 145.09424022 262.70914591 143.75 265.75 C143.20859375 266.94109375 142.6671875 268.1321875 142.109375 269.359375 C140.85547035 273.47430154 140.90730154 275.86158998 142 280 C143.33094251 282.03328152 143.33094251 282.03328152 145.0625 283.5625 C147.30291815 285.67640042 147.94325201 286.72095645 148.56640625 289.78515625 C147.74181885 294.4654006 145.22324448 296.65777378 141.875 299.875 C141.30523437 300.46796875 140.73546875 301.0609375 140.1484375 301.671875 C137.37229087 304.41016509 135.74275493 305.85733951 131.84765625 306.60546875 C127.61994013 305.70657163 125.51264504 303.33515084 122.44140625 300.43359375 C118.9152862 298.36305605 116.91649267 299.04272762 113 300 C110.51109609 300.89862531 108.05060402 301.8798539 105.625 302.9375 C104.99722656 303.20240234 104.36945313 303.46730469 103.72265625 303.74023438 C100.20817166 305.11753473 100.20817166 305.11753473 98 308 C97.55523804 311.30709142 97.16715393 314.61779435 96.79296875 317.93359375 C96 321 96 321 94.48828125 322.8828125 C90.69399801 324.58636824 87.1123739 324.47363108 83 324.4375 C82.19304687 324.45748047 81.38609375 324.47746094 80.5546875 324.49804688 C74.64811297 324.49317346 74.64811297 324.49317346 71.5 322.09765625 C68.7168982 318.20566232 68.73881542 315.09620193 68.4765625 310.41015625 C67.89766073 307.48243172 67.3904156 306.76057581 65 305 C62.79136886 303.83464186 60.53400572 302.75966776 58.25 301.75 C57.05890625 301.20859375 55.8678125 300.6671875 54.640625 300.109375 C50.52569846 298.85547035 48.13841002 298.90730154 44 300 C41.96671848 301.33094251 41.96671848 301.33094251 40.4375 303.0625 C38.32359958 305.30291815 37.27904355 305.94325201 34.21484375 306.56640625 C29.5345994 305.74181885 27.34222622 303.22324448 24.125 299.875 C23.53203125 299.30523437 22.9390625 298.73546875 22.328125 298.1484375 C19.58983491 295.37229087 18.14266049 293.74275493 17.39453125 289.84765625 C18.29342837 285.61994013 20.66484916 283.51264504 23.56640625 280.44140625 C25.63694395 276.9152862 24.95727238 274.91649267 24 271 C23.10137469 268.51109609 22.1201461 266.05060402 21.0625 263.625 C20.66514648 262.68333984 20.66514648 262.68333984 20.25976562 261.72265625 C18.88246527 258.20817166 18.88246527 258.20817166 16 256 C12.66135448 255.51677499 9.31744539 255.1027865 5.96875 254.6953125 C3 254 3 254 1 251 C0.51929228 247.51592237 0.5836672 244.01375597 0.5625 240.5 C0.51319336 239.05560547 0.51319336 239.05560547 0.46289062 237.58203125 C0.44279349 234.96209596 0.49570213 232.57133947 1 230 C4.72869378 226.40989484 8.75669111 226.58638209 13.6953125 226.40625 C16.44576402 225.92142465 17.15472712 225.00674256 19 223 C16.44696285 221.4609776 13.88460065 219.94404807 11.3125 218.4375 C10.59126953 217.99986328 9.87003906 217.56222656 9.12695312 217.11132812 C8.42119141 216.70205078 7.71542969 216.29277344 6.98828125 215.87109375 C6.34415283 215.48880615 5.70002441 215.10651855 5.03637695 214.71264648 C1.29503027 213.40333214 -1.441323 214.7459077 -4.92822266 216.33178711 C-6.52996338 217.17108765 -6.52996338 217.17108765 -8.1640625 218.02734375 C-8.74876816 218.33152725 -9.33347382 218.63571075 -9.93589783 218.94911194 C-11.83547727 219.93922895 -13.7302384 220.93819875 -15.625 221.9375 C-16.94886554 222.63007714 -18.27300517 223.3221306 -19.59741211 224.01367188 C-22.83420736 225.70553655 -26.06726293 227.40440249 -29.2991333 229.10565186 C-31.58111047 230.30555896 -33.86657958 231.498732 -36.15234375 232.69140625 C-42.56524075 236.04481842 -48.95814516 239.43264379 -55.32453918 242.87368774 C-57.88956665 244.26005779 -60.45609273 245.64364514 -63.02243042 247.02758789 C-64.90366126 248.0442134 -66.78206268 249.0659323 -68.66040039 250.08789062 C-70.38891235 251.02084961 -70.38891235 251.02084961 -72.15234375 251.97265625 C-73.18351318 252.53218994 -74.21468262 253.09172363 -75.27709961 253.66821289 C-77.56805936 254.78873521 -79.51041221 255.52662505 -82 256 C-83.32875986 252.01372042 -82.45778717 248.78117574 -81.72070312 244.75244141 C-81.5729393 243.91147415 -81.42517548 243.0705069 -81.27293396 242.20405579 C-80.95093355 240.37666105 -80.625556 238.54985895 -80.29722595 236.72359085 C-79.77794588 233.83317107 -79.26812319 230.94122755 -78.76086426 228.04867554 C-77.49894712 220.86333304 -76.22241994 213.68060616 -74.9430542 206.49835205 C-73.86279012 200.43278389 -72.7896532 194.36604802 -71.72679138 188.29740524 C-71.22478281 185.44830114 -70.71218189 182.60122987 -70.19934082 179.75405884 C-69.89210212 178.00491959 -69.58539246 176.25568731 -69.27929688 174.50634766 C-69.13386948 173.71552292 -68.98844208 172.92469818 -68.83860779 172.10990906 C-68.15880656 168.15560136 -67.70131259 164.84600159 -69 161 C-71.1644847 158.57079314 -71.1644847 158.57079314 -74.015625 156.234375 C-79.24008656 151.65357444 -84.21533824 146.88528307 -89.109375 141.953125 C-89.81235718 141.24667847 -90.51533936 140.54023193 -91.23962402 139.81237793 C-93.41190874 137.62704942 -95.58138432 135.43896917 -97.75 133.25 C-100.63762195 130.33554023 -103.52872223 127.42459332 -106.421875 124.515625 C-107.06477478 123.86442688 -107.70767456 123.21322876 -108.37005615 122.54229736 C-112.18058045 118.71151549 -116.10600723 115.07927004 -120.20513916 111.55847168 C-122.90329297 109.21567373 -125.45178476 106.75574499 -128 104.25 C-128.48855469 103.78207031 -128.97710937 103.31414062 -129.48046875 102.83203125 C-130.71372518 101.61259282 -131.86444261 100.31090081 -133 99 C-133 98.01 -133 97.02 -133 96 C-131.89166306 95.83935562 -130.78332611 95.67871124 -129.6414032 95.51319885 C-119.20817002 94.00062066 -108.77535988 92.48515472 -98.3429594 90.96684361 C-92.97925707 90.18631614 -87.6154097 89.40681508 -82.2512207 88.62963867 C-77.07673917 87.87990932 -71.90265215 87.12751138 -66.72883034 86.37324333 C-64.75257053 86.08561604 -62.7761693 85.79895876 -60.7996273 85.51327705 C-58.03620614 85.11369551 -55.27330303 84.71070152 -52.51049805 84.30688477 C-51.2783532 84.12993828 -51.2783532 84.12993828 -50.02131653 83.94941711 C-46.90118716 83.49046778 -43.99873623 82.99957874 -41 82 C-39.7161769 80.16804373 -39.7161769 80.16804373 -38.63085938 77.84521484 C-37.96370911 76.51518936 -37.96370911 76.51518936 -37.28308105 75.15829468 C-36.80810181 74.18566681 -36.33312256 73.21303894 -35.84375 72.2109375 C-35.34137817 71.20149078 -34.83900635 70.19204407 -34.32141113 69.15200806 C-32.7048874 65.8975623 -31.10249931 62.63637036 -29.5 59.375 C-28.45139933 57.26128271 -27.40192913 55.14799654 -26.3515625 53.03515625 C-20.72604671 41.69321388 -15.18736419 30.31253896 -9.8026123 18.85409546 C-6.76515142 12.43661016 -3.45643112 6.20138093 0 0 Z M69 163 C70 165 70 165 70 165 Z M77 208 C78.14366164 218.68555501 79.80529839 229.27649982 81.5625 239.875 C81.67427582 240.55564514 81.78605164 241.23629028 81.9012146 241.93756104 C82.22334442 243.89389392 82.55102073 245.84931105 82.87890625 247.8046875 C83.16616577 249.52147705 83.16616577 249.52147705 83.45922852 251.27294922 C83.86526995 253.95111949 83.86526995 253.95111949 85 256 C84.01080566 255.49025635 83.02161133 254.9805127 82.00244141 254.45532227 C78.33860403 252.56734314 74.6746855 250.67952157 71.01074219 248.79174805 C69.42380589 247.97408286 67.83689173 247.15637472 66.25 246.33862305 C63.97141214 245.16443824 61.6927452 243.990407 59.4140625 242.81640625 C58.70255035 242.44971329 57.99103821 242.08302032 57.25796509 241.70521545 C53.63640469 239.83801971 53.63640469 239.83801971 50 238 C49.34720952 247.95505475 51.65134833 255.66390694 58.125 263.375 C64.89995641 270.41871501 72.83502913 274.06639887 82.5625 274.3125 C92.98779871 274.16049078 100.34241253 270.71556505 107.83203125 263.51171875 C114.34093392 255.97077386 116.40774181 247.96950062 116.265625 238.22265625 C115.42848896 228.0662264 110.64001964 220.58417842 103 214 C96.56193072 209.95294778 90.9337008 207.86204257 83.3125 207.9375 C82.13300781 207.94652344 80.95351562 207.95554688 79.73828125 207.96484375 C78.83464844 207.97644531 77.93101562 207.98804688 77 208 Z " fill="#52BDE4" transform="translate(133,0)"/>
<path d="M0 0 C0.85013672 0.00128906 1.70027344 0.00257813 2.57617188 0.00390625 C6.76591835 0.06305561 9.77426436 0.16029709 13.4375 2.375 C16.06415356 6.18950326 15.76294211 10.23508447 15.8984375 14.71875 C16.60103403 18.18081984 17.66462619 19.21124929 20.4375 21.375 C30.95824416 27.06193665 30.95824416 27.06193665 42.4375 27.375 C45.11305554 25.3997858 47.54486013 23.32941692 49.9453125 21.02734375 C52.4375 19.375 52.4375 19.375 55.31640625 19.24609375 C59.60276946 20.79648044 62.10615569 23.27370595 65.25 26.5 C65.83458984 27.056875 66.41917969 27.61375 67.02148438 28.1875 C69.90781937 31.09055768 71.325193 33.01639212 72.5703125 36.9921875 C72.4053442 41.19402711 71.37820619 42.38363357 68.5 45.375 C65.72868454 48.26515403 64.53524002 49.66385711 63.984375 53.671875 C64.52539332 58.09330055 65.80684162 61.58966712 67.625 65.625 C67.91697266 66.33140625 68.20894531 67.0378125 68.50976562 67.765625 C70.39461906 72.04606634 71.90100535 74.56176037 76.4375 76.375 C79.25287797 76.75437717 81.97827081 76.81204794 84.81640625 76.87109375 C87.4375 77.375 87.4375 77.375 89.75 78.75390625 C92.42869878 82.91457033 91.97673776 87.03753383 91.875 91.875 C91.88208984 92.82503906 91.88917969 93.77507812 91.89648438 94.75390625 C91.82207201 102.8934741 91.82207201 102.8934741 88.4375 106.375 C85.2385781 106.9500053 82.211673 107.20092549 78.97460938 107.33203125 C75.12057902 107.64524284 73.70010446 108.07093168 71.13671875 111.0390625 C69.48469426 114.28234735 67.99739745 117.47896958 66.6875 120.875 C66.25953125 121.9578125 65.8315625 123.040625 65.390625 124.15625 C64.38858956 127.54017294 63.96195865 129.87671066 64.4375 133.375 C66.34594951 136.07689678 68.50749991 138.32038452 70.78515625 140.71484375 C72.4375 143.375 72.4375 143.375 72.5703125 146.76171875 C71.0948141 151.46804984 68.76537341 153.90128707 65.25 157.25 C64.40211914 158.12011719 64.40211914 158.12011719 63.53710938 159.0078125 C60.86112119 161.63169095 58.87757274 163.21582475 55.31640625 164.50390625 C50.59434323 164.29247059 48.46571165 161.30643134 45.1953125 158.16015625 C41.56055869 155.80734819 38.59150947 155.69474162 34.4375 156.375 C31.51965323 157.23845825 28.8174203 158.40307656 26.0625 159.6875 C25.35222656 159.99623047 24.64195312 160.30496094 23.91015625 160.62304688 C20.40446457 162.20293639 18.61125826 163.11436261 16.4375 166.375 C16.09029133 168.94739144 16.09029133 168.94739144 16 171.75 C15.68305838 176.02871189 15.26937261 178.97675287 12.4375 182.375 C8.81796959 184.18476521 4.61081702 183.64536663 0.625 183.6875 C-0.27798828 183.71650391 -1.18097656 183.74550781 -2.11132812 183.77539062 C-6.28454219 183.81525233 -8.91777256 183.71814823 -12.65234375 181.73046875 C-15.02981108 178.79874524 -15.21892076 177.11816948 -15.3125 173.375 C-15.24649584 168.22000299 -15.24649584 168.22000299 -16.5625 163.375 C-19.31819917 162.20380919 -19.31819917 162.20380919 -22.5625 161.375 C-24.54700351 160.51217238 -26.52620121 159.63704229 -28.5 158.75 C-34.83270776 156.04407129 -34.83270776 156.04407129 -41.5625 156.375 C-43.71988475 158.04919838 -45.67063846 159.85610812 -47.64453125 161.7421875 C-50.23568831 163.94810125 -52.18101337 164.45185197 -55.5625 164.375 C-58.90662329 163.06672023 -60.72813058 161.30658246 -63 158.5625 C-65.07560392 156.09409362 -67.0986489 153.86216192 -69.4375 151.625 C-72.5625 148.31617647 -72.5625 148.31617647 -72.5625 145.375 C-71.07828744 142.24166238 -69.22632942 139.99080505 -66.9375 137.375 C-64.43604453 134.21526677 -63.76451529 133.29834958 -63.5625 129.375 C-64.38790828 126.22563397 -65.58052402 123.2598864 -66.8125 120.25 C-67.12574219 119.43917969 -67.43898438 118.62835938 -67.76171875 117.79296875 C-69.81620319 112.52089448 -69.81620319 112.52089448 -73.5625 108.375 C-76.1296515 107.90716686 -76.1296515 107.90716686 -78.9375 107.875 C-83.73260851 107.57054867 -87.05768942 106.87981058 -90.5625 103.375 C-91.36548412 98.64631575 -91.68819517 93.98211468 -91.8125 89.1875 C-91.83828125 88.20394531 -91.8640625 87.22039062 -91.890625 86.20703125 C-91.4744268 82.61484441 -90.13571169 79.94821169 -87.5625 77.375 C-84.85222509 77.08851121 -82.14160392 76.92664579 -79.421875 76.75390625 C-75.254629 76.24764765 -75.254629 76.24764765 -71.5625 74.375 C-69.68761277 71.29638988 -68.4175877 68.04440522 -67.125 64.6875 C-66.74923828 63.80126953 -66.37347656 62.91503906 -65.98632812 62.00195312 C-64.27508562 57.68066598 -63.45421496 55.1041193 -64.1484375 50.4296875 C-65.43473064 47.65101005 -66.31755612 46.12076379 -68.625 44.1875 C-70.40409773 42.67809435 -71.44160641 41.63359301 -72.43359375 39.51171875 C-72.65678395 35.81217216 -70.60327185 33.58439728 -68.26660156 30.86914062 C-66.7760187 29.24872306 -65.24238564 27.68370599 -63.6875 26.125 C-63.17058594 25.58359375 -62.65367187 25.0421875 -62.12109375 24.484375 C-59.10769446 21.44820443 -56.93309305 19.51017298 -52.5625 19.375 C-49.32533407 20.83172467 -47.57416722 22.3614408 -45.25 25.0625 C-42.18813468 27.6971283 -40.67649665 27.74258051 -36.7355957 27.62182617 C-33.18171163 27.21816627 -30.09546437 26.06043704 -26.8125 24.6875 C-26.16667969 24.44322266 -25.52085937 24.19894531 -24.85546875 23.94726562 C-20.54196744 22.19795041 -17.93308794 20.3985289 -15.5625 16.375 C-15.11044 13.27574179 -15.12496115 10.34330973 -15.12890625 7.21484375 C-14.5625 4.375 -14.5625 4.375 -12.625 2.02734375 C-8.34896555 -0.27975137 -4.77863483 -0.13830017 0 0 Z M-30.05859375 70.2265625 C-36.27346733 79.10495333 -37.96657475 89.39081221 -36.1015625 99.99609375 C-33.50982544 109.76846702 -27.84042639 117.59096795 -19.5625 123.375 C-9.69617213 128.72264723 0.76035518 130.14649553 11.75 127.25 C21.09155281 123.9902659 29.04660077 116.46147362 33.828125 107.87890625 C37.75554244 98.57203324 37.97273314 88.01114747 34.8125 78.4375 C30.18181092 67.56264132 22.96612186 61.46766694 12.125 57 C-3.88716565 51.655157 -19.56059052 57.5120435 -30.05859375 70.2265625 Z " fill="#459FBA" transform="translate(358.5625,239.625)"/>
<path d="M0 0 C3.60374463 -0.14500644 7.20674242 -0.23396763 10.8125 -0.3125 C11.83666016 -0.35439453 12.86082031 -0.39628906 13.91601562 -0.43945312 C16.69118618 -0.48494772 19.26325178 -0.46548457 22 0 C25.6289828 3.68129246 25.41396155 7.76611243 25.59375 12.6953125 C26.08553163 15.48522753 26.73174202 16.34004757 29 18 C30.32434648 18.36741704 31.65929875 18.69766072 33 19 C34.61723405 19.85060551 36.22075288 20.72760556 37.8125 21.625 C41.13452729 23.29575566 42.90929583 23.99538792 46.6875 24.1875 C50.43144343 22.8453316 52.43113425 21.13657842 55.12890625 18.27734375 C57.9973941 16.31910674 59.59020998 16.3992472 63 17 C65.61272901 18.7416943 67.70547361 20.86712186 69.875 23.125 C70.46796875 23.69476563 71.0609375 24.26453125 71.671875 24.8515625 C74.41016509 27.62770913 75.85733951 29.25724507 76.60546875 33.15234375 C75.70657163 37.38005987 73.33515084 39.48735496 70.43359375 42.55859375 C68.36305605 46.0847138 69.04272762 48.08350733 70 52 C70.89862531 54.48890391 71.8798539 56.94939598 72.9375 59.375 C73.20240234 60.00277344 73.46730469 60.63054687 73.74023438 61.27734375 C75.11753473 64.79182834 75.11753473 64.79182834 78 67 C80.7561237 67.23623917 83.51091809 67.38196076 86.2734375 67.5234375 C89.35111646 68.06136992 90.76395697 68.8456389 93 71 C94.21950118 74.65850355 94.22253359 78.06403569 94.25 81.875 C94.2809375 82.93654297 94.2809375 82.93654297 94.3125 84.01953125 C94.34589597 88.50294061 94.08367325 91.63599282 91 95 C87.96875 95.8203125 87.96875 95.8203125 84.5 96.125 C80.1589621 96.40650739 80.1589621 96.40650739 76.296875 98.1328125 C74.39961627 100.8644079 73.09424022 103.70914591 71.75 106.75 C70.93789063 108.53664063 70.93789063 108.53664063 70.109375 110.359375 C68.85547035 114.47430154 68.90730154 116.86158998 70 121 C71.33094251 123.03328152 71.33094251 123.03328152 73.0625 124.5625 C75.30291815 126.67640042 75.94325201 127.72095645 76.56640625 130.78515625 C75.74181885 135.4654006 73.22324448 137.65777378 69.875 140.875 C69.30523437 141.46796875 68.73546875 142.0609375 68.1484375 142.671875 C65.37229087 145.41016509 63.74275493 146.85733951 59.84765625 147.60546875 C55.61994013 146.70657163 53.51264504 144.33515084 50.44140625 141.43359375 C46.9152862 139.36305605 44.91649267 140.04272762 41 141 C38.51109609 141.89862531 36.05060402 142.8798539 33.625 143.9375 C32.99722656 144.20240234 32.36945313 144.46730469 31.72265625 144.74023438 C28.20817166 146.11753473 28.20817166 146.11753473 26 149 C25.55523804 152.30709142 25.16715393 155.61779435 24.79296875 158.93359375 C24 162 24 162 22.48828125 163.8828125 C18.69399801 165.58636824 15.1123739 165.47363108 11 165.4375 C10.19304687 165.45748047 9.38609375 165.47746094 8.5546875 165.49804688 C2.64811297 165.49317346 2.64811297 165.49317346 -0.5 163.09765625 C-3.2831018 159.20566232 -3.26118458 156.09620193 -3.5234375 151.41015625 C-4.10233927 148.48243172 -4.6095844 147.76057581 -7 146 C-9.20863114 144.83464186 -11.46599428 143.75966776 -13.75 142.75 C-14.94109375 142.20859375 -16.1321875 141.6671875 -17.359375 141.109375 C-21.47430154 139.85547035 -23.86158998 139.90730154 -28 141 C-30.03328152 142.33094251 -30.03328152 142.33094251 -31.5625 144.0625 C-33.67640042 146.30291815 -34.72095645 146.94325201 -37.78515625 147.56640625 C-42.4654006 146.74181885 -44.65777378 144.22324448 -47.875 140.875 C-48.76445312 140.02035156 -48.76445312 140.02035156 -49.671875 139.1484375 C-52.41016509 136.37229087 -53.85733951 134.74275493 -54.60546875 130.84765625 C-53.70657163 126.61994013 -51.33515084 124.51264504 -48.43359375 121.44140625 C-46.36305605 117.9152862 -47.04272762 115.91649267 -48 112 C-48.89862531 109.51109609 -49.8798539 107.05060402 -50.9375 104.625 C-51.33485352 103.68333984 -51.33485352 103.68333984 -51.74023438 102.72265625 C-53.11753473 99.20817166 -53.11753473 99.20817166 -56 97 C-59.33864552 96.51677499 -62.68255461 96.1027865 -66.03125 95.6953125 C-69 95 -69 95 -71 92 C-71.48070772 88.51592237 -71.4163328 85.01375597 -71.4375 81.5 C-71.47037109 80.53707031 -71.50324219 79.57414062 -71.53710938 78.58203125 C-71.55720719 75.96200758 -71.50453996 73.57138601 -71 71 C-67.90924219 68.02391695 -65.12429359 67.67250849 -60.9375 67.5625 C-57.33831203 67.31575984 -56.30082993 67.23636637 -53.375 64.9375 C-52.92125 64.298125 -52.4675 63.65875 -52 63 C-47.02781704 64.84681081 -42.44824714 67.35368515 -37.81958008 69.91552734 C-34.85590389 71.54050061 -32.05066217 72.98149125 -28.8671875 74.14453125 C-26.06723812 75.16900252 -24.16631009 75.94107166 -22 78 C-21.00158152 81.49892192 -20.67846571 84.80126072 -20.390625 88.42578125 C-19.46145518 96.92768509 -15.02478803 102.98657804 -8.51171875 108.3046875 C-0.67605243 113.59345761 7.67598226 115.17313985 17 114 C25.22982777 112.2181699 31.5414221 108.42314588 37 102 C42.73012498 92.87018365 44.63227246 83.75589335 42.38671875 73.0859375 C39.85281153 65.16050081 35.50706826 58.79104375 28.36328125 54.3671875 C22.43615764 51.33873018 17.48515361 49.86601904 10.8125 49.4375 C9.54019531 49.35371094 8.26789063 49.26992187 6.95703125 49.18359375 C5.98121094 49.12300781 5.00539063 49.06242187 4 49 C1.74438464 38.44326212 -0.31829599 27.86211831 -1.9375 17.1875 C-2.09001221 16.27597168 -2.24252441 15.36444336 -2.3996582 14.42529297 C-3.23636801 8.59374474 -2.84051549 5.19226398 0 0 Z " fill="#000001" transform="translate(205,159)"/>
<path d="M0 0 C1.17175781 -0.04350586 1.17175781 -0.04350586 2.3671875 -0.08789062 C8.08296375 -0.151508 8.08296375 -0.151508 10.66015625 2.0546875 C11.71843245 4.53113949 11.80315688 6.08063925 11.6875 8.75 C11.77706926 11.13086665 11.77706926 11.13086665 12.625 13.3125 C17.6125197 17.452531 24.2133333 19.52622222 30.625 19.3125 C32.67779996 17.71131603 34.68151499 16.04473664 36.625 14.3125 C40.36042088 13.77017974 42.02088481 13.89102429 45.14453125 16.0703125 C46.27955078 17.24207031 46.27955078 17.24207031 47.4375 18.4375 C48.20707031 19.20320313 48.97664063 19.96890625 49.76953125 20.7578125 C51.92779062 23.72939488 52.51580519 25.65447377 52.625 29.3125 C50.96252986 31.31598966 49.29567133 33.31584402 47.625 35.3125 C46.32392474 41.9479838 49.59065119 47.5621603 52.625 53.3125 C54.60508054 55.29258054 58.49266846 54.62469007 61.1796875 54.73828125 C63.625 55.3125 63.625 55.3125 65.421875 56.91796875 C67.04836289 60.15510211 67.02294576 62.70236717 67 66.3125 C67.00773438 67.529375 67.01546875 68.74625 67.0234375 70 C66.60206503 73.50317508 66.21760059 74.95035279 63.625 77.3125 C61.46875 77.8515625 61.46875 77.8515625 59.125 77.9375 C55.59628942 78.09041079 54.72114062 78.24840625 51.625 80.3125 C48.7327126 85.6037415 46.57896435 91.26873846 47.625 97.3125 C48.470625 98.323125 49.31625 99.33375 50.1875 100.375 C52.625 103.3125 52.625 103.3125 52.5390625 106.19140625 C51.46958011 109.84318585 50.12182211 111.51666694 47.4375 114.1875 C46.68082031 114.96867187 45.92414063 115.74984375 45.14453125 116.5546875 C42.02088481 118.73397571 40.36042088 118.85482026 36.625 118.3125 C35.67625 117.466875 34.7275 116.62125 33.75 115.75 C30.79208064 112.94989724 30.79208064 112.94989724 26.875 113.1875 C21.76047692 114.2756964 16.68198095 115.94488886 12.625 119.3125 C11.79719286 121.731249 11.67485975 123.58326305 11.78515625 126.12890625 C11.625 128.3125 11.625 128.3125 10.65625 130.5625 C7.48154509 133.29763038 4.04524244 132.85246059 0.0625 132.75 C-1.10829102 132.76063477 -1.10829102 132.76063477 -2.30273438 132.77148438 C-4.56640625 132.74609375 -4.56640625 132.74609375 -8.375 132.3125 C-10.56242014 129.0313698 -10.91942806 126.98165644 -11.5 123.125 C-11.75136719 121.49498047 -11.75136719 121.49498047 -12.0078125 119.83203125 C-12.12898438 119.00058594 -12.25015625 118.16914063 -12.375 117.3125 C-13.07367188 117.10753906 -13.77234375 116.90257812 -14.4921875 116.69140625 C-15.40226562 116.42199219 -16.31234375 116.15257812 -17.25 115.875 C-18.15492188 115.60816406 -19.05984375 115.34132813 -19.9921875 115.06640625 C-22.375 114.3125 -22.375 114.3125 -24.375 113.3125 C-27.24806228 112.81154977 -27.24806228 112.81154977 -30.375 113.3125 C-31.6125 114.55 -31.6125 114.55 -32.875 115.8125 C-35.375 118.3125 -35.375 118.3125 -38.19921875 118.765625 C-42.39163484 118.16744509 -43.79395752 116.60093914 -46.6875 113.5625 C-47.54988281 112.68078125 -48.41226562 111.7990625 -49.30078125 110.890625 C-52.34644629 107.10505263 -52.34644629 107.10505263 -52.375 104.3125 C-51.125 102.41796875 -51.125 102.41796875 -49.375 100.5 C-46.7397934 97.16914266 -46.7397934 97.16914266 -46.1875 92.9375 C-48.74464653 85.05331674 -48.74464653 85.05331674 -53.375 78.3125 C-55.63043624 78.06988335 -57.88445523 77.92917867 -60.1484375 77.7890625 C-62.86043419 77.20860005 -63.64939136 76.45005362 -65.375 74.3125 C-65.67250972 71.36948714 -65.79386918 68.68679772 -65.75 65.75 C-65.76160156 64.96947266 -65.77320313 64.18894531 -65.78515625 63.38476562 C-65.7734375 61.12109375 -65.7734375 61.12109375 -65.375 57.3125 C-62.09008627 55.12255752 -60.54404361 54.95972661 -56.6875 54.6875 C-55.69363281 54.61273438 -54.69976562 54.53796875 -53.67578125 54.4609375 C-52.91652344 54.41195312 -52.15726562 54.36296875 -51.375 54.3125 C-51.18164062 53.72082031 -50.98828125 53.12914062 -50.7890625 52.51953125 C-50.52867187 51.72933594 -50.26828125 50.93914062 -50 50.125 C-49.72929687 49.3 -49.45859375 48.475 -49.1796875 47.625 C-48.375 45.3125 -48.375 45.3125 -47.125 42.625 C-46.07912189 39.40020917 -46.38364673 37.55092067 -47.375 34.3125 C-48.89730022 32.1141783 -50.54615885 30.28202124 -52.375 28.3125 C-50.99828036 24.18966405 -49.15203019 21.60425035 -46.125 18.5 C-45.37734375 17.70980469 -44.6296875 16.91960937 -43.859375 16.10546875 C-40.76551155 13.87263333 -39.1130098 13.76609693 -35.375 14.3125 C-33.70833333 15.97916667 -32.04166667 17.64583333 -30.375 19.3125 C-23.54622572 20.04449837 -17.65991338 17.54820264 -12.375 13.3125 C-10.54775954 9.36870601 -9.94084012 5.59291412 -9.375 1.3125 C-7.26472389 -0.79777611 -2.90071663 0.035548 0 0 Z M-22.0390625 51.41015625 C-25.82946571 56.80760176 -26.76122445 63.09979252 -26.1640625 69.61328125 C-24.58442797 78.2416623 -20.48371283 84.00016291 -13.4375 89.0859375 C-6.94661484 92.94604723 -0.77754043 93.02293338 6.625 92.3125 C15.255556 89.97821219 19.99223172 84.65600627 24.609375 77.27734375 C27.55257462 71.58338449 27.48608383 64.80352061 25.9765625 58.68359375 C23.21629707 50.95720974 18.77615619 45.7066639 11.5 41.875 C-1.38075057 36.82802789 -13.66632455 40.8557894 -22.0390625 51.41015625 Z " fill="#1E4959" transform="translate(358.375,92.6875)"/>
<path d="M0 0 C2.33483826 3.64818477 2.15441811 6.75350202 2 11 C2 14.20395416 2.74335022 16.09399739 4 19 C-0.12444855 15.57758525 -4.086568 12.04156707 -7.9375 8.3125 C-8.70964844 7.56613281 -9.48179688 6.81976563 -10.27734375 6.05078125 C-12 4 -12 4 -12 1 C-7.93631321 0.22596442 -4.13574827 -0.0984702 0 0 Z " fill="#55BADF" transform="translate(12,95)"/>
<path d="M0 0 C0.99 0.33 1.98 0.66 3 1 C2.02216461 3.62550296 1.0427937 6.25041505 0.0625 8.875 C-0.21529297 9.62136719 -0.49308594 10.36773437 -0.77929688 11.13671875 C-2.88671875 16.7734375 -2.88671875 16.7734375 -4 19 C-4.66 19 -5.32 19 -6 19 C-6.33 19.66 -6.66 20.32 -7 21 C-9 22 -9 22 -17 22 C-17 27.28 -17 32.56 -17 38 C-14.03 38.33 -11.06 38.66 -8 39 C-8 39.66 -8 40.32 -8 41 C-9.43655854 41.08131463 -10.8744483 41.13933559 -12.3125 41.1875 C-13.51326172 41.23970703 -13.51326172 41.23970703 -14.73828125 41.29296875 C-17.56895504 40.92630116 -18.2392442 40.19915821 -20 38 C-20.29750972 35.05698714 -20.41886918 32.37429772 -20.375 29.4375 C-20.38660156 28.65697266 -20.39820313 27.87644531 -20.41015625 27.07226562 C-20.3984375 24.80859375 -20.3984375 24.80859375 -20 21 C-16.71508627 18.81005752 -15.16904361 18.64722661 -11.3125 18.375 C-10.31863281 18.30023438 -9.32476562 18.22546875 -8.30078125 18.1484375 C-7.54152344 18.09945312 -6.78226562 18.05046875 -6 18 C-5.81824219 17.45472656 -5.63648438 16.90945312 -5.44921875 16.34765625 C-3.6328125 10.8984375 -1.81640625 5.44921875 0 0 Z " fill="#1D3C49" transform="translate(313,129)"/>
<path d="M0 0 C3.99406184 1.29336246 6.25494615 3.56903998 9.0234375 6.58203125 C9.52101563 7.10216797 10.01859375 7.62230469 10.53125 8.15820312 C11.74872362 9.43420914 12.95024742 10.72540069 14.1484375 12.01953125 C13.1584375 12.34953125 12.1684375 12.67953125 11.1484375 13.01953125 C8.9609375 11.76953125 8.9609375 11.76953125 7.1484375 10.01953125 C7.1484375 9.02953125 7.1484375 8.03953125 7.1484375 7.01953125 C6.1584375 7.34953125 5.1684375 7.67953125 4.1484375 8.01953125 C3.4884375 7.68953125 2.8284375 7.35953125 2.1484375 7.01953125 C2.1484375 7.67953125 2.1484375 8.33953125 2.1484375 9.01953125 C1.4884375 9.01953125 0.8284375 9.01953125 0.1484375 9.01953125 C-0.5115625 7.69953125 -1.1715625 6.37953125 -1.8515625 5.01953125 C-2.52703125 5.39207031 -3.2025 5.76460938 -3.8984375 6.1484375 C-4.79046875 6.62152344 -5.6825 7.09460938 -6.6015625 7.58203125 C-7.48328125 8.05769531 -8.365 8.53335937 -9.2734375 9.0234375 C-12.05857438 10.09951311 -13.12136464 10.08481873 -15.8515625 9.01953125 C-14.583125 8.46265625 -14.583125 8.46265625 -13.2890625 7.89453125 C-9.81202496 5.99796532 -7.49097591 3.94245682 -4.7578125 1.12890625 C-2.8515625 0.01953125 -2.8515625 0.01953125 0 0 Z " fill="#469DBC" transform="translate(413.8515625,258.98046875)"/>
<path d="M0 0 C0.66 0 1.32 0 2 0 C2.69710731 1.28650706 3.38242876 2.57940665 4.0625 3.875 C4.63677734 4.95394531 4.63677734 4.95394531 5.22265625 6.0546875 C5.47917969 6.69664062 5.73570312 7.33859375 6 8 C5.67 8.66 5.34 9.32 5 10 C3.35 10 1.7 10 0 10 C-0.33 10.99 -0.66 11.98 -1 13 C-1.99 13 -2.98 13 -4 13 C-5.65 16.3 -7.3 19.6 -9 23 C-8.34 23.33 -7.68 23.66 -7 24 C-7.33 24.66 -7.66 25.32 -8 26 C-10.5625 26.625 -10.5625 26.625 -13 27 C-11.32246669 21.21969949 -8.64724599 16.03416995 -5.9375 10.6875 C-5.47794922 9.76904297 -5.01839844 8.85058594 -4.54492188 7.90429688 C-1.14055525 1.14055525 -1.14055525 1.14055525 0 0 Z " fill="#55B8DD" transform="translate(133,0)"/>
<path d="M0 0 C0.703125 1.74609375 0.703125 1.74609375 1 4 C-0.328125 6.03515625 -0.328125 6.03515625 -2.25 8.0625 C-2.87390625 8.73410156 -3.4978125 9.40570313 -4.140625 10.09765625 C-4.75421875 10.72542969 -5.3678125 11.35320312 -6 12 C-6.77150391 12.84884766 -6.77150391 12.84884766 -7.55859375 13.71484375 C-9 15 -9 15 -11.8125 15.5 C-15 15 -15 15 -17.875 12.4375 C-20.82472295 9.64417276 -20.82472295 9.64417276 -24.6875 9.875 C-30.12035023 10.9404716 -35.07786629 13.54798118 -40 16 C-40 15.01 -40 14.02 -40 13 C-38.948125 12.566875 -37.89625 12.13375 -36.8125 11.6875 C-34.47808347 10.70704506 -32.6640247 9.76740171 -30.5625 8.3125 C-27.01969547 6.4978928 -23.90065698 6.1102371 -20 7 C-17.3125 9.5 -17.3125 9.5 -15 12 C-12.57999471 12.52137968 -12.57999471 12.52137968 -10 12 C-7.74700787 10.42559211 -7.74700787 10.42559211 -5.8125 8.25 C-4.80123047 7.20585937 -4.80123047 7.20585937 -3.76953125 6.140625 C-2.12736458 4.15407459 -1.03189797 2.34955229 0 0 Z " fill="#1F3D49" transform="translate(410,196)"/>
<path d="M0 0 C0.33 0 0.66 0 1 0 C1.14285714 7.42857143 1.14285714 7.42857143 0 11 C1.98 10.34 3.96 9.68 6 9 C6 8.34 6 7.68 6 7 C6.66 6.67 7.32 6.34 8 6 C8 5.34 8 4.68 8 4 C11.46153846 1 11.46153846 1 14 1 C14 1.66 14 2.32 14 3 C15.65 3 17.3 3 19 3 C19 2.34 19 1.68 19 1 C20.65 1 22.3 1 24 1 C19.75474648 4.30955271 15.17945093 6.73139441 10.4375 9.25 C9.57447266 9.72179687 8.71144531 10.19359375 7.82226562 10.6796875 C6.99275391 11.12054688 6.16324219 11.56140625 5.30859375 12.015625 C4.55376709 12.42071289 3.79894043 12.82580078 3.02124023 13.24316406 C1 14 1 14 -2 13 C-1.34 8.71 -0.68 4.42 0 0 Z " fill="#59BADE" transform="translate(52,242)"/>
<path d="M0 0 C0.66 0.99 1.32 1.98 2 3 C1.34 3 0.68 3 0 3 C-0.103125 4.03125 -0.20625 5.0625 -0.3125 6.125 C-1.22519685 11.26929136 -2.19380233 14.72244555 -6.5625 17.8125 C-10.34118119 19.11786259 -13.65874337 19.44518667 -17.6328125 19.59375 C-20.44999133 20.07722624 -21.86312655 21.1486995 -24 23 C-24 19 -24 19 -22 17 C-19.57421875 16.65625 -19.57421875 16.65625 -16.6875 16.5 C-12.7237723 16.28369835 -9.44219741 16.0698928 -6 14 C-4.66027684 11.57629259 -3.64855985 9.43613574 -2.6875 6.875 C-2.42388672 6.21628906 -2.16027344 5.55757813 -1.88867188 4.87890625 C-1.24302669 3.2589238 -0.61931686 1.63022927 0 0 Z " fill="#4C97A9" transform="translate(293,300)"/>
<path d="M0 0 C3.95212839 0.51911476 5.21702688 1.70230437 7.96484375 4.5390625 C8.73441406 5.30476563 9.50398438 6.07046875 10.296875 6.859375 C12.4778912 9.86228994 13.0744041 11.71192892 13.15234375 15.4140625 C12.0078125 17.75 12.0078125 17.75 10.33984375 19.7890625 C9.52580078 20.82160156 9.52580078 20.82160156 8.6953125 21.875 C7.15234375 23.4140625 7.15234375 23.4140625 5.15234375 23.4140625 C6.36960659 19.9495452 7.59088693 17.97551932 10.15234375 15.4140625 C10.86682018 13.31073359 10.86682018 13.31073359 11.15234375 11.4140625 C10.49234375 11.4140625 9.83234375 11.4140625 9.15234375 11.4140625 C4.15234375 5.93787202 4.15234375 5.93787202 4.15234375 3.4140625 C-0.06643817 3.21784009 -3.01776519 3.61176082 -6.84765625 5.4140625 C-3.67593984 0.5344988 -3.67593984 0.5344988 0 0 Z " fill="#223F4A" transform="translate(397.84765625,106.5859375)"/>
<path d="M0 0 C2.90455646 -0.33067258 5.53483146 -0.46386611 8.4375 -0.4375 C9.60249023 -0.4674707 9.60249023 -0.4674707 10.79101562 -0.49804688 C16.45297194 -0.49317008 16.45297194 -0.49317008 19.0234375 1.82421875 C20.2923034 4.65125198 20.20876074 6.93817587 20 10 C19.67 8.68 19.34 7.36 19 6 C18.34 6 17.68 6 17 6 C16.67 5.01 16.34 4.02 16 3 C10.72 3 5.44 3 0 3 C0 5.64 0 8.28 0 11 C-0.66 11 -1.32 11 -2 11 C-2.25 3.375 -2.25 3.375 0 0 Z " fill="#1C3D48" transform="translate(350,93)"/>
<path d="M0 0 C0.68964844 0.47050781 1.37929688 0.94101562 2.08984375 1.42578125 C14.16220451 9.42434126 22.82840145 10.43930328 37 10 C37 10.66 37 11.32 37 12 C29.74 12 22.48 12 15 12 C15 11.34 15 10.68 15 10 C14.11054688 10.07992188 13.22109375 10.15984375 12.3046875 10.2421875 C8.25554137 9.94544157 7.03543536 8.87864423 4.125 6.125 C3.34382813 5.40570313 2.56265625 4.68640625 1.7578125 3.9453125 C0 2 0 2 0 0 Z " fill="#5094A9" transform="translate(332,357)"/>
<path d="M0 0 C3 0.5625 3 0.5625 5.375 3.0625 C5.91125 3.8875 6.4475 4.7125 7 5.5625 C3.125 4.6875 3.125 4.6875 2 3.5625 C-0.32828629 2.97639629 -0.32828629 2.97639629 -3 3.5625 C-5.69393521 6.34516213 -5.69393521 6.34516213 -8 9.5625 C-8.61875 10.09875 -9.2375 10.635 -9.875 11.1875 C-11.23395966 12.51887083 -11.23395966 12.51887083 -10.8125 14.5 C-9.9873763 16.59454478 -9.06290513 18.57841042 -8 20.5625 C-12.72318339 17.17149654 -12.72318339 17.17149654 -13.859375 14.671875 C-14 12.5625 -14 12.5625 -12.70703125 10.5625 C-12.08183594 9.9025 -11.45664062 9.2425 -10.8125 8.5625 C-10.16023438 7.8715625 -9.50796875 7.180625 -8.8359375 6.46875 C-8.23007812 5.8396875 -7.62421875 5.210625 -7 4.5625 C-6.319375 3.7375 -5.63875 2.9125 -4.9375 2.0625 C-3 0.5625 -3 0.5625 0 0 Z " fill="#203F49" transform="translate(320,106.4375)"/>
<path d="M0 0 C0.33 0.66 0.66 1.32 1 2 C0.690625 2.7425 0.38125 3.485 0.0625 4.25 C-1.23343138 7.60417535 -1.56097621 9.42377664 -1 13 C0.7793823 15.8604605 2.81602042 18.43902395 5 21 C2.69 20.67 0.38 20.34 -2 20 C-2 19.34 -2 18.68 -2 18 C-2.66 18 -3.32 18 -4 18 C-5.125 14.25 -5.125 14.25 -4 12 C-3.93003986 10.29297265 -3.91559846 8.58331997 -3.9375 6.875 C-3.94652344 5.96492188 -3.95554687 5.05484375 -3.96484375 4.1171875 C-3.97644531 3.41851562 -3.98804688 2.71984375 -4 2 C-2.68 1.34 -1.36 0.68 0 0 Z " fill="#479BB3" transform="translate(424,360)"/>
<path d="M0 0 C0 0.99 0 1.98 0 3 C-1.89153589 4.89153589 -5.20397656 4.42440863 -7.7734375 4.62109375 C-10.27920078 4.89200825 -10.27920078 4.89200825 -13 7 C-14.46078606 10.09407834 -14.46078606 10.09407834 -15.6875 13.625 C-16.12449219 14.81351563 -16.56148438 16.00203125 -17.01171875 17.2265625 C-17.33785156 18.14179688 -17.66398437 19.05703125 -18 20 C-18.66 19.67 -19.32 19.34 -20 19 C-19.27149469 16.77077374 -18.53438541 14.54527086 -17.78125 12.32421875 C-17.20172386 10.6001285 -16.6545891 8.86507848 -16.125 7.125 C-14.53942068 4.13001685 -13.12805922 3.29202446 -10 2 C-7.96484375 1.890625 -7.96484375 1.890625 -5.8125 1.9375 C-3.9253125 1.9684375 -3.9253125 1.9684375 -2 2 C-1.34 1.34 -0.68 0.68 0 0 Z " fill="#1E404A" transform="translate(423,166)"/>
<path d="M0 0 C2.1875 0.4375 2.1875 0.4375 4.375 3.3125 C5.2721875 4.859375 5.2721875 4.859375 6.1875 6.4375 C8.06302269 8.76395936 8.06302269 8.76395936 11.125 8.5625 C12.135625 8.52125 13.14625 8.48 14.1875 8.4375 C15.1775 8.4375 16.1675 8.4375 17.1875 8.4375 C14.88838389 10.64818857 13.663557 11.41586105 10.4375 11.5625 C7.05119942 10.39031903 5.8352909 9.31369787 3.3125 6.875 C0.49816232 4.23858022 -1.15315284 2.94476644 -5.0625 2.9375 C-8.99731602 3.43997878 -8.99731602 3.43997878 -12.8125 4.4375 C-12.4825 3.4475 -12.1525 2.4575 -11.8125 1.4375 C-9.58738453 1.16602622 -7.36295732 0.91080286 -5.1328125 0.68359375 C-3.41639493 0.50154946 -1.70553293 0.26530512 0 0 Z " fill="#5496AA" transform="translate(401.8125,392.5625)"/>
<path d="M0 0 C0.33 0.66 0.66 1.32 1 2 C-2.82046001 6.98199181 -6.20171761 10.45689369 -12 13 C-16.20355066 13.36237506 -19.90876493 12.99181456 -24 12 C-24 11.67 -24 11.34 -24 11 C-23.21496094 10.90203125 -22.42992187 10.8040625 -21.62109375 10.703125 C-15.11906567 9.77768297 -10.47652392 8.61217535 -5 5 C-4.01 4.67 -3.02 4.34 -2 4 C-0.79117904 1.99983534 -0.79117904 1.99983534 0 0 Z " fill="#203F4C" transform="translate(380,174)"/>
<path d="M0 0 C2.43855048 2.43855048 2.48512077 3.6891267 3.03515625 7.05078125 C3.20466797 8.05947266 3.37417969 9.06816406 3.54882812 10.10742188 C3.71833984 11.16509766 3.88785156 12.22277344 4.0625 13.3125 C4.40716012 15.39199209 4.75219927 17.47142139 5.09765625 19.55078125 C5.24726807 20.47544189 5.39687988 21.40010254 5.55102539 22.3527832 C5.98532475 24.91347271 6.47739664 27.4560117 7 30 C3.61130503 27.38146298 2.77093807 24.04181122 2 20 C1.69019734 17.3804028 1.44347453 14.76711974 1.24609375 12.13671875 C1.11767362 9.95039833 1.11767362 9.95039833 0 8 C-0.13415472 5.3276379 -0.04318541 2.67749512 0 0 Z " fill="#58A8C5" transform="translate(203,180)"/>
<path d="M0 0 C3.36389668 0.24917753 4.14041544 1.15841742 6.4375 3.75 C6.85644531 4.28625 7.27539062 4.8225 7.70703125 5.375 C10.42963542 8.79676234 13.37050703 11.58033802 17 14 C17 14.66 17 15.32 17 16 C17.66 16 18.32 16 19 16 C19 16.66 19 17.32 19 18 C19.99 17.67 20.98 17.34 22 17 C22.33 18.32 22.66 19.64 23 21 C20 21 20 21 17.82348633 19.17993164 C17.00130615 18.34840576 16.17912598 17.51687988 15.33203125 16.66015625 C14.43935547 15.76232422 13.54667969 14.86449219 12.62695312 13.93945312 C12.16554932 13.46773682 11.70414551 12.99602051 11.22875977 12.51000977 C9.81452734 11.06457207 8.38985265 9.63012723 6.96289062 8.19726562 C0 1.15358729 0 1.15358729 0 0 Z " fill="#63B7D6" transform="translate(24,121)"/>
<path d="M0 0 C10.76734025 0.6346603 21.35549183 2.32119997 32 4 C31.67 4.99 31.34 5.98 31 7 C30.01 7.33 29.02 7.66 28 8 C28 7.34 28 6.68 28 6 C25.02124032 5.51818638 22.04203251 5.03949143 19.0625 4.5625 C18.23169922 4.42779297 17.40089844 4.29308594 16.54492188 4.15429688 C11.04049925 3.27615941 5.54431818 2.57625103 0 2 C0 1.34 0 0.68 0 0 Z " fill="#63AFD2" transform="translate(187,85)"/>
<path d="M0 0 C0.66 0 1.32 0 2 0 C2.66 4.62 3.32 9.24 4 14 C-0.35010863 12.54996379 -3.99108518 11.09990776 -8 9 C-7.67 8.34 -7.34 7.68 -7 7 C-4.03 7.495 -4.03 7.495 -1 8 C-1 8.66 -1 9.32 -1 10 C-0.34 10 0.32 10 1 10 C0.67 6.7 0.34 3.4 0 0 Z " fill="#5CB6D5" transform="translate(214,242)"/>
<path d="M0 0 C0.33 0.66 0.66 1.32 1 2 C-6.40855665 6.52745128 -12.09938571 9.78012286 -21 8 C-21 7.67 -21 7.34 -21 7 C-19.7625 6.773125 -18.525 6.54625 -17.25 6.3125 C-11.19074171 4.98854723 -5.65108692 2.50521958 0 0 Z " fill="#4C98AE" transform="translate(339,261)"/>
<path d="M0 0 C1.32 0 2.64 0 4 0 C4 0.66 4 1.32 4 2 C4.928125 1.95875 5.85625 1.9175 6.8125 1.875 C10 2 10 2 13 4 C13 4.66 13 5.32 13 6 C14.65 6 16.3 6 18 6 C18.66 7.32 19.32 8.64 20 10 C12.755702 7.86233829 6.53281715 4.77315981 0 1 C0 0.67 0 0.34 0 0 Z " fill="#62B6DB" transform="translate(140,215)"/>
<path d="M0 0 C1 3 1 3 0 6 C-0.99 6.495 -0.99 6.495 -2 7 C-2.41986946 9.28836222 -2.41986946 9.28836222 -2 12 C0.35412766 14.60414714 0.35412766 14.60414714 3 17 C3.70915757 18.31122758 4.38551966 19.64182617 5 21 C0.86378916 17.6189962 -2.81316569 14.33409466 -6 10 C-4.6302836 6.00499382 -2.74277578 3.19990508 0 0 Z " fill="#1F3F49" transform="translate(312,189)"/>
<path d="M0 0 C0.90492188 0.02320313 1.80984375 0.04640625 2.7421875 0.0703125 C3.65226562 0.08835937 4.56234375 0.10640625 5.5 0.125 C6.19867188 0.14820313 6.89734375 0.17140625 7.6171875 0.1953125 C7.6171875 0.5253125 7.6171875 0.8553125 7.6171875 1.1953125 C6.74707031 1.30746094 6.74707031 1.30746094 5.859375 1.421875 C0.3250103 2.35340173 -2.29014715 3.6736251 -5.9765625 7.8515625 C-8.26217619 10.03559336 -10.30614576 10.26368287 -13.3828125 10.1953125 C-15.2578125 8.7578125 -15.2578125 8.7578125 -16.3828125 7.1953125 C-15.3309375 7.2984375 -14.2790625 7.4015625 -13.1953125 7.5078125 C-9.25844557 7.55652533 -9.25844557 7.55652533 -6.5703125 4.8203125 C-5.8484375 3.9540625 -5.1265625 3.0878125 -4.3828125 2.1953125 C-2.3828125 0.1953125 -2.3828125 0.1953125 0 0 Z " fill="#5797AA" transform="translate(316.3828125,393.8046875)"/>
<path d="M0 0 C1.75 0.0625 1.75 0.0625 4 1 C7.7323583 6.59853745 10.40461219 12.1215928 10 19 C9.34 19 8.68 19 8 19 C7.82984375 18.443125 7.6596875 17.88625 7.484375 17.3125 C5.77201559 11.92038952 3.65628317 6.98950487 1 2 C0.67 1.34 0.34 0.68 0 0 Z " fill="#1D404A" transform="translate(305,170)"/>
<path d="M0 0 C0.33 0 0.66 0 1 0 C1.14285714 7.42857143 1.14285714 7.42857143 0 11 C1.98 10.34 3.96 9.68 6 9 C6 8.34 6 7.68 6 7 C7.98 7 9.96 7 12 7 C8.54077371 9.95051654 5.2161296 12.25855517 1 14 C0.01 13.67 -0.98 13.34 -2 13 C-1.34 8.71 -0.68 4.42 0 0 Z " fill="#65B4D3" transform="translate(52,242)"/>
<path d="M0 0 C6.00500571 3.16930857 9.57166578 7.65934953 12 14 C11.0703125 16.18359375 11.0703125 16.18359375 10 18 C9.78085937 17.34773438 9.56171875 16.69546875 9.3359375 16.0234375 C7.11136107 9.89228781 4.80478332 6.36798484 0 2 C0 1.34 0 0.68 0 0 Z " fill="#1D3D46" transform="translate(374,136)"/>
<path d="M0 0 C3.96 0.33 7.92 0.66 12 1 C10.77446495 7.12767526 9.72441958 7.48181521 5 11 C5 10.01 5 9.02 5 8 C5.66 7.67 6.32 7.34 7 7 C7 5.68 7 4.36 7 3 C4.69 2.34 2.38 1.68 0 1 C0 0.67 0 0.34 0 0 Z " fill="#60B5D6" transform="translate(256,95)"/>
<path d="M0 0 C4.54074179 1.42358391 7.03973147 3.72132073 10.3125 7.125 C11.19550781 8.03507812 12.07851563 8.94515625 12.98828125 9.8828125 C13.65214844 10.58148438 14.31601562 11.28015625 15 12 C14.01 12.33 13.02 12.66 12 13 C9.8125 11.75 9.8125 11.75 8 10 C8 9.01 8 8.02 8 7 C6.68 6.34 5.36 5.68 4 5 C4 4.34 4 3.68 4 3 C2.68 2.67 1.36 2.34 0 2 C0 1.34 0 0.68 0 0 Z " fill="#4A97A9" transform="translate(413,259)"/>
<path d="M0 0 C2.97 0 5.94 0 9 0 C9.33 0.99 9.66 1.98 10 3 C10.66 2.34 11.32 1.68 12 1 C12.66 1 13.32 1 14 1 C14 2.98 14 4.96 14 7 C9.0276578 5.50829734 4.58154261 3.39542583 0 1 C0 0.67 0 0.34 0 0 Z " fill="#5DB9DB" transform="translate(191,242)"/>
<path d="M0 0 C0.12375 1.175625 0.12375 1.175625 0.25 2.375 C0.72806339 5.14749104 0.72806339 5.14749104 3.0625 6.3125 C3.701875 6.539375 4.34125 6.76625 5 7 C1.01508155 8.32830615 -0.40048548 7.23204404 -4.1875 5.5625 C-5.27417969 5.08941406 -6.36085938 4.61632812 -7.48046875 4.12890625 C-8.31191406 3.75636719 -9.14335937 3.38382812 -10 3 C-10 2.67 -10 2.34 -10 2 C-3.375 0 -3.375 0 0 0 Z " fill="#4E99B1" transform="translate(334,393)"/>
<path d="M0 0 C1.65 0 3.3 0 5 0 C1.67513619 2.74054368 -1.83057886 4.42376049 -5.75 6.1875 C-6.92046875 6.71730469 -8.0909375 7.24710938 -9.296875 7.79296875 C-10.18890625 8.19128906 -11.0809375 8.58960938 -12 9 C-12 7.35 -12 5.7 -12 4 C-10.7625 3.855625 -9.525 3.71125 -8.25 3.5625 C-5.43495501 3.21311498 -2.7298503 2.79620634 0 2 C0 1.34 0 0.68 0 0 Z " fill="#5EB6D5" transform="translate(92,232)"/>
<path d="M0 0 C1.98 0.495 1.98 0.495 4 1 C4.66 3.31 5.32 5.62 6 8 C8.31 8.33 10.62 8.66 13 9 C13 9.33 13 9.66 13 10 C10.03 10 7.06 10 4 10 C4 8.35 4 6.7 4 5 C2.68 4.67 1.36 4.34 0 4 C0 2.68 0 1.36 0 0 Z " fill="#59B5DE" transform="translate(169,75)"/>
<path d="M0 0 C0.66 0 1.32 0 2 0 C1.97679687 0.89460938 1.95359375 1.78921875 1.9296875 2.7109375 C1.81956526 10.08912758 2.15340734 16.84445343 4 24 C3.01 23.67 2.02 23.34 1 23 C0.13190561 17.79826905 -0.12515348 12.83021184 -0.0625 7.5625 C-0.05798828 6.83095703 -0.05347656 6.09941406 -0.04882812 5.34570312 C-0.03718148 3.56376581 -0.01925191 1.78187137 0 0 Z " fill="#4F94AC" transform="translate(321,323)"/>
<path d="M0 0 C0.88336837 2.4667645 1.1312406 3.63859372 0.22265625 6.140625 C-0.16019531 6.83671875 -0.54304688 7.5328125 -0.9375 8.25 C-1.31777344 8.95640625 -1.69804688 9.6628125 -2.08984375 10.390625 C-2.39019531 10.92171875 -2.69054687 11.4528125 -3 12 C-2.34 12.33 -1.68 12.66 -1 13 C-1.33 13.66 -1.66 14.32 -2 15 C-4.5625 15.625 -4.5625 15.625 -7 16 C-5.35433477 10.31497465 -2.70967216 5.23318364 0 0 Z " fill="#5AB4D3" transform="translate(127,11)"/>
<path d="M0 0 C0.66 0.66 1.32 1.32 2 2 C1.52433594 3.05767578 1.52433594 3.05767578 1.0390625 4.13671875 C-0.04538286 7.12505879 -0.3964359 9.65069658 -0.625 12.8125 C-0.69976562 13.78832031 -0.77453125 14.76414063 -0.8515625 15.76953125 C-0.90054687 16.50558594 -0.94953125 17.24164063 -1 18 C-1.99 17.67 -2.98 17.34 -4 17 C-3.67373505 10.67721029 -3.38495108 5.44535609 0 0 Z " fill="#1A3B46" transform="translate(334,144)"/>
<path d="M0 0 C1.875 0.25 1.875 0.25 4 1 C6.01604834 4.12092892 6.3282849 6.8997745 6.5625 10.5625 C6.76883806 13.66599292 7.01136396 16.03409187 8 19 C7.01 18.67 6.02 18.34 5 18 C5 14.04 5 10.08 5 6 C4.34 6 3.68 6 3 6 C3 5.01 3 4.02 3 3 C2.01 2.67 1.02 2.34 0 2 C0 1.34 0 0.68 0 0 Z " fill="#4E93A8" transform="translate(368,241)"/>
<path d="M0 0 C1.485 0.99 1.485 0.99 3 2 C5.57956414 2.2926572 8.1285287 2.37713309 10.72265625 2.4609375 C13 3 13 3 14.30859375 5.0390625 C14.53675781 5.68617188 14.76492188 6.33328125 15 7 C14.34 7 13.68 7 13 7 C13 6.34 13 5.68 13 5 C11.6696875 5.309375 11.6696875 5.309375 10.3125 5.625 C6.70012839 6.03394773 5.15832329 5.70720178 2 4 C0.1875 2.375 0.1875 2.375 -1 1 C-0.67 0.67 -0.34 0.34 0 0 Z " fill="#1E3F4A" transform="translate(409,145)"/>
<path d="M0 0 C0.66 0 1.32 0 2 0 C1.4375 2.8125 1.4375 2.8125 0 6 C-3.31191008 7.90128171 -5.58557971 9.18133593 -9.4375 8.6875 C-9.953125 8.460625 -10.46875 8.23375 -11 8 C-10.113125 7.608125 -9.22625 7.21625 -8.3125 6.8125 C-4.87900897 4.93379736 -2.70999302 2.7852706 0 0 Z " fill="#4996AC" transform="translate(409,260)"/>
<path d="M0 0 C0 0.99 0 1.98 0 3 C-0.4846875 3.44214844 -0.969375 3.88429687 -1.46875 4.33984375 C-4.10323377 7.19610804 -3.47492542 10.77578503 -3.59375 14.50390625 C-3.79484375 15.73947266 -3.79484375 15.73947266 -4 17 C-4.99 17.66 -5.98 18.32 -7 19 C-6.74503693 16.39337756 -6.47179707 13.79094478 -6.1875 11.1875 C-6.11724609 10.44951172 -6.04699219 9.71152344 -5.97460938 8.95117188 C-5.35754497 3.49632253 -5.35754497 3.49632253 -3.55078125 0.98828125 C-2 0 -2 0 0 0 Z " fill="#5194A7" transform="translate(349,241)"/>
<path d="M0 0 C1.32 0 2.64 0 4 0 C4 2 4 2 2.6796875 3.5078125 C-2.24092409 7.91719172 -2.24092409 7.91719172 -6.4375 8.375 C-7.283125 8.25125 -8.12875 8.1275 -9 8 C-8 6 -8 6 -5.625 5.125 C-2.87791047 4.21031032 -2.87791047 4.21031032 -1.4375 1.875 C-0.963125 1.25625 -0.48875 0.6375 0 0 Z " fill="#1D3F47" transform="translate(326,203)"/>
<path d="M0 0 C1.32 0.33 2.64 0.66 4 1 C3.01 2.485 3.01 2.485 2 4 C1.62910732 6.8364861 1.49545768 9.64800911 1.34375 12.50390625 C1 15 1 15 -1 17 C-0.98839844 16.16855469 -0.97679687 15.33710938 -0.96484375 14.48046875 C-0.95582031 13.39378906 -0.94679688 12.30710937 -0.9375 11.1875 C-0.92589844 10.10855469 -0.91429687 9.02960938 -0.90234375 7.91796875 C-0.86375234 4.93487831 -0.86375234 4.93487831 -2 2 C-1.34 2 -0.68 2 0 2 C0 1.34 0 0.68 0 0 Z " fill="#4C9AAE" transform="translate(373,402)"/>
<path d="M0 0 C0.28875 0.598125 0.5775 1.19625 0.875 1.8125 C2.04742026 4.19327792 2.04742026 4.19327792 4 7 C6.06215275 7.507299 6.06215275 7.507299 8.375 7.5625 C11.76428852 7.74953432 14.03670973 8.31538978 17 10 C5.26582698 10.55485582 5.26582698 10.55485582 1 7 C0 6 0 6 -0.0625 2.9375 C-0.041875 1.968125 -0.02125 0.99875 0 0 Z " fill="#5599A8" transform="translate(268,337)"/>
<path d="M0 0 C0 3 0 3 -1.4375 4.75 C-3.51478758 7.74129412 -3.65603142 10.42272676 -4 14 C-6 13 -6 13 -6.8125 11.25 C-7.08287339 8.00551935 -5.88594923 6.60130928 -4 4 C-2.70420353 2.63015802 -1.38007251 1.2848951 0 0 Z " fill="#5194A7" transform="translate(293,376)"/>
<path d="M0 0 C0.33 0 0.66 0 1 0 C1.02725341 1.7290774 1.04650987 3.45828176 1.0625 5.1875 C1.07410156 6.15042969 1.08570312 7.11335937 1.09765625 8.10546875 C1.00486622 10.85576513 0.62111685 13.32479591 0 16 C-0.66 16 -1.32 16 -2 16 C-1.85833643 14.08302063 -1.71150416 12.16642277 -1.5625 10.25 C-1.48128906 9.18265625 -1.40007813 8.1153125 -1.31640625 7.015625 C-1.05909227 4.56320038 -0.68187782 2.36078709 0 0 Z " fill="#61B4D6" transform="translate(64,173)"/>
<path d="M0 0 C0.33 0 0.66 0 1 0 C1.06058594 0.66386719 1.12117188 1.32773437 1.18359375 2.01171875 C1.79863507 8.54908081 1.79863507 8.54908081 3 15 C1.02 15.99 1.02 15.99 -1 17 C-0.67 11.39 -0.34 5.78 0 0 Z " fill="#4E97A8" transform="translate(395,326)"/>
<path d="M0 0 C0.33 0.66 0.66 1.32 1 2 C0.5359375 3.051875 0.5359375 3.051875 0.0625 4.125 C-1.34430688 7.93165392 -1.13712735 10.95474319 -1 15 C-3.24606427 13.22555028 -3.95081002 12.41647515 -4.29296875 9.51953125 C-4.25816406 8.62621094 -4.22335937 7.73289062 -4.1875 6.8125 C-4.16042969 5.91144531 -4.13335937 5.01039063 -4.10546875 4.08203125 C-4.07066406 3.39496094 -4.03585937 2.70789063 -4 2 C-2.68 1.34 -1.36 0.68 0 0 Z " fill="#4E96AA" transform="translate(424,360)"/>
<path d="M0 0 C1.32 0 2.64 0 4 0 C8.59225513 9.41002278 8.59225513 9.41002278 8 14 C6.03884366 11.0582655 4.53770992 8.10902671 3 4.9375 C1.92596291 2.76836495 1.92596291 2.76836495 0 0 Z " fill="#4F99AC" transform="translate(285,347)"/>
<path d="M0 0 C0.495 0.70125 0.99 1.4025 1.5 2.125 C4.61075437 5.70236753 8.14380244 8.27632648 12 11 C11.34 11.66 10.68 12.32 10 13 C8.70756532 11.8758824 7.41607925 10.75067408 6.125 9.625 C5.40570313 8.99851563 4.68640625 8.37203125 3.9453125 7.7265625 C2.5923402 6.52573166 1.2791655 5.2791655 0 4 C0 2.68 0 1.36 0 0 Z " fill="#1E3843" transform="translate(335,171)"/>
<path d="M0 0 C0 3 0 3 -1 6 C-1 6.99 -1 7.98 -1 9 C-2.65 8.67 -4.3 8.34 -6 8 C-5.65120368 4.74456771 -4.97866739 3.98126893 -2.4375 1.75 C-1.633125 1.1725 -0.82875 0.595 0 0 Z " fill="#4999B0" transform="translate(383,358)"/>
<path d="M0 0 C1.4589426 0.47730838 2.91713496 0.95691042 4.375 1.4375 C5.18710937 1.70433594 5.99921875 1.97117187 6.8359375 2.24609375 C9 3 9 3 11 4 C10.67 4.66 10.34 5.32 10 6 C7.03 5.505 7.03 5.505 4 5 C4 4.34 4 3.68 4 3 C2.68 2.67 1.36 2.34 0 2 C0 1.34 0 0.68 0 0 Z " fill="#4699AA" transform="translate(384,264)"/>
<path d="M0 0 C1.32 0.33 2.64 0.66 4 1 C3.67 2.32 3.34 3.64 3 5 C-0.68754757 4.50168276 -2.60490662 3.89932357 -5 1 C-3.35 1 -1.7 1 0 1 C0 0.67 0 0.34 0 0 Z " fill="#55B1D2" transform="translate(173,228)"/>
<path d="M0 0 C0.99 0.33 1.98 0.66 3 1 C0.36 3.64 -2.28 6.28 -5 9 C-5.66 8.67 -6.32 8.34 -7 8 C-7 7.34 -7 6.68 -7 6 C-6.38125 5.731875 -5.7625 5.46375 -5.125 5.1875 C-2.7004767 4.04443152 -2.7004767 4.04443152 -1 1 C-0.67 0.67 -0.34 0.34 0 0 Z " fill="#5FB0D1" transform="translate(212,150)"/>
<path d="M0 0 C0.66 0.33 1.32 0.66 2 1 C-0.31 3.31 -2.62 5.62 -5 8 C-5.66 7.67 -6.32 7.34 -7 7 C-6.67 5.68 -6.34 4.36 -6 3 C-6 3.66 -6 4.32 -6 5 C-5.34 5 -4.68 5 -4 5 C-4.33 4.01 -4.66 3.02 -5 2 C-2.625 0.9375 -2.625 0.9375 0 0 Z " fill="#62BBDE" transform="translate(229,135)"/>
<path d="M0 0 C4.24822374 0.47202486 6.19989709 2.96655518 9 6 C8.34 6.66 7.68 7.32 7 8 C6.67 6.68 6.34 5.36 6 4 C3.69 3.34 1.38 2.68 -1 2 C-0.67 1.34 -0.34 0.68 0 0 Z " fill="#1D3F4B" transform="translate(340,206)"/>
<path d="M0 0 C0.33 0 0.66 0 1 0 C1.33 3.63 1.66 7.26 2 11 C0 10 0 10 -1.25 7.75 C-2.16384649 4.39922952 -1.55829701 3.03002196 0 0 Z " fill="#59BAD7" transform="translate(210,213)"/>
<path d="M0 0 C3.59905908 0.55550695 4.99909799 1.74887248 7.25 4.5625 C8.03117188 5.52349609 8.03117188 5.52349609 8.828125 6.50390625 C9.21484375 6.99761719 9.6015625 7.49132812 10 8 C9.67 8.66 9.34 9.32 9 10 C7.49702124 8.52386015 5.99768715 7.04400843 4.5 5.5625 C3.6646875 4.73878906 2.829375 3.91507812 1.96875 3.06640625 C0 1 0 1 0 0 Z " fill="#64B7D0" transform="translate(6,104)"/>
<path d="M0 0 C1.45947705 0.06006078 2.91779272 0.1488689 4.375 0.25 C5.59316406 0.31960937 5.59316406 0.31960937 6.8359375 0.390625 C9 1 9 1 10.2890625 3.046875 C10.64097656 4.01367188 10.64097656 4.01367188 11 5 C9.53932801 4.54917531 8.08151968 4.08906463 6.625 3.625 C5.81289062 3.36976563 5.00078125 3.11453125 4.1640625 2.8515625 C2 2 2 2 0 0 Z " fill="#5FADCC" transform="translate(149,220)"/>
<path d="M0 0 C0.66 0 1.32 0 2 0 C1.55090939 1.48199902 1.09043436 2.96055236 0.625 4.4375 C0.36976563 5.26121094 0.11453125 6.08492188 -0.1484375 6.93359375 C-1 9 -1 9 -3 10 C-2.49287967 6.28111761 -1.88391785 3.26545761 0 0 Z " fill="#4C95A8" transform="translate(325,312)"/>
<path d="M0 0 C2.26185454 2.26185454 3.03921617 3.96983561 4 7 C3.67 7.99 3.34 8.98 3 10 C1.12213895 7.06073923 -0.50118334 4.49171665 -1 1 C-0.67 0.67 -0.34 0.34 0 0 Z " fill="#1E3F4B" transform="translate(405,135)"/>
<path d="M0 0 C0.66 0.66 1.32 1.32 2 2 C0.02 4.31 -1.96 6.62 -4 9 C-4.33 7.68 -4.66 6.36 -5 5 C-2.5625 2.25 -2.5625 2.25 0 0 Z " fill="#203F4C" transform="translate(341,136)"/>
<path d="M0 0 C1.32 0.66 2.64 1.32 4 2 C1.03 4.475 1.03 4.475 -2 7 C-1.125 2.25 -1.125 2.25 0 0 Z " fill="#5DBADC" transform="translate(246,115)"/>
<path d="M0 0 C2.475 0.99 2.475 0.99 5 2 C3.35 3.98 1.7 5.96 0 8 C-0.33 7.01 -0.66 6.02 -1 5 C-0.34 4.67 0.32 4.34 1 4 C0.67 2.68 0.34 1.36 0 0 Z " fill="#509CB5" transform="translate(424,280)"/>
<path d="M0 0 C2.97 0 5.94 0 9 0 C8.67 0.99 8.34 1.98 8 3 C7.01 3.33 6.02 3.66 5 4 C5 3.34 5 2.68 5 2 C3.35 1.67 1.7 1.34 0 1 C0 0.67 0 0.34 0 0 Z " fill="#5AB5DB" transform="translate(210,89)"/>
<path d="M0 0 C1 3 1 3 -0.25 6.125 C-2 9 -2 9 -5 10 C-4.38545304 6.00544473 -2.29353263 3.25533664 0 0 Z " fill="#5294A9" transform="translate(391,348)"/>
<path d="M0 0 C1.65 1.65 3.3 3.3 5 5 C4.01 5.495 4.01 5.495 3 6 C1.02 4.68 -0.96 3.36 -3 2 C-2.01 1.34 -1.02 0.68 0 0 Z " fill="#5FB4CC" transform="translate(186,236)"/>
<path d="M0 0 C0.66 0.66 1.32 1.32 2 2 C1.34 2.66 0.68 3.32 0 4 C-0.24253813 6.21072977 -0.24253813 6.21072977 -0.125 8.625 C-0.10695312 9.44226563 -0.08890625 10.25953125 -0.0703125 11.1015625 C-0.04710937 11.72804687 -0.02390625 12.35453125 0 13 C-0.33 13 -0.66 13 -1 13 C-1.22245393 11.39773045 -1.42746669 9.79303233 -1.625 8.1875 C-1.74101562 7.29417969 -1.85703125 6.40085938 -1.9765625 5.48046875 C-2 3 -2 3 0 0 Z " fill="#498FAA" transform="translate(203,159)"/>
<path d="M0 0 C3.36720387 1.39332574 4.9859524 2.9789286 7 6 C6.01 6 5.02 6 4 6 C0 1.54285714 0 1.54285714 0 0 Z " fill="#21404B" transform="translate(403,189)"/>
<path d="M0 0 C2.43929746 1.92576115 4.80090595 3.80090595 7 6 C6.01 6.495 6.01 6.495 5 7 C2.4375 5.75 2.4375 5.75 0 4 C-0.33 3.01 -0.66 2.02 -1 1 C-0.67 0.67 -0.34 0.34 0 0 Z " fill="#20404E" transform="translate(369,104)"/>
<path d="M0 0 C-1.485 1.485 -1.485 1.485 -3 3 C-4.98 2.34 -6.96 1.68 -9 1 C-5.64919071 -1.10976881 -3.77897651 -1.0497157 0 0 Z " fill="#54B7DB" transform="translate(187,85)"/>
<path d="M0 0 C0.33 0 0.66 0 1 0 C1.23053497 2.84326464 1.35903101 4.46145349 -0.25 6.875 C-2 8 -2 8 -4.1875 7.6875 C-4.785625 7.460625 -5.38375 7.23375 -6 7 C-5.01 6.67 -4.02 6.34 -3 6 C-1.29144978 2.99992729 -1.29144978 2.99992729 0 0 Z " fill="#67B5CF" transform="translate(95,76)"/>
<path d="M0 0 C0.99 0.66 1.98 1.32 3 2 C2.34 2.66 1.68 3.32 1 4 C0.01 4 -0.98 4 -2 4 C-2 4.66 -2 5.32 -2 6 C-2.66 5.67 -3.32 5.34 -4 5 C-2.25 1.125 -2.25 1.125 0 0 Z " fill="#46C5E5" transform="translate(121,26)"/>
<path d="M0 0 C2.15377564 2.62198774 3.40072174 4.64404172 4 8 C2.68 7.67 1.36 7.34 0 7 C0 4.69 0 2.38 0 0 Z " fill="#5BB5D5" transform="translate(141,14)"/>
<path d="M0 0 C1.98 0 3.96 0 6 0 C6 0.33 6 0.66 6 1 C4.02 1 2.04 1 0 1 C0 0.67 0 0.34 0 0 Z " fill="#000000" transform="translate(262,307)"/>
<path d="M0 0 C1.98 0 3.96 0 6 0 C6 0.33 6 0.66 6 1 C4.02 1 2.04 1 0 1 C0 0.67 0 0.34 0 0 Z " fill="#1C2A2A" transform="translate(211,209)"/>
<path d="M0 0 C0.33 0 0.66 0 1 0 C1 1.65 1 3.3 1 5 C0.67 5 0.34 5 0 5 C0 3.35 0 1.7 0 0 Z " fill="#000000" transform="translate(282,287)"/>
<path d="M0 0 C0.33 0 0.66 0 1 0 C1 1.65 1 3.3 1 5 C0.67 5 0.34 5 0 5 C0 3.35 0 1.7 0 0 Z " fill="#000000" transform="translate(149,287)"/>
<path d="M0 0 C1 4 1 4 1 4 Z " fill="#000000" transform="translate(157,274)"/>
<path d="M0 0 C3 1 3 1 3 1 Z " fill="#000000" transform="translate(249,299)"/>
<path d="M0 0 C3 1 3 1 3 1 Z " fill="#000000" transform="translate(180,299)"/>
<path d="" fill="#000000" transform="translate(0,0)"/>
<path d="" fill="#000000" transform="translate(0,0)"/>
<path d="" fill="#000000" transform="translate(0,0)"/>
<path d="" fill="#000000" transform="translate(0,0)"/>
<path d="" fill="#000000" transform="translate(0,0)"/>
<path d="" fill="#000000" transform="translate(0,0)"/>
<path d="" fill="#000000" transform="translate(0,0)"/>
<path d="M0 0 C2 1 2 1 2 1 Z " fill="#000000" transform="translate(293,255)"/>
<path d="" fill="#000000" transform="translate(0,0)"/>
<path d="" fill="#000000" transform="translate(0,0)"/>
<path d="M0 0 C2 1 2 1 2 1 Z " fill="#000000" transform="translate(250,182)"/>
<path d="" fill="#000000" transform="translate(0,0)"/>
<path d="" fill="#000000" transform="translate(0,0)"/>
<path d="" fill="#000000" transform="translate(0,0)"/>
<path d="" fill="#000000" transform="translate(0,0)"/>
<path d="" fill="#000000" transform="translate(0,0)"/>
<path d="" fill="#000000" transform="translate(0,0)"/>
<path d="" fill="#000000" transform="translate(0,0)"/>
<path d="" fill="#000000" transform="translate(0,0)"/>
<path d="" fill="#000000" transform="translate(0,0)"/>
<path d="" fill="#000000" transform="translate(0,0)"/>
<path d="" fill="#000000" transform="translate(0,0)"/>
<path d="" fill="#000000" transform="translate(0,0)"/>
<path d="" fill="#000000" transform="translate(0,0)"/>
<path d="" fill="#000000" transform="translate(0,0)"/>
<path d="" fill="#000000" transform="translate(0,0)"/>
<path d="" fill="#000000" transform="translate(0,0)"/>
<path d="" fill="#000000" transform="translate(0,0)"/>
<path d="" fill="#000000" transform="translate(0,0)"/>
<path d="" fill="#000000" transform="translate(0,0)"/>
<path d="" fill="#000000" transform="translate(0,0)"/>
<path d="" fill="#000000" transform="translate(0,0)"/>
<path d="" fill="#000000" transform="translate(0,0)"/>
<path d="" fill="#000000" transform="translate(0,0)"/>
<path d="" fill="#000000" transform="translate(0,0)"/>
<path d="" fill="#000000" transform="translate(0,0)"/>
<path d="" fill="#000000" transform="translate(0,0)"/>
<path d="" fill="#000000" transform="translate(0,0)"/>
<path d="" fill="#000000" transform="translate(0,0)"/>
<path d="" fill="#000000" transform="translate(0,0)"/>
<path d="" fill="#000000" transform="translate(0,0)"/>
<path d="" fill="#000000" transform="translate(0,0)"/>
<path d="" fill="#000000" transform="translate(0,0)"/>
<path d="" fill="#000000" transform="translate(0,0)"/>
<path d="" fill="#000000" transform="translate(0,0)"/>
<path d="" fill="#000000" transform="translate(0,0)"/>
<path d="" fill="#000000" transform="translate(0,0)"/>
<path d="" fill="#000000" transform="translate(0,0)"/>
<path d="" fill="#000000" transform="translate(0,0)"/>
<path d="" fill="#000000" transform="translate(0,0)"/>
<path d="" fill="#000000" transform="translate(0,0)"/>
<path d="" fill="#000000" transform="translate(0,0)"/>
<path d="" fill="#000000" transform="translate(0,0)"/>
<path d="" fill="#000000" transform="translate(0,0)"/>
<path d="" fill="#000000" transform="translate(0,0)"/>
<path d="" fill="#000000" transform="translate(0,0)"/>
<path d="" fill="#000000" transform="translate(0,0)"/>
<path d="" fill="#000000" transform="translate(0,0)"/>
<path d="" fill="#000000" transform="translate(0,0)"/>
<path d="" fill="#000000" transform="translate(0,0)"/>
<path d="" fill="#000000" transform="translate(0,0)"/>
<path d="" fill="#000000" transform="translate(0,0)"/>
<path d="" fill="#000000" transform="translate(0,0)"/>
<path d="" fill="#000000" transform="translate(0,0)"/>
<path d="" fill="#000000" transform="translate(0,0)"/>
<path d="" fill="#000000" transform="translate(0,0)"/>
<path d="" fill="#000000" transform="translate(0,0)"/>
<path d="" fill="#555555" transform="translate(0,0)"/>
<path d="" fill="#000000" transform="translate(0,0)"/>
<path d="" fill="#000000" transform="translate(0,0)"/>
<path d="" fill="#000000" transform="translate(0,0)"/>
<path d="" fill="#000000" transform="translate(0,0)"/>
<path d="" fill="#000000" transform="translate(0,0)"/>
<path d="" fill="#000000" transform="translate(0,0)"/>
<path d="" fill="#000000" transform="translate(0,0)"/>
<path d="" fill="#000000" transform="translate(0,0)"/>
<path d="" fill="#000000" transform="translate(0,0)"/>
<path d="" fill="#000000" transform="translate(0,0)"/>
<path d="" fill="#000000" transform="translate(0,0)"/>
<path d="" fill="#000000" transform="translate(0,0)"/>
<path d="" fill="#000000" transform="translate(0,0)"/>
<path d="" fill="#000000" transform="translate(0,0)"/>
<path d="" fill="#000000" transform="translate(0,0)"/>
<path d="" fill="#000000" transform="translate(0,0)"/>
<path d="" fill="#000000" transform="translate(0,0)"/>
<path d="" fill="#000000" transform="translate(0,0)"/>
<path d="" fill="#000000" transform="translate(0,0)"/>
<path d="" fill="#000000" transform="translate(0,0)"/>
<path d="" fill="#000000" transform="translate(0,0)"/>
<path d="" fill="#000000" transform="translate(0,0)"/>
<path d="" fill="#000000" transform="translate(0,0)"/>
<path d="" fill="#000000" transform="translate(0,0)"/>
<path d="" fill="#000000" transform="translate(0,0)"/>
<path d="" fill="#000000" transform="translate(0,0)"/>
<path d="" fill="#000000" transform="translate(0,0)"/>
<path d="" fill="#000000" transform="translate(0,0)"/>
<path d="" fill="#000000" transform="translate(0,0)"/>
<path d="" fill="#808080" transform="translate(0,0)"/>
</svg>
