<?xml version="1.0" encoding="UTF-8"?>
<svg version="1.1" xmlns="http://www.w3.org/2000/svg" width="370" height="674">
<path d="M0 0 C3.09662739 1.18422691 6.14354085 1.98334599 9.37548828 2.70996094 C14.29356364 3.85384969 17.73967068 5.47400676 22.00048828 8.14746094 C23.69597512 8.86737815 25.39172999 9.58668698 27.09008789 10.29980469 C30.29442107 11.72158677 33.3284033 13.41926348 36.37548828 15.14746094 C37.00326172 15.49035156 37.63103516 15.83324219 38.27783203 16.18652344 C42.88196288 18.79188474 42.88196288 18.79188474 44.00048828 22.14746094 C45.99550406 22.82889801 47.99650718 23.49285862 50.00048828 24.14746094 C53.00048828 26.13574219 53.00048828 26.13574219 56.00048828 28.45996094 C57.04333984 29.26691406 58.08619141 30.07386719 59.16064453 30.90527344 C60.09779297 31.64519531 61.03494141 32.38511719 62.00048828 33.14746094 C62.63857422 33.63988281 63.27666016 34.13230469 63.93408203 34.63964844 C67.45836352 37.44076567 70.1701075 40.66391536 73.00048828 44.14746094 C75.50710918 46.7826265 77.98348667 49.13414417 80.84814453 51.37792969 C84.19806204 54.15627297 86.55891616 57.31996762 89.00048828 60.89746094 C89.43345215 61.5187085 89.86641602 62.13995605 90.3125 62.7800293 C91.55094732 64.56310618 92.77735979 66.3538552 94.00048828 68.14746094 C94.55994141 68.95828125 95.11939453 69.76910156 95.69580078 70.60449219 C98.63053546 74.92641019 101.41788003 79.34369206 104.18798828 83.77246094 C105.16832031 85.33867187 105.16832031 85.33867187 106.16845703 86.93652344 C108.07917788 90.28537747 109.52108885 93.59105157 111.00048828 97.14746094 C111.63273959 98.34224763 112.27621656 99.53126881 112.93798828 100.70996094 C115.33843007 105.41922461 116.61178348 110.39826829 117.97314453 115.48730469 C118.7224887 118.15702136 119.53634914 120.7103405 120.45361328 123.31933594 C131.3240285 155.69849737 131.17592515 197.75623505 118.91943359 229.70239258 C117.72667895 232.87599454 116.86149688 236.05620945 116.00048828 239.33496094 C114.49707537 244.70179541 112.67288848 249.28938636 110.00048828 254.14746094 C108.97456277 256.20743273 107.95409638 258.27012892 106.93798828 260.33496094 C103.26106691 267.77658164 98.79609932 274.3930792 94.00048828 281.14746094 C93.39076172 282.02917969 92.78103516 282.91089844 92.15283203 283.81933594 C86.32923824 292.09433984 79.83333114 300.1887757 71.97705078 306.62402344 C68.92453538 309.05643238 68.92453538 309.05643238 66.57861328 312.11621094 C63.61813361 315.59701734 60.46167836 318.02705351 56.75048828 320.64746094 C56.0837207 321.12594482 55.41695313 321.60442871 54.72998047 322.09741211 C52.82687669 323.4572671 50.91563414 324.8046393 49.00048828 326.14746094 C48.14455078 326.75203125 47.28861328 327.35660156 46.40673828 327.97949219 C40.83427514 331.80551308 35.01321429 335.06656001 29.00048828 338.14746094 C28.34322754 338.48680664 27.6859668 338.82615234 27.00878906 339.17578125 C-8.3254561 357.23816827 -46.19888832 361.2660217 -85.31201172 356.39746094 C-87.21563477 356.1625293 -87.21563477 356.1625293 -89.15771484 355.92285156 C-97.42729986 354.78507524 -105.09231213 352.78808418 -112.99951172 350.14746094 C-114.93619221 349.56141256 -116.87358328 348.97770159 -118.81201172 348.39746094 C-125.9391905 346.00287971 -132.52468078 342.59357539 -139.16748047 339.10839844 C-140.75176871 338.27740716 -142.34372021 337.4610566 -143.93701172 336.64746094 C-157.63224651 329.47376652 -171.34908489 320.40648359 -181.99951172 309.14746094 C-182.82451172 308.32246094 -183.64951172 307.49746094 -184.49951172 306.64746094 C-185.32451172 305.82246094 -186.14951172 304.99746094 -186.99951172 304.14746094 C-187.92763672 303.26058594 -188.85576172 302.37371094 -189.81201172 301.45996094 C-191.99951172 299.14746094 -191.99951172 299.14746094 -191.99951172 297.14746094 C-192.89669922 296.77621094 -192.89669922 296.77621094 -193.81201172 296.39746094 C-196.31578091 294.96673569 -197.4802356 293.57830273 -198.99951172 291.14746094 C-198.99951172 290.48746094 -198.99951172 289.82746094 -198.99951172 289.14746094 C-199.65951172 289.14746094 -200.31951172 289.14746094 -200.99951172 289.14746094 C-202.69091797 286.84667969 -202.69091797 286.84667969 -204.56201172 283.83496094 C-205.18205078 282.84882813 -205.80208984 281.86269531 -206.44091797 280.84667969 C-207.99951172 278.14746094 -207.99951172 278.14746094 -208.99951172 275.14746094 C-209.65951172 275.14746094 -210.31951172 275.14746094 -210.99951172 275.14746094 C-226.73262135 247.67695206 -226.73262135 247.67695206 -230.07763672 234.59667969 C-230.77083081 232.00307638 -231.54595172 229.57687866 -232.44482422 227.05761719 C-234.45050315 221.12873522 -235.51172142 215.04528389 -236.62451172 208.89746094 C-236.84107422 207.75921875 -237.05763672 206.62097656 -237.28076172 205.44824219 C-243.25278339 172.97076632 -239.24478977 140.04238275 -227.99951172 109.14746094 C-227.70302734 108.1896875 -227.40654297 107.23191406 -227.10107422 106.24511719 C-225.72358706 102.37154514 -223.93393762 98.80200985 -222.06201172 95.14746094 C-221.71460938 94.46167969 -221.36720703 93.77589844 -221.00927734 93.06933594 C-220.32934822 91.72740426 -219.64792258 90.38622957 -218.96484375 89.04589844 C-217.62952428 86.41983768 -216.31372751 83.78413212 -214.99951172 81.14746094 C-214.33951172 81.14746094 -213.67951172 81.14746094 -212.99951172 81.14746094 C-212.89638672 80.59058594 -212.79326172 80.03371094 -212.68701172 79.45996094 C-209.13273961 67.50468202 -197.49896577 54.42826735 -187.99951172 46.70996094 C-185.45322229 44.53500538 -183.49300609 42.3594797 -181.41357422 39.75683594 C-178.59516303 36.54914144 -175.26575266 33.88385992 -171.99951172 31.14746094 C-171.19513672 30.44621094 -170.39076172 29.74496094 -169.56201172 29.02246094 C-167.29111777 27.36083122 -165.0999159 26.09156333 -162.62451172 24.77246094 C-159.59153827 23.14354933 -157.0913125 21.47944038 -154.56201172 19.14746094 C-151.30423416 16.23026921 -147.94337621 14.42004124 -143.99560547 12.56933594 C-141.70143255 11.48057591 -139.46434195 10.3510075 -137.22216797 9.16308594 C-130.23911767 5.49391145 -123.76402921 2.42508283 -115.96826172 0.84716797 C-113.16541436 0.18656266 -110.66597347 -0.69343454 -107.99560547 -1.75878906 C-75.88400721 -13.61820148 -31.4966546 -13.07559544 0 0 Z " fill="#010202" transform="translate(240.99951171875,133.8525390625)"/>
<path d="M0 0 C1.5768457 -0.0309375 1.5768457 -0.0309375 3.18554688 -0.0625 C9.83332871 -0.09559412 15.16374375 0.74485996 21.3125 3.25 C22.3025 3.58 23.2925 3.91 24.3125 4.25 C24.34032129 6.16657797 24.35925234 8.0832848 24.375 10 C24.38660156 11.06734375 24.39820313 12.1346875 24.41015625 13.234375 C24.38161373 16.38877304 24.12830871 19.49242368 23.83764648 22.63305664 C23.25670825 29.4639298 23.01032829 36.28542325 22.8125 43.13671875 C22.77225708 44.4530127 22.73201416 45.76930664 22.69055176 47.12548828 C22.58273645 50.66489754 22.47923595 54.20442099 22.37661743 57.74398422 C22.31217449 59.94863597 22.24608994 62.15323243 22.17944336 64.3578186 C21.72008958 79.56018449 21.29373276 94.76148836 21.03125 109.96875 C21.001521 111.64889946 21.001521 111.64889946 20.97119141 113.36299133 C20.88163782 118.5273199 20.80279836 123.69145254 20.7421875 128.85620117 C20.3438703 157.2186297 20.3438703 157.2186297 16.3125 161.25 C13.62256271 161.48351203 11.06638707 161.57397224 8.375 161.5625 C7.33956055 161.58666992 7.33956055 161.58666992 6.28320312 161.61132812 C0.23721475 161.61658094 -5.59532734 160.69812688 -11.54516602 159.72729492 C-12.8657539 159.51512455 -12.8657539 159.51512455 -14.21302032 159.29866791 C-16.37157981 158.95151389 -18.52970906 158.60189398 -20.6875 158.25 C-20.835982 127.94139821 -20.48788727 97.64379647 -19.99780273 67.33935547 C-19.90224771 61.37942565 -19.81937593 55.41944494 -19.74236506 49.45925736 C-19.66633306 43.64493623 -19.57429622 37.83095188 -19.47649574 32.01696014 C-19.4376555 29.56894017 -19.4038045 27.12083567 -19.37508202 24.67267609 C-19.33434176 21.29083646 -19.27532942 17.90979497 -19.21166992 14.52832031 C-19.20375427 13.52504196 -19.19583862 12.52176361 -19.18768311 11.48808289 C-19.15625465 10.11499718 -19.15625465 10.11499718 -19.12419128 8.71417236 C-19.11220798 7.91954212 -19.10022467 7.12491188 -19.08787823 6.30620193 C-18.58869177 3.74255565 -17.70728708 2.85599189 -15.6875 1.25 C-10.75674155 -0.54394713 -5.17157546 0.02490825 0 0 Z " fill="#52BCE3" transform="translate(185.6875,268.75)"/>
<path d="M0 0 C12.30841454 4.82033574 12.30841454 4.82033574 15.42578125 11.2109375 C17.09813743 16.83191242 16.97859771 22.20697781 15.42578125 27.8359375 C11.84915985 33.87148612 6.12136401 38.93443936 -0.57421875 41.2109375 C-7.59259163 42.17400754 -13.61468609 41.10799327 -19.57421875 37.2109375 C-24.62360381 32.64810988 -27.51688728 27.91930597 -28.07421875 21.0859375 C-27.90019512 14.96440034 -25.30189471 9.97449907 -21.57421875 5.2109375 C-18.73621346 3.05272242 -15.86141833 1.56526373 -12.57421875 0.2109375 C-8.54120882 -1.80556747 -4.18343426 -1.28232735 0 0 Z " fill="#52BBE1" transform="translate(194.57421875,206.7890625)"/>
<path d="M0 0 C0.33 0 0.66 0 1 0 C1.10234665 16.07944672 1.10865442 32.12306346 0.42382812 48.19116211 C0.0993218 56.16657174 -0.08885648 64.13643756 -0.21875 72.1171875 C-0.23712418 73.19668167 -0.25549835 74.27617584 -0.27442932 75.38838196 C-0.34853956 79.76829114 -0.42257148 84.14810835 -0.47872925 88.52828979 C-0.90808777 121.90808777 -0.90808777 121.90808777 -5 126 C-7.91109358 126.17419323 -10.71639607 126.23171078 -13.625 126.1875 C-14.79869141 126.1865332 -14.79869141 126.1865332 -15.99609375 126.18554688 C-21.07465983 126.14764713 -25.9729893 125.71896606 -31 125 C-31 124.67 -31 124.34 -31 124 C-30.35450195 124.01047363 -29.70900391 124.02094727 -29.04394531 124.03173828 C-26.11266998 124.07337272 -23.18145696 124.09934975 -20.25 124.125 C-19.23421875 124.14175781 -18.2184375 124.15851563 -17.171875 124.17578125 C-16.1921875 124.18222656 -15.2125 124.18867188 -14.203125 124.1953125 C-13.30239258 124.20578613 -12.40166016 124.21625977 -11.47363281 124.22705078 C-8.86073144 123.98721676 -7.24335334 123.32312064 -5 122 C-5.02320313 121.39414062 -5.04640625 120.78828125 -5.0703125 120.1640625 C-5.08835938 119.32617188 -5.10640625 118.48828125 -5.125 117.625 C-5.14820313 116.81289063 -5.17140625 116.00078125 -5.1953125 115.1640625 C-5.03193524 112.51735095 -4.63800868 110.4591027 -4.01147461 107.91430664 C-2.4240261 100.0984011 -2.66172812 92.14761824 -2.62109375 84.20703125 C-2.60488693 82.48930444 -2.58770369 80.7715866 -2.56959534 79.05387878 C-2.5241765 74.55714075 -2.48923536 70.06039006 -2.45739746 65.5635376 C-2.40527642 58.357244 -2.34005023 51.15108297 -2.26918221 43.94495201 C-2.2465019 41.43961639 -2.23013678 38.93429725 -2.21446228 36.4289093 C-2.20104682 34.88465188 -2.18743127 33.34039619 -2.17358398 31.79614258 C-2.17097061 31.10766235 -2.16835724 30.41918213 -2.16566467 29.70983887 C-2.1199713 25.39468307 -1.67659054 21.25907758 -1 17 C-0.87222639 15.53432577 -0.76331083 14.06672814 -0.68359375 12.59765625 C-0.64169922 11.85322266 -0.59980469 11.10878906 -0.55664062 10.34179688 C-0.51732422 9.58962891 -0.47800781 8.83746094 -0.4375 8.0625 C-0.39431641 7.28326172 -0.35113281 6.50402344 -0.30664062 5.70117188 C-0.20171923 3.80092883 -0.1004755 1.90048331 0 0 Z " fill="#57A8C7" transform="translate(207,304)"/>
<path d="M0 0 C0.33 0 0.66 0 1 0 C1.10134037 15.92135235 1.12222225 31.83466524 0.625 47.75 C0.59414307 48.92594727 0.56328613 50.10189453 0.53149414 51.31347656 C0.4927417 52.40112305 0.45398926 53.48876953 0.4140625 54.609375 C0.3826416 55.55780273 0.3512207 56.50623047 0.31884766 57.48339844 C-0.00873338 60.06893086 -0.69121415 61.76555158 -2 64 C-2.02481649 58.43156251 -2.04291507 52.86315759 -2.05493164 47.29467773 C-2.05994403 45.40241942 -2.06675567 43.51016495 -2.07543945 41.61791992 C-2.08764098 38.88980152 -2.09325938 36.16173457 -2.09765625 33.43359375 C-2.10281754 32.59477158 -2.10797882 31.7559494 -2.11329651 30.89170837 C-2.11374314 26.15940323 -1.75550138 21.68525761 -1 17 C-0.87222639 15.53432577 -0.76331083 14.06672814 -0.68359375 12.59765625 C-0.64169922 11.85322266 -0.59980469 11.10878906 -0.55664062 10.34179688 C-0.51732422 9.58962891 -0.47800781 8.83746094 -0.4375 8.0625 C-0.39431641 7.28326172 -0.35113281 6.50402344 -0.30664062 5.70117188 C-0.20171923 3.80092883 -0.1004755 1.90048331 0 0 Z " fill="#54A4C2" transform="translate(207,304)"/>
<path d="M0 0 C1.05960938 -0.01224609 2.11921875 -0.02449219 3.2109375 -0.03710938 C9.2559222 -0.04835935 14.4628944 0.41921773 20.25 2.1875 C20.25 2.5175 20.25 2.8475 20.25 3.1875 C9.36 2.8575 -1.53 2.5275 -12.75 2.1875 C-12.75 2.8475 -12.75 3.5075 -12.75 4.1875 C-14.4 4.1875 -16.05 4.1875 -17.75 4.1875 C-15.75 1.1875 -15.75 1.1875 -13.95996094 0.51049805 C-9.33598493 -0.16532169 -4.66359583 0.00279592 0 0 Z " fill="#4D98B3" transform="translate(185.75,268.8125)"/>
<path d="M0 0 C1.00160156 0.2165625 2.00320312 0.433125 3.03515625 0.65625 C4.37752737 0.93786632 5.71997971 1.21909566 7.0625 1.5 C7.71927734 1.64308594 8.37605469 1.78617188 9.05273438 1.93359375 C13.43139988 2.83952455 17.50418704 3.14031146 22 3 C17.71920359 5.85386427 14.02736992 5.62119801 9 5 C5.8424744 3.9320134 2.92924808 2.58490717 0 1 C0 0.67 0 0.34 0 0 Z " fill="#4992AC" transform="translate(175,243)"/>
<path d="M0 0 C0.33 0 0.66 0 1 0 C1.37711099 6.15947951 1.00477144 10.54689627 -2 16 C-2.99 16.66 -3.98 17.32 -5 18 C-4.25 13.25 -4.25 13.25 -2 11 C-1.31822002 8.34280163 -1.31822002 8.34280163 -0.875 5.375 C-0.62363281 3.87066406 -0.62363281 3.87066406 -0.3671875 2.3359375 C-0.24601563 1.56507813 -0.12484375 0.79421875 0 0 Z " fill="#55A3BE" transform="translate(210,222)"/>
<path d="M0 0 C0.66 0.33 1.32 0.66 2 1 C2.05447047 2.41623216 2.09300508 3.83308191 2.125 5.25 C2.14820313 6.03890625 2.17140625 6.8278125 2.1953125 7.640625 C1.9828378 10.20731941 1.28654105 11.7916067 0 14 C-0.66 14 -1.32 14 -2 14 C-1.34 9.38 -0.68 4.76 0 0 Z " fill="#071E2A" transform="translate(211,223)"/>
<path d="M0 0 C0.33 0 0.66 0 1 0 C1.16682272 4.92127034 1.24828052 8.50343896 -1 13 C-2.65 13 -4.3 13 -6 13 C-5.36578125 12.61199219 -4.7315625 12.22398437 -4.078125 11.82421875 C-1.49048758 9.55274003 -1.27301005 8.16848119 -0.75 4.8125 C-0.60046875 3.91144531 -0.4509375 3.01039063 -0.296875 2.08203125 C-0.19890625 1.39496094 -0.1009375 0.70789063 0 0 Z " fill="#5FB2CE" transform="translate(204,416)"/>
<path d="M0 0 C3.93673644 1.31224548 6.22719294 2.91910327 9 6 C8.01 6.33 7.02 6.66 6 7 C5.34 6.01 4.68 5.02 4 4 C1.94996045 2.80767387 1.94996045 2.80767387 0 2 C0 1.34 0 0.68 0 0 Z " fill="#58A7C2" transform="translate(199,209)"/>
<path d="M0 0 C0.66 1.32 1.32 2.64 2 4 C-2.75 8 -2.75 8 -5 8 C-3.62845496 5.04590299 -2.01136276 2.55991624 0 0 Z " fill="#5C5C5C" transform="translate(42,192)"/>
<path d="M0 0 C0.66 0.33 1.32 0.66 2 1 C2 1.66 2 2.32 2 3 C-0.375 4.6875 -0.375 4.6875 -3 6 C-3.66 5.67 -4.32 5.34 -5 5 C-3.35 3.35 -1.7 1.7 0 0 Z " fill="#51A1B8" transform="translate(176,210)"/>
</svg>
