<?xml version="1.0" encoding="UTF-8"?>
<svg version="1.1" xmlns="http://www.w3.org/2000/svg" width="348" height="640">
<path d="M0 0 C1.05290702 -0.00521549 2.10581404 -0.01043099 3.19062734 -0.01580453 C4.91633556 -0.00911236 4.91633556 -0.00911236 6.67690659 -0.002285 C7.90397788 -0.00540498 9.13104917 -0.00852497 10.39530444 -0.01173949 C13.79858386 -0.01833851 17.20164267 -0.01596071 20.6049087 -0.00976706 C24.27647331 -0.00524476 27.94801855 -0.01222535 31.61957932 -0.0177269 C38.81222538 -0.02662598 46.00482973 -0.02469629 53.19747743 -0.01890162 C59.04492033 -0.01438576 64.89235154 -0.0137719 70.73979568 -0.01594925 C71.57190346 -0.01625572 72.40401124 -0.01656218 73.2613344 -0.01687793 C74.95177216 -0.01751739 76.64220991 -0.01816581 78.33264765 -0.01882312 C94.19012069 -0.02452828 110.04757063 -0.01796633 125.90503988 -0.00722238 C139.50460518 0.00170671 153.10413633 0.00016674 166.70370102 -0.00905991 C182.49804234 -0.01977059 198.29236338 -0.02397201 214.08670783 -0.01783538 C215.77216704 -0.01719829 217.45762626 -0.01656955 219.14308548 -0.01594925 C219.97234132 -0.0156407 220.80159717 -0.01533215 221.65598197 -0.01501425 C227.49277799 -0.01328921 233.32956111 -0.01619842 239.16635513 -0.02090836 C246.28499742 -0.02652634 253.40359561 -0.02498172 260.52223286 -0.01434687 C264.15268494 -0.00910149 267.7830636 -0.00701393 271.41351509 -0.01364517 C275.35348566 -0.02073268 279.2933368 -0.01225217 283.23330307 -0.002285 C284.37485234 -0.00674645 285.5164016 -0.01120789 286.69254327 -0.01580453 C293.01193631 0.01519103 298.59429715 0.63413183 304.70907211 2.25168228 C304.70907211 2.91168228 304.70907211 3.57168228 304.70907211 4.25168228 C305.90249663 5.29407789 307.14043416 6.28577953 308.39657211 7.25168228 C313.99218098 11.98413872 317.1891388 18.10640147 318.70907211 25.25168228 C318.7969497 26.67202546 318.8364389 28.09585781 318.83787328 29.51891619 C318.84114547 30.37080303 318.84441767 31.22268988 318.84778902 32.10039148 C318.8463054 33.03330291 318.84482177 33.96621434 318.84329319 34.92739582 C318.84564542 35.92485611 318.84799765 36.9223164 318.85042116 37.95000276 C318.8571205 41.31913317 318.85665265 44.68822509 318.85624313 48.0573616 C318.85954117 50.48660702 318.86326661 52.91585189 318.86738461 55.34509605 C318.87636576 61.338547 318.88063334 67.33198546 318.88290358 73.32544138 C318.8858646 80.50263801 318.89456144 87.67982482 318.90331786 94.8570163 C318.92416755 112.20586672 318.93463294 129.55471885 318.94344747 146.90357887 C318.94765329 155.11006861 318.95287537 163.31655761 318.958132 171.52304673 C318.97602278 199.61190166 318.99101897 227.70075681 318.99845219 255.78961658 C318.99892694 257.55323575 318.99940283 259.31685491 318.99987985 261.08047407 C319.00011622 261.95507527 319.0003526 262.82967647 319.00059614 263.73078073 C319.00179734 268.16198295 319.00301279 272.59318515 319.00423813 277.02438736 C319.00447828 277.90377465 319.00471843 278.78316195 319.00496586 279.68919734 C319.01285896 308.20166505 319.03629071 336.71409117 319.06879407 365.22654072 C319.10309139 395.36767752 319.12280324 425.50878999 319.12609643 455.64994663 C319.12651397 458.95876532 319.12699353 462.26758399 319.12751961 465.57640266 C319.1276428 466.39113379 319.12776599 467.20586492 319.12789292 468.04528487 C319.13022508 481.15728093 319.14588596 494.26922867 319.16636145 507.38120751 C319.18661673 520.5612857 319.19209817 533.74130587 319.18259082 546.92139674 C319.17737467 554.75096992 319.18325862 562.58034993 319.20512549 570.40989532 C319.22022267 576.2576224 319.21439374 582.10520745 319.20045497 587.95294153 C319.19806951 590.31774287 319.2024508 592.68256275 319.21428362 595.04733569 C319.22938016 598.2635808 319.21974462 601.47885926 319.20405674 604.69508076 C319.21427895 605.61160403 319.22450115 606.5281273 319.23503312 607.472424 C319.13998464 616.41051844 316.54719261 624.87200081 310.77157211 631.81418228 C310.12317368 632.61984634 309.47477524 633.42551041 308.80672836 634.25558853 C306.4768972 636.47261595 304.75200445 637.26760431 301.70907211 638.25168228 C300.91432889 638.59364954 300.11958567 638.9356168 299.30075932 639.2879467 C294.07150495 640.69108072 289.0127615 640.53365995 283.62098312 640.51910782 C282.39305741 640.52363893 281.16513169 640.52817004 279.8999961 640.53283846 C276.49898382 640.54330031 273.09818321 640.54480976 269.6971699 640.54244971 C266.02629691 640.54204118 262.35545533 640.5530842 258.68459702 640.56256485 C251.49543845 640.57916773 244.30631269 640.58467407 237.11713656 640.58578961 C231.27257673 640.58674041 225.42802771 640.59085229 219.5834713 640.59719086 C203.00790962 640.61480122 186.43237383 640.62403003 169.85680272 640.62252991 C168.96347399 640.62245 168.07014525 640.62237008 167.14974594 640.62228775 C166.2553247 640.62220599 165.36090345 640.62212423 164.43937854 640.62203999 C149.94460984 640.62122712 135.44994506 640.6403656 120.95520642 640.66856448 C106.06705222 640.69729987 91.17894869 640.71110442 76.29076606 640.70937693 C67.93420733 640.70871326 59.57775756 640.71419543 51.22122383 640.73573303 C44.10623358 640.75395345 36.99140166 640.75828514 29.87639817 640.74471419 C26.24787818 640.73818885 22.61966189 640.73805124 18.99117088 640.75542068 C15.05334439 640.77407665 11.11596018 640.76158543 7.17811203 640.7461586 C6.03724488 640.75644573 4.89637774 640.76673285 3.72093886 640.77733171 C-6.05736354 640.69270291 -13.29998335 637.98057103 -20.49795914 631.31418228 C-27.46162623 623.30368942 -28.44144004 614.66131002 -28.42514896 604.50535965 C-28.42750119 603.51240983 -28.42985342 602.51946001 -28.43227693 601.4964208 C-28.43896657 598.14863574 -28.43850872 594.80088949 -28.43809891 591.4530983 C-28.44139755 589.03678961 -28.44512312 586.62048147 -28.44924039 584.20417404 C-28.4582158 578.24653736 -28.46248802 572.28891324 -28.46475935 566.33127157 C-28.46772207 559.19603853 -28.47641991 552.06081534 -28.48517363 544.92558747 C-28.50601649 527.67867704 -28.51648769 510.43176491 -28.52530324 493.18484483 C-28.52951008 485.02529522 -28.53473203 476.86574635 -28.53998777 468.70619737 C-28.55787806 440.77369835 -28.57287385 412.84119911 -28.58030796 384.90869522 C-28.58078272 383.15511755 -28.58125861 381.40153988 -28.58173562 379.64796221 C-28.581972 378.77834776 -28.58220837 377.9087333 -28.58245191 377.01276689 C-28.58365311 372.60689103 -28.58486856 368.20101517 -28.5860939 363.79513931 C-28.58633405 362.92078095 -28.5865742 362.04642259 -28.58682163 361.14556852 C-28.59471387 332.79926872 -28.61814411 304.45301078 -28.65064985 276.10672925 C-28.68495591 246.1357599 -28.70465983 216.16481503 -28.7079522 186.19382572 C-28.70836974 182.90296109 -28.7088493 179.61209646 -28.70937538 176.32123184 C-28.70949857 175.51093151 -28.70962176 174.70063118 -28.70974869 173.86577629 C-28.71207977 160.83140619 -28.72773458 147.79708472 -28.74821723 134.76273195 C-28.76848387 121.65779502 -28.77394856 108.55291645 -28.76444659 95.44796675 C-28.75923487 87.66546597 -28.76509348 79.88315965 -28.78698127 72.10068689 C-28.80210067 66.28448949 -28.79623431 60.4684346 -28.78231075 54.65223014 C-28.77992894 52.30290077 -28.78428778 49.95355266 -28.7961394 47.60425198 C-28.90827221 23.90509074 -28.90827221 23.90509074 -24.29092789 14.25168228 C-23.63092789 13.59168228 -22.97092789 12.93168228 -22.29092789 12.25168228 C-23.61092789 11.59168228 -24.93092789 10.93168228 -26.29092789 10.25168228 C-23.23564597 6.72635699 -20.75298226 5.50105751 -16.29092789 4.25168228 C-12.05954015 2.87205372 -12.05954015 2.87205372 -7.93801713 1.20491242 C-5.10182819 0.18358653 -3.004267 0.00107482 0 0 Z M86.70907211 19.25168228 C86.54240545 22.75168228 86.54240545 22.75168228 86.70907211 26.25168228 C88.30655711 27.84916728 89.97498845 27.37767928 92.18844223 27.37866592 C93.63977806 27.38289566 93.63977806 27.38289566 95.12043381 27.38721085 C96.19060242 27.38518661 97.26077103 27.38316238 98.36336899 27.38107681 C100.04366951 27.38370529 100.04366951 27.38370529 101.7579155 27.38638687 C105.48123321 27.39080805 109.20450387 27.38786646 112.92782211 27.38449478 C115.50232579 27.38516774 118.0768294 27.3861377 120.65133286 27.38739395 C126.05518886 27.38887129 131.45902701 27.38680982 136.86288071 27.38205338 C143.11868683 27.37661079 149.37446038 27.37837346 155.63026571 27.38387978 C161.63758261 27.38895662 167.64488351 27.38842936 173.65220261 27.38549805 C176.21359385 27.38482851 178.77498591 27.38565812 181.33637619 27.3879776 C184.90919864 27.39050256 188.48195755 27.38666574 192.05477524 27.38107681 C193.12494385 27.38310104 194.19511246 27.38512527 195.29771042 27.38721085 C196.26526764 27.38439102 197.23282486 27.3815712 198.229702 27.37866592 C199.4984454 27.37810039 199.4984454 27.37810039 200.79281998 27.37752342 C202.71794885 27.4625558 202.71794885 27.4625558 203.70907211 26.25168228 C203.87573878 22.75168228 203.87573878 22.75168228 203.70907211 19.25168228 C202.11158711 17.65419728 200.44315578 18.12568528 198.229702 18.12469864 C196.77836617 18.1204689 196.77836617 18.1204689 195.29771042 18.11615372 C193.6924575 18.11919006 193.6924575 18.11919006 192.05477524 18.12228775 C190.37447472 18.11965927 190.37447472 18.11965927 188.66022873 18.11697769 C184.93691102 18.11255651 181.21364035 18.11549811 177.49032211 18.11886978 C174.91581844 18.11819682 172.34131483 18.11722686 169.76681137 18.11597061 C164.36295536 18.11449328 158.95911722 18.11655475 153.55526352 18.12131119 C147.29945739 18.12675378 141.04368385 18.12499111 134.78787851 18.11948478 C128.78056161 18.11440794 122.77326071 18.1149352 116.76594162 18.11786652 C114.20455038 18.11853605 111.64315831 18.11770645 109.08176804 18.11538696 C105.50894558 18.11286201 101.93618668 18.11669882 98.36336899 18.12228775 C97.29320038 18.12026352 96.22303177 18.11823929 95.12043381 18.11615372 C94.15287659 18.11897354 93.18531937 18.12179337 92.18844223 18.12469864 C90.91969883 18.12526418 90.91969883 18.12526418 89.62532425 18.12584114 C87.70019538 18.04080877 87.70019538 18.04080877 86.70907211 19.25168228 Z M-16.29092789 45.25168228 C-17.12799578 166.40841831 -17.12799578 166.40841831 -17.42525339 287.56449533 C-17.42336904 292.72493102 -17.42384672 297.88536529 -17.42474365 303.04580116 C-17.42489689 303.93821277 -17.42505012 304.83062438 -17.42520799 305.75007876 C-17.42552805 307.56875371 -17.42585227 309.38742865 -17.42618059 311.20610359 C-17.42892259 327.60011649 -17.42592635 343.99412347 -17.42038022 360.3881354 C-17.4158205 374.30123128 -17.41678311 388.21431892 -17.42129898 402.1274147 C-17.42667982 418.71089934 -17.42874955 435.29437916 -17.42568672 451.87786454 C-17.42536842 453.64675438 -17.42505404 455.41564423 -17.42474365 457.18453407 C-17.42458938 458.05285984 -17.4244351 458.92118561 -17.42427615 459.81582427 C-17.42342889 465.80099405 -17.42483191 471.7861606 -17.42722321 477.77132988 C-17.43005698 485.01281929 -17.42920461 492.2542979 -17.42394246 499.49578611 C-17.42136845 503.15279637 -17.42019022 506.80978877 -17.42359161 510.46679878 C-17.42404826 511.15395725 -17.42450491 511.84111573 -17.4249754 512.54909718 C-17.42633631 514.3800626 -17.42838669 516.21102748 -17.43050385 518.04199219 C-17.37813685 536.4875656 -16.81863839 554.78181454 -16.29092789 573.25168228 C90.29907211 573.25168228 196.88907211 573.25168228 306.70907211 573.25168228 C307.54381386 510.10708979 307.54381386 510.10708979 307.83979678 446.96468675 C307.83739814 442.13438654 307.84108838 437.30408878 307.8437767 432.47378922 C307.84808485 423.16385751 307.84732923 413.85393411 307.84436406 404.54400215 C307.84205428 396.96290052 307.84182073 389.38180113 307.84288788 381.80069923 C307.84304111 380.69947251 307.84319434 379.59824579 307.84335222 378.46364855 C307.84367209 376.22334014 307.84399631 373.98303172 307.84432481 371.74272331 C307.847134 351.04732471 307.84396284 330.35193064 307.83852445 309.65653279 C307.83403322 292.01922037 307.83486021 274.38191451 307.83944321 256.7446022 C307.8448239 236.02904408 307.84688779 215.31348982 307.84383094 194.59793109 C307.84351252 192.3814832 307.84319815 190.16503531 307.84288788 187.94858742 C307.8427336 186.85923522 307.84257933 185.76988303 307.84242038 184.64752016 C307.84156769 177.08111799 307.84299013 169.51471835 307.84536743 161.94831657 C307.84820375 152.72333343 307.84734677 143.49835876 307.84208669 134.27337656 C307.83950464 129.59554905 307.83834827 124.91773555 307.84173584 120.23990822 C307.84219249 119.35792822 307.84264914 118.47594822 307.84311962 117.56724155 C307.84404297 115.971917 307.84544876 114.37659257 307.84759045 112.78126919 C307.85806075 90.24554575 307.27261812 67.79352259 306.70907211 45.25168228 C200.11907211 45.25168228 93.52907211 45.25168228 -16.29092789 45.25168228 Z M126.70907211 589.25168228 C123.40248935 594.83241268 123.24830172 599.86655285 123.33407211 606.25168228 C123.32247055 607.11535416 123.31086899 607.97902603 123.29891586 608.86886978 C123.32744277 615.1257715 124.1891106 620.10173039 128.20907211 625.12668228 C132.85216224 628.60899988 139.58759145 627.47692336 145.08407211 627.50168228 C146.22102524 627.52230728 147.35797836 627.54293228 148.52938461 627.56418228 C149.62766586 627.56933853 150.72594711 627.57449478 151.85750961 627.57980728 C153.36063705 627.59382584 153.36063705 627.59382584 154.89413071 627.60812759 C159.03694785 627.08353843 161.68540318 625.38503002 164.45907211 622.31418228 C167.34790118 617.54761432 166.89243434 612.33897809 166.89657211 606.93918228 C166.91494125 605.6949147 166.91494125 605.6949147 166.93368149 604.42551041 C166.94578758 599.31270389 166.51566139 595.05486675 164.70907211 590.25168228 C158.6036203 584.45150306 153.53514769 585.00716272 145.45907211 584.93918228 C144.32598618 584.91017838 143.19290024 584.88117447 142.02547836 584.85129166 C133.57652071 584.71779343 133.57652071 584.71779343 126.70907211 589.25168228 Z " fill="#020202" transform="translate(28.29092788696289,-0.2516822814941406)"/>
<path d="M0 0 C22.30614224 19.41460528 36.61164438 48.20062576 39.24902344 77.59326172 C41.3031507 108.40517072 33.13601705 139.07784726 12.76074219 162.73388672 C12.01566406 163.58337891 11.27058594 164.43287109 10.50292969 165.30810547 C9.84035156 166.12666016 9.17777344 166.94521484 8.49511719 167.78857422 C-9.22088065 188.9736743 -37.09065419 201.89354834 -64.2097168 205.10742188 C-98.5634898 208.1214897 -128.68111924 198.53188512 -155.43457031 176.93701172 C-178.96532754 156.58156974 -192.86395595 127.0798109 -195.49707031 96.30810547 C-197.38957948 61.73341873 -184.50120631 31.10952125 -161.82519531 5.41357422 C-118.98492268 -39.86562483 -46.12878662 -39.30574468 0 0 Z M-37.98530579 45.17424011 C-38.74704353 45.96294243 -38.74704353 45.96294243 -39.52416992 46.76757812 C-40.08114563 47.3238237 -40.63812134 47.88006927 -41.2119751 48.45317078 C-43.03657049 50.28122915 -44.84284581 52.12630724 -46.64941406 53.97216797 C-47.91626672 55.24835327 -49.18423323 56.52343375 -50.45326233 57.79745483 C-53.78029115 61.14351754 -57.0920267 64.50432402 -60.40075684 67.86846924 C-63.78374507 71.30272718 -67.18104232 74.72276543 -70.57714844 78.14404297 C-77.2311708 84.85158933 -83.86911683 91.57480532 -90.49707031 98.30810547 C-95.3179305 96.57334838 -98.22194386 93.92913671 -101.71582031 90.27685547 C-102.29618042 89.6851355 -102.87654053 89.09341553 -103.4744873 88.48376465 C-105.9474757 85.96189179 -108.40226421 83.42256684 -110.85888672 80.88476562 C-112.6591887 79.03015446 -114.46846464 77.18463692 -116.27832031 75.33935547 C-116.82742065 74.76536011 -117.376521 74.19136475 -117.94226074 73.59997559 C-122.08134057 69.38262581 -125.07318412 67.52845876 -130.93457031 66.99560547 C-136.20285046 67.45773531 -139.26538543 68.94326547 -142.80957031 72.87060547 C-145.17251962 76.28375447 -145.74476726 78.30345125 -145.93457031 82.43310547 C-145.99515625 83.34318359 -146.05574219 84.25326172 -146.11816406 85.19091797 C-144.52575222 93.18302266 -136.58733732 99.52529023 -131.02832031 105.07763672 C-130.22978638 105.88045578 -129.43125244 106.68327484 -128.60852051 107.51042175 C-126.93019246 109.19445973 -125.24928251 110.87592814 -123.56591797 112.55493164 C-120.99590523 115.12176911 -118.43954978 117.7016957 -115.88378906 120.28271484 C-114.2452769 121.92349883 -112.60598066 123.56350028 -110.96582031 125.20263672 C-110.20628052 125.97138626 -109.44674072 126.7401358 -108.66418457 127.53218079 C-103.59077712 132.56175544 -99.00768222 136.73356923 -91.49707031 136.74560547 C-90.29050781 136.77460938 -90.29050781 136.77460938 -89.05957031 136.80419922 C-82.72082137 135.57703288 -78.09497697 130.19435682 -73.71313477 125.78295898 C-73.06358826 125.13691711 -72.41404175 124.49087524 -71.74481201 123.82525635 C-69.61161975 121.70082482 -67.48577777 119.56921083 -65.36035156 117.43701172 C-63.87424949 115.95225775 -62.38785071 114.46780072 -60.90116882 112.98362732 C-57.79209665 109.87749861 -54.68665778 106.76779421 -51.58374023 103.65551758 C-47.60927536 99.6696488 -43.62588597 95.69283928 -39.63973713 91.7186594 C-36.5709166 88.65706992 -33.50688052 85.59072788 -30.44426537 82.52293205 C-28.97733486 81.05466902 -27.50892171 79.58788571 -26.03899574 78.12262154 C-23.9853887 76.07410114 -21.93831463 74.01926538 -19.89282227 71.96264648 C-19.28653488 71.36040756 -18.6802475 70.75816864 -18.05558777 70.13768005 C-13.50184493 65.53801188 -10.07453452 61.69185791 -9.99707031 54.93310547 C-10.15184645 50.33934973 -10.82825133 47.23291873 -13.79394531 43.67919922 C-21.48297129 37.4891806 -31.06713925 38.35326884 -37.98530579 45.17424011 Z " fill="#52BDE4" transform="translate(251.4970703125,231.69189453125)"/>
<path d="M0 0 C0.75539062 -0.02449219 1.51078125 -0.04898438 2.2890625 -0.07421875 C6.21139578 -0.09479043 8.1843265 0.10319351 11.6015625 2.2109375 C15.05687307 5.90638549 14.81321799 9.37951856 14.875 14.25 C14.90078125 15.46429687 14.9265625 16.67859375 14.953125 17.9296875 C14.5087614 22.59550533 12.88963367 25.11036633 9.625 28.375 C6.52179739 28.84758908 3.38515166 28.7453622 0.25 28.75 C-1.04550781 28.78673828 -1.04550781 28.78673828 -2.3671875 28.82421875 C-8.71310913 28.85359802 -8.71310913 28.85359802 -11.9140625 26.5390625 C-14.5780516 22.59293961 -14.56596192 19.15416845 -14.625 14.5 C-14.66367188 12.67855469 -14.66367188 12.67855469 -14.703125 10.8203125 C-14.34946831 7.10691722 -13.62641594 5.31025723 -11.375 2.375 C-7.56534402 -0.16477065 -4.41664491 0.00746055 0 0 Z " fill="#010101" transform="translate(173.375,591.625)"/>
<path d="M0 0 C6.18214783 -0.37849885 10.52786145 -0.00431136 16 3 C18.25 5.0625 18.25 5.0625 20 7 C21.485 7.99 21.485 7.99 23 9 C21.22265625 9.6796875 21.22265625 9.6796875 19 10 C17.18359375 8.8203125 17.18359375 8.8203125 15.4375 7.125 C12.2419964 4.06471816 10.21738933 3.09187844 5.6875 2.75 C0.28362098 3.11636468 -2.65322664 4.58234383 -6.375 8.5 C-8.66875995 13.44040604 -8.99886465 17.64730547 -8 23 C-6.45024071 26.14332802 -4.4281526 28.49284026 -2 31 C-1.03126953 32.01320313 -1.03126953 32.01320313 -0.04296875 33.046875 C1.61024502 34.73039207 3.28672565 36.37796511 5 38 C2 38 2 38 0.5 36.72265625 C0.005 36.17480469 -0.49 35.62695312 -1 35.0625 C-3.12231195 32.72464075 -3.88827651 32.03724116 -7 31 C-7.6875 28.9375 -7.6875 28.9375 -8 27 C-8.66 27 -9.32 27 -10 27 C-10.19484938 24.56288386 -10.38115178 22.12562602 -10.5625 19.6875 C-10.64661133 18.65206055 -10.64661133 18.65206055 -10.73242188 17.59570312 C-10.96581505 14.37487726 -11.03224218 12.09672655 -10 9 C-9.34 9 -8.68 9 -8 9 C-7.67 7.02 -7.34 5.04 -7 3 C-4.50935112 2.31292445 -2.62113708 2 0 2 C0 1.34 0 0.68 0 0 Z " fill="#5EB3D1" transform="translate(115,297)"/>
<path d="M0 0 C3.14624993 -0.26218749 4.61837017 -0.24754367 7.3125 1.5 C8.1478125 2.2425 8.1478125 2.2425 9 3 C8.67 4.32 8.34 5.64 8 7 C9.65 7 11.3 7 13 7 C13 7.66 13 8.32 13 9 C5.51747162 7.62820313 -1.05604954 5.07836721 -8 2 C-8 1.67 -8 1.34 -8 1 C-6.35 1 -4.7 1 -3 1 C-3 1.66 -3 2.32 -3 3 C-1.68 3 -0.36 3 1 3 C0.67 2.01 0.34 1.02 0 0 Z " fill="#5ABAE0" transform="translate(131,424)"/>
<path d="M0 0 C0.33 0 0.66 0 1 0 C1 2.97 1 5.94 1 9 C0.34 9 -0.32 9 -1 9 C-0.97679687 10.20398438 -0.95359375 11.40796875 -0.9296875 12.6484375 C-0.91093137 14.22395215 -0.89273101 15.79947348 -0.875 17.375 C-0.84986328 18.56609375 -0.84986328 18.56609375 -0.82421875 19.78125 C-0.80664527 21.85492015 -0.89664832 23.92883241 -1 26 C-1.66 26.66 -2.32 27.32 -3 28 C-3.30059943 30.36509361 -3.49515012 32.74441881 -3.625 35.125 C-3.69976562 36.40632813 -3.77453125 37.68765625 -3.8515625 39.0078125 C-3.90054688 39.99523437 -3.94953125 40.98265625 -4 42 C-4.33 42 -4.66 42 -5 42 C-5.57973357 27.63549046 -3.63452742 13.89021565 0 0 Z " fill="#63B4D3" transform="translate(61,285)"/>
<path d="M0 0 C2.21650746 3.3247612 3.12605143 6.50539601 4.125 10.3125 C4.39763672 11.28993164 4.39763672 11.28993164 4.67578125 12.28710938 C5.73997502 16.28383711 6.19206149 19.87067786 6 24 C5.34 23.67 4.68 23.34 4 23 C3.65625 21.0390625 3.65625 21.0390625 3.5 18.625 C3.27058537 15.10348536 3.04707136 14.07060704 1 11 C1 10.01 1 9.02 1 8 C0.34 8 -0.32 8 -1 8 C-1.125 2.25 -1.125 2.25 0 0 Z " fill="#61B2D4" transform="translate(283,279)"/>
<path d="M0 0 C1.49828872 3.88235819 0.43110582 6.43449288 -0.9375 10.25 C-1.31777344 11.32765625 -1.69804687 12.4053125 -2.08984375 13.515625 C-2.39019531 14.33546875 -2.69054687 15.1553125 -3 16 C-3.66 15.34 -4.32 14.68 -5 14 C-4.67 13.01 -4.34 12.02 -4 11 C-4.66 10.67 -5.32 10.34 -6 10 C-5.01 9.67 -4.02 9.34 -3 9 C-2.67 6.69 -2.34 4.38 -2 2 C-1.34 2 -0.68 2 0 2 C0 1.34 0 0.68 0 0 Z " fill="#56B8DA" transform="translate(287,344)"/>
<path d="M0 0 C0.66 0 1.32 0 2 0 C3.24845512 3.74536535 3.47356526 7.08083924 3 11 C1.625 13 1.625 13 0 14 C-0.66 14 -1.32 14 -2 14 C-1.34 9.38 -0.68 4.76 0 0 Z " fill="#5EB7D6" transform="translate(241,282)"/>
<path d="M0 0 C0 0.66 0 1.32 0 2 C-1.65 2.33 -3.3 2.66 -5 3 C-5.061875 3.61875 -5.12375 4.2375 -5.1875 4.875 C-6 7 -6 7 -8.3125 8.3125 C-11.1397026 9.03573787 -12.2823481 8.80544481 -15 8 C-12.8782637 6.66121428 -10.75294812 5.32884524 -8.625 4 C-8.02171875 3.6184375 -7.4184375 3.236875 -6.796875 2.84375 C-2.2265625 0 -2.2265625 0 0 0 Z " fill="#5BB6D3" transform="translate(122,215)"/>
<path d="M0 0 C0.51046875 0.3609375 1.0209375 0.721875 1.546875 1.09375 C8.07795826 5.26252655 13.3716974 5.58083522 21 5 C20.67 5.66 20.34 6.32 20 7 C17.77144426 7.0814222 15.54202345 7.13938079 13.3125 7.1875 C11.45044922 7.23970703 11.45044922 7.23970703 9.55078125 7.29296875 C5.75420729 6.97972007 3.92232925 6.4126837 1 4 C0.1875 1.8125 0.1875 1.8125 0 0 Z " fill="#61B2CF" transform="translate(146,362)"/>
<path d="M0 0 C5.80342274 1.48805711 10.17590879 4.59097555 15 8 C11.94813661 8.96956854 11.33484121 9.1635271 8.3125 7.6875 C6 6 6 6 5 4 C3.35636866 3.27840576 1.68949614 2.60648579 0 2 C0 1.34 0 0.68 0 0 Z " fill="#5BB4D2" transform="translate(225,215)"/>
<path d="M0 0 C0 0.66 0 1.32 0 2 C-0.56589844 2.19335938 -1.13179687 2.38671875 -1.71484375 2.5859375 C-2.81505859 2.97652344 -2.81505859 2.97652344 -3.9375 3.375 C-5.03384766 3.75785156 -5.03384766 3.75785156 -6.15234375 4.1484375 C-8.18682116 4.85271413 -8.18682116 4.85271413 -9 7 C-11.97 6.505 -11.97 6.505 -15 6 C-10.8310781 2.35219334 -5.55196264 0 0 0 Z " fill="#5DB6D5" transform="translate(137,209)"/>
<path d="M0 0 C1.32 0.33 2.64 0.66 4 1 C4 1.99 4 2.98 4 4 C5.32 4 6.64 4 8 4 C8 3.34 8 2.68 8 2 C8.99 2.33 9.98 2.66 11 3 C10.01 4.32 9.02 5.64 8 7 C4.66272214 5.82744291 2.22562513 4.81131596 0 2 C0 1.34 0 0.68 0 0 Z " fill="#5BB6D7" transform="translate(153,324)"/>
<path d="M0 0 C1.32 0.33 2.64 0.66 4 1 C1.36 3.97 -1.28 6.94 -4 10 C-4.33 9.34 -4.66 8.68 -5 8 C-4.00390625 6.0546875 -4.00390625 6.0546875 -2.5625 3.875 C-2.08941406 3.15054687 -1.61632812 2.42609375 -1.12890625 1.6796875 C-0.75636719 1.12539063 -0.38382812 0.57109375 0 0 Z " fill="#5BB9DD" transform="translate(264,389)"/>
<path d="M0 0 C0.99 0.33 1.98 0.66 3 1 C2.34 2.32 1.68 3.64 1 5 C-1.31 5 -3.62 5 -6 5 C-2.25 1.125 -2.25 1.125 0 0 Z " fill="#D1CDC6" transform="translate(8,5)"/>
<path d="M0 0 C1.65 0 3.3 0 5 0 C5 0.66 5 1.32 5 2 C6.11375 2.144375 7.2275 2.28875 8.375 2.4375 C12 3 12 3 14 4 C14 4.66 14 5.32 14 6 C12.41375765 5.57316761 10.8310902 5.13303842 9.25 4.6875 C8.36828125 4.44386719 7.4865625 4.20023437 6.578125 3.94921875 C3.94227495 2.97874669 2.14592674 1.78994356 0 0 Z " fill="#5DB8D4" transform="translate(123,425)"/>
<path d="M0 0 C0.66 0.33 1.32 0.66 2 1 C0.02 3.31 -1.96 5.62 -4 8 C-5.32 7.67 -6.64 7.34 -8 7 C-5.36 4.69 -2.72 2.38 0 0 Z " fill="#5FB4D5" transform="translate(105,224)"/>
<path d="M0 0 C1.32 0.33 2.64 0.66 4 1 C-0.455 4.465 -0.455 4.465 -5 8 C-5.33 7.34 -5.66 6.68 -6 6 C-4 4 -2 2 0 0 Z " fill="#60B6D6" transform="translate(245,409)"/>
<path d="M0 0 C0.66 1.32 1.32 2.64 2 4 C-0.64 5.65 -3.28 7.3 -6 9 C-4.25618453 5.51236907 -2.47193291 2.96631949 0 0 Z " fill="#60B6D4" transform="translate(87,240)"/>
<path d="M0 0 C2.67927341 4.01891012 2.15601248 6.24161923 2 11 C1.67 10.01 1.34 9.02 1 8 C0.34 8 -0.32 8 -1 8 C-1.125 2.25 -1.125 2.25 0 0 Z " fill="#56B6D8" transform="translate(283,279)"/>
<path d="M0 0 C1.32 0.33 2.64 0.66 4 1 C1.03 3.475 1.03 3.475 -2 6 C-2.33 4.68 -2.66 3.36 -3 2 C-2.01 2 -1.02 2 0 2 C0 1.34 0 0.68 0 0 Z " fill="#5FB7D9" transform="translate(180,307)"/>
<path d="M0 0 C0.99 0.33 1.98 0.66 3 1 C-0.465 3.97 -0.465 3.97 -4 7 C-3.39816251 4.97954558 -2.72693904 2.97888961 -2 1 C-1.34 0.67 -0.68 0.34 0 0 Z " fill="#68B7D2" transform="translate(190,298)"/>
<path d="M0 0 C1.60080151 4.00200378 0.29279692 7.04556236 -1 11 C-1.33 11 -1.66 11 -2 11 C-2 8.03 -2 5.06 -2 2 C-1.34 2 -0.68 2 0 2 C0 1.34 0 0.68 0 0 Z " fill="#63B3DA" transform="translate(287,344)"/>
<path d="M0 0 C1.32 0.33 2.64 0.66 4 1 C0.535 3.97 0.535 3.97 -3 7 C-1.125 1.125 -1.125 1.125 0 0 Z " fill="#67B5CF" transform="translate(172,315)"/>
<path d="M0 0 C5.61 0 11.22 0 17 0 C17 0.33 17 0.66 17 1 C11.39 1 5.78 1 0 1 C0 0.67 0 0.34 0 0 Z " fill="#000000" transform="translate(165,621)"/>
<path d="M0 0 C3.3 0 6.6 0 10 0 C10 0.33 10 0.66 10 1 C6.7 1 3.4 1 0 1 C0 0.67 0 0.34 0 0 Z " fill="#000000" transform="translate(175,586)"/>
<path d="M0 0 C0.33 0 0.66 0 1 0 C1 2.31 1 4.62 1 7 C0.67 7 0.34 7 0 7 C0 4.69 0 2.38 0 0 Z " fill="#000000" transform="translate(230,19)"/>
<path d="M0 0 C4 1 4 1 4 1 Z " fill="#000000" transform="translate(330,571)"/>
<path d="M0 0 C1 4 1 4 1 4 Z " fill="#000000" transform="translate(347,21)"/>
<path d="" fill="#000000" transform="translate(0,0)"/>
<path d="" fill="#000000" transform="translate(0,0)"/>
<path d="M0 0 C3 1 3 1 3 1 Z " fill="#000000" transform="translate(166,586)"/>
<path d="" fill="#000000" transform="translate(0,0)"/>
<path d="M0 0 C2 1 2 1 2 1 Z " fill="#000000" transform="translate(187,624)"/>
<path d="" fill="#000000" transform="translate(0,0)"/>
<path d="" fill="#000000" transform="translate(0,0)"/>
<path d="" fill="#000000" transform="translate(0,0)"/>
<path d="" fill="#000000" transform="translate(0,0)"/>
<path d="" fill="#000000" transform="translate(0,0)"/>
<path d="M0 0 C2 1 2 1 2 1 Z " fill="#000000" transform="translate(162,586)"/>
<path d="" fill="#000000" transform="translate(0,0)"/>
<path d="" fill="#000000" transform="translate(0,0)"/>
<path d="" fill="#000000" transform="translate(0,0)"/>
<path d="" fill="#000000" transform="translate(0,0)"/>
<path d="" fill="#000000" transform="translate(0,0)"/>
<path d="" fill="#000000" transform="translate(0,0)"/>
<path d="" fill="#000000" transform="translate(0,0)"/>
<path d="" fill="#000000" transform="translate(0,0)"/>
<path d="" fill="#000000" transform="translate(0,0)"/>
<path d="" fill="#000000" transform="translate(0,0)"/>
<path d="" fill="#000000" transform="translate(0,0)"/>
<path d="" fill="#000000" transform="translate(0,0)"/>
<path d="" fill="#000000" transform="translate(0,0)"/>
<path d="" fill="#000000" transform="translate(0,0)"/>
<path d="" fill="#000000" transform="translate(0,0)"/>
<path d="" fill="#000000" transform="translate(0,0)"/>
<path d="" fill="#000000" transform="translate(0,0)"/>
<path d="" fill="#000000" transform="translate(0,0)"/>
<path d="" fill="#000000" transform="translate(0,0)"/>
<path d="" fill="#000000" transform="translate(0,0)"/>
<path d="" fill="#000000" transform="translate(0,0)"/>
<path d="" fill="#000000" transform="translate(0,0)"/>
<path d="" fill="#000000" transform="translate(0,0)"/>
<path d="" fill="#000000" transform="translate(0,0)"/>
<path d="" fill="#000000" transform="translate(0,0)"/>
<path d="" fill="#000000" transform="translate(0,0)"/>
<path d="" fill="#000000" transform="translate(0,0)"/>
<path d="" fill="#000000" transform="translate(0,0)"/>
<path d="" fill="#000000" transform="translate(0,0)"/>
<path d="" fill="#000000" transform="translate(0,0)"/>
<path d="" fill="#000000" transform="translate(0,0)"/>
<path d="" fill="#000000" transform="translate(0,0)"/>
<path d="" fill="#000000" transform="translate(0,0)"/>
<path d="" fill="#000000" transform="translate(0,0)"/>
<path d="" fill="#000000" transform="translate(0,0)"/>
<path d="" fill="#000000" transform="translate(0,0)"/>
<path d="" fill="#000000" transform="translate(0,0)"/>
<path d="" fill="#000000" transform="translate(0,0)"/>
<path d="" fill="#000000" transform="translate(0,0)"/>
<path d="" fill="#000000" transform="translate(0,0)"/>
<path d="" fill="#000000" transform="translate(0,0)"/>
<path d="" fill="#000000" transform="translate(0,0)"/>
<path d="" fill="#000000" transform="translate(0,0)"/>
<path d="" fill="#000000" transform="translate(0,0)"/>
<path d="" fill="#000000" transform="translate(0,0)"/>
<path d="" fill="#000000" transform="translate(0,0)"/>
<path d="" fill="#000000" transform="translate(0,0)"/>
<path d="" fill="#000000" transform="translate(0,0)"/>
</svg>
