<?xml version="1.0" encoding="UTF-8"?>
<svg version="1.1" xmlns="http://www.w3.org/2000/svg" width="247" height="216">
<path d="M0 0 C10.72302337 1.32732834 20.48194505 4.21882037 27.4375 12.875 C31.93128941 19.0724051 33.5416598 25.77248809 33.4375 33.3125 C33.42614014 34.51434937 33.42614014 34.51434937 33.41455078 35.74047852 C32.5013081 71.1736281 22.13746699 99.01900342 -0.39453125 125.8515625 C-2.23697396 127.85367512 -2.23697396 127.85367512 -1.9375 130.25 C-1.628125 131.1575 -1.31875 132.065 -1 133 C-0.49802411 134.47849729 0.00178623 135.95773074 0.5 137.4375 C0.88671875 138.51837891 0.88671875 138.51837891 1.28125 139.62109375 C3.37696657 146.55746001 3.18618138 153.55433553 3.18530273 160.73291016 C3.18750909 162.75834572 3.20576102 164.78325287 3.22460938 166.80859375 C3.22654297 168.08347656 3.22847656 169.35835937 3.23046875 170.671875 C3.23457764 171.8381543 3.23868652 173.00443359 3.24291992 174.20605469 C3 177 3 177 1 179 C-1.80594983 179.19563267 -4.51308026 179.26479699 -7.32008362 179.24723816 C-8.19088355 179.24965257 -9.06168349 179.25206699 -9.9588713 179.25455457 C-12.89396114 179.26021683 -15.82883576 179.25150947 -18.76391602 179.24291992 C-20.86108459 179.24399217 -22.95825287 179.24593 -25.05541992 179.24867249 C-30.76389335 179.25353283 -36.47228898 179.24585057 -42.18075299 179.23571944 C-48.14206182 179.22695939 -54.10336806 179.22869598 -60.06468201 179.2290802 C-70.07625639 179.2281427 -80.08780052 179.21944675 -90.09936523 179.20581055 C-101.69189864 179.19007984 -113.28439891 179.18481254 -124.87694222 179.1855461 C-136.00737696 179.18615542 -147.13780086 179.18105904 -158.26823235 179.17275429 C-163.01504539 179.16921401 -167.7618546 179.16738998 -172.5086689 179.16686058 C-178.09244891 179.1658596 -183.67620086 179.15978316 -189.25997162 179.14969444 C-191.31556209 179.14676164 -193.37115579 179.14554564 -195.42674828 179.14612198 C-198.22016252 179.146609 -201.01349686 179.1409934 -203.80690002 179.13371277 C-204.63139493 179.13526137 -205.45588984 179.13680997 -206.30536944 179.1384055 C-211.88582145 179.11417855 -211.88582145 179.11417855 -213 178 C-213.29509233 173.25050759 -213.31449491 168.49776845 -213.35009766 163.73999023 C-213.366462 162.14478773 -213.39348466 160.5496523 -213.43212891 158.95483398 C-213.87308206 140.64377484 -209.01641995 126.85737874 -196.39453125 113.17578125 C-178.95516046 96.34037135 -157.97324016 95.38152403 -135.0859375 95.50390625 C-132.69853674 95.5037509 -130.31113574 95.50225593 -127.92373657 95.49949646 C-122.94643863 95.49812001 -117.96943149 95.51054552 -112.9921875 95.53344727 C-106.64675999 95.56186008 -100.30181362 95.55907567 -93.95635033 95.54635715 C-89.03522711 95.53936804 -84.11421305 95.54722558 -79.19310379 95.55961418 C-76.8545842 95.56409511 -74.51605275 95.56449525 -72.1775322 95.56054878 C-42.38316928 95.53378934 -42.38316928 95.53378934 -29.3125 102.5625 C-27.60513672 103.46162109 -27.60513672 103.46162109 -25.86328125 104.37890625 C-23 106 -23 106 -20 108 C-19.5970874 106.92939331 -19.5970874 106.92939331 -19.18603516 105.8371582 C-17.97876869 102.94921179 -16.57551994 100.32268456 -15.0234375 97.60546875 C-14.43836426 96.57478271 -13.85329102 95.54409668 -13.25048828 94.48217773 C-12.63157715 93.39493408 -12.01266602 92.30769043 -11.375 91.1875 C-5.13097525 80.1274341 -5.13097525 80.1274341 0.875 68.9375 C1.49117187 67.77089844 2.10734375 66.60429688 2.7421875 65.40234375 C4.56204936 60.47967393 4.93724223 56.10879501 2.75 51.1875 C1.14591949 48.92197419 1.14591949 48.92197419 -1.09643555 47.74291992 C-3 46 -3 46 -3.37817383 43.2512207 C-3.32169678 42.15382568 -3.26521973 41.05643066 -3.20703125 39.92578125 C-3.15417969 38.70729492 -3.10132813 37.48880859 -3.046875 36.23339844 C-2.96953125 34.93950195 -2.8921875 33.64560547 -2.8125 32.3125 C-2.74933594 31.00442383 -2.68617188 29.69634766 -2.62109375 28.34863281 C-2.43343152 24.56442388 -2.21895164 20.78250668 -2 17 C-1.9085391 15.18627874 -1.81844697 13.37248728 -1.73046875 11.55859375 C-1.18831217 1.18831217 -1.18831217 1.18831217 0 0 Z " fill="#52BDE4" transform="translate(213,37)"/>
<path d="M0 0 C16.16267372 11.18217574 25.51859275 25.00543835 29.70703125 44.12109375 C30 46.0625 30 46.0625 30.1875 49.75 C30.23777344 50.47832031 30.28804688 51.20664062 30.33984375 51.95703125 C30.99941377 68.2879849 25.06801093 82.18708473 15.1875 94.75 C14.55972656 95.58917969 13.93195313 96.42835937 13.28515625 97.29296875 C6.70455548 105.00097226 -2.40854925 110.25436233 -11.8125 113.75 C-12.61429687 114.06839844 -13.41609375 114.38679688 -14.2421875 114.71484375 C-29.25163504 119.78813053 -46.92689104 117.60394322 -61 111 C-78.11100786 101.90977707 -88.69685921 87.64687804 -94.8125 69.5 C-98.49435803 53.3918711 -96.05371463 36.7502576 -88.0625 22.375 C-84.54463909 17.00325352 -80.29517782 12.32839337 -75.8125 7.75 C-75.29429688 7.19570312 -74.77609375 6.64140625 -74.2421875 6.0703125 C-54.89270596 -12.67133192 -22.16690033 -13.18945942 0 0 Z " fill="#52BDE4" transform="translate(140.8125,8.25)"/>
<path d="M0 0 C10.72302337 1.32732834 20.48194505 4.21882037 27.4375 12.875 C31.93128941 19.0724051 33.5416598 25.77248809 33.4375 33.3125 C33.42992676 34.11373291 33.42235352 34.91496582 33.41455078 35.74047852 C32.54174205 69.60482017 23.12452378 96.95497404 2 123 C1.32179199 123.84485962 1.32179199 123.84485962 0.62988281 124.70678711 C-1.69031517 127.55578878 -4.05160765 130.08857815 -6.875 132.4375 C-9.51924371 134.6779672 -11.94933958 136.96682804 -14.3125 139.5 C-23.01908726 148.30552575 -34.38332603 154.31321265 -46.8125 154.5625 C-58.03676637 154.47015178 -67.5515441 149.73743446 -77 144 C-77 143.34 -77 142.68 -77 142 C-75.13635935 140.54040917 -73.26881927 139.2018106 -71.3125 137.875 C-66.60895399 134.64037689 -62.05804506 131.28588407 -57.60546875 127.7109375 C-56.67887451 126.97504395 -55.75228027 126.23915039 -54.79760742 125.48095703 C-52.94767464 124.00572484 -51.11024525 122.51466153 -49.28637695 121.00732422 C-46.91018157 119.12913653 -44.678971 117.41395849 -42 116 C-38.56640625 116.52734375 -38.56640625 116.52734375 -36 118 C-31.24475755 118.48522882 -28.86712812 117.76079125 -25 115 C-23.18302124 112.64840449 -23.18302124 112.64840449 -21.6875 109.86328125 C-21.09275879 108.82179932 -20.49801758 107.78031738 -19.88525391 106.70727539 C-19.26312012 105.58699951 -18.64098633 104.46672363 -18 103.3125 C-17.3507959 102.16450928 -16.7015918 101.01651855 -16.03271484 99.83374023 C-14.00093492 96.23395825 -11.99731728 92.6189912 -10 89 C-9.514245 88.12130249 -9.514245 88.12130249 -9.01867676 87.22485352 C-5.78736245 81.37577075 -2.58229539 75.51240743 0.5859375 69.62890625 C1.25181885 68.3924939 1.25181885 68.3924939 1.93115234 67.13110352 C4.09903904 62.80869991 4.52228564 58.76585646 4 54 C2.65648659 50.97709483 1.74467951 49.44653019 -1.09643555 47.74291992 C-3 46 -3 46 -3.37817383 43.2512207 C-3.32169678 42.15382568 -3.26521973 41.05643066 -3.20703125 39.92578125 C-3.15417969 38.70729492 -3.10132813 37.48880859 -3.046875 36.23339844 C-2.96953125 34.93950195 -2.8921875 33.64560547 -2.8125 32.3125 C-2.74933594 31.00442383 -2.68617188 29.69634766 -2.62109375 28.34863281 C-2.43343152 24.56442388 -2.21895164 20.78250668 -2 17 C-1.9085391 15.18627874 -1.81844697 13.37248728 -1.73046875 11.55859375 C-1.18831217 1.18831217 -1.18831217 1.18831217 0 0 Z " fill="#010102" transform="translate(213,37)"/>
<path d="M0 0 C-0.21167772 5.92735608 -0.44199763 11.85358075 -0.68969727 17.77954102 C-0.77134011 19.79594082 -0.8478665 21.8125545 -0.91918945 23.8293457 C-1.02254226 26.7267883 -1.14421821 29.62296572 -1.26953125 32.51953125 C-1.29779495 33.42274612 -1.32605865 34.325961 -1.35517883 35.25654602 C-1.39499374 36.09719101 -1.43480865 36.937836 -1.47583008 37.80395508 C-1.50469803 38.54341873 -1.53356598 39.28288239 -1.56330872 40.04475403 C-2.10675463 42.47798426 -3.12277121 43.4163902 -5 45 C-9.07054833 43.14975076 -12.33600074 41.63793447 -15 38 C-15.52917894 34.84429599 -15.42312199 31.75249512 -15.3125 28.5625 C-15.29268066 27.67103271 -15.27286133 26.77956543 -15.25244141 25.86108398 C-15.20688162 24.07116609 -15.15136675 22.28147133 -15.08544922 20.4921875 C-15.01082716 18.3157819 -14.98213774 16.14614678 -14.97265625 13.96875 C-14.74715851 6.10338889 -14.74715851 6.10338889 -12.73828125 3.13671875 C-8.52685872 -0.62916286 -5.21998258 -1.40787912 0 0 Z " fill="#010101" transform="translate(210,38)"/>
<path d="M0 0 C2.50290327 1.14862695 4.66962723 2.50856143 7 4 C5.92375155 7.22874535 5.47788949 7.66265782 2.859375 9.56640625 C2.20686768 10.04722656 1.55436035 10.52804688 0.88208008 11.0234375 C0.17849365 11.53132812 -0.52509277 12.03921875 -1.25 12.5625 C-2.71015926 13.63600659 -4.16978688 14.71023666 -5.62890625 15.78515625 C-6.36254395 16.32285645 -7.09618164 16.86055664 -7.85205078 17.41455078 C-10.99591915 19.73511013 -14.0950825 22.11152156 -17.1875 24.5 C-18.19167969 25.2734375 -19.19585937 26.046875 -20.23046875 26.84375 C-22.09079292 28.29212651 -23.92685838 29.77216162 -25.73828125 31.28125 C-28 33 -28 33 -30 33 C-32.56 23.72 -32.56 23.72 -32 19 C-30.05078125 16.76171875 -30.05078125 16.76171875 -27.3125 14.6875 C-26.31992188 13.92824219 -25.32734375 13.16898438 -24.3046875 12.38671875 C-23.20620989 11.58689181 -22.10452302 10.79145758 -21 10 C-20.41766602 9.58186035 -19.83533203 9.1637207 -19.23535156 8.73291016 C-6.16696717 -0.58178936 -6.16696717 -0.58178936 0 0 Z " fill="#02070A" transform="translate(161,145)"/>
<path d="M0 0 C4.46386617 0.54807824 7.80622955 1.66085728 11.75 3.8125 C12.69359375 4.31394531 13.6371875 4.81539062 14.609375 5.33203125 C17.09648831 7.06732109 17.9548825 8.19884205 19 11 C18.26121661 12.1323975 17.50841355 13.2556547 16.75 14.375 C16.12351562 15.31472656 16.12351562 15.31472656 15.484375 16.2734375 C13.76086551 18.27815117 12.48777478 19.11545786 10 20 C7.78125 19.9765625 7.78125 19.9765625 5.5 19.625 C-0.03577482 18.63590641 -0.03577482 18.63590641 -5.20727539 20.34179688 C-5.99610107 20.96119141 -6.78492676 21.58058594 -7.59765625 22.21875 C-8.47687744 22.90074463 -9.35609863 23.58273926 -10.26196289 24.28540039 C-11.64822876 25.3816272 -11.64822876 25.3816272 -13.0625 26.5 C-14.95798615 27.96789635 -16.85381616 29.43534877 -18.75 30.90234375 C-21.16574532 32.7857844 -23.57989276 34.6712249 -25.9921875 36.55908203 C-27.50683998 37.73825993 -29.03387494 38.90149265 -30.5625 40.0625 C-31.34753906 40.67222656 -32.13257813 41.28195313 -32.94140625 41.91015625 C-35 43 -35 43 -37.27734375 42.68359375 C-37.84582031 42.45800781 -38.41429687 42.23242188 -39 42 C-37.51181739 38.22550333 -35.4948093 36.65089366 -32.1875 34.375 C-27.21262856 30.87755424 -22.37963495 27.2501761 -17.58374023 23.51464844 C-14.70074681 21.27798596 -11.7864642 19.14723538 -8.75 17.125 C-5.83377952 14.8715569 -5.59754501 14.40031564 -5 11 C-2.525 12.98 -2.525 12.98 0 15 C0.103125 14.4225 0.20625 13.845 0.3125 13.25 C1.37763381 9.76410753 3.45451539 7.54548461 6 5 C4.68 4.34 3.36 3.68 2 3 C2 2.34 2 1.68 2 1 C1.34 0.67 0.68 0.34 0 0 Z " fill="#55BBE1" transform="translate(173,136)"/>
<path d="M0 0 C0.99 1.32 1.98 2.64 3 4 C-1.61713078 8.9872805 -6.95732973 12.92169821 -12.375 17 C-13.29539063 17.69867188 -14.21578125 18.39734375 -15.1640625 19.1171875 C-16.95436474 20.47270205 -18.74945405 21.82192265 -20.54980469 23.1640625 C-22.075005 24.30689892 -23.58851135 25.46573238 -25.08300781 26.6484375 C-26.9140625 28.0625 -26.9140625 28.0625 -30 30 C-32.19287109 29.62109375 -32.19287109 29.62109375 -34 29 C-32.51181739 25.22550333 -30.4948093 23.65089366 -27.1875 21.375 C-22.79018554 18.2835897 -18.49225747 15.11059839 -14.25 11.8125 C-10.7995018 9.13400337 -7.33836487 6.49273707 -3.75 4 C-0.9520503 2.28769823 -0.9520503 2.28769823 0 0 Z " fill="#59B1D1" transform="translate(168,149)"/>
<path d="M0 0 C0.33 0 0.66 0 1 0 C1.01981934 0.78648926 1.03963867 1.57297852 1.06005859 2.38330078 C1.15561233 5.96419042 1.26516936 9.54452098 1.375 13.125 C1.42140625 14.98125 1.42140625 14.98125 1.46875 16.875 C1.50742187 18.07382813 1.54609375 19.27265625 1.5859375 20.5078125 C1.6173584 21.60754395 1.6487793 22.70727539 1.68115234 23.84033203 C2.01436543 27.14235634 2.83646571 29.90132447 4 33 C4.33 33 4.66 33 5 33 C5.66 36.3 6.32 39.6 7 43 C7.66 43 8.32 43 9 43 C9.33 44.32 9.66 45.64 10 47 C9.01 47.495 9.01 47.495 8 48 C0.67720304 33.09372399 -4.71872819 16.71649653 0 0 Z " fill="#63B4D3" transform="translate(46,48)"/>
<path d="M0 0 C-0.28186548 4.65078045 -2.47603185 7.20117979 -5.33203125 10.64453125 C-7 12 -7 12 -11 12 C-12.50400397 13.75103957 -12.50400397 13.75103957 -13.625 16 C-14.8515625 18.25 -14.8515625 18.25 -16 20 C-16.66 20 -17.32 20 -18 20 C-16.55255498 15.35789822 -13.8576687 12.32053493 -10.5625 8.875 C-9.82676758 8.08802734 -9.82676758 8.08802734 -9.07617188 7.28515625 C-7.72748751 5.84728763 -6.36428599 4.42307394 -5 3 C-4.43152344 2.38382813 -3.86304687 1.76765625 -3.27734375 1.1328125 C-2 0 -2 0 0 0 Z " fill="#5CB9DC" transform="translate(71,12)"/>
<path d="M0 0 C1.32 0.33 2.64 0.66 4 1 C-0.18691589 7.87850467 -0.18691589 7.87850467 -4 9 C-7.25 9.125 -7.25 9.125 -10 9 C-10.33 8.34 -10.66 7.68 -11 7 C-9.68 7 -8.36 7 -7 7 C-7 6.34 -7 5.68 -7 5 C-6.030625 4.54625 -5.06125 4.0925 -4.0625 3.625 C-0.92920418 2.34213779 -0.92920418 2.34213779 0 0 Z " fill="#55B0D0" transform="translate(187,147)"/>
<path d="M0 0 C0.33 0 0.66 0 1 0 C1.61721742 9.92119852 -0.05396291 19.85548796 -4 29 C-4.33 29 -4.66 29 -5 29 C-5.042721 27.33388095 -5.04063832 25.66617115 -5 24 C-4.67 23.67 -4.34 23.34 -4 23 C-3.83698495 21.58720294 -3.7211203 20.16891872 -3.625 18.75 C-3.05924484 12.35047443 -1.55069614 6.22229017 0 0 Z " fill="#63B5D3" transform="translate(170,58)"/>
<path d="M0 0 C0.92425781 0.42410156 1.84851563 0.84820312 2.80078125 1.28515625 C6.26111611 1.48870536 8.50482846 1.38380718 11.80078125 0.28515625 C11.47078125 1.27515625 11.14078125 2.26515625 10.80078125 3.28515625 C9.38422332 3.31239775 7.9675108 3.33166092 6.55078125 3.34765625 C5.36742187 3.36505859 5.36742187 3.36505859 4.16015625 3.3828125 C1.80078125 3.28515625 1.80078125 3.28515625 -0.3359375 2.703125 C-2.37683786 2.04161303 -2.37683786 2.04161303 -4.76171875 3.53515625 C-7.16868843 5.16349522 -7.16868843 5.16349522 -8.88671875 6.97265625 C-9.53640625 7.62234375 -9.53640625 7.62234375 -10.19921875 8.28515625 C-10.85921875 8.28515625 -11.51921875 8.28515625 -12.19921875 8.28515625 C-12.52921875 8.94515625 -12.85921875 9.60515625 -13.19921875 10.28515625 C-13.85921875 9.62515625 -14.51921875 8.96515625 -15.19921875 8.28515625 C-13.34199368 6.71643216 -11.46860517 5.18283091 -9.57421875 3.66015625 C-8.79111328 2.99113281 -8.79111328 2.99113281 -7.9921875 2.30859375 C-4.98300443 -0.06903238 -3.82486485 -0.85464013 0 0 Z " fill="#02151F" transform="translate(174.19921875,153.71484375)"/>
<path d="M0 0 C0.70705078 0.03544922 1.41410156 0.07089844 2.14257812 0.10742188 C5.9161215 0.3448185 8.6426031 0.876012 11.9375 2.6875 C8.70835248 2.71667228 5.47923917 2.73435663 2.25 2.75 C0.88198242 2.76256836 0.88198242 2.76256836 -0.51367188 2.77539062 C-1.39990234 2.77861328 -2.28613281 2.78183594 -3.19921875 2.78515625 C-4.01092529 2.79039307 -4.82263184 2.79562988 -5.65893555 2.80102539 C-8.21114673 2.6804791 -10.57276137 2.247449 -13.0625 1.6875 C-13.0625 1.3575 -13.0625 1.0275 -13.0625 0.6875 C-8.65925202 -0.45855084 -4.49439827 -0.30072509 0 0 Z " fill="#68B5D1" transform="translate(106.0625,122.3125)"/>
<path d="M0 0 C0.33 0 0.66 0 1 0 C1.28788143 6.04551009 -0.15072098 10.70848182 -3 16 C-3.66 16 -4.32 16 -5 16 C-4.49228528 10.03435204 -2.61407872 5.36190101 0 0 Z " fill="#5EB6D6" transform="translate(52,32)"/>
<path d="M0 0 C6.17398461 3.15267299 10.94783982 7.28006804 16 12 C15.67 12.66 15.34 13.32 15 14 C14.01 13.34 13.02 12.68 12 12 C12 11.34 12 10.68 12 10 C11.01 9.67 10.02 9.34 9 9 C9 8.34 9 7.68 9 7 C6.03 6.01 3.06 5.02 0 4 C0 2.68 0 1.36 0 0 Z " fill="#5EB3CE" transform="translate(139,8)"/>
<path d="M0 0 C0.66 0 1.32 0 2 0 C2.84600276 2.0364495 3.6762825 4.07943487 4.5 6.125 C4.9640625 7.26195312 5.428125 8.39890625 5.90625 9.5703125 C6.98315041 12.9471645 7.21360807 15.48614728 7 19 C4.2876094 16.2876094 3.9825343 13.68450364 3 10 C1.75829084 5.13315349 1.75829084 5.13315349 -2 2 C-1.34 1.34 -0.68 0.68 0 0 Z " fill="#60AEC8" transform="translate(208,166)"/>
<path d="M0 0 C2.97 0.495 2.97 0.495 6 1 C6 1.66 6 2.32 6 3 C6.88751953 3.29003906 6.88751953 3.29003906 7.79296875 3.5859375 C11.9146645 4.94414719 15.9950524 6.32050585 20 8 C17.30662077 9.03932752 16.15900123 9.05402724 13.37890625 8.109375 C12.44949219 7.66078125 11.52007812 7.2121875 10.5625 6.75 C9.17224609 6.09257813 9.17224609 6.09257813 7.75390625 5.421875 C5.09122273 4.04709939 2.51725102 2.62639086 0 1 C0 0.67 0 0.34 0 0 Z " fill="#60B5D6" transform="translate(73,114)"/>
<path d="M0 0 C0 4.0234866 -1.76191846 5.70870362 -4 9 C-4.69313908 10.65583225 -5.36474424 12.32110979 -6 14 C-6.99 15.485 -6.99 15.485 -8 17 C-8.66 17 -9.32 17 -10 17 C-9.34815769 13.23181569 -7.62729717 10.56019646 -5.5625 7.375 C-4.94503906 6.41335937 -4.32757812 5.45171875 -3.69140625 4.4609375 C-2 2 -2 2 0 0 Z " fill="#5FB6D7" transform="translate(15,152)"/>
<path d="M0 0 C-1.875 2.0625 -1.875 2.0625 -5 4 C-8.40453547 4.0571754 -11.65331142 3.59785505 -15 3 C-9.97583178 -0.34944548 -5.90048743 -0.09834146 0 0 Z " fill="#5BBAD9" transform="translate(55,134)"/>
<path d="M0 0 C3.93239315 3.93239315 4.90780214 10.21750806 5.1875 15.625 C5.125625 16.40875 5.06375 17.1925 5 18 C1.7085332 13.0627998 -0.262261 6.90191198 -1 1 C-0.67 0.67 -0.34 0.34 0 0 Z " fill="#60B4D2" transform="translate(165,38)"/>
<path d="M0 0 C0.66 0.33 1.32 0.66 2 1 C-0.625 4.875 -0.625 4.875 -4 6 C-4.33 8.97 -4.66 11.94 -5 15 C-7.37358694 11.43961959 -7.73959381 10.19103161 -7 6 C-4.89198529 3.6817095 -2.5389875 1.82651652 0 0 Z " fill="#041726" transform="translate(136,158)"/>
<path d="M0 0 C-3.11016455 3.28788824 -6.01618925 5.83735988 -10 8 C-9.64505955 5.37344067 -9.27538036 3.42031739 -7.8125 1.1875 C-5.20638339 -0.51995571 -3.0400645 -0.20267097 0 0 Z " fill="#59B5D6" transform="translate(139,156)"/>
<path d="M0 0 C0.90492188 0.30357422 0.90492188 0.30357422 1.828125 0.61328125 C0.37447231 1.78577478 -1.08494919 2.95111941 -2.546875 4.11328125 C-3.35898438 4.76296875 -4.17109375 5.41265625 -5.0078125 6.08203125 C-7.171875 7.61328125 -7.171875 7.61328125 -9.171875 7.61328125 C-9.171875 6.95328125 -9.171875 6.29328125 -9.171875 5.61328125 C-8.511875 5.61328125 -7.851875 5.61328125 -7.171875 5.61328125 C-7.171875 4.95328125 -7.171875 4.29328125 -7.171875 3.61328125 C-2.92048515 -0.52001444 -2.92048515 -0.52001444 0 0 Z " fill="#051824" transform="translate(157.171875,157.38671875)"/>
<path d="M0 0 C4.62 1.32 9.24 2.64 14 4 C10.05548603 4.98612849 8.56813566 4.91655666 4.75 4.0625 C3.85796875 3.86785156 2.9659375 3.67320313 2.046875 3.47265625 C1.37140625 3.31667969 0.6959375 3.16070312 0 3 C0 2.01 0 1.02 0 0 Z " fill="#5FB4D1" transform="translate(119,0)"/>
<path d="M0 0 C1.34313399 0.64669414 2.67391178 1.31903578 4 2 C4.86625 2.433125 5.7325 2.86625 6.625 3.3125 C9.4059336 5.28842651 10.04254782 6.77947903 11 10 C7.81326038 8.59698853 5.67778594 6.92234929 3.25 4.4375 C2.63640625 3.81746094 2.0228125 3.19742188 1.390625 2.55859375 C0 1 0 1 0 0 Z " fill="#66B0CD" transform="translate(59,102)"/>
<path d="M0 0 C0.556875 0.226875 1.11375 0.45375 1.6875 0.6875 C-0.3125 3.6875 -0.3125 3.6875 -3.4375 4.375 C-4.38625 4.478125 -5.335 4.58125 -6.3125 4.6875 C-6.6425 4.0275 -6.9725 3.3675 -7.3125 2.6875 C-2.88173077 -0.38942308 -2.88173077 -0.38942308 0 0 Z " fill="#58B7D8" transform="translate(191.3125,183.3125)"/>
<path d="M0 0 C0.66 0.33 1.32 0.66 2 1 C1.00233891 3.49415272 0.31383315 4.78740335 -1.9375 6.3125 C-4 7 -4 7 -7 6 C-4.69 4.02 -2.38 2.04 0 0 Z " fill="#59B2CF" transform="translate(200,174)"/>
<path d="M0 0 C3.39417765 3.12621626 5.6062718 5.56541027 7 10 C4.625 8.9375 4.625 8.9375 2 7 C0.6875 3.3125 0.6875 3.3125 0 0 Z " fill="#5BB2CE" transform="translate(156,23)"/>
<path d="M0 0 C4.21912747 0.4794463 6.79663178 1.16625119 10 4 C8.02 4.33 6.04 4.66 4 5 C3.71125 4.360625 3.4225 3.72125 3.125 3.0625 C2.17176549 0.84793921 2.17176549 0.84793921 0 0 Z " fill="#5BB9D6" transform="translate(173,136)"/>
<path d="M0 0 C0.33 0.66 0.66 1.32 1 2 C0.07421875 3.9453125 0.07421875 3.9453125 -1.3125 6.125 C-1.76238281 6.84945313 -2.21226563 7.57390625 -2.67578125 8.3203125 C-3.11277344 8.87460937 -3.54976562 9.42890625 -4 10 C-4.66 10 -5.32 10 -6 10 C-4.6302836 6.00499382 -2.74277578 3.19990508 0 0 Z " fill="#61B4D1" transform="translate(59,22)"/>
<path d="" fill="#000000" transform="translate(0,0)"/>
<path d="" fill="#000000" transform="translate(0,0)"/>
<path d="" fill="#000000" transform="translate(0,0)"/>
<path d="" fill="#000000" transform="translate(0,0)"/>
<path d="" fill="#000000" transform="translate(0,0)"/>
</svg>
