<svg width="37" height="43" viewBox="0 0 37 43" fill="none" xmlns="http://www.w3.org/2000/svg">
<circle cx="18.7818" cy="18.3795" r="18.2184" fill="#F6F6F6"/>
<path d="M8.38637 37.2237C6.92534 37.9572 5.24925 36.7231 5.51583 35.1102L6.00997 32.1204C6.25344 30.6473 7.96669 29.9507 9.16902 30.8359L11.3832 32.4662C12.5855 33.3514 12.429 35.1942 11.0947 35.8641L8.38637 37.2237Z" fill="#F6F6F6"/>
<circle cx="18.7816" cy="18.3793" r="16.3636" fill="#00B934"/>
<path d="M10.4567 34.4713C8.99565 35.2047 7.31957 33.9706 7.58614 32.3577L7.9106 30.3946C8.15407 28.9215 9.86732 28.2249 11.0697 29.1101L12.5235 30.1806C13.7258 31.0658 13.5693 32.9086 12.235 33.5785L10.4567 34.4713Z" fill="#00B934"/>
<path d="M17.6114 19.9707C15.5943 18.5855 13.6173 16.9499 14.3091 16.1755C15.3015 15.068 16.2037 14.3604 13.7917 12.3115C11.3796 10.2626 10.2943 12.088 9.3353 13.1605C8.22876 14.3979 10.1421 18.4938 15.5822 22.2407C21.0224 25.9875 26.0121 26.6415 27.1202 25.4039C28.0765 24.3291 29.8365 22.9733 26.999 21.4049C24.1615 19.8364 23.5915 20.775 22.602 21.8816C21.9056 22.6558 19.6255 21.3601 17.6114 19.9707Z" fill="#F6F6F6"/>
</svg>
